<?xml version="1.0" encoding="utf-8"?><svg viewBox="0 0 153 113" xmlns="http://www.w3.org/2000/svg" xmlns:xlink="http://www.w3.org/1999/xlink"><style>:root>svg{display:none}:root>svg:target{display:block}</style><svg viewBox="0 0 153 113" id="logo" xmlns="http://www.w3.org/2000/svg"><g clip-path="url(#aclip0_0_709)"><path d="M62.956 112.25a6.002 6.002 0 01-1.562 0h1.562zM62.89 94.36c-.115.116-.223.24-.324.369.11-.135.22-.254.33-.37h-.005z"/><path d="M62.896 94.36c-.11.115-.22.234-.33.369.1-.13.209-.253.325-.37h.005z" fill="#fff"/><path d="M20.844 95.747a.345.345 0 010 .07s.005-.03 0-.07zM21.548 95.927l-.693-.11a.354.354 0 000-.07.958.958 0 000-.12c.21.142.445.244.693.3zM62.896 94.36c-.11.115-.22.234-.33.369.1-.13.209-.253.325-.37h.005z"/><path d="M152.721 54.08l-25.274-42.206v-.025a1.936 1.936 0 00-.454-.519l-.095-.07a2.348 2.348 0 00-.344-.195l-.12-.05-.214-.064a1.084 1.084 0 00-.175-.035.841.841 0 00-.11 0 1.993 1.993 0 00-.499 0h-.119l-22.775 3.826a1.856 1.856 0 00-.299.08C78.276 7.094 48.557.534 46.367.055h-.045A1.995 1.995 0 0045.898 0a1.791 1.791 0 00-.234 0h-.235a.498.498 0 00-.125.03L21.547 6.027l-.19.05-19.86 4.958A1.996 1.996 0 000 12.971v77.827a1.996 1.996 0 001.681 1.996L9.48 94.01c-.03.4-.045.803-.045 1.212 0 6.256 3.428 10.911 7.688 10.781l4.814-.04c.27.002.54-.017.809-.054 3.492-.499 6.41-4.046 7.483-8.606l15.266 2.43c.133.027.268.042.404.044h.215c.349 0 1.242-.08 2.594-.18 0 .39-.04.789-.04 1.188 0 6.984 3.991 12.118 8.815 11.534l3.912-.04h1.561c4.75-.648 8.516-6.625 8.516-13.355 0-.469 0-.933-.055-1.382l1.347-.155c0 .385-.04.774-.04 1.163 0 5.767 2.924 10.083 6.561 9.978h3.991a4.37 4.37 0 00.758-.04c3.767-.499 6.76-5.628 6.76-11.405.002-.667-.04-1.334-.124-1.995 1.262-.19 2.529-.385 3.791-.584l30.892 4.78c.102.01.206.01.309 0h.06a1.997 1.997 0 001.711-.968l25.289-42.167a2.018 2.018 0 000-2.07zM19.956 91.63l-9.719-1.546-6.246-.993V14.528l15.965-3.992v81.095zm7.299 5.598c-.04.12-.08.24-.125.36-.085.224-.18.443-.274.648a5.273 5.273 0 01-.36.643c-.055.09-.114.175-.174.26-.06.084-.125.174-.19.254-.065.08-.16.19-.24.274-.08.085-.114.115-.169.165-.136.13-.285.245-.444.344-.075.05-.154.095-.235.135a1.278 1.278 0 01-.204.095.683.683 0 01-.125.045l-.15.045a2.348 2.348 0 01-.249.05h-.2a1.775 1.775 0 01-.424-.035 1.838 1.838 0 01-.459-.14.89.89 0 01-.154-.075 1.973 1.973 0 01-.314-.195 2.888 2.888 0 01-.255-.209 4.916 4.916 0 01-1.207-1.996 2.603 2.603 0 01-.065-.18 6.54 6.54 0 01-.08-.264c-.025-.09-.04-.14-.055-.21-.015-.069-.07-.278-.1-.423-.03-.145-.034-.19-.05-.285-.014-.094-.054-.329-.074-.498 0-.085 0-.17-.025-.255a.355.355 0 000-.07.956.956 0 000-.12c.217.144.459.246.713.3l.2.03 5.622.898c-.055.16-.095.284-.134.409zm16.648-1.786l-13.226-2.105-2.993-.5-3.737-.543V9.539l19.956-4.99v90.894zm79.822-80.212v7.878a125.606 125.606 0 00-13.56-5.598l13.56-2.28zm-59.084 91.267h-.219c-1.97.055-3.547-2.609-3.547-6.126v-.743-.265c0-.28.055-.549.1-.813 2.23-.21 4.634-.444 7.174-.713.025.13.04.269.055.404.015.134 0 .204.03.309a1.04 1.04 0 010 .125v.833c.114 3.607-1.552 6.715-3.593 6.989zm20.71-2.993a.728.728 0 01-.175 0c-1.557.04-2.804-2.26-2.804-5.268 0-.365 0-.724.055-1.073 0-.155.035-.31.06-.459a.196.196 0 010-.075c.008-.082.021-.164.04-.244.01-.08.025-.16.045-.24 1.806-.236 3.625-.484 5.457-.743a.252.252 0 010 .055c.039.148.069.298.09.449.027.14.047.284.06.434 0 .07 0 .135.025.204.025.07 0 .27.035.41v.598c.035 3.093-1.267 5.752-2.889 5.972v-.02zm38.374-8.546l-17.251-2.664a131.817 131.817 0 0017.251-4.58v7.244zm3.991-4.894V84.81c0-.129-.013-.257-.04-.384a1.124 1.124 0 00-.044-.19 2.016 2.016 0 00-.13-.309.879.879 0 00-.075-.134.7.7 0 00-.085-.125 1.697 1.697 0 00-.194-.234l-.055-.055a.28.28 0 00-.055-.05.612.612 0 00-.11-.09.869.869 0 00-.115-.08 2.348 2.348 0 00-.249-.135l-.135-.06a1.991 1.991 0 00-.244-.074h-.1a1.003 1.003 0 00-.175 0h-.184a1.782 1.782 0 00-.434.05l-.16.04-.15.054c-8.421 3.493-21.916 6.187-35.396 8.182a495.12 495.12 0 01-15.964 2.08l-2.994.34-4.24.444-3.458.35c-.11.114-.22.234-.329.368.1-.13.209-.253.324-.369-5.697.554-10.411.938-13.445 1.167l-1.551.115V4.49c11.474 2.6 60.176 14.009 76.709 23.608.065.04.13.08.2.114.067.036.137.066.209.09a.37.37 0 00.095.035l.1.03.145.035h.144c.075.005.15.005.225 0 .177 0 .353-.024.524-.07l.159-.055c.135-.046.264-.108.384-.184l.115-.08c.068-.051.133-.106.195-.165l.035-.03c.055-.056.107-.116.154-.18a1.869 1.869 0 00.359-.733c.017-.054.031-.109.04-.165v-.1c.005-.074.005-.149 0-.224V20.09l20.954 35.017-20.959 34.958z"/><path d="M66.318 27.439c.105.075.195.14.285.195a4.62 4.62 0 012.13 3.721c.23 2.834-.594 4.88-3.068 5.383-.58.13-1.174.175-1.767.135-1.187-.12-2.384-.324-3.587-.539-.538-.095-.708-.364-.708-.998v-15.91c0-.498.16-.832.589-.807 1.611.084 3.213.124 4.784.838a4.186 4.186 0 012.544 3.367c.275 1.786.205 3.452-1.102 4.49a.81.81 0 00-.1.125zm-4.744 6.795c1.197.254 2.35.534 3.492.344 1.142-.19 1.681-.913 1.786-2.15.105-1.467-.364-2.574-1.422-3.258-1.222-.793-2.494-.803-3.846-.998l-.01 6.062zm0-8.372c1.042.135 2.035.415 2.993.12.793-.25 1.192-1.033 1.143-2.195-.05-1.162-.415-1.82-1.298-2.25a6.596 6.596 0 00-2.838-.499v4.824zM109.108 37.726l.499.824c.464.793.943 1.576 1.392 2.38.284.498.179.827-.26.842a1.442 1.442 0 01-1.556-.997c-.379-.809-.898-1.497-1.322-2.295-.25-.46-.499-.704-.963-.57v2.286c.05 1.227-.334 1.172-1.053.998-.254-.06-.394-.33-.394-.689V29.604c0-.878.055-1.022.689-.997a8.046 8.046 0 012.155.374c2.414.863 2.963 3.701 2.649 5.867-.22 1.402-.594 1.985-1.836 2.878zm-2.205-7.114v5.368c.913.145 1.791.285 2.36-.818a4.4 4.4 0 00-.045-3.283 2.274 2.274 0 00-2.315-1.267zM98.956 29.584v4.91l.718.09c.998.124 1.996.249 2.994.383.498.06.608.285.603.998-.005.714-.13.863-.603.808-1.093-.124-2.196-.264-3.308-.399l-.42-.05v2.28l1.448.165 2.275.26c.464.06.603.289.608.957.005.669-.135.953-.588.908-1.552-.16-3.114-.334-4.69-.499-.46-.05-.609-.304-.609-.997V29.05v-.804c0-.548.17-.728.579-.673l4.724.688c.44.065.574.31.579.958 0 .739-.12.943-.588.883-1.083-.14-2.176-.3-3.273-.454l-.45-.065zM73.132 25.942v5.288l.739.095c1.207.155 2.404.3 3.597.46.544.07.663.294.658 1.122 0 .723-.134.893-.668.833l-4.316-.499v2.445l.44.05 3.81.434c.585.07.734.284.734 1.037 0 .754-.14 1.028-.713.968a747.24 747.24 0 01-5.318-.584c-.544-.06-.734-.314-.734-.997V24.56c0-.648.18-.833.714-.753 1.806.254 3.592.499 5.363.778.539.08.683.3.688.998 0 .853-.114 1.058-.673.998-1.252-.16-2.495-.344-3.772-.524l-.549-.115zM91.112 28.482c-.793-.11-1.546-.21-2.3-.325a.998.998 0 01-.533-.194c-.38-.36-.245-.864-.22-1.303a.434.434 0 01.539-.454c2.21.325 4.39.634 6.545.958.4.06.534.325.54.958 0 .714-.11.953-.53.913-.648-.06-1.297-.17-1.95-.26l-.5-.069v10.013c0 .998-.588 1.397-1.286.883a1.037 1.037 0 01-.3-.903V28.482h-.005zM82.342 27.254c-.853-.12-1.656-.23-2.464-.35-.624-.094-.769-.303-.769-1.067 0-.843.13-.997.804-.898 2.18.32 4.335.624 6.46.958.23.035.604.215.649.4.09.425.09.865 0 1.291-.03.155-.37.245-.569.225-.788-.075-1.576-.205-2.445-.33v10.268c0 .998-.633 1.427-1.356.893a1.047 1.047 0 01-.31-.933V27.234v.02zM84.428 51.71l.499.035 3.587.264c.524.045.678.28.678.998 0 .719-.144.933-.678.898-1.187-.075-2.38-.16-3.582-.244l-.464-.03V56l1.532.094c.853.05 1.7.1 2.544.16.499.035.644.284.648.933 0 .743-.15.998-.623.998a490.53 490.53 0 01-5.124-.29c-.449-.03-.638-.294-.638-.878V45.314c0-.588.18-.798.643-.758l5.084.499c.499.05.653.3.658.998.005.698-.14.968-.658.928-1.197-.09-2.41-.19-3.622-.32-.36-.04-.499.055-.499.554.03 1.452.015 2.924.015 4.495zM75.832 51.6l2.848.205 1.287.094c.28 0 .624 0 .699.425.075.418.065.847-.03 1.262-.04.164-.384.279-.594.27-1.227-.05-2.47-.15-3.716-.235l-.5-.035c0 .913-.03 1.77 0 2.634.056 1.297-.398 1.337-1.301 1.132-.155-.035-.315-.334-.41-.553a1.684 1.684 0 01-.034-.58V44.816c0-.998.12-1.112.877-1.042 1.697.16 3.373.299 5.034.498.235.025.614.205.659.39.1.428.1.873 0 1.302-.04.17-.41.264-.634.25-1.217-.076-2.444-.2-3.676-.31l-.5-.04-.01 5.737zM61.863 54.603c1.426.09 2.778.155 4.115.275.265 0 .684.2.749.414.1.431.1.88 0 1.312-.03.16-.35.32-.544.314-1.816-.08-3.652-.184-5.488-.304-.499-.03-.663-.324-.663-.998V49.29v-5.827c0-.923.14-1.068.918-.998.778.07.938.265.938 1.148v10.975l-.025.015zM70.578 50.233v5.937c0 .813-.18.998-.883.963-.704-.035-.893-.245-.893-1.053V44.207c0-.843.15-.998.883-.923.733.075.888.26.893 1.067v5.882zM68.413 67.774c-.998 1.113-1.9 2.13-2.814 3.153-.543.609-.688.604-1.232 0l-2.859-3.287c0 .304-.025.499-.025.683v8.237c0 .344-.15.913-.324.998a1.995 1.995 0 01-1.272-.035c-.15-.05-.26-.594-.264-.913V65.5c-.017-.481-.009-.963.025-1.442.03-.265.144-.644.304-.714.16-.07.469.115.634.3.937 1.037 1.84 2.105 2.753 3.158l1.672 1.92 2.594-2.888c.499-.574.998-1.178 1.551-1.712.24-.18.506-.322.789-.424.127.333.216.68.264 1.033.035 1.153 0 2.31 0 3.462v8.432c0 .998-.788 1.551-1.497.972a1.366 1.366 0 01-.289-.882v-8.147l-.01-.794zM78.575 63.968c3.058.12 5.488 3.277 5.463 7.104-.025 3.826-2.44 6.875-5.488 6.865-3.048-.01-5.612-3.218-5.617-7.095-.005-3.876 2.539-6.984 5.642-6.874zm-3.856 6.874c0 2.77 1.73 5.044 3.846 5.06 2.115.014 3.792-2.181 3.787-4.89-.005-2.709-1.667-4.939-3.752-5.029-2.085-.09-3.876 2.09-3.881 4.86zM102.323 68.522v8.212c0 .365.025.824-.289.918a1.468 1.468 0 01-.998-.06c-.125-.05-.214-.523-.219-.808v-7.149-3.727a4.544 4.544 0 01.039-.638c.07-.414.265-.53.549-.31.173.143.332.302.474.474l5.139 5.797c.09.105.184.2.334.37v-.574-4.82c0-.339 0-.753.269-.797.34-.044.686.008.998.15.09.034.14.498.145.737v10.846c0 .415-.18.609-.464.644a2.003 2.003 0 01-.424 0c-.369 0-.529-.25-.534-.768v-2.535a.94.94 0 00-.175-.528 706.72 706.72 0 00-4.674-5.244 1.807 1.807 0 00-.17-.19zM118.237 76.26c-1.631 2.924-5.762 2.235-6.929-2.414-1.088-4.34 1.072-8.481 4.305-8.422a4.959 4.959 0 012.809.998 1.038 1.038 0 01.424.998c0 .264 0 .534-.025.798-.03.36-.175.5-.419.334-.15-.1-.289-.234-.434-.349-1.202-.953-2.445-1.387-3.762-.549-1.157.734-1.846 2.495-1.731 4.376.115 1.88.953 3.442 2.18 3.951 1.457.604 2.854-.579 3.288-2.769 0-.06 0-.12.035-.18.165-.897.524-1.187 1.147-.873a.768.768 0 01.285.55v4.46c0 .428-.185.593-.554.598-.369.005-.594-.165-.624-.614.005-.279.005-.588.005-.893zM89.96 74.17l1.836-5.209c.42-1.187.833-2.374 1.252-3.557a.944.944 0 011.437-.499c.28.26.2.594.09.903-.364 1.043-.743 2.086-1.118 3.128-.967 2.684-1.93 5.383-2.928 8.087-.125.34-.344.799-.574.859-.354.084-.454-.5-.583-.839l-4.101-11.41c-.31-.877-.15-1.162.578-1.191.534-.025.819.254 1.033.893.948 2.788 1.92 5.547 2.879 8.296l.2.539zM96.286 71.341V65.8c0-.789.124-.918.803-.888.584 0 .723.204.723.948v10.975c0 .748-.16.933-.763.933-.604 0-.763-.2-.763-.938v-5.488zM35.446 67.784H31.58a1.995 1.995 0 110-3.991h3.866a1.995 1.995 0 110 3.991zM13.3 67.784H9.436a1.995 1.995 0 110-3.991H13.3a1.995 1.995 0 110 3.991zM98.945 43.663l-5.333 3.817a.36.36 0 00-.15.289v8.676a.36.36 0 00.135.28l5.358 4.325a.354.354 0 00.44 0l5.148-3.992a.38.38 0 00.139-.284v-8.346a.372.372 0 00-.032-.151.372.372 0 00-.092-.124l-5.174-4.49a.354.354 0 00-.439 0zm4.136 12.213l-3.687 2.819a.359.359 0 01-.439 0l-3.806-3.103a.355.355 0 01-.13-.28v-6.24a.36.36 0 01.145-.29l3.781-2.734a.355.355 0 01.44 0l3.307 2.843a.353.353 0 01.133.28.36.36 0 01-.133.28l-3.363 2.544a.349.349 0 00-.144.284v1.497a.36.36 0 00.573.284l2.904-2.22a.358.358 0 01.574.284v3.448a.376.376 0 01-.155.304z"/></g><defs><clipPath id="aclip0_0_709"><path fill="#fff" d="M0 0h153v112.355H0z"/></clipPath></defs></svg></svg>