<svg width="24" height="24" fill="none" xmlns="http://www.w3.org/2000/svg"><path d="M4.847 18.166l-.747.062.747-.062zm14.306 0l-.748-.062.748.062zM14 12.75a.75.75 0 000-1.5v1.5zm-4-1.5a.75.75 0 000 1.5v-1.5zM3.253 8.062L4.1 18.228l1.495-.124-.848-10.166-1.494.124zM6.84 20.75h10.32v-1.5H6.84v1.5zm13.06-2.522l.847-10.166-1.494-.124-.848 10.166 1.495.124zM2.75 7V5h-1.5v2h1.5zM3 4.75h18v-1.5H3v1.5zM21.25 5v2h1.5V5h-1.5zM21 7.25h-1v1.5h1v-1.5zm-1 0H4v1.5h16v-1.5zm-16 0H3v1.5h1v-1.5zM21.25 7a.25.25 0 01-.25.25v1.5A1.75 1.75 0 0022.75 7h-1.5zM2.75 5A.25.25 0 013 4.75v-1.5A1.75 1.75 0 001.25 5h1.5zm-1.5 2c0 .966.784 1.75 1.75 1.75v-1.5A.25.25 0 012.75 7h-1.5zm15.91 13.75a2.75 2.75 0 002.74-2.522l-1.495-.124a1.25 1.25 0 01-1.245 1.146v1.5zm3.84-16a.25.25 0 01.25.25h1.5A1.75 1.75 0 0021 3.25v1.5zM4.1 18.228a2.75 2.75 0 002.74 2.522v-1.5a1.25 1.25 0 01-1.245-1.146l-1.495.124zM14 11.25h-4v1.5h4v-1.5z" fill="#7464DC"/></svg>