<?xml version="1.0" encoding="utf-8"?><svg viewBox="0 0 455 597" xmlns="http://www.w3.org/2000/svg" xmlns:xlink="http://www.w3.org/1999/xlink"><style>:root>svg{display:none}:root>svg:target{display:block}</style><svg fill="none" viewBox="0 0 51 51" id="advantages-clock" xmlns="http://www.w3.org/2000/svg"><path d="M44.47 15.291c.675.612 1.335 1.683 2.05.968 2.853-2.946 4.024-3.547 3.245-4.326l-2.959-2.958a.765.765 0 00-1.081 0l-3.245 3.244a.764.764 0 000 1.082l.914.913-1.909 1.905a18.972 18.972 0 00-9.129-4.146v-4.09c1.933-.173 3.824.495 3.824-.765V1.765A.765.765 0 0035.416 1H23.179a.765.765 0 00-.765.765v5.353c0 .423.343.765.765.765h3.06v4.09c-9.2 1.485-16.061 9.461-16.061 18.854 0 10.542 8.577 19.12 19.12 19.12 17.072 0 25.593-20.841 13.328-32.806l1.845-1.85zm1.796-4.694l1.877 1.877-2.164 2.163-1.877-1.877 2.164-2.163zM23.944 2.53H34.65v3.823H23.943V2.53zm6.883 5.353v3.87a16.556 16.556 0 00-3.06 0v-3.87h3.06zm-1.53 40.534c-9.699 0-17.59-7.89-17.59-17.59 0-8.852 6.617-16.354 15.396-17.452.693-.092 1.43-.138 2.194-.138 9.75 0 17.59 7.934 17.59 17.59 0 9.7-7.89 17.59-17.59 17.59zM6.354 17.058h6.118a.765.765 0 100-1.53H6.354a.765.765 0 100 1.53zM12.472 44.59H6.354a.765.765 0 100 1.53h6.118a.765.765 0 100-1.53zM3.294 23.942h4.589a.765.765 0 100-1.53H3.294a.765.765 0 100 1.53zM8.648 38.472a.765.765 0 00-.765-.764H3.294a.765.765 0 100 1.53h4.589a.765.765 0 00.765-.766zM7.118 30.824a.765.765 0 00-.765-.764H1.765a.765.765 0 100 1.53h4.588a.765.765 0 00.765-.766z" fill="#7464DC" stroke="#7464DC" stroke-width=".386"/><path d="M28.532 30.51l-5.894 5.894 1.081 1.082 6.342-6.343V20.12h-1.53v10.39z" fill="#7464DC" stroke="#7464DC" stroke-width=".386"/></svg><svg fill="none" viewBox="0 0 37 41" id="advantages-lock" xmlns="http://www.w3.org/2000/svg"><path d="M18.275 0C11.742 0 6.45 5.108 6.45 11.413v4.15H3.225C1.457 15.563 0 16.97 0 18.677v18.676c0 1.707 1.457 3.113 3.225 3.113h30.1c1.767 0 3.224-1.406 3.224-3.113V18.676c0-1.706-1.457-3.112-3.225-3.112H30.1v-4.15C30.1 5.107 24.807 0 18.275 0zm0 2.075c5.378 0 9.674 4.147 9.674 9.338v4.15H8.6v-4.15c0-5.191 4.297-9.338 9.676-9.338zM3.225 17.64h30.1c.613 0 1.074.444 1.074 1.037v18.676c0 .593-.46 1.038-1.075 1.038h-30.1c-.613 0-1.074-.445-1.074-1.038V18.676c0-.593.46-1.037 1.075-1.037zm15.05 4.15c-2.362 0-4.3 1.87-4.3 4.15 0 1.018.44 1.903 1.075 2.627v2.561c0 1.707 1.457 3.113 3.225 3.113s3.225-1.407 3.225-3.113v-2.561c.634-.724 1.075-1.61 1.075-2.627 0-2.28-1.938-4.15-4.3-4.15zm0 2.075c1.2 0 2.15.917 2.15 2.075 0 .62-.281 1.159-.723 1.54a1.035 1.035 0 00-.353.779v2.869c0 .593-.46 1.038-1.074 1.038-.615 0-1.075-.445-1.075-1.038v-2.87a1.027 1.027 0 00-.353-.778 2.018 2.018 0 01-.722-1.54c0-1.158.95-2.075 2.15-2.075z" fill="#7464DC"/></svg><svg fill="none" viewBox="0 0 39 50" id="advantages-shield" xmlns="http://www.w3.org/2000/svg"><path d="M37.8 9.211C19.274.071 19.92-.055 19.253.281 1.404 9.479.99 8.975 1.092 9.972l1.83 17.489c.95 9.095 7.062 17.166 16.347 21.591 1.15.547 15.585-6.914 17.126-21.642 1.638-17.506 2.31-17.745 1.404-18.199zm-2.945 18.042c-.888 8.492-6.577 16.042-15.248 20.26-8.61-4.225-14.262-11.756-15.146-20.21L2.687 10.336l16.92-8.516 17.018 8.518-1.77 16.915z" fill="#7464DC" stroke="#7464DC" stroke-width=".236"/><path d="M6.94 12.564a.762.762 0 00-.389.735l1.268 13.54C8.804 37.35 18.5 44.47 20.004 43.675c6.53-3.451 10.826-9.76 11.492-16.877 1.113-13.76 1.685-13.783.874-14.236L20.001 5.648a.78.78 0 00-.763.002L6.94 12.564zm12.681-5.37l11.552 6.456-1.218 13.008c-.606 6.475-4.457 12.233-10.333 15.481-5.832-3.252-9.658-8.995-10.262-15.442L8.138 13.65l11.483-6.456z" fill="#7464DC" stroke="#7464DC" stroke-width=".236"/></svg><svg fill="none" viewBox="0 0 17 12" id="arrow-back" xmlns="http://www.w3.org/2000/svg"><path d="M2 6h14.142M2 6l5-5M2 6l5 5" stroke="#fff" stroke-width="1.5" stroke-linecap="round"/></svg><svg viewBox="0 0 12 7" id="arrow-down" xmlns="http://www.w3.org/2000/svg"><path fill-rule="evenodd" clip-rule="evenodd" d="M10.59 0L6 4.327 1.41 0 0 1.332 6 7l6-5.668L10.59 0z"/></svg><svg viewBox="0 0 24 17" id="arrow-down-up" xmlns="http://www.w3.org/2000/svg"><path d="M17.998 3.415v11.589a1 1 0 102.001 0V3.415l2.293 2.293a1 1 0 001.415-1.414L19.706.293a1.002 1.002 0 00-.073-.066L19.597.2l-.043-.032c-.014-.01-.029-.017-.043-.026l-.04-.024-.046-.022-.044-.02-.044-.016-.048-.017-.045-.012-.05-.012-.053-.008c-.014-.002-.029-.005-.044-.006a1.007 1.007 0 00-.197 0c-.015.001-.03.004-.044.006l-.053.008-.05.012-.045.012-.047.017-.045.016-.043.02-.046.022c-.014.007-.027.016-.04.024l-.044.026L18.4.2c-.012.009-.024.017-.035.027a.979.979 0 00-.073.065L14.29 4.295a1 1 0 001.415 1.415l2.293-2.294zM5.363 15.78l.036.026.043.032c.014.01.029.017.043.026l.04.024.046.022.043.02.045.016.048.017.045.012.05.012.053.008.043.006c.066.007.132.007.198 0 .015-.001.029-.004.044-.006l.053-.008.049-.012.045-.012.048-.017.045-.016.043-.02.045-.022.04-.024.044-.026.043-.032.036-.027c.025-.02.05-.042.072-.065h.001l4.001-4.002a1 1 0 00-1.414-1.415l-2.294 2.294V1.002a1 1 0 10-2 0v11.589l-2.294-2.293a1 1 0 00-1.414 1.414l4 4.001.002.001c.023.023.047.045.072.065z"/></svg><svg fill="none" viewBox="0 0 12 8" id="arrow-right" xmlns="http://www.w3.org/2000/svg"><path d="M1 4h10m0 0L8.111 1M11 4L8.111 7" stroke="currentColor" stroke-width="1.5" stroke-linecap="round" stroke-linejoin="round"/></svg><svg fill="none" viewBox="0 0 399 504" id="decor" xmlns="http://www.w3.org/2000/svg"><path d="M1 89C17 57 69 1 144.5 1S245.68 63.891 256 103c19 72-34.5 184-74 198s-25.483-41.236 0-61.5c41.5-33 142-55.5 216 6.5" stroke="#191245" stroke-width="1.5" stroke-linecap="round" stroke-linejoin="round" stroke-dasharray="10 10"/><path d="M160.276 44.946c-.37 0-.72-.2-.9-.55l-3.45-6.95a1 1 0 111.79-.89l3.45 6.95c.25.49.04 1.09-.45 1.34-.14.06-.29.1-.44.1zM168.316 61.126c-.37 0-.72-.2-.9-.55l-3.45-6.95c-.25-.49-.04-1.09.45-1.34a.993.993 0 011.34.45l3.45 6.95c.25.49.04 1.09-.45 1.34-.14.07-.29.1-.44.1zM151.006 55.306c-.37 0-.72-.2-.9-.55-.25-.49-.04-1.09.45-1.34l6.95-3.45a1 1 0 11.89 1.79l-6.95 3.45c-.14.07-.29.1-.44.1zM167.186 47.266c-.37 0-.72-.2-.9-.55-.25-.49-.04-1.09.45-1.34l6.95-3.45c.49-.25 1.09-.04 1.34.45s.04 1.09-.45 1.34l-6.95 3.45c-.14.07-.29.1-.44.1zM304.276 486.946c-.37 0-.72-.2-.9-.55l-3.45-6.95c-.25-.49-.04-1.09.45-1.34s1.09-.04 1.34.45l3.45 6.95c.25.49.04 1.09-.45 1.34-.14.07-.29.1-.44.1zM312.316 503.126c-.37 0-.72-.2-.9-.55l-3.45-6.95c-.25-.49-.04-1.09.45-1.34s1.09-.04 1.34.45l3.45 6.95c.25.49.04 1.09-.45 1.34-.13.07-.29.1-.44.1zM295.006 497.316c-.37 0-.72-.2-.9-.55-.25-.49-.04-1.09.45-1.34l6.95-3.45c.49-.25 1.09-.04 1.34.45s.04 1.09-.45 1.34l-6.95 3.45c-.14.07-.29.1-.44.1zM311.186 489.266c-.37 0-.72-.2-.9-.55-.25-.49-.04-1.09.45-1.34l6.95-3.45c.49-.25 1.09-.04 1.34.45s.04 1.09-.45 1.34l-6.95 3.45c-.14.07-.29.1-.44.1zM247.84 471.44c-.95 0-1.89-.18-2.8-.53-1.98-.77-3.53-2.28-4.38-4.25-1.74-4.02.07-8.74 4.01-10.51 1.9-.86 4.02-.91 5.96-.15 1.98.77 3.53 2.28 4.38 4.25 1.73 4.02-.07 8.74-4.01 10.51-1.01.45-2.08.68-3.16.68zm-2.35-13.46c-2.96 1.33-4.3 4.87-3 7.89.64 1.48 1.8 2.6 3.27 3.18 1.44.56 3.01.52 4.42-.11 2.96-1.33 4.3-4.87 3-7.89-.64-1.48-1.8-2.6-3.27-3.18a5.654 5.654 0 00-4.42.11z" fill="#191245"/></svg><svg viewBox="0 0 29 29" id="facebook" xmlns="http://www.w3.org/2000/svg"><g clip-path="url(#iclip0_9_3)"><path d="M26.795 13.397c0 7.4-5.998 13.398-13.397 13.398C5.998 26.795 0 20.797 0 13.397 0 5.998 5.998 0 13.398 0c7.399 0 13.397 5.998 13.397 13.397z"/><path d="M26.795 13.397c0 7.4-5.998 13.398-13.397 13.398C5.998 26.795 0 20.797 0 13.397 0 5.998 5.998 0 13.398 0c7.399 0 13.397 5.998 13.397 13.397z"/><path d="M11.254 17.417v9.11c0 .148.12.268.268.268h3.751c.148 0 .268-.12.268-.268v-9.11c0-.148.12-.268.268-.268h2.68c.148 0 .268-.12.268-.268v-3.216a.268.268 0 00-.268-.268h-2.68a.268.268 0 01-.268-.268v-2.411c0-1.072 1.34-1.608 1.876-1.608h1.607c.148 0 .268-.12.268-.268V5.627a.268.268 0 00-.267-.268H15.54c-2.572 0-4.287 2.68-4.287 4.287v3.483c0 .148-.12.268-.268.268h-2.68a.268.268 0 00-.267.268v3.216c0 .148.12.268.267.268h2.68c.148 0 .268.12.268.268z" fill="#C9BBEA"/></g><defs><clipPath id="iclip0_9_3"><path fill="#fff" d="M0 0h28.277v28.277H0z"/></clipPath></defs></svg><svg viewBox="0 0 29 29" id="google" xmlns="http://www.w3.org/2000/svg"><g clip-path="url(#jclip0_9_12)"><path d="M28.386 14.248c0-.982-.078-1.97-.244-2.937H14.813v5.567h7.633c-.317 1.796-1.618 3.603-3.109 4.613l.284 3.393h4.24c2.675-2.518 4.525-6.237 4.525-10.636z"/><path d="M14.469 28.277c3.821 0 7.044-1.24 9.393-3.378l-4.525-3.409c-1.27.854-2.952 1.25-4.863 1.25-3.697 0-7.02-2.463-8.144-5.774H1.806v3.604c2.405 4.725 7.305 7.707 12.663 7.707z"/><path d="M6.33 16.966c-.649-1.72-.366-3.934.282-5.655l.283-3.393-5.09-.283c-2.194 3.915-2.245 8.81-.05 12.725l4.575-3.394z"/><path d="M14.741 5.535a8.02 8.02 0 015.553 2.096l4.133-3.992C21.81 1.265 18.337-.041 14.741 0 9.268 0 4.263 2.907 1.806 7.635l4.808 3.675c1.144-3.314 4.35-5.775 8.127-5.775z"/></g><defs><clipPath id="jclip0_9_12"><path fill="#fff" transform="translate(.11)" d="M0 0h28.277v28.277H0z"/></clipPath></defs></svg><svg viewBox="0 0 29 29" id="instagram" xmlns="http://www.w3.org/2000/svg"><g clip-path="url(#kclip0_9_8)"><path fill-rule="evenodd" clip-rule="evenodd" d="M8.864.085C10.372.015 10.852 0 14.693 0c3.84 0 4.321.016 5.827.085 1.507.068 2.535.308 3.435.656a6.955 6.955 0 012.504 1.633 6.905 6.905 0 011.63 2.502c.349.9.588 1.928.658 3.432.069 1.51.084 1.991.084 5.83 0 3.84-.016 4.321-.084 5.83-.069 1.503-.309 2.531-.659 3.43a6.935 6.935 0 01-1.63 2.506 6.931 6.931 0 01-2.503 1.63c-.9.35-1.928.588-3.432.658-1.509.07-1.99.085-5.83.085s-4.321-.017-5.829-.085c-1.504-.068-2.532-.309-3.432-.658a6.936 6.936 0 01-2.505-1.63 6.93 6.93 0 01-1.63-2.504c-.35-.9-.588-1.928-.658-3.432-.07-1.51-.085-1.99-.085-5.83S.571 9.817.64 8.311c.068-1.507.309-2.535.657-3.435a6.936 6.936 0 011.632-2.504A6.93 6.93 0 015.431.742C6.33.392 7.359.153 8.863.084h.001zM20.406 2.63c-1.49-.069-1.938-.083-5.713-.083-3.775 0-4.222.014-5.713.083-1.38.062-2.128.293-2.626.487a4.39 4.39 0 00-1.626 1.056A4.386 4.386 0 003.67 5.8c-.194.499-.424 1.247-.487 2.626-.068 1.49-.082 1.938-.082 5.713 0 3.775.014 4.222.082 5.713.063 1.38.293 2.128.487 2.626.227.613.588 1.17 1.057 1.626.456.47 1.013.83 1.626 1.057.498.194 1.247.424 2.626.487 1.49.068 1.937.082 5.713.082s4.222-.014 5.713-.082c1.38-.063 2.127-.293 2.626-.487a4.389 4.389 0 001.626-1.057c.469-.456.83-1.013 1.056-1.626.195-.498.425-1.247.488-2.626.068-1.49.082-1.938.082-5.713 0-3.775-.014-4.222-.082-5.713-.063-1.38-.294-2.127-.488-2.626a4.39 4.39 0 00-1.056-1.626 4.387 4.387 0 00-1.626-1.056c-.499-.194-1.247-.425-2.626-.487zm-7.519 15.867a4.716 4.716 0 005.141-7.694 4.718 4.718 0 10-5.141 7.694zM9.554 9a7.267 7.267 0 1110.277 10.276A7.267 7.267 0 019.554 9zm14.018-1.047a1.719 1.719 0 10-2.36-2.5 1.719 1.719 0 002.36 2.5z"/></g><defs><clipPath id="kclip0_9_8"><path fill="#fff" transform="translate(.555)" d="M0 0h28.277v28.277H0z"/></clipPath></defs></svg><svg fill="none" viewBox="0 0 455 597" id="lines" xmlns="http://www.w3.org/2000/svg"><path d="M202.846 43.407C210.556 27.987 235.615 1 271.998 1c36.384 0 48.759 30.307 53.732 49.154 9.156 34.696-16.626 88.669-35.661 95.416-19.035 6.746-12.28-19.872 0-29.637 19.999-15.903 68.43-26.746 104.091 3.132C414.106 129.71 454 168.2 454 237M1 540c54-24.5 53.5-48.5 58-64.5S55 434 49 446c-8.732 17.464 40 112.5 101 150" stroke="#191245" stroke-width=".723" stroke-linecap="round" stroke-linejoin="round" stroke-dasharray="4.82 4.82"/><path d="M279.601 22.177a.486.486 0 01-.434-.265l-1.662-3.349a.482.482 0 01.862-.429l1.663 3.35a.483.483 0 01-.217.645.547.547 0 01-.212.048zM283.475 29.974a.484.484 0 01-.433-.265l-1.663-3.35a.483.483 0 01.217-.645.48.48 0 01.646.217l1.662 3.349a.482.482 0 01-.429.694zM275.134 27.17a.485.485 0 01-.434-.266.483.483 0 01.217-.645l3.349-1.663a.482.482 0 01.429.863l-3.349 1.662a.473.473 0 01-.212.048zM282.931 23.296a.485.485 0 01-.434-.265.483.483 0 01.217-.646l3.349-1.662a.483.483 0 01.646.217.484.484 0 01-.217.645l-3.349 1.663a.472.472 0 01-.212.048zM348.993 235.177a.483.483 0 01-.433-.265l-1.663-3.349a.484.484 0 01.217-.646.484.484 0 01.646.217l1.662 3.349a.482.482 0 01-.429.694zM352.868 242.973a.486.486 0 01-.434-.265l-1.662-3.349a.482.482 0 01.862-.429l1.663 3.349a.484.484 0 01-.217.646.455.455 0 01-.212.048zM344.526 240.175a.483.483 0 01-.433-.265.483.483 0 01.216-.646l3.35-1.662a.482.482 0 01.428.862l-3.349 1.663a.463.463 0 01-.212.048zM352.323 236.296a.486.486 0 01-.434-.265.484.484 0 01.217-.646l3.349-1.662a.482.482 0 11.429.862l-3.349 1.663a.466.466 0 01-.212.048zM321.798 227.704a3.777 3.777 0 01-3.46-2.303c-.839-1.938.033-4.212 1.932-5.065a3.664 3.664 0 012.872-.072 3.779 3.779 0 012.111 2.048c.834 1.937-.034 4.211-1.932 5.064a3.734 3.734 0 01-1.523.328zm-1.133-6.486c-1.426.641-2.072 2.347-1.445 3.802a2.838 2.838 0 001.575 1.532c.694.27 1.451.251 2.13-.053 1.427-.641 2.073-2.346 1.446-3.802a2.837 2.837 0 00-1.576-1.532 2.721 2.721 0 00-2.13.053z" fill="#191245"/></svg><svg fill="none" viewBox="0 0 131 24" id="stars" xmlns="http://www.w3.org/2000/svg"><path d="M11.094 1.744a.956.956 0 011.716 0l2.425 4.93c.14.284.41.48.722.525l5.439.783a.956.956 0 01.53 1.632l-3.94 3.83a.956.956 0 00-.275.849l.936 5.414a.956.956 0 01-1.389 1.008l-4.86-2.563a.956.956 0 00-.892 0l-4.86 2.563a.956.956 0 01-1.388-1.008l.936-5.414a.956.956 0 00-.276-.849l-3.94-3.83a.956.956 0 01.53-1.632l5.44-.783a.956.956 0 00.721-.524l2.425-4.93zM37.868 1.744a.956.956 0 011.716 0l2.425 4.93c.14.284.41.48.722.525l5.439.783a.956.956 0 01.53 1.632l-3.94 3.83a.956.956 0 00-.275.849l.936 5.414a.956.956 0 01-1.389 1.008l-4.86-2.563a.956.956 0 00-.892 0l-4.86 2.563a.956.956 0 01-1.388-1.008l.936-5.414a.956.956 0 00-.276-.849l-3.94-3.83a.956.956 0 01.53-1.632l5.44-.783a.956.956 0 00.721-.524l2.425-4.93zM64.642 1.744a.956.956 0 011.716 0l2.425 4.93c.14.284.41.48.722.525l5.439.783a.956.956 0 01.53 1.632l-3.94 3.83a.956.956 0 00-.276.849l.937 5.414a.956.956 0 01-1.389 1.008l-4.86-2.563a.956.956 0 00-.892 0l-4.86 2.563a.956.956 0 01-1.388-1.008l.936-5.414a.956.956 0 00-.276-.849l-3.94-3.83a.956.956 0 01.53-1.632l5.44-.783a.956.956 0 00.721-.524l2.425-4.93zM91.415 1.744a.956.956 0 011.716 0l2.425 4.93c.14.284.41.48.722.525l5.439.783a.956.956 0 01.53 1.632l-3.94 3.83a.956.956 0 00-.275.849l.936 5.414a.956.956 0 01-1.389 1.008l-4.86-2.563a.956.956 0 00-.892 0l-4.86 2.563a.956.956 0 01-1.388-1.008l.936-5.414a.956.956 0 00-.276-.849l-3.94-3.83a.956.956 0 01.531-1.632l5.438-.783a.956.956 0 00.722-.524l2.425-4.93zM118.189 1.744a.956.956 0 011.716 0l2.425 4.93c.14.284.41.48.722.525l5.439.783a.956.956 0 01.53 1.632l-3.94 3.83a.956.956 0 00-.275.849l.936 5.414a.957.957 0 01-1.389 1.008l-4.86-2.563a.956.956 0 00-.892 0l-4.86 2.563a.956.956 0 01-1.388-1.008l.936-5.414a.954.954 0 00-.276-.849l-3.939-3.83a.956.956 0 01.53-1.632l5.438-.783a.955.955 0 00.722-.524l2.425-4.93z" fill="#FFC93D"/></svg><svg viewBox="0 0 30 29" id="telegram" xmlns="http://www.w3.org/2000/svg"><g clip-path="url(#nclip0_9_10)"><path d="M14.97 28.277c7.81 0 14.14-6.33 14.14-14.139C29.11 6.33 22.78 0 14.97 0 7.163 0 .833 6.33.833 14.138c0 7.809 6.33 14.139 14.139 14.139z"/><path fill-rule="evenodd" clip-rule="evenodd" d="M7.232 13.989c4.122-1.796 6.87-2.98 8.245-3.552 3.927-1.633 4.743-1.916 5.274-1.926.117-.002.379.027.548.165a.596.596 0 01.201.382c.02.11.043.361.024.557-.213 2.236-1.133 7.66-1.602 10.165-.198 1.06-.588 1.415-.966 1.45-.821.075-1.444-.543-2.24-1.064-1.244-.816-1.947-1.324-3.155-2.12-1.396-.92-.49-1.425.305-2.252.208-.216 3.825-3.506 3.895-3.805.01-.037.017-.176-.065-.25-.083-.073-.205-.048-.293-.028-.125.028-2.113 1.342-5.964 3.942-.564.387-1.075.576-1.533.566-.505-.011-1.476-.286-2.198-.52-.885-.288-1.589-.44-1.528-.929.032-.255.383-.515 1.052-.781z" fill="#C9BBEA"/></g><defs><clipPath id="nclip0_9_10"><path fill="#fff" transform="translate(.832)" d="M0 0h28.277v28.277H0z"/></clipPath></defs></svg><svg viewBox="0 0 18 18" id="user" xmlns="http://www.w3.org/2000/svg"><path d="M4.539 12.733a.5.5 0 101 0h-1zm7.485 0a.5.5 0 101 0h-1zm4.073-3.934A7.299 7.299 0 018.8 16.097v1A8.299 8.299 0 0017.097 8.8h-1zM8.8 16.097A7.299 7.299 0 011.5 8.8h-1a8.299 8.299 0 008.299 8.298v-1zM1.5 8.8A7.299 7.299 0 018.799 1.5v-1A8.299 8.299 0 00.5 8.799h1zM8.799 1.5a7.299 7.299 0 017.298 7.299h1A8.299 8.299 0 008.8.5v1zm1.275 4.444c0 .704-.57 1.275-1.275 1.275v1a2.276 2.276 0 002.275-2.275h-1zM8.8 7.219a1.276 1.276 0 01-1.276-1.275h-1A2.276 2.276 0 008.8 8.219v-1zM7.523 5.944c0-.705.571-1.276 1.276-1.276v-1a2.276 2.276 0 00-2.276 2.276h1zM8.8 4.668c.704 0 1.275.571 1.275 1.276h1A2.276 2.276 0 008.8 3.668v1zm-3.26 8.065v-1.497h-1v1.497h1zm0-1.497c0-.692.57-1.241 1.24-1.241v-1c-1.21 0-2.24.983-2.24 2.24h1zm1.24-1.241h4.004v-1H6.78v1zm4.004 0c.692 0 1.241.57 1.241 1.24h1c0-1.209-.983-2.24-2.24-2.24v1zm1.241 1.24v1.498h1v-1.497h-1z"/></svg><svg viewBox="0 0 29 29" id="youtube" xmlns="http://www.w3.org/2000/svg"><g clip-path="url(#pclip0_9_6)"><path d="M11.588 18.26v-8.244l7.352 4.123-7.352 4.122z" fill="#C9BBEA"/><path d="M27.958 7.526a3.413 3.413 0 00-.914-1.535 3.56 3.56 0 00-1.58-.888c-2.202-.579-11.048-.579-11.048-.579s-8.846 0-11.048.58a3.56 3.56 0 00-1.58.887 3.412 3.412 0 00-.914 1.535 34.461 34.461 0 00-.596 6.613 34.461 34.461 0 00.596 6.612c.161.58.476 1.11.914 1.535a3.56 3.56 0 001.58.888c2.202.579 11.048.579 11.048.579s8.846 0 11.048-.58a3.56 3.56 0 001.58-.887c.438-.425.753-.955.914-1.535a34.46 34.46 0 00.596-6.613 34.46 34.46 0 00-.596-6.612zM11.588 18.26v-8.24l7.342 4.12-7.341 4.12z"/></g><defs><clipPath id="pclip0_9_6"><path fill="#fff" transform="translate(.277)" d="M0 0h28.277v28.277H0z"/></clipPath></defs></svg></svg>