<svg width="213" height="213" fill="none" xmlns="http://www.w3.org/2000/svg"><g clip-path="url(#clip0_0_1119)"><path d="M177.296 9.362l-2.174-4.195c-3.572-6.891-17.27-6.886-30.589.016-12.954 6.717-20.779 17.486-17.908 24.41h-.006l.016.03c.079.186.153.37.248.55.106.2.222.395.343.596l1.509 2.88c.095.244.196.481.322.713.127.243.269.48.417.707l.005.006c1.984 2.965 6.068 4.453 11.203 4.453 5.54 0 12.294-1.73 18.964-5.187 13.323-6.896 21.227-18.083 17.65-24.98zm-20.152 20.146c-11.202 5.81-22.673 6.41-27.348 1.815-1.05-6.47 6.052-15.492 17.249-21.291 11.192-5.804 22.668-6.416 27.343-1.82 1.056 6.463-6.052 15.492-17.244 21.296zM212.2 55.184l-1.963-3.788c-3.224-6.216-15.576-6.21-27.591.015-11.688 6.058-18.742 15.772-16.152 22.02h-.005l.016.026c.069.169.137.333.227.49.095.185.2.36.311.54l1.362 2.6c.084.222.179.433.29.644.111.222.243.433.374.639l.006.005c1.788 2.675 5.477 4.015 10.104 4.015 4.997 0 11.092-1.561 17.107-4.675 12.01-6.226 19.138-16.31 15.914-22.53zm-18.178 18.168c-10.104 5.24-20.452 5.783-24.668 1.635-.949-5.836 5.462-13.977 15.556-19.201 10.094-5.235 20.447-5.789 24.663-1.641.955 5.83-5.451 13.972-15.551 19.207zm-70.115-19.455l-2.084-4.016c-3.419-6.595-16.532-6.59-29.274.016-12.4 6.432-19.888 16.738-17.139 23.365h-.005l.016.026c.073.174.147.354.237.523.1.195.211.38.332.57l1.446 2.76c.09.231.19.458.306.68.122.232.259.459.396.675l.005.005c1.9 2.84 5.81 4.264 10.722 4.264 5.303 0 11.767-1.657 18.152-4.96 12.748-6.601 20.309-17.307 16.89-23.908zm-19.291 19.28c-10.722 5.562-21.703 6.137-26.177 1.736-1.008-6.189 5.794-14.827 16.505-20.378 10.712-5.556 21.697-6.142 26.172-1.741 1.018 6.195-5.783 14.832-16.5 20.383zm50.117 25.121l-1.879-3.625c-3.086-5.946-14.911-5.941-26.409.016-11.186 5.799-17.94 15.097-15.46 21.075h-.006l.016.026c.069.159.132.317.217.47.095.174.19.343.295.512l1.303 2.49c.085.211.169.417.28.618.106.211.232.416.359.612l.005.005c1.715 2.559 5.24 3.847 9.672 3.847 4.786 0 10.617-1.494 16.373-4.475 11.498-5.962 18.315-15.619 15.234-21.57zm-17.402 17.387c-9.672 5.013-19.576 5.535-23.608 1.567-.907-5.583 5.224-13.376 14.891-18.378 9.661-5.008 19.571-5.54 23.602-1.573.913 5.588-5.219 13.376-14.885 18.384z" fill="#D4D2EE"/><path d="M188.946 61.754c-3.815-1.103-8.173-.96-12.094-1.783a44.853 44.853 0 01-11.772-4.269c-3.593-1.905-8.753-5.42-10.067-7.994-1.72-3.372-1.124-7.862-.903-11.82.227-4 1.488-8.173 1.415-12.141-.027-1.53-.628-3.06-2.254-3.382-2.685-.533-4.237 2.026-4.68 4.295-.617 3.155-.818 6.326-1.678 9.45-1.525 5.54-4.928 9.968-9.076 13.851-7.498 7.013-17.017 11.556-26.931 13.989-2.792.685-5.868 1.118-8.781 1.63-1.962.343-5.777.675-5.54 3.556.317 3.89 5.134 2.739 7.551 2.354a54.477 54.477 0 0116.278-.137c2.855.406 5.905.88 8.532 2.1 2.348 1.097 3.557 1.757 4.406 2.4 2.021 1.53 2.786 7.203 2.449 9.984a54.58 54.58 0 01-4.359 15.682c-.095.21-.2.438-.311.686.1.031.195.063.295.1.623.237 1.225.543 1.826.85a8.582 8.582 0 013.868.775c1.081-2.364 2.158-4.807 3.361-6.997 4.923-8.943 11.783-16.959 20.494-22.378 4.823-2.997 9.984-5.134 15.73-5.17 3.245-.022 6.353.611 9.561.833 2.311.158 5.182-.675 5.361-3.409.111-1.651-1.214-2.627-2.681-3.055z" fill="#7464DC"/><path d="M151.694 43.87l-37.438 27.152 7.055 28.357 30.541 10.02 37.39-24.066-37.548-41.464z" fill="#FFC93D"/><path d="M140.439 61.061l-1.81-7.72-13.677 9.92 1.752 7.235a.832.832 0 001.308.47l12.115-9.05a.824.824 0 00.312-.855z" fill="#EC9717"/><path d="M189.242 85.333l-29.781-12.485-7.767-28.979 28.319 15.619 9.229 25.845z" fill="#FFC93D"/><path d="M151.34 44.603c2.522 9.467 5.087 18.922 7.609 28.389.174.654 1.193.38 1.018-.28-2.522-9.466-5.086-18.922-7.608-28.388-.174-.654-1.193-.375-1.019.28z" fill="#2D2745"/><path d="M159.74 73.502c9.599 4.037 19.197 8.068 28.795 12.104.622.264.897-.76.279-1.018-9.598-4.037-19.196-8.068-28.794-12.104-.622-.264-.897.76-.28 1.018z" fill="#2D2745"/><path d="M121.939 99.543c9.888-6.854 19.766-13.73 29.649-20.59 2.712-1.883 5.425-3.761 8.137-5.645.554-.385.026-1.298-.533-.913-9.889 6.854-19.766 13.73-29.649 20.59-2.713 1.883-5.425 3.762-8.137 5.645-.554.386-.032 1.298.533.913z" fill="#2D2745"/><path d="M164.157 100.799c.718.285 1.43.57 2.148.86.205.063.411.074.617.026.206-.01.396-.068.575-.184.179-.095.322-.232.433-.396.137-.148.227-.322.274-.528.09-.395.069-.839-.158-1.192-.079-.106-.164-.211-.243-.312a1.586 1.586 0 00-.681-.395c-.717-.285-1.43-.57-2.147-.86a1.173 1.173 0 00-.618-.027 1.14 1.14 0 00-.575.185 1.196 1.196 0 00-.432.396 1.126 1.126 0 00-.275.527c-.089.396-.068.84.159 1.193.079.105.163.206.242.311.19.19.417.322.681.396zm-21.486-13.382c-.079-.105-.164-.21-.243-.311a1.585 1.585 0 00-.681-.396c-.543-.216-1.087-.432-1.63-.654l-5.604-22.362c-.528-2.1-1.05-4.2-1.578-6.3-.485-1.926-3.461-1.114-2.981.823 1.91 7.63 3.82 15.26 5.736 22.884.543 2.164 1.081 4.327 1.625 6.49 0 .01.005.016.01.027.016.047.032.095.053.142.185.501.544.786.966.887.021.005.037.015.053.02l2.527 1.014c.206.063.412.074.617.026a1.14 1.14 0 00.576-.184c.321-.19.628-.554.712-.924.09-.385.069-.828-.158-1.182zm34.672-7.344v-.016a1.503 1.503 0 00-.053-.475c-2.543-9.255-5.092-18.516-7.635-27.77-.527-1.916-3.509-1.104-2.981.822 2.464 8.955 4.923 17.909 7.387 26.863-.496.396-.992.787-1.488 1.182a1.178 1.178 0 00-.322.496 1.16 1.16 0 00-.132.597c-.01.21.037.411.132.596.064.19.169.359.322.496.296.269.681.47 1.092.454.138-.016.275-.037.412-.053a1.53 1.53 0 00.681-.396c.712-.564 1.419-1.129 2.131-1.694a1.17 1.17 0 00.322-.496c.064-.126.1-.258.116-.395.011-.048.011-.1.016-.153-.005-.027 0-.043 0-.058zm-37.881 26.652c.713-.565 1.42-1.129 2.132-1.694.153-.142.259-.306.322-.496.095-.184.143-.38.132-.596a1.157 1.157 0 00-.132-.596 1.137 1.137 0 00-.322-.496c-.295-.269-.68-.47-1.092-.454-.137.016-.274.037-.412.053a1.54 1.54 0 00-.68.395c-.713.565-1.42 1.13-2.132 1.694a1.172 1.172 0 00-.322.496 1.16 1.16 0 00-.132.597c-.01.211.037.411.132.596.063.19.169.359.322.496.295.269.681.469 1.092.454.137-.016.275-.037.412-.053a1.54 1.54 0 00.68-.396z" fill="#7464DC"/><path d="M106.616 69.117c1.662-1.473 2.28-4.005 1.451-6.069-.105-.263-.353-.448-.649-.369-.253.069-.475.385-.369.65.696 1.746.227 3.793-1.182 5.044-.507.448.242 1.192.749.744zm41.215-39.637c1.262 2.28 4.375 3.16 6.659 1.931.597-.321.069-1.234-.532-.912-1.789.96-4.232.21-5.214-1.552-.327-.59-1.24-.058-.913.533zm-17.708 29.56c-.005-.032-.026-.148-.011-.053-.005-.047-.01-.1-.01-.148-.005-.1 0-.195.005-.295.011-.158-.021.1.005-.053.011-.047.016-.095.032-.142.021-.095.053-.19.085-.285.036-.106-.032.053.021-.058.021-.042.042-.09.068-.132.042-.08.095-.153.143-.232.021-.032.021-.027-.011.01.016-.02.032-.037.048-.058.031-.037.063-.074.1-.11.037-.038.068-.07.105-.1.016-.011.117-.096.08-.07-.048.038.058-.042.068-.047a1.824 1.824 0 01.269-.148c.106-.052-.037.01.064-.026.1-.032.195-.063.295-.085.048-.01.1-.02.153-.026-.105.016.058 0 .063 0 .101-.005.206-.005.306 0 .022 0 .169.021.064.005.053.006.1.016.153.027.09.02.179.047.269.079l.074.026c-.037-.016-.042-.016-.011 0 .053.027.106.053.159.085.242.137.585.063.722-.19.132-.248.069-.575-.19-.723-.96-.544-2.221-.48-3.097.2-.86.665-1.25 1.773-1.039 2.84.052.268.39.453.649.369a.557.557 0 00.369-.66z" fill="#2D2745"/><path d="M153.541 139.574l-1.388-2.681c-2.28-4.4-11.028-4.395-19.534.011-8.274 4.29-13.271 11.165-11.434 15.587h-.006l.011.021a3.899 3.899 0 00.38.728l.965 1.842c.064.158.127.306.206.454.079.158.169.306.264.453l.005.006c1.267 1.894 3.879 2.844 7.155 2.844 3.541 0 7.852-1.103 12.11-3.309 8.501-4.411 13.545-11.55 11.266-15.956zm-12.87 12.864c-7.155 3.71-14.479 4.095-17.465 1.156-.671-4.132 3.862-9.894 11.012-13.598 7.144-3.704 14.479-4.095 17.46-1.161.675 4.132-3.857 9.899-11.007 13.603zm35.158 16.394l-1.256-2.416c-2.058-3.968-9.946-3.968-17.618.01-7.461 3.868-11.968 10.073-10.316 14.062h-.005l.01.016c.042.106.09.211.143.317.063.116.126.227.2.343l.871 1.662c.053.142.111.279.185.411.073.143.153.28.237.407l.005.005c1.145 1.71 3.499 2.564 6.454 2.564 3.192 0 7.081-.997 10.922-2.986 7.677-3.979 12.226-10.421 10.168-14.395zm-11.608 11.603c-6.454 3.346-13.06 3.694-15.751 1.045-.607-3.725 3.488-8.922 9.936-12.263 6.442-3.34 13.059-3.693 15.75-1.05.607 3.731-3.487 8.928-9.935 12.268zm-44.772-12.421l-1.33-2.564c-2.185-4.211-10.559-4.206-18.695.01-7.92 4.105-12.7 10.685-10.944 14.922h-.005l.01.016c.048.111.096.227.154.333.063.121.132.242.21.364l.924 1.762a4.546 4.546 0 00.449.871l.005.005c1.213 1.815 3.71 2.723 6.844 2.723 3.387 0 7.513-1.056 11.592-3.171 8.137-4.222 12.965-11.055 10.786-15.271zm-12.321 12.31c-6.844 3.552-13.862 3.916-16.716 1.108-.644-3.952 3.698-9.471 10.542-13.012 6.839-3.545 13.857-3.92 16.711-1.113.649 3.957-3.693 9.472-10.537 13.017zm32.002 16.042l-1.197-2.316c-1.969-3.799-9.519-3.794-16.864.01-7.14 3.705-11.456 9.641-9.873 13.456h-.005l.01.016c.043.1.085.205.138.3.058.111.121.222.189.328l.834 1.588a4.332 4.332 0 00.406.786l.006.005c1.092 1.636 3.345 2.454 6.173 2.454 3.056 0 6.781-.955 10.453-2.86 7.345-3.799 11.698-9.962 9.73-13.767zm-11.112 11.108c-6.174 3.202-12.5 3.535-15.075.997-.581-3.567 3.334-8.543 9.508-11.735 6.168-3.198 12.495-3.536 15.075-1.003.581 3.567-3.335 8.543-9.508 11.741z" fill="#D4D2EE"/><path d="M160.981 173.032c-2.438-.701-5.219-.612-7.725-1.139a28.493 28.493 0 01-7.519-2.728c-2.296-1.214-5.588-3.462-6.433-5.108-1.097-2.153-.717-5.023-.575-7.546.143-2.553.95-5.218.903-7.751-.016-.976-.401-1.957-1.441-2.158-1.715-.338-2.707 1.293-2.992 2.744-.395 2.016-.522 4.036-1.071 6.036-.976 3.541-3.145 6.364-5.794 8.844-4.785 4.474-10.864 7.377-17.196 8.933-1.783.438-3.746.712-5.604 1.04-1.255.221-3.688.432-3.54 2.269.2 2.485 3.277 1.751 4.823 1.503a34.854 34.854 0 0110.394-.089c1.821.258 3.773.559 5.451 1.34 1.499.702 2.269 1.124 2.813 1.535 1.287.977 1.778 4.602 1.561 6.375a35.12 35.12 0 01-2.031 8.194 70.965 70.965 0 003.319 2.39c.543-1.197 1.097-2.395 1.704-3.493 3.145-5.709 7.525-10.827 13.086-14.289 3.082-1.915 6.374-3.282 10.047-3.303 2.068-.01 4.058.391 6.105.533 1.472.1 3.308-.433 3.424-2.174.074-1.06-.775-1.688-1.709-1.958z" fill="#7464DC"/><path d="M137.188 161.609l-23.908 17.344 4.506 18.104 19.503 6.401 23.876-15.366-23.977-26.483z" fill="#FFC93D"/><path d="M161.165 188.092l-19.017-7.973-4.96-18.51 18.089 9.978 5.888 16.505z" fill="#FFC93D"/><path d="M136.84 162.359c1.594 5.968 3.208 11.93 4.797 17.903.174.655 1.192.38 1.018-.279-1.593-5.968-3.208-11.931-4.796-17.904-.174-.659-1.193-.38-1.019.28z" fill="#2D2745"/><path d="M142.28 180.716a39803.78 39803.78 0 0118.152 7.63c.622.264.897-.76.279-1.019-6.052-2.543-12.104-5.086-18.151-7.63-.628-.258-.897.76-.28 1.019z" fill="#2D2745"/><path d="M118.589 197.117c7.946-5.509 15.882-11.038 23.829-16.542.554-.385.026-1.298-.533-.913-7.947 5.509-15.883 11.039-23.829 16.542-.554.386-.032 1.304.533.913z" fill="#2D2745"/><path d="M145.146 197.964c.459.185.913.365 1.372.549a.718.718 0 00.395.016.773.773 0 00.37-.116.75.75 0 00.274-.253.666.666 0 00.174-.338c.058-.253.048-.538-.1-.76l-.153-.2a.986.986 0 00-.438-.254l-1.372-.548a.713.713 0 00-.396-.016.77.77 0 00-.369.116.743.743 0 00-.274.253.676.676 0 00-.175.338c-.058.253-.047.538.101.76l.153.2c.126.122.274.206.438.253zm-13.714-8.541l-.153-.2a1.001 1.001 0 00-.433-.253c-.348-.138-.691-.28-1.039-.417l-3.578-14.279c-.338-1.34-.67-2.68-1.008-4.02-.306-1.23-2.211-.707-1.905.522 1.219 4.87 2.443 9.746 3.662 14.616.349 1.383.692 2.765 1.04 4.148 0 .005.005.01.005.015.011.032.021.064.032.09a.848.848 0 00.617.565l.032.015c.538.217 1.076.433 1.614.644a.722.722 0 00.396.016.777.777 0 00.37-.116c.205-.121.401-.354.453-.591.048-.248.037-.533-.105-.755zm22.135-4.691v-.011c0-.095-.005-.195-.037-.306l-4.875-17.735c-.338-1.224-2.243-.701-1.905.523l4.717 17.154c-.317.253-.633.501-.95.755a.789.789 0 00-.206.316.725.725 0 00-.084.38.725.725 0 00.084.38.749.749 0 00.206.317c.19.174.433.3.697.29.089-.011.174-.021.263-.037.169-.048.312-.132.438-.253.454-.359.908-.723 1.362-1.082a.792.792 0 00.206-.317.69.69 0 00.073-.253c.006-.032.006-.063.011-.095v-.026zm-24.293 16.848c.454-.358.907-.722 1.361-1.081a.782.782 0 00.206-.317.716.716 0 00.084-.38.716.716 0 00-.084-.38.73.73 0 00-.206-.316c-.19-.174-.433-.301-.696-.29a4.65 4.65 0 00-.264.036.97.97 0 00-.433.254c-.454.359-.908.723-1.361 1.081a.788.788 0 00-.206.317.716.716 0 00-.084.38.716.716 0 00.084.38.721.721 0 00.206.316c.19.175.432.301.696.291.09-.011.174-.021.264-.037.164-.048.311-.132.433-.254z" fill="#7464DC"/><path d="M56.62 67.166l-1.197-2.311c-1.969-3.794-9.509-3.789-16.838.01-7.129 3.7-11.44 9.625-9.857 13.44h-.005l.01.016a3.763 3.763 0 00.328.628l.834 1.588c.052.132.105.264.174.39.068.132.147.264.227.39l.005.006c1.092 1.63 3.34 2.454 6.168 2.454 3.05 0 6.77-.95 10.442-2.855 7.33-3.804 11.678-9.962 9.71-13.756zM45.53 78.252c-6.163 3.198-12.484 3.53-15.054.997-.58-3.561 3.33-8.527 9.492-11.719 6.158-3.192 12.48-3.53 15.05-1.002.585 3.561-3.33 8.532-9.488 11.724zm30.302 14.137l-1.081-2.085c-1.773-3.419-8.575-3.419-15.186.01-6.432 3.336-10.316 8.68-8.891 12.121h-.006l.011.016c.037.09.08.185.121.269.053.1.111.195.17.296l.748 1.43c.048.121.095.237.159.353.063.121.132.238.206.354l.005.005c.987 1.472 3.013 2.211 5.561 2.211 2.75 0 6.105-.86 9.42-2.575 6.616-3.43 10.536-8.98 8.763-12.405zm-10.004 9.999c-5.562 2.886-11.26 3.181-13.577.902-.522-3.213 3.003-7.693 8.564-10.569 5.557-2.881 11.255-3.187 13.577-.902.522 3.208-3.008 7.688-8.564 10.569zM27.23 91.681l-1.145-2.21c-1.884-3.63-9.097-3.626-16.115.01C3.148 93.021-.979 98.694.536 102.34l.01.016c.042.095.08.195.132.29.058.106.116.211.18.311l.791 1.52c.053.127.105.253.169.375a3.9 3.9 0 00.221.374l.006.006c1.044 1.561 3.197 2.348 5.899 2.348 2.918 0 6.48-.913 9.994-2.734 7.012-3.64 11.176-9.534 9.292-13.165zm-10.617 10.612c-5.899 3.06-11.946 3.377-14.41.955-.554-3.41 3.187-8.163 9.086-11.219 5.894-3.055 11.941-3.382 14.405-.96.56 3.414-3.181 8.168-9.08 11.224zM44.2 116.121l-1.035-1.994c-1.699-3.277-8.205-3.272-14.537.01-6.158 3.193-9.872 8.311-8.511 11.598l.01.016c.037.09.074.174.117.259.052.094.105.189.163.284l.718 1.372a3.948 3.948 0 00.348.676l.005.005c.945 1.409 2.887 2.116 5.324 2.116 2.633 0 5.842-.823 9.013-2.464 6.326-3.288 10.083-8.601 8.384-11.878zm-9.578 9.572c-5.324 2.76-10.774 3.045-12.996.86-.501-3.076 2.876-7.361 8.195-10.115 5.318-2.76 10.774-3.05 12.99-.866.507 3.071-2.87 7.361-8.189 10.121z" fill="#D4D2EE"/><path d="M63.032 96.004c-2.1-.607-4.496-.528-6.66-.982a24.577 24.577 0 01-6.48-2.348c-1.978-1.05-4.817-2.981-5.54-4.4-.95-1.858-.622-4.328-.496-6.507.122-2.2.818-4.495.781-6.685-.016-.84-.348-1.683-1.24-1.863-1.477-.29-2.332 1.114-2.575 2.364-.337 1.736-.448 3.483-.923 5.203-.839 3.05-2.712 5.487-4.997 7.624-4.126 3.858-9.366 6.359-14.822 7.699-1.535.375-3.23.617-4.833.897-1.082.19-3.182.37-3.05 1.958.174 2.142 2.823 1.509 4.158 1.292a30 30 0 018.96-.073c1.572.221 3.25.485 4.696 1.155 1.292.602 1.957.966 2.427 1.325 1.113.839 1.535 3.962 1.345 5.492a30.11 30.11 0 01-1.662 6.823c1.14.248 2.248.617 3.356 1.034.285-.601.575-1.187.881-1.746 2.707-4.923 6.485-9.334 11.282-12.316 2.654-1.651 5.493-2.828 8.659-2.844 1.783-.01 3.498.338 5.266.46 1.271.089 2.849-.375 2.954-1.874.053-.913-.68-1.451-1.488-1.688z" fill="#7464DC"/><path d="M42.527 86.16l-20.605 14.944 3.883 15.608 16.806 5.519 20.584-13.249-20.668-22.821z" fill="#FFC93D"/><path d="M63.195 108.982l-16.394-6.87-4.274-15.951 15.587 8.595 5.081 14.226z" fill="#FFC93D"/><path d="M42.173 86.887c1.367 5.123 2.754 10.241 4.121 15.365.174.654 1.193.38 1.018-.28-1.366-5.123-2.754-10.241-4.12-15.365-.175-.66-1.193-.38-1.019.28z" fill="#2D2745"/><path d="M46.896 102.696c5.123 2.153 10.247 4.306 15.37 6.464.623.264.898-.76.28-1.018-5.123-2.153-10.247-4.306-15.37-6.464-.629-.259-.898.76-.28 1.018z" fill="#2D2745"/><path d="M26.776 116.653c6.77-4.691 13.524-9.398 20.294-14.089.554-.385.026-1.298-.533-.913-6.77 4.691-13.524 9.398-20.294 14.089-.554.385-.026 1.303.533.913z" fill="#2D2745"/><path d="M49.386 117.5c.396.158.786.317 1.182.475.11.037.227.042.338.016a.64.64 0 00.316-.101c.1-.052.18-.126.238-.221a.678.678 0 00.153-.29c.047-.217.037-.465-.085-.655-.042-.058-.09-.116-.132-.174a.82.82 0 00-.374-.216c-.396-.158-.786-.317-1.182-.475a.617.617 0 00-.338-.016.64.64 0 00-.317.1.603.603 0 00-.237.222.666.666 0 00-.153.29c-.047.217-.037.465.084.655.043.058.09.116.132.174a.92.92 0 00.375.216zm-11.825-7.368c-.042-.058-.09-.116-.132-.174a.813.813 0 00-.374-.217c-.301-.121-.597-.237-.897-.359-1.03-4.105-2.058-8.205-3.082-12.31l-.87-3.467c-.264-1.06-1.905-.612-1.642.454 1.05 4.2 2.106 8.401 3.156 12.601.3 1.192.596 2.385.897 3.572 0 .005.005.011.005.016a.46.46 0 00.027.079c.1.274.3.433.532.485a.072.072 0 00.032.011l1.393.554a.618.618 0 00.338.016.64.64 0 00.316-.1.891.891 0 00.391-.507c.047-.216.037-.464-.09-.654zm19.086-4.046v-.011a.95.95 0 00-.032-.264c-1.398-5.097-2.802-10.189-4.205-15.286-.29-1.055-1.932-.607-1.641.454 1.356 4.928 2.712 9.856 4.068 14.79-.275.216-.544.433-.818.649a.611.611 0 00-.174.274.64.64 0 00-.074.328.636.636 0 00.074.327.718.718 0 00.174.274c.164.148.375.259.602.248l.226-.032a.858.858 0 00.375-.216l1.172-.934a.612.612 0 00.174-.274.642.642 0 00.063-.217c.005-.026.005-.052.005-.084a.04.04 0 00.01-.026zM35.804 120.76l1.172-.934a.612.612 0 00.174-.274.635.635 0 00.074-.327.635.635 0 00-.074-.327.714.714 0 00-.174-.275c-.164-.148-.375-.258-.602-.248l-.227.032a.867.867 0 00-.374.216l-1.172.934a.609.609 0 00-.174.275.634.634 0 00-.074.327.634.634 0 00.074.327.718.718 0 00.174.274c.164.148.375.259.602.248l.227-.031a.814.814 0 00.374-.217z" fill="#7464DC"/></g><defs><clipPath id="clip0_0_1119"><path fill="#fff" transform="translate(.224)" d="M0 0h212.752v213H0z"/></clipPath></defs></svg>