<svg width="242" height="198" fill="none" xmlns="http://www.w3.org/2000/svg"><g clip-path="url(#clip0_0_756)"><path d="M86.564 155.533c-1.464-2.221-4.489-2.425-6.881-2.724-6.977-.877-14.028-.895-21.049-1.005-6.977-.111-13.99-.428-20.965-.13-3.478.147-6.937.633-10.42.702-3.492.067-6.96-.383-10.447-.511-1.71-.064-3.42-.034-5.121.153-.091.009-.14.076-.153.147-2.493.268-5.046.673-7.19 2.027C2.389 155.418.8 157.631.83 160.004c.07 5.52 7.67 6.567 11.705 7.38 13.505 2.719 27.384 2.98 41.1 3.638 6.648.319 13.565 1.086 20.125-.42 4.925-1.13 10.305-3.896 12.632-8.633.958-1.943 1.437-4.515.172-6.436z" fill="#EFEEFE"/><path d="M229.26 124.089c-4.547-.98-8.984-1.582-13.61-.823-3.817.627-7.554 1.779-11.416 2.11-3.979.344-7.819-.543-11.634-1.623-3.96-1.123-7.913-2.152-11.979-2.769a77.12 77.12 0 00-12.561-.865c-4.284.057-8.522.536-12.754 1.202-1.369.216-2.74.437-4.113.641-2.641.393-5.294.715-7.964.771-3.847.084-7.532-.695-11.313-1.297a39.964 39.964 0 00-1.101-.162 28.766 28.766 0 00-2.299-.231l-.238.184a363.159 363.159 0 00-8.048 6.397 392.474 392.474 0 00-17.162 14.905 384.487 384.487 0 00-9.834 9.386 375.182 375.182 0 00-5.306 5.346 390.09 390.09 0 00-11.303 12.099c1.13.071 2.225.327 3.289.744 2.454.966 4.604 2.575 6.864 3.924 2.692 1.606 5.515 2.55 8.632 2.685 3.226.142 6.437-.406 9.603-.983 3.081-.56 6.152-1.108 9.274-1.363a65.585 65.585 0 0119.086 1.238c6.274 1.341 12.133 3.999 18.297 5.726 3.142.88 6.37 1.447 9.632 1.322 3.334-.13 6.604-.877 9.878-1.477 3.029-.552 6.103-.98 9.181-.705 3.073.273 6.06 1.15 8.932 2.285 1.386.55 2.749 1.16 4.1 1.796.742.349 1.477.707 2.211 1.068.256.126.821.534 1.098.543.393.01.61-.493.818-.773 2.123-2.862 4.243-5.722 6.366-8.581 1.174-1.585 2.348-3.17 3.525-4.754 1.55-2.093 3.1-4.184 4.653-6.274 1.481-2 2.962-4 4.446-5.999l3.11-4.194 4.611-6.22 7.304-9.849 4.616-6.225 5.567-7.507c-4.223.181-8.35-.811-12.458-1.698z" fill="#fff"/><path d="M212.064 165.781c-1.553 2.09-3.103 4.181-4.653 6.274a78.23 78.23 0 00-1.963-.44c-5.033-1.059-10.131-1.53-15.273-1.267-10.064.513-20.041 3.24-30.165 2.326-4.665-.42-9.099-1.786-13.423-3.54-4.296-1.744-8.475-3.783-12.845-5.343-4.801-1.712-9.697-2.511-14.787-2.612-5.164-.105-10.328.3-15.492.072-5.281-.236-10.92-1.288-15.535-3.99a369.434 369.434 0 015.306-5.345c5.454 2.238 11.767 2.586 17.54 2.515 5.181-.066 10.385-.388 15.548.184 4.636.514 9.031 1.941 13.328 3.712 4.287 1.769 8.468 3.798 12.855 5.314 4.675 1.617 9.478 2.378 14.423 2.331 10.045-.093 19.892-2.83 29.956-2.569 5.162.135 10.213 1.066 15.18 2.378zm12.168-16.412l-4.612 6.22a87.973 87.973 0 00-4.837-1.17c-5.033-1.058-10.131-1.53-15.273-1.267-10.064.513-20.041 3.24-30.165 2.326-4.665-.42-9.099-1.786-13.423-3.54-4.296-1.744-8.475-3.783-12.845-5.343-4.801-1.712-9.697-2.511-14.787-2.611-5.164-.106-10.328.299-15.491.071-3.216-.143-6.562-.59-9.731-1.526a377.823 377.823 0 016.562-5.905c3.488.55 7.077.653 10.48.611 5.181-.066 10.384-.388 15.548.184 4.635.514 9.03 1.941 13.327 3.712 4.287 1.769 8.468 3.798 12.855 5.314 4.675 1.617 9.478 2.378 14.423 2.332 10.046-.094 19.892-2.831 29.957-2.57 6.146.16 12.133 1.447 18.012 3.162zm11.919-16.075l-4.616 6.225a87.396 87.396 0 00-4.468-1.069c-5.034-1.058-10.132-1.53-15.273-1.267-10.065.513-20.042 3.24-30.165 2.326-4.665-.42-9.1-1.786-13.423-3.54-4.297-1.744-8.476-3.783-12.846-5.343-4.8-1.712-9.696-2.511-14.787-2.611-5.163-.106-10.327.299-15.491.071a46.16 46.16 0 01-4.852-.462 348.719 348.719 0 018.048-6.397 83.46 83.46 0 004.115.039c5.181-.066 10.384-.388 15.548.184 1.095.123 2.179.295 3.252.511 3.457.698 6.795 1.85 10.075 3.201 4.287 1.769 8.468 3.798 12.856 5.314 4.675 1.617 9.477 2.378 14.423 2.331 10.045-.093 19.891-2.83 29.956-2.569 6.019.155 11.887 1.395 17.648 3.056zM78.843 169.969c-.396-.917-1.526-.73-2.278-.433a4.237 4.237 0 00-1.879 1.486c-.08-.014-.16-.029-.24-.039-1.34-.184-2.73.219-3.926.892-.921.518-1.771 1.174-2.587 1.842a1.06 1.06 0 00-.393.686c-.054.415.13.872.317 1.317.707 1.68 2.208 2.876 3.891 3.49a9.902 9.902 0 002.877.568 3.417 3.417 0 00.265.015c.791.009 1.1-.568 1.479-1.221a8.24 8.24 0 00.948-5.673l.108-.086c.067-.056.13-.108.187-.159.086-.076.16-.143.216-.197.644-.597 1.42-1.555 1.015-2.488zm19.069 8.696c-.018-.027-.04-.054-.06-.081a7.965 7.965 0 00.248-.629c.3-.825.548-2.034-.24-2.677-.769-.632-1.69.051-2.22.663a4.21 4.21 0 00-.984 2.154c-.002.01-.002.017-.005.027-1.378.411-2.51 1.455-3.311 2.671-.58.882-1.034 1.854-1.452 2.822-.059.138-.09.268-.096.391a.887.887 0 00.02.258c.096.457.513.82.926 1.167 1.4 1.167 3.282 1.54 5.06 1.314a10.017 10.017 0 002.93-.865c.031-.012.06-.027.092-.041.05-.023.094-.047.138-.072.61-.366.62-.992.654-1.709a8.236 8.236 0 00-1.7-5.393zm24.652-1.095c.032-.047.064-.094.091-.138.115-.169.208-.324.272-.432.447-.757.919-1.897.268-2.678-.641-.764-1.673-.265-2.307.236a4.195 4.195 0 00-1.334 1.837c-.017.04-.032.081-.046.121-1.43.145-2.739.958-3.754 2.002-.737.759-1.363 1.629-1.955 2.501a1.007 1.007 0 00-.192.673c.002.081.02.162.044.241.106.358.374.697.644 1.027 1.157 1.41 2.933 2.129 4.724 2.24a9.976 9.976 0 002.904-.268c.078-.017.157-.037.233-.056.005-.003.012-.003.017-.005.781-.209.917-.855 1.093-1.595a8.244 8.244 0 00-.702-5.706zm24.878 5.306c.052-.074.096-.143.138-.209.064-.103.118-.192.159-.263.447-.757.919-1.896.268-2.678-.641-.764-1.673-.265-2.307.236a4.193 4.193 0 00-1.316 1.791 1.689 1.689 0 00-.064.167c-1.43.145-2.739.958-3.754 2.002-.737.759-1.363 1.629-1.956 2.501-.25.371-.238.72-.098 1.052.03.078.069.154.113.228.13.226.305.447.482.661 1.157 1.41 2.933 2.13 4.724 2.24a10.051 10.051 0 003.137-.324c.064-.017.125-.037.182-.061.636-.249.764-.855.928-1.538a8.25 8.25 0 00-.702-5.707c.022-.032.046-.066.066-.098zm25.5 7.238a8.262 8.262 0 00-2.265-5.287l.027-.081a10.506 10.506 0 00.164-.567c.219-.85.354-2.079-.491-2.646-.825-.555-1.678.211-2.15.87a4.267 4.267 0 00-.771 2.132c-.005.044-.007.088-.01.133-1.331.535-2.363 1.68-3.046 2.967-.496.931-.855 1.943-1.182 2.946a1.033 1.033 0 00.165.995c.206.28.531.511.852.732 1.504 1.032 3.413 1.228 5.162.835 1.027-.228 2.017-.649 2.923-1.184a1.217 1.217 0 00.374-.322c.309-.403.272-.933.248-1.523zm28.99 2.564c-.051-.294-.186-.596-.324-.923a8.245 8.245 0 00-3.977-4.154 3.38 3.38 0 01-.005-.17l-.017-.248-.027-.256c-.094-.874-.396-2.07-1.386-2.304-.97-.231-1.498.786-1.71 1.567a4.217 4.217 0 00.01 2.202c.015.066.035.13.054.194a2.717 2.717 0 00-.145.14c-.965.963-1.486 2.329-1.665 3.707-.135 1.049-.118 2.12-.072 3.174a1.1 1.1 0 00.062.329.814.814 0 00.113.231c.275.41.835.565 1.383.7 1.769.437 3.626-.047 5.127-1.029.879-.575 1.661-1.317 2.321-2.135a1.169 1.169 0 00.258-1.025z" fill="#FFC93D"/><path d="M74.89 179.793c-.012-.002-.024-.002-.039-.002-.076-.003-.15-.005-.226-.013-.496-1.41-1.226-2.739-2.336-3.763-1.312-1.214-3.024-1.852-4.749-1.612a.884.884 0 01.069-.258c1.634-.199 3.257.357 4.56 1.438 1.321 1.095 2.169 2.606 2.721 4.21zm24.068 5.975c-.044.024-.088.049-.138.071a1.554 1.554 0 01-.093.042 7.127 7.127 0 00-3.319-1.949c-1.685-.447-3.864-.42-5.596.332-.02-.081-.025-.167-.02-.258 1.772-.742 3.968-.764 5.683-.309a7.336 7.336 0 013.483 2.071zm23.215-.896c-.005.002-.012.002-.017.005-.076.019-.155.039-.233.056a6.646 6.646 0 00-2.334-2.316c-1.798-1.052-3.95-1.185-5.938-.683a.913.913 0 01-.044-.241c2.046-.511 4.255-.371 6.107.712a6.912 6.912 0 012.459 2.467zm.391-7.302c.027.051.054.103.078.157a7.002 7.002 0 00-.742-.491 7.153 7.153 0 00-2.346-.841c.027-.078.059-.154.094-.23a7.265 7.265 0 012.039.675c.339.172.66.371.967.592a3.548 3.548 0 01-.09.138zm24.586 12.649a1.387 1.387 0 01-.182.061c-.025.008-.049.012-.074.017a6.984 6.984 0 00-3.707-2.419c-1.439-.371-2.945-.322-4.412-.192-.049.005-.098.01-.15.017a1.51 1.51 0 01-.113-.228c.123-.017.216-.03.263-.035.73-.064 1.462-.108 2.196-.091 1.238.027 2.482.231 3.607.772a7.144 7.144 0 012.572 2.098zm25.544 1.419a1.217 1.217 0 01-.177.184c-1.025-.54-2.184-.845-3.351-.951-1.887-.167-3.977-.009-5.783.705a1.123 1.123 0 01-.133-.213c1.981-.796 4.312-.946 6.361-.688 1.078.137 2.139.452 3.083.963zm29.266 1.284c-1.445.123-2.877.4-4.268.833-1.147.356-2.272.81-3.331 1.383a8.22 8.22 0 00-1.42.943c-.029.027-.064.054-.098.086a.814.814 0 01-.113-.231c.128-.105.248-.201.351-.277.985-.747 2.157-1.268 3.307-1.71a20.036 20.036 0 015.545-1.27c.017.081.027.162.027.243zm-7.555-4.197c.047-.049.096-.095.145-.14-.019-.064-.039-.127-.054-.194a10.44 10.44 0 013.113-1.208l.017.248c-1.138.245-2.226.68-3.221 1.294zm-23.63-4.213c-.02.073-.044.152-.071.233a8.372 8.372 0 00-3.248-.211c.007-.084.015-.167.027-.251a8.604 8.604 0 013.292.229zm-23.196-1.844a5.227 5.227 0 01-.137.209c-.17-.101-.342-.192-.511-.28-.801-.418-1.663-.72-2.548-.843.03-.079.062-.157.099-.233a7.83 7.83 0 012.012.594c.366.162.734.344 1.085.553zm-49.727-4.084c.02.027.042.054.06.081a11.297 11.297 0 00-3.256-.57c.012-.083.027-.164.044-.245 1.096.034 2.184.223 3.226.562a3.065 3.065 0 01-.074.172zm-20.24-5.93c-.057.052-.12.103-.187.16a11.886 11.886 0 00-2.98-1.83c.081.009.16.024.241.039.037-.052.074-.101.113-.15a12.014 12.014 0 012.813 1.781z" fill="#FFC93D"/><path d="M136.163 2.707c.295.535.727 1.022 1.192 1.42.84.717 2.311 1.191 3.547 1.267a8.44 8.44 0 00.845-1.562c.268-.673 1.057-2.344.799-3.133-.165-.508-.563-.818-1.359-.65-1.049.22-2.545 1.348-3.486 1.827-.521.263-1.042.526-1.562.791a.17.17 0 01.024.04z" fill="#5F3C36"/><path d="M142.546.698c-.258.548-.629 1.58-1.204 2.039-.415.334-.585.543-.681 1.066-.066.37-.238.673-.334 1.02a.836.836 0 00.022.523.84.84 0 00.514.479l-.184-.106a8.55 8.55 0 001.068-1.889c.268-.673 1.057-2.344.799-3.132z" fill="#1F3044"/><path d="M217.809 140.752c-.479.857-1.695 1.11-2.574 1.27-1.138.209-2.302.233-3.454.152-2.209-.159-11.254-2.314-13.419-2.727-2.351-.447-4.517-.13-6.745.701a40.542 40.542 0 00-6.201 2.957c.703-4.051 6.714-6.733 4.415-10.111 1.373-1.371 2.724-2.786 4.186-4.056.832-.725 1.857-1.339 2.999-1.044.953.246 1.676 1.051 2.292 1.769 2.381 2.778 11.726 7.996 13.482 8.365.85.179 1.708.292 2.57.388 1.069.123 3.321.771 2.449 2.336zM159.904 58.57a73.85 73.85 0 00-1.44-12.64c-.356.197-.717.388-1.081.573-3.505 1.77-7.411 3.093-11.334 3.468-3.798.364-7.439-.72-10.724-2.58-6.247-3.537-10.779-9.406-16.884-13.118a29.72 29.72 0 01-.32.69 21.981 21.981 0 01-1.466 2.634 15.98 15.98 0 01-2.064 2.555c.919.958 1.833 1.916 2.757 2.87a481.375 481.375 0 009.288 9.322 370.234 370.234 0 004.705 4.51c1.533 1.445 3.041 2.964 4.702 4.263 1.734 1.356 3.682 2.137 5.888 2.28 2.081.133 4.162-.19 6.208-.536a90.105 90.105 0 006.446-1.341 93.871 93.871 0 003.066-.81c.499-.143 1.022-.261 1.506-.45.781-.315.764-.98.747-1.69z" fill="#FEA679"/><path d="M136.794 14.007c.04-.066.008-.17-.076-.186-1.973-.374-3.948-.75-5.92-1.123l-2.961-.563-1.358-.258c-.391-.073-1.042-.108-1.504-.263.197-.169.391-.34.595-.503.128-.103-.054-.283-.182-.182-.184.15-.363.302-.545.455.017-.04.012-.084-.035-.12a.6.6 0 00-.054-.042c-.044-.035-.105-.055-.154-.02-.204.133-.15.282-.018.408-6.633 5.807-9.959 14.477-11.624 22.957-1.069 5.444-1.551 10.981-2.187 16.486-.334 2.88-.71 5.756-1.231 8.608-.503 2.754-1.284 5.452-1.744 8.213-.413 2.466-.484 5.021.388 7.4a11.394 11.394 0 003.742 5.107c1.928 1.474 4.39 2.319 5.628 4.544 1.199 2.157 1.061 4.737-.221 6.813-1.005 1.626-2.774 3.916-1.216 5.79.351.422.815.732 1.255 1.054.619.45 1.238.899 1.855 1.351l3.508 2.55c1.007.732 2.014 1.464 3.022 2.199l.486.353c.103.074.211.16.322.249l.4.316c.361.283.754.561 1.162.71.285.106.58.148.875.086.707-.149 1.13-.862 1.221-1.537.11-.828-.295-1.565-.85-2.152-.808-.863-1.852-1.509-2.752-2.275a34.481 34.481 0 01-2.822-2.703 33.692 33.692 0 01-1.823-2.117c-.13-.167-.261-.334-.391-.504-.069-.093-.383-.422-.4-.538-.044-.32.774-.923.997-1.176.361-.413.698-.853 1.007-1.308 2.872-4.22 3.26-9.497 2.912-14.445a55.39 55.39 0 00-.094-1.147c1.902-2.825 3.398-5.896 4.552-9.104 1.243-3.45 2.091-7.05 2.622-10.667.707-4.817.891-9.696.864-14.56-.029-4.611-.344-9.22-.309-13.829v-.041c.037-4.914.607-9.938 3.058-14.286z" fill="#5F3C36"/><path d="M146.235 14.74c-.086-.225-.169-.449-.172-.652-.007-.47.044-.939.167-1.388.189-.708.29-1.484.189-2.143-.184-1.208-.827-2.191-1.446-3.228 0 0 0-.002-.003-.002-.835-.162-1.265-1.349-1.887-2.01-2.414-2.56-3.805-2.186-4.478-2.572-.477-.273-.545-.842-.639-1.032-.459.234-5.363 1.801-9.895 6.167a17.883 17.883 0 00-5.061 5.422c-.43.712-.933 1.518-1.009 2.365-.16 1.734 1.567 2.609 3.002 2.93 2.053.46 4.232.652 6.323.355a10.918 10.918 0 003.943-1.344 1.3 1.3 0 001.046.558c.285.007.521-.074.72-.212 2.324.808 5.262 1.73 7.522.587.619-.312 1.285-1.02 1.644-1.81.184-.41.287-.84.26-1.248-.014-.226-.125-.484-.226-.742z" fill="#5F3C36"/><path d="M146.768 3.613c-.523-1.79-2.53-.688-3.562-.086-1.091.636-1.609.912-2.678 1.342-.41 1.044-.275 2.225.222 3.166.454.867 1.233 1.334 2.036 1.757.983-.487 1.418-.995 2.253-1.966.449-.52 1.007-1.24 1.385-2.014.357-.727.551-1.501.344-2.199z" fill="#5F3C36"/><path d="M190.855 22.269a14 14 0 00.103-4.127c-.324-2.585-1.363-5.351-3.186-7.262-1.906-2.002-4.8-1.919-7.193-.921a.685.685 0 00-.577.051c-.251.135-.396.42-.526.659-.268.496-.518 1.004-.781 1.503-1.042 1.968-2.138 3.909-3.223 5.854-2.13 3.815-4.24 7.66-5.835 11.736-.828 2.117-1.616 4.345-1.963 6.6-.267 1.747-.076 3.76 1.295 5.03 1.339 1.24 3.27 1.154 4.943.834 1.1-.208 2.351-.754 3.461-.383.973.324 1.59 1.238 2.351 1.87 1.58 1.304 3.715 1.447 5.677 1.407.774-.014 1.892.116 2.398-.616.516-.745.16-1.649-.201-2.38 2.255-1.045 3.228-3.56 3.147-5.934-.052-1.535-.531-2.962-.914-4.434-.433-1.655-.371-3.267-.027-4.935.317-1.528.786-3.017 1.051-4.552z" fill="#CF7B53"/><path d="M180.894 15.548c-.556 1.668-.986 3.373-1.371 5.085-.769 3.422-1.354 6.899-2.427 10.244-.546 1.705-1.219 3.38-2.103 4.94-.774 1.367-1.776 2.723-3.233 3.41-.678.32-1.459.41-2.051.902-.605.501-.909 1.26-1.428 1.833-.995 1.1-2.557 1.606-4.016 1.434a4.487 4.487 0 01-2.12-.85c-.575-.417-1.108-.872-1.863-.815-.692.051-1.287.476-1.953.639-.896.218-1.837.007-2.626-.45-3.515-2.041-2.361-6.69-1.098-9.718.725-1.742 1.462-3.457 2.005-5.267.545-1.823.97-3.676 1.415-5.525.444-1.855.84-3.789 1.651-5.526.717-1.54 1.832-2.852 3.191-3.866 1.486-1.108 3.134-1.651 4.857-2.268 1.631-.582 2.628-1.739 3.881-2.862.749-.67 1.58-1.184 2.597-1.3 1.073-.12 2.26.05 3.301.313 1.162.295 1.831.987 2.531 1.909.695.916 1.383 1.84 2.076 2.76.005.008.012.01.017.016-.042 1.72-.693 3.338-1.233 4.962z" fill="#CF7B53"/><path d="M181.011 48.922c-.756.15-1.69.02-2.459.002a49.461 49.461 0 01-5.114-.39c-.494-.064-.818-.008-.993-.573-.098-.314-.209-6.24-.378-7.665-.251-2.095-1.182-4.338-2.99-5.429a59.556 59.556 0 0014.04-7.495 104.01 104.01 0 00-1.396 20.294c.005.138.037.352.018.497.002.083.005.164.009.248-.149.388-.395.56-.737.51z" fill="#FEA679"/><path d="M185.863 19.52c-.145-2.629-1.007-5.365-3.225-7.078-2.364-1.822-5.665-2.188-8.606-2.142-3.405.054-6.748 1.044-8.711 3.864-1.455 2.086-2.668 10.618-2.808 12.463-.209 2.73-.413 5.85.997 8.345 1.447 2.557 4.574 3.398 7.446 3.294 2.936-.105 5.783-1.22 8.078-2.947 4.815-3.624 7.141-10.068 6.829-15.8z" fill="#FEA679"/><path d="M158.025 91.224c-.01.002-.017 0-.027 0 .12 1.142.115 2.287-.027 3.43a15.752 15.752 0 01-1.074 4.05 15.306 15.306 0 01-2.034 3.523c-1.82 2.361-4.311 3.928-6.935 5.267-6.2 3.159-12.521 6.085-18.727 9.237-5.5 2.793-10.969 5.886-15.447 10.19-4.717 4.535-8.37 10.674-9.289 17.224-.454 3.23-.071 6.623 1.634 9.458 1.609 2.67 4.245 4.291 7.245 4.977 2.965.675 6.05.54 9.06.309a93.273 93.273 0 007.377-.864 91.162 91.162 0 003.12-.541 94.708 94.708 0 0015.057-4.201c1.567-.579 3.191-1.142 4.67-1.926 1.599-.845 2.491-2.041 3.014-3.758.523-1.718.975-3.459 1.444-5.194a420.318 420.318 0 007.304-31.887c.712-3.781 1.371-7.579 1.852-11.399l.03-.243c.317-2.555.555-5.122.675-7.697a84.74 84.74 0 00.074-2.257c-2.999.766-5.997 1.533-8.996 2.302z" fill="#7464DC"/><path d="M200.8 143.406c-.789-1.597-2.843-4.461-5.032-7.24l-.152-.194c-2.808-3.552-5.798-6.913-6.613-7.237a24.179 24.179 0 00-.022-3.737c-.474-5.662-1.921-8.674-2.536-14.324-.449-4.128-.491-8.274-.385-12.421l.007-.25c.062-2.312.17-4.624.278-6.93.005-.067-.062-.129-.128-.129l-19.238.236h-.032c-.747.01-1.489.012-2.235.03-.521.01-1.079.032-1.558.265-1.044.513-1.339 1.975-1.7 2.968a161.984 161.984 0 00-1.525 4.456c-.479 1.449-.951 2.896-1.447 4.338a117.73 117.73 0 01-15.035 29.404 116.526 116.526 0 01-8.795 11.015c-.938 1.04-1.879 2.096-3.029 2.904 1.206-1.793 2.73-3.422 4.309-4.785.125-.109-.056-.288-.179-.18-4.046 3.489-7.957 8.699-6.668 14.364.168.73.401 1.418.696 2.066 2.093 4.631 7.2 7.242 12.015 8.36 13.126 3.051 26.136-2.609 37.412-8.819 4.13-2.275 18.87-11.2 21.572-14.005a.13.13 0 00.02-.155z" fill="#7464DC"/><path d="M168.976 22.143c-.258 1.037-.931 1.759-1.503 1.616-.573-.142-.826-1.098-.568-2.134.258-1.037.931-1.76 1.504-1.617.572.143.828 1.098.567 2.135zm-23.367-8.936c-.214.857-.769 1.457-1.243 1.339-.472-.118-.683-.91-.47-1.764.214-.857.769-1.457 1.243-1.339.475.118.683.907.47 1.764zm36.075 95.064a256.222 256.222 0 00-.864-16.715c-.013-.157-.258-.157-.246 0 .41 4.877.685 9.763.818 14.654.064 2.425.096 4.852.091 7.279-.005 2.327-.071 4.648-.661 6.911-2.11 8.089-8.861 13.757-14.887 19.031-3.528 3.088-7.024 6.267-9.719 10.131-.091.131.123.254.212.123 4.91-7.04 12.374-11.629 18.061-17.953 2.601-2.891 4.886-6.161 6.151-9.868 1.477-4.339 1.128-9.077 1.044-13.593zm-5.75-85.489c-.258 1.036-.931 1.759-1.504 1.616-.572-.142-.825-1.098-.567-2.132.258-1.037.931-1.76 1.503-1.617.573.14.826 1.096.568 2.133z" fill="#1F3044"/><path d="M171.497 21.175c-.396.818-1.162 1.452-1.786 2.1-.506.524-1.184 1.064-1.482 1.75-.528 1.213.899 2.38 1.649 3.134.115.118.297-.063.179-.179-.479-.482-.985-.985-1.373-1.545-.582-.84-.175-1.533.442-2.184.865-.912 2.037-1.798 2.592-2.946.069-.15-.15-.277-.221-.13z" fill="#D1724E"/><path d="M171.821 27.692a12.122 12.122 0 00-1.26-1.08c-.133-.099-.258.122-.128.22.428.32.831.669 1.209 1.042.115.113.297-.069.179-.181z" fill="#D1724E"/><path d="M171.347 31.509c-1.007.481-2.319.447-3.125-.428-.609-.663-.671-1.577-.589-2.459 2.122.519 4.331.504 6.438-.037-.69 1.224-1.523 2.349-2.724 2.924z" fill="#FAF7F5"/><path d="M195.375 49.166c-.906-.592-1.955-.94-2.999-1.238a74.507 74.507 0 00-2.086-.553c-.582-.145-1.167-.285-1.749-.427-.445-.108-.889-.209-1.331-.31a127.494 127.494 0 00-6.928-1.383 132.79 132.79 0 00-3.056-.479l.263-.08c.152-.047.088-.279-.067-.232-.25.079-.501.153-.749.231-.147-.02-.297-.044-.445-.064-.152-.02-.216.192-.076.224-2.26.69-4.53 1.336-6.819 1.933-.983.256-1.983.477-2.985.703l-.484.11c-1.047.241-2.091.487-3.113.791-.206.062-.41.126-.611.192-.082.024-.16.054-.241.079-1.951.653-3.57 1.776-4.363 3.638-.897 2.09-.826 4.478-.899 6.694l-.03 1.084c-.007.275-.015.55-.019.828-.111 4.444-.079 8.892.09 13.337.131 3.468.344 6.935.644 10.394.194 2.26.423 4.515.69 6.765.047.38-.019 1.052.256 1.373.255.288.737.236 1.088.241a557.127 557.127 0 0021.555-.081c1.452-.037 5.306-.02 5.306-.02s1.172-3.682 2.722-8.578a7362.5 7362.5 0 005.154-16.344c1.216-3.872 2.137-6.847 2.336-7.572.953-3.51 2.848-8.703-1.054-11.256z" fill="#FEA679"/><path d="M167.824 16.2c-.725.176-1.236.58-1.196 1.346.066 1.282 1.316 1.26 1.859 1.326.514.064 1.064.192 1.582.128.659-.081 1.138-.378 1.278-1.056.417-2.007-2.366-2.027-3.523-1.745zm6.894.573c-.725.177-1.236.58-1.197 1.346.066 1.283 1.317 1.26 1.86 1.327.513.064 1.064.192 1.582.128.658-.081 1.137-.379 1.277-1.057.418-2.007-2.365-2.026-3.522-1.744z" fill="#CF7B53"/><path d="M155.99 28.89c-.27-1.713-2.019-3.13-3.316-4.1-.892-.666-2.806-2.673-7.584-5.346-1.823-1.02-8.229-3.236-9.9-3.383-.02.373-.037.75-.057 1.125-1.552.1-3.068.46-4.512 1.076-.037.015-.064.069-.062.106a3.847 3.847 0 001.968 3.07c.626.35 1.277.453 1.985.453.57 0 1.083.027 1.594.307.42.228.801.538 1.197.808.653.447 1.329.882 2.078 1.152a4.1 4.1 0 001.088.24c.57.045 1.005-.122 1.42.374.43.514.99.872 1.661.97.761.114 1.447-.27 2.199-.252.051 0 .103.007.154.012 2.381 1.553 5.137 3.56 6.616 4.53.322.211.582.373.767.472.147.078.292.142.439.189.538.177 1.076.132 1.641-.145.617-.302.723-1.037.624-1.658z" fill="#5F3C36"/><path d="M188.951 29.091c-.132-1.825-.869-3.533-1.599-5.21.093-.634.147-1.273.155-1.912.039-2.965-.806-5.982-2.484-8.436-.914-1.336-2.108-2.346-3.604-2.975-1-.42-2.056-.67-3.122-.85.076-.196.145-.4.201-.619a1.834 1.834 0 01-.398-.027c-1.039-.184-1.916-.965-2.943-1.243-2.464-.666-4.822.853-6.864 2.066-3.483 2.074-6.048 5.685-7.77 9.301-.936 1.965-1.528 4.523-.371 6.537 1.364 2.373 3.673-1.695 4.383-2.85 1.661-2.707 3.08-5.778 5.763-7.645 2.01-1.397 4.719-1.955 6.515-3.478 2.233.437 4.009 2.39 4.213 4.766.128 1.488-.105 3.016.413 4.454.179.496.435.967.801 1.348.528.55 1.191.693 1.852 1.007-.206 2.54-2.412 5.123-3.459 7.24-.771 1.56-1.326 3.287-1.236 5.046.045.877.276 1.725.467 2.58.258 1.147.288 2.156.049 3.309-.255 1.233-.54 2.967.747 3.758 1.221.755 2.688-.152 3.587-.995.631-.592 1.223-1.29 2.014-1.673.718-.349 1.337-.329 1.715-1.105.779-1.6.816-3.535.882-5.277.093-2.351.265-4.763.093-7.117z" fill="#CF7B53"/><path d="M183.557 27.852c-.634.467-1.435.752-2.229.725-1.098-.037-1.326-.94-1.248-1.867.101-1.167.499-2.277.73-3.42a.103.103 0 00.125-.032c1.037-1.213 2.975-1.223 3.882.17.956 1.466.02 3.48-1.26 4.424z" fill="#FEA679"/><path d="M183.797 24.2c-.634-.86-1.786-.924-2.474-.084-.046.056-.056.162.027.201.592.273 1.334.688 1.116 1.462-.17.602-1.042 1.209-1.663.912-.148-.072-.278.15-.128.22.734.354 1.629-.191 1.985-.867.452-.855-.337-1.518-1.037-1.874.575-.565 1.437-.54 1.953.162.098.125.32 0 .221-.133z" fill="#D1724E"/><path d="M194.091 67.989a7220.22 7220.22 0 01-5.154 16.344 69.16 69.16 0 00-6.599-.742c-8.35-.548-16.707.233-25.016 1.044l-.322.03c-.071.004-.122-.064-.127-.128-.182-2.897-.366-5.796-.546-8.692-.037-.57-.044-1.108-.297-1.606a2.119 2.119 0 00-.157-.26c-.32-.443-.71-.836-1.052-1.261-.626-.781-1.198-1.612-1.626-2.52-.838-1.792-.855-3.678.037-5.452.698-1.385 1.707-2.621 2.705-3.845.223-.275.452-.55.67-.828.207-.257.408-.518.602-.778a96.755 96.755 0 003.39-4.847c.396-1.467.791-2.938 1.184-4.405.126-.46.209-.98.354-1.462.017-.064.04-.127.059-.191.199-.583.511-1.089 1.113-1.344.813-.346 2.508-.005 2.543.442.002.037.005.074.01.11.081.998.311 1.978.749 2.897.919 1.926 2.712 3.255 4.709 3.923 2.759.924 5.712.526 8.321-.67 2.125-.816 3.984-2.282 5.323-4.125a17.754 17.754 0 002.076-2.985 154.607 154.607 0 013.13.737c-.531.602-.857 1.349-1.142 2.11a19.998 19.998 0 00-.875 3.084 20.463 20.463 0 00-.263 6.347c.43 3.732 2.196 8.2 6.201 9.073z" fill="#fff" stroke="#000" stroke-width=".3"/><path d="M161.11 60.483c-2.172-.445-4.034-1.418-5.584-3.01-1.513-1.557-2.862-3.302-4.213-5-2.769-3.483-4.739-7.35-7.171-11.076-2.641-4.051-5.119-8.404-7.338-12.698.921-.725 1.253-1.035 2.174-1.76l2.02-1.591c3.21 3.739 6.714 7.212 10.266 10.625 3.596 3.454 7.188 7.082 11.485 9.674 2.051 1.238 28.406 3.827 28.531 3.962.143.155-2.678 4.317-2.798 5.707-.16 1.84 3.27 5.469 3.14 7.311-4.354.744-28.379-1.707-30.512-2.145z" fill="#FEA679"/><path d="M139.128 106.058c-.437-1.182-1.277-2.297-1.99-3.327a15.928 15.928 0 00-2.014-2.378c-.059-.078-.118-.157-.18-.235-.953-1.207-2.198-2.155-3.115-3.386-.955-1.284-1.002-2.643-.471-4.127.636-1.786 1.353-3.532 1.911-5.348a59.184 59.184 0 001.413-5.552c.378-1.857.764-3.773.813-5.67.024-.968-.074-1.955-.474-2.847-.386-.853-1.032-1.538-1.668-2.209-1.153-1.216-2.189-2.513-3.042-3.96a20.488 20.488 0 01-1.99-4.576c-.516-1.747-.813-3.558-1.535-5.235a101.445 101.445 0 01-4.83 8.313c-.874 1.35-1.764 2.702-2.727 3.992-.437.587-.933 1.073-1.52 1.38-.089 1.804.012 3.636.658 5.336.671 1.762 1.919 3.196 3.25 4.496 2.427 2.37 5.587 4.682 6.154 8.269.238 1.503-.211 2.746-.951 4.034-.417.73-.914 1.498-.972 2.363-.064.94.491 1.666 1.164 2.25 1.27 1.106 2.611 2.069 3.778 3.3a24.53 24.53 0 013.051 3.965c.904 1.464 1.668 3.461 3.501 3.957.167.044 1.334.091 1.636-.172.659-.584.393-1.977.15-2.633zm-25.846-35.294c-.44-.557-1.101-.88-1.486-1.489a2.505 2.505 0 01-.325-.796c.268-.06.536-.125.804-.189.159-.037.093-.282-.067-.245l-.781.184a2.811 2.811 0 01.192-1.427c.061-.153-.184-.219-.246-.07a3.009 3.009 0 00-.196 1.556c-2.545.585-5.172 1.078-7.768.61-1.221-.222-2.415-.647-3.452-1.337-1.103-.732-1.832-1.835-2.847-2.66-1.744-1.416-4.073-1.647-6.228-1.828-2.616-.224-5.308-.507-7.684-1.713-2.4-1.218-3.953-3.378-5.645-5.385a37.017 37.017 0 00-5.57-5.35 38.824 38.824 0 00-2.618-1.872 28.596 28.596 0 00-3.857-2.142c-2.061-.936-4.552-1.573-6.697-.531-1.906.926-3.324 3.095-2.425 5.206.83 1.945 3.046 2.871 4.918 3.547-1.09 2.064-1.135 4.599-.076 6.687 1.057 2.08 3.196 3.474 5.493 3.761 1.263.16 2.454-.081 3.65-.484.556-.19 1.119-.4 1.691-.565.845-.246 1.707-.393 2.592-.226 1.67.317 2.213 1.784 2.913 3.13a29.23 29.23 0 002.369 3.793c1.456 1.982 3.247 4.274 5.581 5.252 2.53 1.061 4.972-.218 7.04-1.663.52-.364 1.052-.89 1.63-1.147.94-.418 1.57.771 2.088 1.341.78.855 1.68 1.712 2.808 2.076 2.154.693 3.913-.872 5.579-1.983.547-.366 1.117-.71 1.741-.926.85-.292 1.715-.243 2.592-.125 1.341.184 2.712.427 3.852-.487.799-.638 1.108-1.65.435-2.503z" fill="#5F3C36"/><path d="M156.651 116.611a165.125 165.125 0 00-14.103 13.401c-4.179 4.471-8.267 9.214-10.782 14.855-1.374 3.08-2.243 6.377-2.344 9.755-.005.157.241.157.246 0 .186-6.23 2.999-11.978 6.642-16.911 3.69-5 8.129-9.507 12.6-13.804a165.753 165.753 0 017.913-7.124c.123-.101-.051-.273-.172-.172zm29.416-18.609l-.007.25c-6.582.686-13.202.976-19.818.868a169.245 169.245 0 01-6.314-.221c-1.012-.054-2.021-.12-3.031-.194a5.99 5.99 0 00.096-.239c1.002.074 2.009.138 3.014.192.322.02.644.037.966.052a165.855 165.855 0 0025.094-.708zm2.209 31.101c-1.867 3.447-4.597 6.375-7.338 9.141a85.394 85.394 0 01-18.086 13.915c-3.402 1.955-6.977 3.864-10.723 5.068a20.82 20.82 0 01-3.267.781c-.16.025-.524.138-.683.118-.526-.066-.484-.226-.285-.604.081-.229.636-.344.837-.408a105.013 105.013 0 018.81-2.332c.155-.034.088-.27-.066-.235a103.207 103.207 0 00-8.471 2.225c-.391.121-.818.209-1.15.462-.329.251-.643.779-.147 1.039.292.153.666.049.978.008.56-.077 1.117-.18 1.668-.307a24.672 24.672 0 003.112-.954c1.993-.746 3.919-1.675 5.813-2.643a85.629 85.629 0 0020.179-14.337c3.36-3.213 6.795-6.692 9.028-10.812.078-.14-.133-.265-.209-.125z" fill="#1F3044"/><path d="M157.29 152.69a60.111 60.111 0 01-11.448-1.116c-.154-.029-.221.207-.066.236a60.398 60.398 0 0011.514 1.123c.16.005.16-.241 0-.243zm38.478-16.525a77.576 77.576 0 01-5.402 5.076 78.602 78.602 0 01-25.362 14.486c-.15.052-.214-.186-.066-.235a78.236 78.236 0 007.758-3.145 78.434 78.434 0 0022.92-16.376l.152.194z" fill="#1F3044"/><path d="M183.434 48.432l-14.804-1.327c-.157-.015-.157.231 0 .246l14.804 1.326c.157.013.157-.233 0-.245zm-26.09 10.308a35.912 35.912 0 01-7.537-8.68c-.083-.135-.295-.01-.211.123a36.079 36.079 0 007.576 8.729c.118.103.295-.071.172-.172z" fill="#D1724E"/><path d="M182.338 72.374c-5.144 1.599-10.76-.374-13.753-4.852-.088-.13-.299-.008-.211.123a12.448 12.448 0 0014.028 4.965c.152-.045.088-.283-.064-.236z" fill="#404459"/><path d="M161.717 26.637c-.631.938-1.275 1.899-1.597 2.994-.344 1.18-.221 2.415-.356 3.624-.263 2.339-2.132 3.98-2.584 6.247-.03.155.206.221.236.067.422-2.128 2.179-3.693 2.53-5.847.194-1.194.061-2.42.307-3.607.258-1.245.975-2.314 1.675-3.35.089-.136-.122-.258-.211-.128zm25.043 14.135c-1.329.206-2.391-.803-2.781-1.992-.347-1.054-.248-2.182-.123-3.263.248-2.176.224-4.24-.43-6.353-.047-.15-.285-.086-.236.067a13.13 13.13 0 01.607 4.056c-.015 1.336-.329 2.653-.297 3.99.044 1.849 1.145 4.072 3.326 3.733.155-.024.088-.263-.066-.238zm1.42-1.911a3.387 3.387 0 01-2.206-2.793c-.017-.155-.263-.157-.246 0a3.645 3.645 0 002.388 3.03c.148.053.212-.183.064-.237zm-3.592-24.535c-.489-1.818-1.921-3.439-3.871-3.611-.158-.015-.158.23 0 .246 2.019.179 3.365 1.997 3.736 3.866.209 1.057.165 2.145.032 3.206-.138 1.098-.3 2.258-.84 3.238-.076.138.135.263.211.123.548-.99.713-2.14.86-3.25.167-1.265.206-2.575-.128-3.818zm2.455.777c-.052-.147-.29-.083-.236.066.383 1.113.474 2.297.213 3.45-.265 1.176-.911 2.154-1.601 3.122-.091.13.12.253.211.123.744-1.047 1.422-2.103 1.668-3.38a6.543 6.543 0 00-.255-3.381zm-9.255-5.753c-2.459-2.396-5.94-.19-7.864 1.746-.604.61-1.071 1.334-1.663 1.946-.638.658-1.604.693-2.405 1.054-1.321.597-2.324 1.71-2.842 3.056-.057.147.182.21.236.066a5.24 5.24 0 013.208-3.093c.573-.191 1.189-.28 1.685-.65.551-.411.922-1.072 1.371-1.58 1.816-2.06 5.508-4.897 8.1-2.371.113.11.287-.064.174-.175z" fill="#995534"/><path d="M125.295 83.93c-.956.401-2.088.263-2.877-.434-.52-.465-.815-1.246-1.636-1.15-.474.054-.865.393-1.321.506-.565.138-1.143-.005-1.642-.285-1.073-.602-1.594-1.742-2.043-2.83-.278-.673-.516-1.643-1.15-2.076-.347-.236-.7-.189-1.098-.154-.548.049-1.049.004-1.555-.22-2.258-.99-2.624-3.664-2.852-5.821-.018-.155-.263-.158-.246 0 .172 1.636.359 3.41 1.395 4.758.423.548.971 1.015 1.607 1.295.282.123.582.209.889.245.479.057.953-.098 1.42.005.894.202 1.204 1.695 1.526 2.445.329.766.72 1.543 1.351 2.108.476.427 1.076.759 1.722.82.309.03.619-.005.914-.106.587-.199 1.186-.712 1.778-.228.32.26.514.65.831.919a2.969 2.969 0 003.048.445c.148-.064.084-.303-.061-.241z" fill="#1F3044"/><path d="M126.027 103.365a.117.117 0 00-.064.047.318.318 0 00-.024.044.97.97 0 00-.229.629c-.029.206-.02.413.047.597l.486.354c.103.073.211.159.322.248.364.007.626-.278 1-.351.344-.067.621-.089.729-.472.384-1.354-1.498-1.791-2.267-1.096zm3.56 1.656c-.052-.394-.398-.644-.779-.484-.28.115-.518.228-.528.746-.007.411.435.696.847.659.406-.037.504-.59.46-.921zm-1.403.739c-.054-.395-.398-.643-.781-.486-.18.074-.342.147-.438.327.361.282.755.56 1.162.71.064-.18.076-.391.057-.551zm6.77-.704a.123.123 0 00-.046.063l-.013.047a.962.962 0 00-.034.668c.074.489.373.914.955.924.507.01.669-.442 1.067-.653.307-.165.567-.266.557-.664-.027-1.405-1.953-1.275-2.486-.385zm3.806 1.537c-.165-.361-.568-.499-.887-.236-.234.192-.43.371-.288.867.113.393.617.538 1.003.384.375-.155.309-.71.172-1.015zm-1.582.737c-.165-.361-.568-.499-.887-.236-.234.192-.43.371-.288.867.113.393.617.538 1.003.383.378-.154.309-.71.172-1.014zm16.466-79.521c-.245-1.383-2.13-.96-2.52.002a.113.113 0 00-.035.07l-.004.048a.963.963 0 00.071.669c.147.469.508.845 1.083.764.501-.07.595-.538.956-.811.277-.209.518-.349.449-.742zm1.477.936c-.219-.332-.639-.406-.911-.099-.202.226-.369.433-.153.902.172.373.693.437 1.049.224.352-.21.199-.75.015-1.027zm-1.449.97c-.219-.332-.637-.405-.912-.096-.113.128-.216.248-.243.415.322.212.582.374.767.472.147.078.292.142.439.19.263-.237.121-.72-.051-.981z" fill="#C46E33"/><path d="M117.775 22.041c.693-.388 1.504-.972 1.251-1.872-.244-.864-1.246-.736-1.885-.452a7.749 7.749 0 00-1.656 1.025c-1.09.7-2.154 1.58-2.604 2.822-.154.425-.213.944.057 1.32-.55.634-.931 1.481-.622 2.302.126.331.364.552.639.658-.459.486-.884 1.145-.513 1.798a.91.91 0 00.535.42c-.521.519-.874 1.351-.53 2.017.179.35.425.504.692.536.025.04.072.064.128.044l.194-.061c.126-.025.253-.07.376-.128.993-.359 2.243-.985 2.331-2.02a1.124 1.124 0 00-.66-1.112.976.976 0 00-.19-.06l.934-.527c.418-.236.897-.462 1.191-.858.398-.533.565-1.626.064-2.145-.275-.285-.606-.363-.948-.331.671-.42 1.42-.823 1.916-1.415.396-.472.494-1.11.047-1.587a1.2 1.2 0 00-.747-.374z" fill="#FEA679"/><path d="M116.969 22.154c-1.4.548-2.596 1.474-3.817 2.334-.128.09-.005.304.122.21 1.199-.844 2.381-1.768 3.759-2.308.147-.057.084-.295-.064-.236zm-1.134 3.203a15.1 15.1 0 00-2.595 1.914c-.118.108.057.28.175.174a14.851 14.851 0 012.542-1.877c.138-.078.015-.292-.122-.211zm-1.158 3.719c-.346.479-1.014.563-1.476.897-.128.09-.005.304.123.21.506-.368 1.179-.451 1.565-.984.093-.128-.121-.25-.212-.123z" fill="#D1724E"/><path d="M70.998 59.984c.197-.307.477-.542.715-.813.433-.496.683-1.059.632-1.727-.133-1.714-1.656-2.82-2.705-3.997-.695-.783-1.373-1.778-1.135-2.881.14-.659.562-1.211.86-1.813a28.596 28.596 0 00-3.857-2.142c-2.061-.936-4.552-1.573-6.697-.531-1.906.926-3.324 3.095-2.425 5.206.83 1.945 3.046 2.871 4.918 3.547-1.09 2.064-1.135 4.599-.076 6.687 1.057 2.08 3.196 3.474 5.493 3.761 1.263.16 2.454-.081 3.65-.484.556-.19 1.119-.4 1.691-.565-.432-.867-1.061-1.668-1.28-2.631-.128-.555-.098-1.125.216-1.617zm62.738-31.65c-.386-.074-.737-.21-1.01-.494-.916 1.16-.855 2.778-.803 4.2.064 1.858.13 3.715.196 5.572.057 1.659 0 3.172-.828 4.653-.869 1.558-2.004 2.919-2.52 4.665-.865 2.929.54 5.778.725 8.694.086 1.351-.195 2.555-.779 3.769-.342.707-.725 1.407-.872 2.189-.16.828-.052 1.682.228 2.474.474 1.336 1.423 2.42 2.486 3.333 1.243-3.449 2.091-7.05 2.621-10.666.708-4.818.892-9.697.865-14.561-.029-4.611-.344-9.22-.309-13.828z" fill="#F2ECE6"/><path d="M143.656 28.936c-.012-.817-.661-.56-1.769-2.365-.985-1.818-3.383-8.365-3.994-9.12-.639-.788-1.491-1.323-2.381-1.793-1.09-.577-2.201-1.12-3.304-1.678-.555-.282-1.103-.594-1.678-.835-.324-.137-.734-.304-1.093-.174-.545.196-.631.803-.491 1.297a23.47 23.47 0 00-2.167-.43c-1.079-.16-2.444-.346-3.454.194-.614.33-.754 1-.256 1.462-.651.196-1.255.584-1.132 1.353.054.34.255.602.526.816-.769.17-1.592.634-1.194 1.45.248.51.867.66 1.358.827l.184.067c-.668.184-1.162.705-.83 1.552.283.72 1.012 1.042 1.671 1.34a29.848 29.848 0 017.694 4.967c1.417 1.26 2.589 2.616 4.397 3.328 2.282.9 4.469 1.789 6.37 3.385.076.064.229.03.219-.09-.192-1.993 1.351-3.592 1.324-5.552z" fill="#FEA679"/><path d="M130.208 23.247a22.363 22.363 0 00-7.244-3.27c-.16-.039-.229.207-.069.246a22.117 22.117 0 017.183 3.245c.138.094.265-.128.13-.22zm.769-2.398c-2.68-1.386-5.402-2.769-8.407-3.275-.159-.027-.231.219-.069.246 2.983.501 5.685 1.872 8.346 3.248.147.078.277-.143.13-.219zm1.307-2.619a28.264 28.264 0 00-9.031-2.875c-.159-.022-.231.224-.068.246a28.069 28.069 0 018.971 2.847c.145.079.273-.142.128-.218zm5.095 1.403a12.966 12.966 0 00-8.043-5.363c-.16-.034-.229.214-.069.246a12.698 12.698 0 017.891 5.245c.093.135.314.007.221-.128z" fill="#D1724E"/><path d="M146.235 14.742c-.381.155-.732.354-.771.813-.045.516.317.929.737 1.177.184-.41.287-.84.26-1.248-.015-.226-.125-.484-.226-.742z" fill="#C46E33"/><path d="M143.766 18.375c-1.189-.53-1.493-1.805-1.169-2.985.042-.152-.194-.218-.236-.066-.349 1.273-.002 2.69 1.282 3.263.143.066.268-.145.123-.212zm1.647-11.976c-.285.105-.588.194-.831.41-.331.3-.415.754-.791 1.037-.491.37-1.032.54-1.395 1.115-.209.334-.145.707.034 1.007-.002-.005 0-.007-.002-.012 1.248-.543 1.678-1.052 2.609-2.132.449-.521 1.007-1.241 1.385-2.015-.29.246-.631.442-1.009.59zm-3.843 10.624a9.44 9.44 0 00-1.803-2.984 9.173 9.173 0 00-2-1.67c-.408-.251-.533-.595-.695-1.013-.337-.867-1.079-1.624-2.024-1.771a2.187 2.187 0 00-2.116.872c-.562-.825-1.702-.902-2.37-.1-.101.12.071.294.174.174.607-.728 1.644-.622 2.083.213.045.084.167.076.212 0 .587-1.012 1.931-1.206 2.862-.55.503.356.847.892 1.029 1.476.098.317.123.524.405.723.843.587 1.644 1.115 2.329 1.894a9.102 9.102 0 011.676 2.805c.056.143.292.081.238-.069zm-.471-12.342a5.213 5.213 0 00-1.157 3.339c.002.157.248.157.245 0a4.933 4.933 0 011.086-3.165c.096-.122-.076-.297-.174-.174zM82.862 72.607c-1.374-2.118-1.148-4.73-.895-7.124.017-.157-.228-.155-.245 0-.258 2.44-.472 5.092.926 7.247.088.132.3.01.214-.123zM92.14 74.6c-3.029-.994-5.088-4.08-4.86-7.256.013-.158-.233-.158-.245 0-.236 3.287 1.912 6.465 5.039 7.492.152.052.216-.186.066-.236zm37.31-8.65a21.211 21.211 0 00-7.264-5.936c-.14-.07-.266.143-.123.212a21.034 21.034 0 017.215 5.895c.096.126.268-.049.172-.171zm-3.317-38.275a14.051 14.051 0 01-5.466-1.334c-.143-.066-.268.145-.123.212a14.372 14.372 0 005.591 1.368c.155.007.155-.238-.002-.246zm2.38 1.711a10.327 10.327 0 01-4.96 1.383c-.157.002-.157.248 0 .246a10.61 10.61 0 005.085-1.418c.138-.076.012-.29-.125-.211zm24.679-10.433a21.64 21.64 0 00-8.384-2.243c-.157-.01-.157.236 0 .245 2.879.172 5.68.922 8.262 2.209.14.071.262-.14.122-.211zm-.474 3.462a63.07 63.07 0 00-4.164-2.911c-1.223-.784-2.579-1.85-4.041-2.103-.154-.027-.221.209-.066.236.779.135 1.444.53 2.115.926.695.413 1.383.838 2.064 1.275a64.516 64.516 0 013.97 2.786c.125.1.248-.113.122-.209z" fill="#1F3044"/><path d="M83.01 140.193c-.043-.091-.166-.123-.23-.057-10.243-.958-20.32-3.419-30.616-3.837a22.2 22.2 0 00.117-1.408c.01-.189-.275-.186-.285 0-.024.467-.063.931-.117 1.393-.113-.005-.229-.012-.344-.014-.185-.008-.185.287 0 .292.103.002.206.01.31.012-.74 5.923-3.47 11.667-2.931 17.656.004.084.014.17.022.256.063.599.16 1.201.294 1.808.042.184.317.105.276-.079-.003-.02-.008-.039-.01-.061.4.948 1.07 1.773 1.778 2.52 1.042 1.098 2.253 2.017 3.535 2.801 1.34.815 2.757 1.483 4.199 2.09.734.31 1.476.6 2.223.885.825.314 1.675.729 2.56.823 1.567.164 11.264-3.609 12.651-4.754.85-.7 1.71-1.373 2.413-2.196.066-.076.13-.152.19-.229.314-.393.591-.818.817-1.297.823-1.754 3.137-16.368 3.137-16.368.076-.047.079-.17.01-.236z" fill="#D4D2EE"/><path d="M79.044 158.096a3.34 3.34 0 01-.189.229l-29.92-3.837-8.777-1.125c-.155-.02-.155-.273 0-.254 2.919.376 5.837.75 8.755 1.123.853.111 1.708.219 2.56.327 9.19 1.182 18.38 2.358 27.571 3.537z" fill="#000"/><path d="M13.89 123.342l40.642-3.044c.96-.15 1.614 1.177 2.56 1.405 2.894.698 11.46-1.287 11.801-1.184 1.28.388 7.355-.39 8.579.17 2.422 1.113 3.053 3.498 3.486 5.999.666 3.862 1.486 11.077 2.049 13.637l-44.515-4.228c-.552-2.521-1.474 9.011-2.026 6.49-.6-2.734-1.202-5.481-2.19-8.102-.827-2.196-1.84-4.64-4.053-5.667-1.162-.538-2.444-.833-3.662-1.202l-12.672-4.274zm43.202-1.639c2.894.698 19.338-1.442 19.338-1.442s-.182-.135 1.04.428l-20.378 1.014z" fill="#D4D2EE"/><path d="M29.153 114.528a7.406 7.406 0 00-2.887.118c-2.896.698-9.217 2.194-9.556 2.297-1.28.388-2.639.693-3.862 1.255-2.425 1.116-3.466 4.091-4.28 6.491-.842 2.498-1.388 5.085-1.953 7.659-.321 1.469-.646 2.941-.965 4.41-.19.85-.373 1.7-.56 2.553-.012.046-.02.095-.032.142l-.125.575.265.042 46.998 7.006c.047-.211.09-.425.14-.636l.189-.86c.442-2.024.887-4.046 1.33-6.07.599-2.735 1.203-5.481 2.188-8.1.825-2.196 1.837-4.641 4.053-5.67 1.16-.535 2.445-.833 3.663-1.201l12.67-4.275-47.276-5.736z" fill="#EFEEFE"/><path d="M59.286 162.972c-2.31-1.555-3.344-4.014-4.191-6.203-.84-2.179-1.4-4.358-1.912-6.532a134.16 134.16 0 01-.302-1.282c-.535-2.307-.083-.516-.543-2.518-.017-.076-.037-.157-.056-.246l-47.19-6.881-.066-.01c.012.052.022.106.034.153.06.258.106.457.14.616.275 1.209-.032.01.455 2.113.08.344.157.683.238 1.027.489 2.103.997 4.21 1.734 6.326.826 2.363 1.892 5.306 4.42 6.996 1.275.853 2.692 1.518 4.029 2.236.354.186 46.207 6.244 46.924 6.338-1.273-.686-2.506-1.319-3.714-2.133z" fill="#EFEEFE"/><path d="M52.881 148.958c-.535-2.307-.084-.516-.543-2.518.064-.288.125-.573.19-.86l-.315-.047-46.576-6.874c.015-.616 0-1.282.015-1.901v-.044a.142.142 0 00-.022-.081c-.032-.047-.098-.067-.157-.057-.838.177-1.707.708-1.894 1.619-.103.489-.008 1.01.024 1.499.052.769.052 1.533.018 2.302a.14.14 0 00.034.095.904.904 0 00.764.895l1.24.184.234.034 46.337 6.889.956.145c-.106-.428-.204-.855-.305-1.28z" fill="#EFEEFE"/><path d="M33.565 118.89c.12-.906.277-1.8.552-2.633.305-.931.81-1.707 1.607-2.15.899-.501 1.946-.572 2.928-.638 1.762-.118 3.56.132 5.304.511 1.744.378 3.59 1.213 3.948 3.434.172 1.071.09 2.199.078 3.28v.017c.344.015.688.032 1.032.042v-.027c.015-1.18.086-2.388-.064-3.558-.292-2.267-1.746-3.405-3.535-4.016a16.951 16.951 0 00-6.495-.88c-1.8.111-4.02.15-5.228 1.973-.614.929-.877 2.1-1.056 3.233-.066.422-.125.845-.184 1.267.37.04.742.091 1.113.145zM14.03 142.377c-.047.563.036 1.614.103 2.231a.342.342 0 01-.381.383c-.74-.098-1.491-.086-2.228-.209a.34.34 0 01-.275-.272c-.045-.209-.074-.425-.087-.494a6.746 6.746 0 01-.09-.97c-.015-.538.014-1.079.068-1.614.086-.85.263-1.693.666-2.423a.538.538 0 01.538-.28c.63.084 1.24.189 1.862.283.359.054.57.449.406.781-.384.789-.504 1.666-.583 2.584zm13.243 2.153c-.047.563.037 1.614.103 2.231a.342.342 0 01-.38.383c-.74-.098-1.492-.086-2.229-.209a.339.339 0 01-.275-.272c-.044-.209-.073-.425-.086-.494a6.76 6.76 0 01-.09-.971c-.015-.538.014-1.078.068-1.614.086-.85.263-1.692.666-2.422a.538.538 0 01.538-.28c.629.084 1.24.189 1.862.283.359.054.57.449.405.781-.385.786-.506 1.663-.582 2.584zm14.717 2.002c-.046.562.038 1.614.104 2.23a.343.343 0 01-.38.384c-.74-.099-1.492-.086-2.229-.209a.34.34 0 01-.275-.273c-.044-.209-.074-.425-.086-.494a6.746 6.746 0 01-.09-.97c-.016-.538.014-1.079.068-1.614.086-.85.263-1.693.666-2.422a.535.535 0 01.538-.28c.631.083 1.24.189 1.862.282.358.054.57.45.405.781-.383.789-.504 1.666-.582 2.585z" fill="#000"/><path d="M93.661 159.607c-1.366 0-3.144-1.236-4.35-2.073-.175-.121-.335-.234-.48-.329a8.19 8.19 0 01-.827-.639l-.042-.035a5.11 5.11 0 01-.302-.287c-1.514-1.481-2.349-3.437-3.074-5.314a12.138 12.138 0 01-.172-.469c-.034-.083-.066-.177-.098-.268-.764-2.127-1.29-4.274-1.722-6.122l-.228-.98c-.28-1.208-.29-1.302-.305-1.403 0-.004-.003-.012-.003-.022a6.008 6.008 0 01.03-2.378l.457-2.1a8.15 8.15 0 00.074-.334l.72-3.285c.3-1.363.636-2.908 1.036-4.419.03-.116.06-.231.094-.349a37.033 37.033 0 011.066-3.358c.543-1.45 1.154-2.963 2.125-4.152.093-.115.191-.226.292-.334a5.526 5.526 0 011.71-1.265c.884-.413 1.845-.686 2.773-.949.305-.085.61-.171.91-.262l11.968-4.007a1.759 1.759 0 011.295.066l.211.096a5.557 5.557 0 01.857.491c1.6 1.138 2.167 2.948 2.513 4.572.02.098.042.197.059.295.052.246.096.504.14.757.241 1.397.624 3.635 1.003 5.9l.051.293a600.924 600.924 0 011.057 6.453c.12.801.157 1.047.135 1.143-.044.299-.425 2.896-.902 5.9l-.051.33c-.519 3.225-.961 5.726-1.31 7.431-.019.091-.039.177-.056.263l-.015.071c-.238 1.12-.435 1.852-.585 2.174-.41.877-1.054 1.703-2.022 2.597a31.726 31.726 0 01-1.353 1.159l-.189.158c-.745.611-3.432 1.764-4.968 2.397l-.287.116c-2.238.914-4.655 1.808-6.014 2.221l-.204.061-.083.025a6.297 6.297 0 01-.614.147c-.101.01-.21.017-.32.017zm-5.552-3.333l.042.034c.268.238.55.459.835.651.148.098.31.211.484.332 1.268.879 3.186 2.213 4.466 2.002a6.43 6.43 0 00.583-.14l.083-.025c.064-.017.128-.037.2-.059 1.35-.413 3.758-1.302 5.991-2.213l.285-.116c2.587-1.066 4.373-1.923 4.893-2.353l.19-.155c.348-.287.71-.585 1.056-.894.098-.086.189-.17.282-.256.941-.869 1.563-1.665 1.956-2.505.098-.207.273-.74.562-2.108l.015-.071c.017-.086.037-.175.057-.266.349-1.7.788-4.196 1.307-7.416l.051-.33c.506-3.176.902-5.898.907-5.925v-.005c-.003-.042-.017-.226-.138-1.017a543.21 543.21 0 00-1.059-6.451l-.051-.292c-.381-2.265-.764-4.503-1.003-5.901a17.166 17.166 0 00-.14-.752 7.468 7.468 0 00-.056-.29c-.334-1.565-.88-3.311-2.398-4.39a4.534 4.534 0 00-.277-.179 4.257 4.257 0 00-.533-.285l-.376-.172a1.18 1.18 0 00-.853-.042l-12.045 4.068c-.304.094-.611.18-.916.268-.919.26-1.87.531-2.732.934a5.27 5.27 0 00-1.621 1.201 5.636 5.636 0 00-.28.319c-.941 1.157-1.54 2.644-2.076 4.071-.378 1.01-.725 2.1-1.059 3.336-.034.115-.061.228-.09.341-.399 1.506-.735 3.049-1.035 4.41l-.72 3.282c-.022.113-.049.226-.073.339l-.443 2.034a6 6 0 00-.046 2.283c.007.036.01.058.012.083.01.089.022.179.297 1.371l.229.978c.43 1.84.953 3.979 1.71 6.087.031.094.06.179.098.268.056.162.113.312.172.467.742 1.921 1.533 3.766 3.014 5.22.02.022.03.03.037.037.076.069.14.13.206.192z" fill="#1F3044"/><path d="M88.055 121.055v35.366l-.285.103v-35.142a5.42 5.42 0 01.285-.327zm6.788-2.931v41.087l-.285.086v-41.075l.285-.098zm6.289-2.125v40.878c-.094.04-.192.077-.285.116v-40.896l.285-.098zm6.463-.757v37.948c-.093.088-.189.172-.285.258v-38.39c.096.059.194.12.285.184z" fill="#1F3044"/><path d="M110.108 120.015l-2.513.899-.285.103-6.179 2.213-.285.103-6.001 2.15-.285.103-6.503 2.332-.285.1-3.255 1.167c.03-.115.057-.228.091-.344l3.164-1.132.285-.103 6.503-2.332.285-.103 6.001-2.15.285-.103 6.179-2.213.285-.103 2.454-.88c.022.098.042.194.059.293zm1.194 6.949l-3.707 1.329-.285.103-6.179 2.213-.285.104-6.001 2.149-.285.103-6.503 2.329-.285.103-5.085 1.821c.025-.111.052-.224.074-.337l5.009-1.796.285-.103 6.502-2.329.285-.103 6.002-2.149.285-.104 6.178-2.213.285-.103 3.656-1.312c.02.098.037.196.054.295zm1.059 6.454l-4.764 1.708-.285.103-6.178 2.213-.285.103-6.002 2.15-.284.103-6.503 2.332-.285.103-5.036 1.803-.07-.288 5.106-1.827.285-.103 6.502-2.332.285-.103 6.002-2.15.285-.103 6.178-2.213.285-.103 4.72-1.69c.012.105.027.201.044.294zm-.769 6.992l-.052.329-3.942 1.412-.285.104-6.179 2.213-.285.103-6.001 2.15-.285.103-6.503 2.331-.285.103-3.22 1.153a6.14 6.14 0 01-.101-.273l3.321-1.192.285-.103 6.503-2.329.285-.103 6.001-2.152.285-.101 6.179-2.213.285-.103 3.994-1.432zm-1.361 7.754l-.071.334-2.565.919-.285.103-6.178 2.214-.285.103-6.002 2.149-.285.103-6.5 2.329-.003.003-.285.103v-.312l.05-.017.238-.086 6.503-2.329.285-.103 6.001-2.152.285-.101 6.179-2.213.285-.104 2.633-.943z" fill="#1F3044"/><path d="M51.61 126.597a809.486 809.486 0 01-37.745-6.475c-.18-.035-.258.248-.077.282a813.282 813.282 0 0037.75 6.476c.176.027.255-.256.073-.283zm-41.135 11.912a21.649 21.649 0 01-2.511-.465c-.464-.115-2.226-.378-2.199-1.039.008-.189-.277-.189-.285 0-.032.767.939.904 1.487 1.069 1.15.346 2.321.58 3.51.729.18.02.177-.272-.002-.294zm13.74 2.81a72.137 72.137 0 00-8.41-1.42c-.181-.02-.174.273.008.292 2.803.305 5.581.777 8.333 1.41.18.045.25-.24.069-.282zm14.486 2.101a73.19 73.19 0 00-9.22-1.567c-.181-.02-.174.275.008.292 3.078.324 6.129.847 9.143 1.56.177.044.248-.241.07-.285zm12.465 1.535a55.722 55.722 0 00-6.878-1.086c-.182-.017-.175.276.007.293 2.29.216 4.557.577 6.802 1.078.18.039.25-.245.07-.285z" fill="#7464DC"/></g><defs><clipPath id="clip0_0_756"><path fill="#fff" transform="translate(.832)" d="M0 0h240.885v197.03H0z"/></clipPath></defs></svg>