<svg width="278" height="171" fill="none" xmlns="http://www.w3.org/2000/svg"><g clip-path="url(#clip0_0_1019)"><path d="M82.541 170.661c5.24 0 9.488-10.108 9.488-22.576 0-12.469-4.248-22.577-9.488-22.577-5.24 0-9.487 10.108-9.487 22.577 0 12.468 4.248 22.576 9.487 22.576z" fill="#000"/><path d="M94.91 152.929H82.542v17.733H94.91v-17.733z" fill="#000"/><path d="M94.91 170.661c5.24 0 9.488-10.108 9.488-22.576 0-12.469-4.248-22.577-9.488-22.577-5.24 0-9.487 10.108-9.487 22.577 0 12.468 4.247 22.576 9.487 22.576z" fill="#000"/><path d="M85.834 139.376c-.217 1.325-.473 2.633-.597 3.977-.274 2.943-.34 5.908-.097 8.86.397 4.887 1.485 10.031 4.105 14.246 1.038 1.666 2.382 3.253 4.158 4.159.504.256.955-.504.447-.765-3.385-1.728-5.17-5.833-6.244-9.262-1.644-5.241-1.971-10.8-1.565-16.248.12-1.604.39-3.147.645-4.729.089-.561-.764-.799-.852-.238z" fill="#EFEEFE"/><path d="M164.469 170.661c5.24 0 9.487-10.108 9.487-22.576 0-12.469-4.247-22.577-9.487-22.577s-9.488 10.108-9.488 22.577c0 12.468 4.248 22.576 9.488 22.576z" fill="#000"/><path d="M176.838 152.929h-12.369v17.733h12.369v-17.733z" fill="#000"/><path d="M176.838 170.661c5.239 0 9.487-10.108 9.487-22.576 0-12.469-4.248-22.577-9.487-22.577-5.24 0-9.488 10.108-9.488 22.577 0 12.468 4.248 22.576 9.488 22.576z" fill="#000"/><path d="M167.284 139.374c-.217 1.326-.473 2.634-.597 3.977-.274 2.943-.34 5.908-.102 8.86.398 4.888 1.485 10.031 4.106 14.247 1.038 1.666 2.381 3.252 4.158 4.158.504.257.954-.504.446-.764-3.385-1.728-5.17-5.833-6.244-9.262-1.644-5.241-1.971-10.8-1.564-16.249.119-1.604.389-3.146.645-4.728.093-.561-.76-.8-.848-.239zm11.56-1.246c-.221 1.118-.478 2.223-.645 3.35a47.192 47.192 0 00-.504 6.372c-.062 4.321.437 8.709 1.705 12.85.588 1.918 1.353 3.796 2.378 5.528.287.491 1.052.044.764-.446-1.887-3.195-2.898-6.867-3.464-10.513-.672-4.326-.681-8.798-.084-13.133.172-1.273.455-2.514.707-3.774.106-.557-.747-.791-.857-.234z" fill="#EFEEFE"/><path d="M197.421 152.929c.141-1.56.221-3.177.221-4.843 0-12.471-4.247-22.577-9.488-22.577-5.236 0-9.487 10.106-9.487 22.577 0 12.47 4.247 22.576 9.487 22.576h12.369v-17.733h-3.102zm55.515 0c.142-1.56.221-3.177.221-4.843 0-12.471-4.246-22.577-9.487-22.577-5.237 0-9.488 10.106-9.488 22.577 0 12.47 4.247 22.576 9.488 22.576h12.368v-17.733h-3.102z" fill="#000"/><path d="M277.073 144.209a177.307 177.307 0 00-1.132-14.825c-.64-5.418-1.113-11.154-4.449-15.688a25.227 25.227 0 00-1.764-2.121 235.018 235.018 0 00-4.224-11.745 238.477 238.477 0 00-11.631-25.374 211.983 211.983 0 00-5.51-9.806c-1.847-3.075-3.88-6.089-6.461-8.608-2.532-2.47-5.532-4.405-8.612-6.111-3.204-1.776-6.492-3.403-9.766-5.033-4.644-2.316-41.291-21.313-53.195-27.212-2.815-1.392-5.692-2.691-8.679-3.677-3.023-.994-6.138-1.586-9.306-1.878-6.306-.583-12.736-.42-19.064-.274-12.103.279-24.282 1.361-36.036 4.393-5.811 1.502-11.507 3.49-16.938 6.058-7.424 3.509-11.82 10.402-15.002 17.888-1.534 3.601-2.652 7.349-3.681 11.118a260.011 260.011 0 00-3.531 14.516 276.39 276.39 0 00-4.605 29.408c-.504 4.919-.875 9.85-1.127 14.791-.238 4.816-.49 9.686-.304 14.511.163 4.238.852 8.79 3.415 12.298 2.14 2.926 5.528 5.224 9.24 5.299.893.017 107.124-.429 107.124-.429l2.572.305c9.395 1.114 93.863 10.499 98.516 10.795 1.631.102 3.248-.238 3.871-1.935.699-1.905.296-6.527.279-6.664z" fill="#D4D2EE"/><path d="M230.872 123.066v18.36c0 .57.884.57.884 0v-18.36c0-.57-.884-.57-.884 0z" fill="#000"/><path d="M276.794 150.874c-.623 1.697-2.24 2.037-3.871 1.936-4.653-.297-89.121-9.682-98.516-10.796l-2.572-.305s-106.231.446-107.124.429c-3.712-.075-7.101-2.373-9.24-5.299-1.984-2.717-2.846-6.062-3.208-9.403l2.735-5.281 110.297 3.363 111.689 16.58c.035.703.062 1.41.088 2.112.018.137.42 4.759-.278 6.664z" fill="#7464DC"/><path d="M256.043 170.662c5.24 0 9.487-10.108 9.487-22.576 0-12.469-4.247-22.577-9.487-22.577s-9.488 10.108-9.488 22.577c0 12.468 4.248 22.576 9.488 22.576z" fill="#000"/><path d="M256.043 160.156c2.401 0 4.348-5.405 4.348-12.072 0-6.668-1.947-12.073-4.348-12.073-2.402 0-4.348 5.405-4.348 12.073 0 6.667 1.946 12.072 4.348 12.072z" fill="#fff"/><path d="M246.025 150.478c.194 3.518.716 7.044 1.759 10.416.813 2.629 1.944 5.249 3.716 7.379.787.946 1.728 1.781 2.824 2.342.504.257.954-.503.446-.764-1.984-1.012-3.349-2.917-4.366-4.839-1.405-2.656-2.245-5.599-2.793-8.537a46.346 46.346 0 01-.702-6.001c-.031-.561-.915-.566-.884.004z" fill="#EFEEFE"/><path d="M200.528 170.662c5.239 0 9.487-10.108 9.487-22.576 0-12.469-4.248-22.577-9.487-22.577-5.24 0-9.488 10.108-9.488 22.577 0 12.468 4.248 22.576 9.488 22.576z" fill="#000"/><path d="M200.607 160.156c2.402 0 4.348-5.405 4.348-12.072 0-6.668-1.946-12.073-4.348-12.073-2.401 0-4.348 5.405-4.348 12.073 0 6.667 1.947 12.072 4.348 12.072z" fill="#fff"/><path d="M265.504 99.829c-4.676-1.724-23.421-8.6-27.022-9.625-4.123-1.18-6.774-4.127-7.367-7.022-.587-2.898-.963-12.028-1.126-18.069-.186-6.703.556-7.971 3.208-6.937 1.701.662 9.858 4.551 15.661 7.304a213.038 213.038 0 015.015 8.975 238.776 238.776 0 0111.631 25.374zm-95.22-29.289c-.115-4.539-.34-9.077-.676-13.602-.137-1.904-.269-3.858-.429-5.837-.618-7.755-1.59-15.886-4.648-22.824-4.176-9.474-11.865-14.362-21.989-14.795.004-.013-.013-.026-.049-.026-12.094-.707-28.374 1.025-40.234 3.49-9.713 2.02-20.16 4.835-27.667 11.698-3.898 3.561-6.385 8.117-8.087 13.07-1.93 5.622-3.296 11.473-4.582 17.27-2.647 11.953-4.472 24.101-5.78 36.27-.668 6.196-1.14 12.418-1.145 18.649 0 2.983.018 6.023.363 8.988.216 1.852.729 3.981 2.147 5.298.654.61 2.1 1.025 3.08 1.123.645.062 5.144.216 11.94.212 24.98-.005 80.734-.853 87.297-.853 4.838 0 6.725-4.344 7.618-9.898 1.211-7.526 1.728-13.522 2.245-21.008.632-9.059.83-18.149.596-27.225z" fill="#000"/><path d="M169.688 97.768c-.517 7.485-1.034 13.482-2.245 21.007-.893 5.555-2.78 9.899-7.618 9.899-6.562 0-62.316.848-87.297.853V57.661c0-.468.363-.852.827-.883l28.926-1.839V37.683c0-.468.362-.853.826-.883l30.107-1.892 35.966 16.196c.159 1.98.291 3.932.428 5.837a285.21 285.21 0 01.08 40.827z" fill="#fff"/><path d="M106.97 76.633a4771.38 4771.38 0 01.053 41.14c-.013 3.69-.027 7.384-.049 11.074-.004.57.88.57.884 0 .04-6.739.062-13.473.071-20.212a4462.651 4462.651 0 00-.067-32.002c-.013-.57-.897-.57-.892 0zm-5.524-21.093v21.088c0 .57.884.57.884 0V55.54c0-.565-.884-.565-.884 0zm68.538 29.44c-6.894-3.017-13.788-6.04-20.681-9.058-1.662-.73-3.319-1.454-4.98-2.183-.517-.225-.968.535-.447.764 6.894 3.019 13.788 6.041 20.681 9.06 1.662.728 3.319 1.453 4.98 2.182.517.226.968-.534.447-.764zm-1.75 25.341c-6.407-2.245-12.819-4.485-19.227-6.73l-4.79-1.675c-.539-.19-.769.668-.234.853 6.407 2.245 12.819 4.486 19.227 6.73l4.79 1.675c.534.186.769-.667.234-.853z" fill="#000"/><path d="M143.66 74.121c.022 6.854.031 13.708.036 20.557.004 7.583 0 15.166-.009 22.749-.005 3.636-.014 7.278-.027 10.914 0 .57.884.57.884 0 .022-6.889.031-13.782.035-20.671.005-7.574 0-15.144-.009-22.718-.004-3.61-.013-7.225-.026-10.835-.004-.566-.888-.566-.884.004zM132.869 35.51a5618.052 5618.052 0 010 39.29c0 .57.884.57.884 0 .031-10.032.044-20.063.026-30.094a3129.18 3129.18 0 00-.026-9.196c0-.57-.884-.57-.884 0zm18.211 8.089c.026 8.445.044 16.885.026 25.33l-.026 8.44c0 .57.883.57.883 0 .027-8.418.045-16.837.027-25.255l-.027-8.515c0-.566-.883-.566-.883 0z" fill="#000"/><path d="M73.094 79.032c9.527-.6 19.054-1.202 28.582-1.798 8.387-.53 16.778-1.057 25.166-1.587l17.256-1.087c.565-.035.57-.919 0-.884-9.528.601-19.055 1.202-28.582 1.799-8.387.53-16.779 1.056-25.166 1.586l-17.256 1.087c-.566.04-.566.924 0 .884zm-.035 26.81l28.604-1.233c8.396-.363 16.787-.725 25.183-1.083l17.269-.742c.566-.027.57-.911 0-.884l-28.603 1.233c-8.396.362-16.788.725-25.184 1.083l-17.27.742c-.565.026-.57.91 0 .884zm172.679-3.162l18.696 5.554c.548.164.778-.689.235-.853l-18.697-5.554c-.543-.164-.778.689-.234.853zm-14.866-22.591v35.157c0 .57.884.57.884 0V80.09c0-.57-.884-.57-.884 0z" fill="#000"/><path d="M264.112 100.346v29.042c0 .57.884.57.884 0v-29.042c0-.57-.884-.57-.884 0z" fill="#000"/><path d="M243.776 136.851c.742-2.982 1.524-5.965 2.961-8.705 1.427-2.731 3.46-5.55 6.469-6.651 2.872-1.051 5.585.226 7.552 2.369 1.931 2.108 3 4.711 3.822 7.406a67.884 67.884 0 012.126 9.302c.088.561.941.323.853-.234a68.908 68.908 0 00-1.984-8.834c-.84-2.845-1.909-5.59-3.854-7.883-1.913-2.254-4.666-3.884-7.702-3.279-3.155.632-5.612 3.235-7.216 5.882-1.953 3.221-2.978 6.765-3.88 10.389-.137.556.716.791.853.238z" fill="#000"/><path d="M271.695 91.845a34.25 34.25 0 00-.411-2.267c-.447-2.06-1.56-3.823-3.779-4.172-1.263-.199-2.518.208-3.477 1.043-1.105.963-1.445 2.316-1.538 3.725-.225 3.323-.358 6.964 1.458 9.908a.49.49 0 00.177.167c.309.35.711.624 1.175.774 1.348.446 3.041-.062 4.221-.756 2.585-1.516 2.607-5.351 2.174-8.422zm-106.519 31.379c0 8.099 3.239 12.89 7.512 13.791 4.538.959 36.571-5.943 44.998-8.051.341-.084 3.125-1.003 3.019-5.007L219.467 1.941c-.035-.72-.857-2.338-2.965-1.851-3.151.729-19.554 5.974-25.568 8.1-2.934 1.038-5.873 2.099-8.78 3.247-8.737 3.452-11.083 13.28-12.444 21.251-1.052 6.165-4.534 90.133-4.534 90.536z" fill="#D4D2EE"/><path d="M172.984 19.418a73.273 73.273 0 00-4.883 22.373c-.031.57.853.565.884 0a72.422 72.422 0 014.852-22.14c.203-.53-.649-.76-.853-.233zM215.362.708l.318 50.284.318 49.876c.062 9.377.12 18.75.177 28.127.005.57.888.57.884 0l-.318-50.283-.318-49.877c-.062-9.377-.12-18.75-.177-28.127 0-.57-.884-.57-.884 0zm-40.654 81.339c9.726-2.789 19.461-5.537 29.178-8.343 2.974-.857 5.948-1.724 8.917-2.594.544-.16.314-1.012-.234-.853-10 2.93-20.026 5.78-30.049 8.635-2.682.764-5.369 1.533-8.051 2.302-.543.154-.309 1.007.239.853z" fill="#000"/><path d="M174.146 81.618c-.349 8.865-.601 17.73-.627 26.598-.013 4.282-.097 8.59.088 12.868.151 3.407.765 7.631 4.291 9.152 1.684.724 3.593.777 5.396.636 1.993-.159 3.972-.539 5.934-.91a94.738 94.738 0 006.554-1.481c2.196-.579 4.432-1.153 6.562-1.94 3.575-1.321 6.69-3.712 8.546-7.079 2.258-4.101 2.196-8.957 2.28-13.504.19-10.442-.221-20.88-.106-31.317.013-1.317.035-2.638.071-3.955.013-.57-.871-.57-.884 0-.252 10.15.119 20.296.088 30.446a294.877 294.877 0 01-.11 7.464c-.066 2.267-.177 4.551-.707 6.765-.937 3.898-3.376 7.159-6.858 9.143-1.83 1.043-3.823 1.622-5.829 2.21-2.05.601-4.114 1.157-6.2 1.635-2.094.481-4.202.883-6.319 1.241-1.869.314-3.782.579-5.683.407-1.732-.155-3.477-.795-4.494-2.28-1.007-1.472-1.356-3.345-1.533-5.091-.199-1.98-.159-3.981-.172-5.965a721.958 721.958 0 01-.027-6.24c-.004-8.396.186-16.788.495-25.18.044-1.206.088-2.416.137-3.623.013-.565-.87-.565-.893 0zm45.825-37.715c0 10.56.044 21.122.102 31.684.053 10.384.119 20.769.159 31.149.022 5.974.035 11.949.035 17.923 0 .57.884.57.884 0 0-10.561-.044-21.123-.102-31.684-.053-10.384-.119-20.769-.159-31.15a4866.67 4866.67 0 01-.035-17.922c0-.57-.884-.57-.884 0z" fill="#000"/><path d="M207.262 131.475c1.856-.407 3.712-.804 5.568-1.198 1.573-.335 3.19-.587 4.737-1.02 2.152-.606 3.548-2.342 3.584-4.592.008-.57-.875-.57-.884 0-.031 2.121-1.45 3.429-3.425 3.858-3.27.712-6.544 1.383-9.814 2.103-.557.12-.323.973.234.849zm-41.485-13.922c1.564-.159 2.422-1.538 2.647-2.987.278-1.795.203-3.686.27-5.498.035-.972.075-1.944.11-2.916.027-.703.119-1.427-.04-2.121-.269-1.167-1.144-2.09-2.373-2.135-.57-.022-.57.862 0 .884 1.008.04 1.565 1.043 1.582 1.967.027 1.431-.106 2.89-.163 4.321-.058 1.463-.097 2.93-.168 4.393-.062 1.202-.349 3.053-1.865 3.208-.561.057-.566.941 0 .884zm2.559-54.269c1.617-.163 2.456-1.617 2.66-3.102.265-1.94.203-3.964.274-5.921.039-1.008.075-2.015.115-3.023.022-.605.057-1.193-.155-1.776-.429-1.18-1.467-1.803-2.696-1.834-.57-.013-.57.87 0 .884.995.026 1.777.596 1.958 1.6.102.574.004 1.197-.018 1.776-.031.79-.062 1.582-.088 2.373-.062 1.578-.111 3.155-.181 4.733-.053 1.241-.274 3.243-1.874 3.407-.552.057-.561.94.005.883zm52.258 32.304c3.535.915 7.07 1.825 10.601 2.74.552.141.787-.711.234-.853-3.535-.914-7.07-1.825-10.601-2.74-.548-.14-.786.712-.234.853zm.022-41.434c3.964 1.609 7.928 3.217 11.891 4.822.526.212.756-.641.235-.853a11845.21 11845.21 0 00-11.892-4.821c-.526-.212-.755.64-.234.852z" fill="#000"/><path d="M61.976 58.804l-.477-17.075c-.208-7.366-1.083-16.443-8.794-19.629-2.567-1.06-5.17-2.042-7.777-3-5.339-1.967-20.5-6.823-23.32-7.623-1.334-.38-2.235.234-2.47 1.476L.698 127.019c-.172 1.065-.013 2.784 1.953 3.328 8.047 2.213 19.775 5.267 26.832 6.478 4.318.742 8.896 1.962 13.23.755 5.511-1.533 11.052-7.039 12.36-12.704.084-.371 6.907-65.878 6.903-66.072z" fill="#D4D2EE"/><path d="M55.652 118.655c-1.37-.354-1.462-1.98-1.36-3.133.119-1.406.313-2.807.472-4.207.16-1.406.243-2.846.482-4.238.159-.933.826-1.772 1.838-1.662.566.062.561-.822 0-.883-1.167-.129-2.099.671-2.514 1.71-.27.671-.274 1.427-.354 2.134-.102.906-.208 1.812-.31 2.718-.1.906-.207 1.811-.309 2.717-.097.871-.251 1.755-.22 2.634.044 1.321.662 2.704 2.041 3.058.553.146.787-.707.234-.848zm5.405-51.872c-1.538-.398-1.454-2.307-1.322-3.544.173-1.59.363-3.182.54-4.772.088-.796.18-1.596.27-2.391.057-.486.061-1.003.282-1.45.464-.95 1.471-1.18 2.448-1.078.566.058.561-.826 0-.884-1.22-.128-2.444.252-3.11 1.335-.23.371-.35.778-.403 1.206-.133 1.012-.23 2.033-.345 3.045-.216 1.927-.548 3.88-.636 5.815-.066 1.472.446 3.164 2.037 3.575.557.137.791-.716.239-.857zm-9.333 17.505c-9.138-2.664-18.303-5.245-27.442-7.905a1373.62 1373.62 0 01-8.29-2.444c-.548-.163-.777.69-.234.853 9.395 2.802 18.825 5.475 28.246 8.184 2.497.716 4.994 1.44 7.49 2.165.544.16.778-.694.23-.853z" fill="#000"/><path d="M51.167 84.711c-1.003 8.127-2.086 16.24-3.38 24.322-.637 3.986-1.29 7.972-2.015 11.944-.588 3.226-1.56 7.203-4.786 8.759-1.67.804-3.615.862-5.431.729-1.913-.141-3.814-.508-5.696-.866-3.99-.76-8.03-1.724-11.865-3.085-3.248-1.153-6.045-3.424-7.247-6.725-.747-2.055-.8-4.264-.64-6.421.171-2.333.543-4.653.892-6.969 1.427-9.483 3.336-18.882 4.781-28.36.181-1.185.354-2.369.517-3.558.075-.556-.773-.795-.853-.234-1.37 9.894-3.367 19.686-4.931 29.55-.376 2.373-.734 4.75-1.039 7.132-.287 2.258-.486 4.551-.15 6.814.535 3.615 2.718 6.672 5.877 8.471 1.737.985 3.655 1.524 5.56 2.081a92.809 92.809 0 005.987 1.565c2.055.459 4.132.852 6.213 1.179 1.878.292 3.791.504 5.687.257 1.75-.226 3.456-.884 4.702-2.174 1.206-1.251 1.94-2.895 2.461-4.53.57-1.789.862-3.65 1.184-5.497.367-2.112.73-4.224 1.079-6.337 1.343-8.131 2.496-16.288 3.53-24.463.15-1.193.301-2.386.447-3.58.066-.565-.818-.56-.884-.004z" fill="#000"/><path d="M190.656 144.231c-.336 4.517-.177 9.059.777 13.5.747 3.465 1.945 7.031 4.101 9.89.91 1.206 2.002 2.302 3.358 2.991.504.257.955-.503.447-.764-2.519-1.286-4.105-3.955-5.206-6.456-1.591-3.628-2.364-7.632-2.651-11.564-.186-2.533-.133-5.065.053-7.597.049-.565-.835-.565-.879 0z" fill="#EFEEFE"/><path d="M83.023 137.493H67.186a2.024 2.024 0 110-4.048h15.837a2.024 2.024 0 110 4.048zm65.905 0H133.09a2.024 2.024 0 110-4.048h15.838c1.118 0 2.023.906 2.023 2.024a2.023 2.023 0 01-2.023 2.024z" fill="#FFC93D"/></g><defs><clipPath id="clip0_0_1019"><path fill="#fff" transform="translate(.645)" d="M0 0h276.56v170.664H0z"/></clipPath></defs></svg>