<svg width="170" height="224" fill="none" xmlns="http://www.w3.org/2000/svg"><g clip-path="url(#clip0_0_1214)"><path d="M121.336 19.385a65.07 65.07 0 01-.475 2.192 61.406 61.406 0 01-3.275 10.068c-.014.032-.027.067-.043.099a64.389 64.389 0 01-8.63 14.586l-.185.233a64.06 64.06 0 01-10.252 10.295c-.092.072-.185.147-.276.22a61.243 61.243 0 01-8.25 5.486c-3.386 1.87-7.202 3.768-11.18 3.524-3.157-.192-6.352-1.851-7.537-4.92-.707-1.836-.694-3.873-.581-5.806.01-.196.024-.391.043-.584a35.3 35.3 0 01.308-2.718c-.207.225-.415.45-.627.67-.75.783-1.544 1.539-2.418 2.184-.407.3-.83.58-1.276.823-1.962 1.078-4.562 1.442-6.55.314a3.442 3.442 0 01-1.378-1.043c-.46-.581-.756-1.27-.943-1.994a7.726 7.726 0 01-.276-1.852 3.67 3.67 0 01-.014-.171c-.086-1.804.148-3.65.432-5.43.31-1.968.774-3.911 1.37-5.814a44.915 44.915 0 012.505-6.261 48.387 48.387 0 012.391-4.34c2.74-4.43 6.149-8.391 9.963-11.921.085-.078.168-.156.254-.23a74.321 74.321 0 016.146-5.056 94.749 94.749 0 017.998-5.301 90.87 90.87 0 012.361-1.365c1.863-1.042 3.785-2.002 5.816-2.674 2.037-.673 4.155-1.062 6.286-1.295.56-.062 1.12-.113 1.683-.156a66.935 66.935 0 014.854-.204c1.956-.013 3.969.11 5.813.816a8.967 8.967 0 013.158 2.063c.49.49.927 1.032 1.313 1.614a12.334 12.334 0 011.686 3.894c.807 3.284.445 6.741-.214 10.054zM44.694 87.924c-.453 2.244-2.147 5.642-4.972 4.927-.799-.204-1.469-.721-2.102-1.225-.3-.239-.595-.488-.884-.748a21.34 21.34 0 01-2.136-2.157c.01.064.027.128.037.19.485 2.592.791 5.323.737 8.008a26.435 26.435 0 01-.252 3.243c-.22 1.544-.806 2.984-2.047 3.978-1.03.82-2.319 1.244-3.613 1.399-3.115.378-6.232-.769-8.845-2.393-4.774-2.97-8.255-7.72-10.984-12.665a75.932 75.932 0 01-1.857-3.594 68.478 68.478 0 01-4.187-10.92l-.072-.26a69.13 69.13 0 01-2.568-15.79c-.246-5.551.185-11.129 1.335-16.567.624-2.951 1.522-6.73 3.3-9.536a10.23 10.23 0 011.589-1.976c1.53-1.46 3.53-2.267 6.18-1.873 3.581.536 6.86 2.758 9.51 5.116.33.295.654.595.973.901l.217.212c2.27 2.224 4.248 4.746 6.098 7.328a84.608 84.608 0 014.044 6.19 86.302 86.302 0 017.151 15.297c.059.158.113.32.169.477 1.158 3.332 2.13 6.746 2.806 10.207.775 3.977 1.177 8.223.373 12.232z" fill="#D4D2EE"/><path d="M118.551 3.823c-11.252 8.143-22.254 16.728-31.962 26.688-5.192 5.325-9.998 11.042-14.168 17.207a105.728 105.728 0 00-4.463 7.196c-2.508 4.417-4.72 9.003-6.676 13.694-6.146 14.722-10 30.354-13.37 45.91a479.648 479.648 0 00-8.145 50.563 480.07 480.07 0 00-2.318 31.692c.643.037 1.284.08 1.927.134a480.916 480.916 0 013.056-37.403 480.132 480.132 0 018.842-50.306c3.583-15.484 7.754-31 14.602-45.401 1.471-3.096 3.08-6.1 4.819-9.02 5.958-10.018 13.412-19.016 21.895-27.12 8.491-8.114 17.775-15.324 27.274-22.22a10.465 10.465 0 00-1.313-1.614z" fill="#7464DC"/><path d="M109.912 79.24a9.805 9.805 0 01-.045.745c-.314 3.091-1.702 6.106-3.238 8.808l-.147.26c-.083.142-.164.284-.247.424-1.967 3.344-4.377 6.41-6.98 9.316-.072.086-.15.172-.227.255-2.061 2.291-4.24 4.479-6.406 6.628a193.106 193.106 0 01-6.07 5.784c-.095.083-.188.169-.282.252a125.19 125.19 0 01-1.88 1.67c-2.497 2.176-5.11 4.245-7.96 5.947-2.787 1.665-5.818 2.967-9.027 3.536-2.664.474-5.92.573-8.032-1.424-1.298-1.227-1.79-2.913-1.93-4.658-.1-1.201-.027-2.431.061-3.557.067-.847.161-1.691.28-2.532a37.023 37.023 0 01-2.632 3.91c-.727.938-1.673 2.388-3.016 2.412-1.203.022-1.884-1.15-2.174-2.168-.44-1.525-.434-3.238-.254-4.803.396-3.466 1.83-6.733 3.524-9.748a58.141 58.141 0 012.731-4.385 62.355 62.355 0 018.102-9.611 63.956 63.956 0 019.926-7.889c.08-.056.163-.107.246-.16a62.757 62.757 0 0113.796-6.613c4.296-1.439 9.391-2.768 13.897-1.704.89.209 1.755.512 2.589.924.734.365 1.439.815 2.115 1.365 2.173 1.769 3.345 4.264 3.28 7.017z" fill="#D4D2EE"/><path d="M101.928 69.935c-5.717 3.238-11.322 6.671-16.671 10.485-7.87 5.61-15.2 12.08-21.054 19.807-2.672 3.525-4.931 7.277-6.859 11.193-2.758 5.594-4.837 11.52-6.472 17.583-3.026 11.219-5.013 22.774-6.524 34.286a317.469 317.469 0 00-2.616 33.862c.694.083 1.388.177 2.08.284.246-9.434.908-18.856 1.991-28.234 1.354-11.683 3.284-23.348 6.028-34.787 1.442-6.004 3.216-11.951 5.61-17.631 1.81-4.291 3.972-8.429 6.607-12.318 5.51-8.127 12.701-14.967 20.525-20.84 6.323-4.74 13.061-8.89 19.944-12.765a11.993 11.993 0 00-2.589-.925zM36.736 90.879c-.014-.089-.03-.18-.043-.268-.925-5.61-3.005-10.92-5.444-16.028-2.543-5.323-5.347-10.528-8.193-15.69-5.052-9.159-10.408-18.146-15.883-27.055a10.23 10.23 0 00-1.59 1.975c4.551 7.411 9.017 14.87 13.289 22.445a426.19 426.19 0 018.408 15.604c2.6 5.087 5.087 10.282 6.583 15.817.82 3.03 1.289 6.124 1.511 9.241.207 2.809.212 5.634.1 8.445-.231 5.865-.855 11.724-1.574 17.548-1.463 11.866-3.594 23.64-5.918 35.364-1.715 8.662-3.532 17.301-5.275 25.955a6.974 6.974 0 011.335-.19 10.82 10.82 0 011.035.003c1.53-7.626 3.125-15.24 4.658-22.863 2.364-11.734 4.586-23.503 6.194-35.366.793-5.843 1.456-11.71 1.871-17.593.402-5.664-.169-11.719-1.064-17.344z" fill="#7464DC"/><path d="M25.47 155.601h0c10.504.241 21.015.102 31.51-.41l.005.009.004.015c.418 4.28.667 8.575.733 12.873a153.24 153.24 0 01-.034 6.379h0c-.032 1.26-.022 2.473-.012 3.838.006.743.012 1.53.012 2.395 0 .274.01.593.02.949.065 2.055.167 5.337-1.391 8.401-1.82 3.577-5.923 6.882-15.115 7.494-8.95.597-14.873-1.773-18.733-5.638-3.864-3.869-5.677-9.253-6.368-14.715-.69-5.46-.257-10.985.362-15.121.309-2.068.664-3.786.947-4.974a25.75 25.75 0 01.355-1.359 6.02 6.02 0 01.107-.334l.004-.008a613.5 613.5 0 007.595.206z" fill="#fff" stroke="#000" stroke-width=".246"/><path d="M150.963 128.3l-68.746 54.948v-53.999l25.83-1.032 42.916.083z" fill="#EC9717"/><path d="M127.567 183.725l-45.35-.477v-53.999l45.35.477v53.999z" fill="#FFC93D"/><path d="M150.963 177.531l-23.399 6.2v-53.999l23.399-1.432v49.231z" fill="#FFC93D"/><path d="M127.294 143.493c-.016-3.485-.032-6.972-.046-10.456 0-.153-.268-.153-.268 0l.164 36.594c.016 3.484.032 6.971.045 10.455 0 .153.268.153.268 0-.053-12.198-.11-24.395-.163-36.593z" fill="#EC9717"/><path d="M138.355 98.037l-66.31 25.762 4.865-30.836 25.409-1.656 36.036 6.73z" fill="#000"/><path d="M114.886 99.92l-4.827 30.593-37.874-6.813 4.827-30.593 37.874 6.812zm23.323-1.748l-4.75 30.114-23.157 2.238 4.825-30.584 23.082-1.768zm-36.06-6.978l-25.15 1.64L73.32 80.92l24.58-1.68 4.248 11.954zm13.132 8.473l9.748-8.951 22.435-1.764-9.185 8.992-22.998 1.723z" fill="#fff" stroke="#000" stroke-width=".246"/><path d="M88.038 108.708l-7.896-1.436-.226 1.245 7.895 1.436.227-1.245zm-5.924-1.781l.772-4.246-.442-.094 1.458-2.053.673 2.399-.437-.067-.78 4.288-1.244-.227zm2.936.533l.772-4.246-.443-.094 1.456-2.053.675 2.399-.437-.067-.78 4.289-1.243-.228z" fill="#000"/><path d="M87.813 111.491l-8.655-1.573a1.025 1.025 0 01-.825-1.193l1.65-9.086a1.025 1.025 0 011.194-.825l8.654 1.573c.558.102.927.635.826 1.193l-1.651 9.086a1.025 1.025 0 01-1.193.825zm-6.674-12.46a.808.808 0 00-.938.648l-1.651 9.087a.809.809 0 00.648.938l8.655 1.573a.808.808 0 00.938-.649l1.651-9.086a.808.808 0 00-.648-.938l-8.655-1.573z" fill="#000"/><path d="M115.874 186.824h-35.78l1.21-59.77h35.778l-1.208 59.77z" fill="#D4D2EE"/><path d="M111.724 181.97H83.938l1.118-50.904h27.786l-1.118 50.904z" fill="#FAF7F5"/><path d="M109.036 175.714H86.351l.914-41.56h22.683l-.912 41.56z" fill="#F2ECE6"/><path d="M98.864 189.638H67.095l1.072-52.265 31.77-.804-1.073 53.069z" fill="#7464DC"/><path d="M95.18 185.329H70.506l.995-44.394 24.669-.804-.992 45.198z" fill="#FAF7F5"/><path d="M92.56 178.984H72.823l.793-35.518 19.738-.644-.794 36.162z" fill="#F2ECE6"/><path d="M102.34 191.649H72.053l5.005-44.581h30.286l-5.004 44.581z" fill="#D4D2EE"/><path d="M99.212 187.539H75.693l4.222-37.076h23.519l-4.222 37.076z" fill="#FAF7F5"/><path d="M95.401 180.035h-14.95l2.683-23.567h14.95l-2.683 23.567z" fill="#F2ECE6"/><path d="M114.276 160.113H57.722v8.711h56.554v-8.711zm-.266 13.267H57.725v8.711h56.285v-8.711zm0 13.133H57.725v8.711h56.285v-8.711z" fill="#000"/><path d="M64.155 166.411h-6.433v23.184h6.433v-23.184zm53.273-1.205h-6.433v23.184h6.433v-23.184z" fill="#000"/><path d="M132.716 165.427l-18.443 3.396v-8.711l18.443-3.396v8.711zm-.268 13.267l-18.443 3.396v-8.711l18.443-3.396v8.711zm0 13.133l-18.443 3.396v-8.711l18.443-3.396v8.711z" fill="#000"/><path d="M132.729 163.899h-5.489v23.185h5.489v-23.185z" fill="#000"/><path d="M114.032 160.689v33.323c0 .172.268.172.268 0v-33.323c0-.172-.268-.172-.268 0z" fill="#fff"/><path d="M151.443 153.449c2.314-1.141 5.255-.888 7.35.614.998.722 1.865 1.713 1.992 2.937v.001c.006.052.009.107.012.164l.001.008v.001c.006.101.006.207.003.312-.038 1.123-.607 2.203-1.443 2.96-2.322 2.102-6.196 2.23-9.082 1.311-.557-.178-1.076-.408-1.421-.746-.334-.328-.511-.764-.376-1.392l.001-.001c.121-.573.451-.991.889-1.314h0l.002-.002c.092-.07.192-.136.297-.2l.173-.105-.151-.135a1.073 1.073 0 01-.145-.15h0l-.004-.005a2.064 2.064 0 01-.464-1.265c-.017-.678.276-1.278.727-1.787.451-.509 1.055-.918 1.639-1.206zm0 0l-.067-.134m.067.134l-.067-.134m0 0c-1.191.587-2.485 1.678-2.449 3.131l12.007.539c-.134-1.287-1.042-2.312-2.054-3.043-2.139-1.535-5.139-1.793-7.504-.627zm-2.875-12.862l.001.001c.561.331.918.869 1.137 1.492.219.624.296 1.321.301 1.952.008 1.37-.33 3.158-1.074 4.649-.744 1.493-1.88 2.66-3.454 2.855-.991.123-2.08-.238-2.645-1.047l-.126-.181-.121.184a5.818 5.818 0 01-.359.493h0l-.003.003a4.04 4.04 0 01-.343.381h0c-.522.509-1.113.796-1.752.634-.71-.18-1.163-.759-1.428-1.484-.264-.724-.328-1.568-.275-2.218.269-3.243 2.533-6.369 5.56-7.559.718-.28 1.616-.523 2.494-.568h.001c.161-.01.319-.01.48-.006.591.022 1.145.146 1.606.419zm-8.475 11.562c.712.179 1.355-.147 1.894-.673.124-.121.245-.255.356-.395l-2.25 1.068z" fill="#fff" stroke="#000" stroke-width=".3"/><path d="M160.95 157.491c-1.74.078-3.48.16-5.218.238-1.08.049-2.161.101-3.242.15-1.012.046-2.129-.013-3.109.271-.032.01-.068.02-.101.033-.98.317-1.806 1.084-2.58 1.731-.725.6-1.427 1.257-1.965 2.034-.794 1.146-.96 2.726-2.133 3.589-.088.065-.205-.007-.238-.102-.065-.016-.124-.065-.124-.15-.056-2.87-.108-5.737-.163-8.607-.033-1.764-.141-3.553-.157-5.336-.01-.96.01-1.92.078-2.87.235-3.23 2.093-6.195 4.408-8.582.167-.009.33-.009.494-.006a21.356 21.356 0 00-2.322 2.837c-.683 1.003-1.319 2.071-1.737 3.214-.435 1.198-.549 2.458-.559 3.725-.003.431-.006.856-.006 1.287 0 4.702.196 9.417.284 14.123l.088-.118a.177.177 0 01.18-.065c.486-.568.705-1.313 1.012-2.002.336-.761.813-1.433 1.378-2.041.63-.672 1.348-1.257 2.077-1.822.617-.48 1.234-.97 1.998-1.185a2.18 2.18 0 01.134-.033c.833-.212 1.727-.193 2.576-.228l3.566-.167c1.793-.082 3.585-.166 5.378-.245.007.108.007.219.003.327z" fill="#000"/><path d="M153.509 175.218c-.32 4.366-1.489 8.878-4.778 11.981-3.268 3.085-8.274 3.418-12.444 2.174-4.803-1.433-5.914-6.344-6.459-10.743a45.93 45.93 0 01.415-13.901h23.462c.035 3.501.062 7.015-.196 10.489z" fill="#1F3044"/><path d="M134.627 191.904c-1.044.085-2.031.552-2.855 1.233a6.01 6.01 0 00-.226.197l-.23-.187c.373-.624.622-1.288.526-1.912v-.001a1.72 1.72 0 00-.371-.826v-.001c-.352-.443-.872-.65-1.443-.701-.573-.052-1.185.056-1.696.231-2.79.96-4.684 3.906-4.777 6.815l11.072-4.848zm0 0c.362-.03.641.056.858.211.22.156.386.39.506.675.241.572.278 1.315.194 1.905-.237 1.632-1.37 2.93-2.623 3.985h0c-1.293 1.091-2.759 2.059-4.414 2.4-1.12.23-2.218.105-3.138-.309a4.79 4.79 0 01-.287-.143c-1.33-.718-2.225-2.077-2.168-3.876l11.072-4.848zm18.662 10.47h.001c.358.646.479 1.401.483 2.185.004.745-.096 1.503-.189 2.204l-.015.113c-.201 1.519-.608 3.06-1.568 4.249h0c-1.173 1.459-2.874 2.035-4.397 1.628h0l-.003-.001a2.846 2.846 0 01-.304-.093h-.001c-.728-.261-1.409-.757-1.96-1.512-.917-1.256-1.186-2.828-1.15-4.382h0c.016-.752.036-1.645.164-2.506.129-.864.364-1.678.797-2.281.327-.454.79-.767 1.275-.87.48-.102.988.001 1.422.391h.001c.409.366.616.807.686 1.282l.07.47.212-.425c.034-.069.073-.135.113-.203l.019-.032c.185-.302.407-.572.676-.798h0l.003-.002c.173-.152.369-.286.587-.398 1.177-.604 2.442-.168 3.078.981zm5.943-20.379h0c.435.662.635 1.468.715 2.314.081.842.041 1.712.005 2.504v.011h0c-.072 1.609-.353 3.241-1.14 4.642h0c-.655 1.168-1.745 2.291-3.109 2.353-1.301.058-2.278-.984-2.927-2.082-.817-1.382-1.288-2.973-1.407-4.575h0a11.893 11.893 0 01.045-2.418c.11-.83.337-1.622.741-2.239.315-.48.733-.678 1.152-.67.425.007.873.227 1.233.626l.146.161.099-.194c.236-.462.555-.87 1.006-1.201h.001c1.183-.866 2.647-.439 3.44.768zm-13.244-2.998c-.953 1.11-2.331 2.139-3.876 1.936a1.044 1.044 0 01-.15-.026l1.861-9.959a.008.008 0 01.002.004l-.023.014.077.129.142-.048-.001-.002-.009-.026c.09-.049.182-.094.276-.133.108-.046.219-.085.33-.121m1.371 8.232a8.175 8.175 0 001.878-4.232m-1.878 4.232l-.113-.098-.001.001m.114.097l-.114-.097s0 0 0 0m1.992-4.135c.16-1.257.117-2.919-1.052-3.713m1.052 3.713l-.149-.019s0 0 0 0m.149.019l-.149-.019m-.903-3.694c-.666-.45-1.466-.506-2.197-.287m2.197.287l-.084.124s0 0 0 0m.084-.124l-.084.124s0 0 0 0m-2.113-.411l.043.144.001-.001m-.044-.143l.046.143h-.002m0 0a3.786 3.786 0 00-.315.116h-.001a3.035 3.035 0 00-.389.199l-.16.096-.059-.177a1.466 1.466 0 00-.049-.131l-.003-.005h0c-.443-1.045-1.477-1.511-2.548-1.103m3.524 1.005c.697-.208 1.448-.152 2.069.268m-5.593-1.273l-2.209 3.589c-.331 1.619-.467 3.363.206 4.873.469 1.051 1.386 1.97 2.487 2.308h.001c.118.037.241.068.362.086l.009.001.008.003c.038.01.077.015.13.022h.001c1.465.192 2.797-.785 3.742-1.885m-4.737-8.997c-.708.27-1.186.805-1.526 1.458-.34.655-.536 1.419-.683 2.131l2.209-3.589zm5.593 1.273c.542.368.83.941.962 1.589.132.649.104 1.36.025 1.981m0 0a8.024 8.024 0 01-1.843 4.154m14.591 19.1h0l.001-.003c.29-.736.719-1.372 1.322-1.797 1.362-.955 3.173-.432 4.341.653 2.157 2.004 2.602 5.389 1.527 8.066v.001c-.536 1.337-1.467 2.562-2.703 3.296l-.007.004-.004.003-.001.001-.008.003-.013.007h0l-.009.005c-.09.053-.181.1-.273.144-1.27.607-2.668.403-3.936-.284-2.786-1.513-4.341-4.745-4.431-7.856h0c-.018-.601.014-1.307.217-1.904.201-.593.563-1.062 1.203-1.232h.001a1.827 1.827 0 011.435.191h0c.378.213.717.542 1.01.921l.165.214.094-.253c.023-.063.045-.122.069-.18zm-1.807 15.186l-.121-.164a2.055 2.055 0 00-1.083-.767l-.001-.001c-.598-.177-1.174-.033-1.663.298a3.13 3.13 0 00-1.107 1.395c-.318.785-.332 1.665-.2 2.557.132.892.407 1.781.658 2.583h0c.483 1.552 1.224 3.049 2.552 3.994 1.464 1.038 2.942.935 4.228.229 1.296-.71 2.395-2.032 3.058-3.417l-6.321-6.707zm0 0l.12-.163m-.12.163l.12-.163m0 0c.358-.482.783-.91 1.286-1.248l-1.286 1.248zm5.51-1.364c-1.226-.988-2.949-.742-4.224.116l4.224-.116zm0 0c1.14.919 1.604 2.365 1.634 3.902m-1.634-3.902l1.634 3.902m0 0c.03 1.535-.375 3.138-.943 4.332l.943-4.332zm-6.69-42.679l-.001.012-.001.015-.001.007v.302l-.241-.186a2.916 2.916 0 00-.344-.226c-.375-.205-.787-.278-1.138-.199-.344.077-.641.302-.797.724h-.001c-.175.472-.094.971.103 1.476.152.389.366.763.568 1.118.061.108.122.214.179.319h0l.091.165c.583 1.063 1.192 2.171 2.11 2.923a3.37 3.37 0 001.087.607c.398.122.792.127 1.131-.064l.007-.003h0a1.324 1.324 0 00.258-.191l.005-.005h0c.346-.316.599-.786.781-1.303.18-.515.286-1.062.343-1.517a6.826 6.826 0 00-.482-3.498l-3.657-.476zm0 0c.022-.192.048-.373.073-.529h0l.001-.004.019-.142c.07-.44.285-.773.58-.961.293-.187.681-.242 1.118-.094.441.15.815.479 1.127.889.312.408.556.886.739 1.316l-3.657-.475z" fill="#fff" stroke="#000" stroke-width=".3"/><path d="M141.842 164.351c-2.763 1.355-3.916 4.438-4.814 7.184-1.887 5.77-2.729 11.808-4.218 17.679-.327 1.299-.673 2.579-1.134 3.807-.509 1.381-1.159 2.697-2.08 3.906-1.087 1.426-2.328 2.749-3.647 3.98a5.458 5.458 0 01-.297-.147c1.776-1.616 3.438-3.416 4.637-5.427.751-1.267 1.283-2.671 1.701-4.121.464-1.58.793-3.213 1.143-4.761.672-2.984 1.244-5.992 1.936-8.97.666-2.88 1.401-5.802 2.557-8.529.842-1.995 2.051-3.902 4.052-4.882.186-.091.353.19.164.281zm2.775 6.414c-.042.95-.167 1.897-.353 2.834-.352 1.764-.914 3.475-1.544 5.16-.248.663-.474 1.423-.758 2.148a2.507 2.507 0 01-.385-.091c.062-.157.117-.31.179-.464a80.11 80.11 0 00.856-2.243c.509-1.408.963-2.841 1.277-4.304.205-.96.343-1.94.398-2.919.121-2.168-.173-4.343-1.09-6.348-.085-.189.195-.356.284-.163.924 2.018 1.237 4.205 1.136 6.39zm13.721 41.049c-2.567-3.749-3.23-8.144-3.35-12.598-.235-8.882.927-18.019-1.894-26.626-1.048-3.197-2.982-8.372-7.011-8.549-.209-.01-.209.317 0 .327 2.005.088 3.442 1.642 4.434 3.246 1.071 1.73 1.839 3.667 2.436 5.606 1.244 4.049 1.646 8.298 1.738 12.516.101 4.494-.154 8.987-.033 13.48.104 3.807.542 7.749 2.393 11.148 2.162 3.967 6.489 7.291 6.12 12.238-.017.209.31.209.326 0 .323-4.307-2.912-7.503-5.159-10.788z" fill="#000"/><path d="M164.986 208.369a3.89 3.89 0 01-.284.15c-.986-1.76-1.802-3.618-2.57-5.492-.669-1.639-1.175-3.569-2.175-5.039a3.932 3.932 0 00-.757-.819c-1.212-1.003-2.978-1.421-4.402-1.946-1.466 1.613-3.073 3.18-4.362 4.937-.353.48-.653.989-.911 1.518-.549 1.137-.902 2.371-1.137 3.618-.379 2.002-.503 4.049-.685 6.077-.046.51-.095 1.016-.138 1.525a3.078 3.078 0 01-.32-.098c.056-.637.115-1.277.173-1.913.18-1.982.311-3.987.709-5.943.17-.83.392-1.646.689-2.43.376-.979.869-1.91 1.518-2.756 1.329-1.724 2.903-3.291 4.363-4.908.098-.111.242-.026.268.085 1.541.562 3.432 1.009 4.656 2.149.271.251.503.542.705.859.673 1.035 1.049 2.338 1.486 3.425.957 2.377 1.927 4.767 3.174 7.001zm-2.638-28.582c-.049.049-.105.091-.16.134a1.088 1.088 0 01-.137.085c-.689-1.626-1.336-3.272-1.989-4.915-.3-.76-.594-1.525-.98-2.22-.48-.875-1.107-1.643-2.08-2.155-1.619-.852-3.484-.885-5.273-.862-.209.003-.209-.324 0-.327 1.721-.023 3.49.01 5.084.735 1.032.47 1.776 1.179 2.344 2.067.232.362.435.754.614 1.172.902 2.08 1.711 4.196 2.577 6.286z" fill="#000"/></g><defs><clipPath id="clip0_0_1214"><path fill="#fff" transform="translate(.882)" d="M0 0h168.236v224H0z"/></clipPath></defs></svg>