<svg width="175" height="197" fill="none" xmlns="http://www.w3.org/2000/svg"><path d="M110.937 34.271c.094.815-.579.983-1.322 1.215-.607.191-1.215.38-1.822.57l-3.645 1.139-1.543.482.007-.084a111.316 111.316 0 00.188-3.452c.061-1.499.088-2.996.091-4.485 0-2.689-.105-5.359-.296-8.008l8.908-1.256c-.042 4.63-.668 12.974-.566 13.88z" fill="#FEA679"/><path d="M163.479 182.064c-.298-.805-1.236-1.014-1.978-1.038-1.236-.035-2.505.254-3.68.619-2.731.85-5.249 2.296-7.986 3.119-.028-.053-.089-.086-.152-.039-.067.049-.13.1-.195.151l-.014.012a5.844 5.844 0 00-1.066 1.071c-.252.332-.619.796-.584 1.254.074 1.013 1.682 1.029 2.362.95 1.392-.158 2.7-.84 4.001-1.329a66.416 66.416 0 016.22-2.007c.619-.167 1.264-.288 1.85-.558.789-.363 1.576-1.243 1.222-2.205z" fill="#1F3044"/><path d="M131.612 185.652c-1.304-1.169-3.389-1.285-5.049-1.199-.878.044-1.755.198-2.57.531-.531.216-1.317.577-1.194 1.255a44.388 44.388 0 00-3.622 3.777c-.977 1.155-2.088 2.442-2.141 4.034-.107 3.27 3.764 3.182 6.014 2.707 1.346-.284 2.708-.826 3.557-1.96.947-1.266 1.178-2.988 2.605-3.875 1.026-.638 2.434-.899 3.105-1.997.656-1.08.179-2.482-.705-3.273z" fill="#F4E3D2"/><path d="M113.703 3.977a5.2 5.2 0 00-1.427-1.476c-.254-.174-.537-.335-.847-.377a1.01 1.01 0 00-.345 0c-.069.014-.263.142-.304.142-.233-.005-.636-.44-.829-.568a10.251 10.251 0 00-3.785-1.543c-1.643-.305-3.47-.214-4.909.712-1.322.852-2.15 2.437-1.848 3.999-2.128-.815-6.029 1.68-4.762 4.008-1.146-.249-2.31 1.09-2.659 2.063-.407 1.133.229 2.343 1.31 2.737-.795.37-1.11 1.39-.75 2.218.546 1.269 1.959 1.625 3.214 1.739-.168.921.502 1.936 1.117 2.558.726.733 2.35 1.18 3.37 1.303.084.01.128-.083.117-.15-.231-1.179-1.14-2.363-1.108-3.57.03-1.128.256-2.245.6-3.32.643-2.014 1.648-4.035 2.954-5.703 1.303-1.665 3.021-2.861 5.13-3.224 1.953-.338 3.955-.01 5.824.605.088.202.149.412.184.633.018.13.186.1.226 0a.11.11 0 00.027-.005.525.525 0 01-.055.159c-.07.132.121.246.197.132a5.092 5.092 0 01-.125 1.038c-.035.152.598-.181.633-.332.326-1.43-.352-2.545-1.15-3.778z" fill="#DB8544"/><path d="M173.523 189.841c-.372-.493-1.389-1.387-2.367-1.869-.901-.444-7.658-4.869-9.569-5.777-1.047-.498-1.145 1.133-2.19.628-.775-.377-1.644-.731-2.523-.598-1.623.245-2.277 2.16-3.795 2.526-.055-.049-.16-.035-.195.039a.092.092 0 01-.028.005c-.151.021-.154.261 0 .24.005 0 .007-.003.012-.003a4.46 4.46 0 001.676 3.482c1.433 1.146 3.147.834 4.839 1.106 1.029.165 1.759.703 2.567 1.322.733.563 1.478 1.11 2.263 1.599 1.447.901 3.084 1.639 4.811 1.73 1.45.077 3.994-.484 4.858-1.73.731-1.043.447-1.636-.359-2.7z" fill="#F4E3D2"/><path d="M115.274 9.186c-.566-1.983-.456-2.677-2.449-3.748-1.927-1.035-4.69-.586-6.834-.062-2.211.54-4.38 1.433-5.449 3.349-2.039 3.661-1.203 6.708-.493 9.362 1.25 4.68 4.841 6.799 6.126 7.497 3.35 1.825 5.978 1.367 7.151.91 3.542-1.38 3.603-5.465 3.459-7.709-.259-3.996-.834-7.22-1.511-9.6z" fill="#FEA679"/><path d="M108.305 14.798c.142.812-.084 1.527-.503 1.601-.419.072-.875-.526-1.014-1.336-.142-.81.083-1.527.502-1.601.419-.075.873.524 1.015 1.336zm5.652-.748c.142.813-.084 1.528-.503 1.602-.419.073-.875-.526-1.015-1.336-.142-.812.084-1.527.503-1.601.419-.072.873.526 1.015 1.336z" fill="#1F3044"/><path d="M107.702 10.171c-.891-.119-2.425.298-2.667 1.262-.107.428-.096.896.36 1.191.522.34 1.409.091 1.984.026.547-.063 1.17-.063 1.517-.533.647-.882-.24-1.82-1.194-1.946zm5.784-.741c-.805-.13-2.183.266-2.388 1.225-.091.426-.074.892.342 1.194.475.345 1.271.107 1.788.051.493-.055 1.057-.046 1.362-.512.572-.872-.243-1.817-1.104-1.957z" fill="#DB8544"/><path d="M161.175 170.799c-.891-3.819-2.062-7.539-3.166-11.3-.572-1.953-1.068-3.932-1.317-5.957-.242-1.976-.282-3.971-.268-5.958.031-3.899-5.856-28.933-7.52-32.175-.882-1.721-1.725-3.464-2.386-5.282-.647-1.778-1.087-3.617-1.434-5.474-.694-3.708-1.103-7.456-2.153-11.09-2.016-6.982-5.626-13.367-9.345-19.56-.48-.802-.964-1.6-1.448-2.398-.026-.042-.086-.075-.135-.056a75.675 75.675 0 01-21.845 4.618c-.154.01-.154.249 0 .24l.093-.007-.002.028c.57 3.73-.827 7.34-1.309 10.998-.477 3.614-3.093 7.674-2.423 11.237.685 3.646 5.889 40.522 5.813 44.286a36.2 36.2 0 001.343 10.568c.931 3.338 2.132 6.624 2.618 10.069.582 4.122-.167 8.294.414 12.42.573 4.055 1.984 7.928 3.38 11.757.021.061.082.103.147.084a19.098 19.098 0 0113.328.966c.067.03.158.009.177-.072 1.264-5.556-1.036-11.005-1.93-16.429-.503-3.044-.407-6.112-.223-9.18.184-3.068.281-6.126.328-9.199.047-3.079.161-6.149.559-9.205.398-3.045-.859-15.242-.715-17.837.878 2.739 6.068 14.697 6.496 17.487.445 2.891 1.174 5.657 2.095 8.429.941 2.826 1.79 5.623 2.144 8.591.338 2.824.431 5.682 1.024 8.468 1.236 5.791 4.83 11.173 4.29 17.276-.007.093.107.149.182.105a32.393 32.393 0 0115.46-4.667c.081-.003.13-.075.116-.152-.745-3.884-1.489-7.774-2.388-11.629z" fill="#1F3044"/><path d="M111.157 4.631c-1.944-.477-3.976-.197-5.852.436-1.911.647-4.055 1.56-5.468 3.049-.642.68-1.157 1.464-1.62 2.272-.247.428-.617.926-.759 1.399-.058.193-.086.31.08.444.041.033.083.033.118.014-.11.517-.316 1.043-.435 1.539a15.214 15.214 0 00-.36 2.069c-.127 1.31.916 3.424 3.6 5.966.936.887 1.618 1.555 2.114 3.296.02.074.153.023.183-.05.424-1.047-.107-2.485-.717-3.442-.467-.738-.598-1.361-1.419-2.265-.485-.533-.983-1.175-1.038-1.922-.068-.857.453-1.45 1.077-1.956.226-.183.463-.36.689-.544a.112.112 0 00.124-.04c.055-.067.104-.135.156-.202.414-.375.754-.8.879-1.383.343-.668.603-1.376.799-2.125.209-.803.393-1.634.854-2.34.431-.658 1.057-1.163 1.743-1.535 2.542-1.378 6.441-1.588 8.792.225.065.052.191.014.191-.079.035-1.706-2.34-2.486-3.731-2.826z" fill="#DB8544"/><path d="M103.317 16.323a.85.85 0 00-.822-.48c-.582-.705-1.701-1.108-2.509-.796-1.148.445-1.399 2.205-.89 3.19.655 1.265 2.145 1.314 3.369 1.012 1.443-.359 1.422-1.797.852-2.926z" fill="#FEA679"/><path d="M101.978 17.76c-.372-.003-.791-.08-.968-.457-.179-.384-.018-.805.149-1.161.033-.07-.021-.159-.095-.166a1.203 1.203 0 00-1.171.561c-.082.13.109.277.191.147a.96.96 0 01.779-.473c-.169.41-.267.878-.025 1.28.233.387.682.501 1.106.506.155 0 .19-.238.034-.238zm10.696-2.089c-.542-.854-1.392-1.554-2.218-2.115-.128-.086-.249.12-.121.207.67.456 1.278.984 1.801 1.604.133.158.289.316.382.505.212.423.11.693-.109 1.063-.205.343-.489.662-.729.98-.093.124.117.245.207.121.524-.703 1.362-1.461.787-2.365zm-1.988 1.218a2.402 2.402 0 00-.87.521c-.114.105.055.275.17.17.221-.207.477-.36.763-.461.147-.049.084-.28-.063-.23zm2.347 2.187c-1.276.2-2.556.387-3.839.564-.207.028-.414.058-.619.084.401 1.18 1.611 2.634 3.191 1.894 1.006-.47 1.395-1.57 1.553-2.586-.098.017-.193.03-.286.044z" fill="#D1724E"/><path d="M109.194 19.64c.64.651 1.553 1.05 2.624.586.57-.244.954-.663 1.215-1.147a230.25 230.25 0 01-3.839.56z" fill="#FAF7F5"/><path d="M32.822 51.305c-.091.486-.198.98-.359 1.45-.228.668-.66 1.024-1.345 1.164-2.228.456-4.57.656-6.834.843-2.214.184-4.495.314-6.69-.117-2.027-.398-4.234-1.203-5.758-2.646-1.613-1.53-2.263-3.95-2.232-6.117.03-2.179.763-4.316 2.1-6.038 1.952.004 4.964.018 5.357.025 2.323.04 4.64.208 6.934.578 2.056.33 4.176.751 5.996 1.808.987.573 1.853 1.322 2.335 2.377.452.991.62 2.137.696 3.214a13.484 13.484 0 01-.2 3.46z" fill="#7464DC"/><path d="M143.364 51.729a56.74 56.74 0 00-.023-1.01 47.406 47.406 0 00-2.912-14.676c-.154-.417-.27-.58-.717-.696-.715-.189-1.427-.37-2.144-.547a177.436 177.436 0 00-9.089-2.018c-3.701-.724-7.09-1.078-10.826-1.073-.086 0-.175 0-.263.002a66.71 66.71 0 00-4.157.158l-.105.007a2.33 2.33 0 01-1.075.37c-3.087.286-6.162 1.07-9.264 1.16-.613.016-1.073-.21-1.378-.557l-.208.019a297.49 297.49 0 00-3.936.398c-.097.011-.195.02-.293.032-5.37.587-10.127 1.28-12.264 1.949-1.257.393 3.103 3.756 2.486 4.946-.575 1.108-.659 2.376-.37 3.577.656 2.728 2.858 4.563 5.165 5.933.86.51 1.738.983 2.614 1.472.162.621.43 1.236.658 1.818.622 1.61 1.206 3.235 1.755 4.871 1.115 3.31 2.093 6.664 3.017 10.03 1.876 6.825 3.633 13.682 5.437 20.525 1.034 3.925 2.067 7.847 3.103 11.771.016.063.084.1.147.084 8.686-2.458 16.5-7.395 25.38-9.25 2.533-.528 5.117-.778 7.7-.633.061.002.128-.06.121-.121-.819-6.357-3.491-12.588-5.242-18.728-1.72-6.038-3.047-11.988-4.869-17.882 1.299-.127 2.546-.328 3.857-.207 1.152.11 2.321.324 3.475.098.759-.149 1.483-.535 2.23-.752.24-.011.479-.025.721-.044.208-.014 1.013.019 1.167-.114.214-.18.107-.652.102-.912z" fill="#FFC93D"/><path d="M55.258 14.407a3.85 3.85 0 01-.726-.174 15.458 15.458 0 01-1.332-.666c-.57-.33-1.105-.605-1.776-.675-1.233-.13-2.206.447-3.149 1.115a3.443 3.443 0 01-.966.321c-.968.154-1.946-.007-2.919.038-1.496.072-2.79.796-3.57 2.071-.429.703-.49 1.632-1.074 2.228-.49.5-.9.875-1.128 1.499-.876-.33-1.865-.559-2.626.083-.838.708-1.53 2.06-1.56 3.15-.027 1.036.622 1.862 1.579 2.234.821.32 1.676.247 2.497.019.172 1.18.957 2.162 1.695 3.07.056.07.137.042.177-.019a3.443 3.443 0 001.787.896c.1.02.196-.079.138-.176-.603-.999-1.23-2.028-1.471-3.182-.24-1.143-.03-2.31.449-3.364.887-1.948 2.574-3.552 4.378-4.688 3.715-2.341 8.53-2.665 12.339-.351.065.4.081.8.04 1.18-.017.154.228.151.244 0 .21-1.939-.913-4.336-3.026-4.609z" fill="#A04416"/><path d="M18.444 185.866c-1.317-.757-3.086-.859-4.541-.647-1.853.267-2.498.691-4.088 1.643-1.54.922-3.249 1.243-4.936 1.72-.84.238-1.679.526-2.442.973-.62.361-1.35.866-1.539 1.639-.156.638.152 1.322.722 1.501 2.99.936 6.415.312 7.856-.405.737-.368 1.338-.917 1.953-1.476.78-.707.803-.661 1.799-.959 1.613-.479 3.466-.372 4.976-1.198 1.11-.605 1.471-2.084.24-2.791z" fill="#1F3044"/><path d="M17.776 181.129a14.61 14.61 0 01-.326-2.332c-1.296.06-2.686-.159-3.885-.233a.894.894 0 01-.184-.033c-.044 0-.086-.002-.13-.004.084 2.001-.459 3.589-1.613 5.244-1.273 1.825-2.081 2.26-3.931 3.38 0 0 .614 1.391.602 1.41-.03-.005-.06.005-.086.035l-.107.126c-.081.095.03.274.138.188.007-.007.016-.011.023-.018.016-.012.03-.026.046-.04.105.563.324 1.157.931 1.227.727.081 1.357.351 1.984.011.966-.526 1.382-1.066 2.458-1.352 1.03-.277 1.964-.466 2.993-.736.724-.19 1.436-.588 1.788-1.317.363-.75.274-1.655.123-2.451-.203-1.052-.589-2.058-.824-3.105z" fill="#FEA679"/><path d="M12.995 189.502c-.738-1.155-2.495-2.603-3.584-3.389-.634-.456-.985-.585-1.704-.273-.785.34-1.094.501-2.549 1.139-1.785.782-4.474 1.857-4.253 4.552-.007.098.105.68.177.745.391.359 1.18.436 1.662.564 1.292.337 2.56.274 3.878.17 1.197-.098 2.402-.298 3.48-.883 1.108-.603 2.004-1.552 2.872-2.479.037-.037.05-.102.021-.146zm25.637-.361c1.51.826 3.363.719 4.976 1.199.997.295 1.02.249 1.8.959.612.558 1.212 1.108 1.953 1.475 1.44.715 4.864 1.341 7.855.406.57-.18.878-.864.722-1.502-.189-.773-.922-1.278-1.539-1.638-.766-.447-1.601-.734-2.441-.973-1.688-.478-3.396-.799-4.937-1.721-1.59-.952-2.235-1.375-4.088-1.643-1.454-.209-3.221-.109-4.54.647-1.237.703-.876 2.181.239 2.791z" fill="#1F3044"/><path d="M39.056 181.611c.172-.768.279-1.548.325-2.332 1.297.061 2.687-.158 3.885-.233a.894.894 0 00.184-.032c.044 0 .086-.003.13-.005-.083 2.002.459 3.589 1.614 5.244 1.273 1.825 2.08 2.26 3.93 3.38 0 0-.614 1.392-.602 1.41.03-.004.06.005.086.035l.107.126c.082.096-.03.275-.137.189l-.023-.019c-.017-.012-.03-.026-.047-.04-.105.564-.324 1.157-.931 1.227-.726.082-1.357.352-1.983.012-.966-.526-1.383-1.066-2.458-1.353-1.031-.277-1.965-.465-2.994-.735-.723-.191-1.436-.589-1.787-1.318-.363-.749-.275-1.655-.123-2.451.202-1.054.588-2.057.824-3.105z" fill="#FEA679"/><path d="M43.852 190.128c.869.926 1.765 1.876 2.873 2.479 1.078.586 2.283.786 3.48.882 1.317.107 2.588.17 3.878-.17.481-.126 1.273-.205 1.661-.563.073-.068.184-.647.177-.745.221-2.696-2.465-3.771-4.252-4.553-1.455-.638-1.765-.798-2.549-1.138-.722-.312-1.073-.186-1.704.272-1.09.787-2.847 2.235-3.584 3.389a.14.14 0 00.02.147z" fill="#1F3044"/><path d="M53.997 109.133c-.07 3.778-.182 7.551-.454 11.317-.542 7.555-1.96 15.008-3.266 22.459a1940.261 1940.261 0 01-6.203 33.732 1360.04 1360.04 0 01-.589 3.04c-.086.447-.072 1.197-.459 1.523-.232.2-.581.179-.868.2l-1.406.084c-.938.055-1.876.114-2.814.167-.072.005-.114-.058-.12-.121-.408-3.068-.818-6.136-1.223-9.203-.405-3.054-.884-6.11-1.147-9.183-.233-2.733-.096-5.414.151-8.137.242-2.714.296-5.375.063-8.091-.233-2.686-.545-5.358-.594-8.056-.046-2.593.075-5.184.275-7.77.244-3.191.614-6.399.947-9.608-.752 2.993-1.447 6-1.885 9.059-.47 3.291-.708 6.615-1.199 9.904a42.476 42.476 0 01-2.584 9.539c-.607 1.531-1.247 3.049-1.773 4.611-.489 1.452-.864 2.942-1.213 4.434-.675 2.888-1.261 5.826-2.45 8.559-1.12 2.569-2.908 4.68-4.542 6.927-.589.807-1.155 1.648-1.625 2.53l-.123.237a9.816 9.816 0 00-.342.738c-.496 1.169-.778 2.405-.694 3.729.002.06-.06.128-.121.121a17.92 17.92 0 00-4.965.147c-.067.011-.16-.031-.151-.117.14-1.306.14-2.609.049-3.906a8.198 8.198 0 00-.017-.237l-.02-.268-.021-.237c-.177-1.864-.524-3.72-.89-5.558-.642-3.224-1.254-6.429-1.338-9.728-.154-6.061.994-12.052 1.944-18.013.493-3.08.896-6.166 1.163-9.274.27-3.144.447-6.294.69-9.438.807-10.451 2.841-25.79 6.168-35.718 6.526-1.627 9.417-4.015 16.142-4.04.093.12 4.057 2.155 4.269 2.19 2.367.412 4.839.4 7.188-.138.821.021 1.64.044 2.46.068.7.032 1.401.07 2.1.098a.73.73 0 00.24-.028c.195.004.388.011.583.016.191.62.282 1.273.366 1.916.144 1.075.237 2.16.298 3.244.207 3.734.07 12.539 0 16.28z" fill="#EFEEFE"/><path d="M60.43 54.475c-.216-2.334-.477-4.755-1.506-6.894-1.255-2.612-2.02-3.229-4.353-4.758-2.686-1.76-5.612-2.386-8.766-2.982-2.52-.475-10.632-.407-14.056 1.539-3.78 2.146-4.344 5.905-6.192 9.725-2.002 4.136-3.354 8.55-4.622 12.955-.69 2.388-1.37 4.779-2.051 7.167-.673 2.346-1.362 4.697-1.795 7.104a25.734 25.734 0 00-.181 7.984 40.937 40.937 0 00.23 1.485c.384 2.197.952 4.36 1.52 6.517.026.105.163.114.219.028a15.807 15.807 0 013.866-3.954c.07-.052.138-.098.207-.147a16.04 16.04 0 015.89-2.53 15.965 15.965 0 013.265-.307l.242.002c1.71.028 3.42.282 5.118.621.08.014.161.03.24.05 1.89.386 3.771.87 5.614 1.258.585.124 1.171.24 1.755.359l2.175 1.057c2.404 1.173 4.843 2.595 7.495 3.112.747.146 1.885.447 2.227-.475.217-.587.221-1.292.31-1.906.116-.79.228-1.576.344-2.368.424-2.916.843-5.835 1.266-8.752.824-5.693 1.72-11.386 1.849-17.15a78.284 78.284 0 00-.31-8.74z" fill="#7464DC"/><path d="M117.022 41.783c-1.904-.41-3.81-.82-5.714-1.227-3.187-.684-6.315-1.431-9.376-2.572-3.119-1.161-6.205-2.525-9.492-3.147-3.068-.582-6.41-.542-9.245.9-1.478.753-2.856 1.882-3.22 3.578-.02.098-.04.194-.053.291-.3 1.951.73 3.853 2.446 4.835.228.13.461.254.699.37 5.416 2.647 11.843 1.099 17.58.764a104.25 104.25 0 0116.419.349 71.47 71.47 0 00-.044-4.141z" fill="#FEA679"/><path d="M53.961 87.954c-3.007-1.036-5.73-2.705-8.647-3.95-2.418-1.031-5.041-1.704-7.714-2.028a668.3 668.3 0 00.1 6.106l-.24-.05a587.416 587.416 0 01-.1-6.081 31.78 31.78 0 00-5.93-.124c.326 1.858.63 3.72.915 5.584l-.242-.002a234.071 234.071 0 00-.913-5.56c-1.245.097-2.474.27-3.675.514-.594.12-1.183.267-1.767.435a110.34 110.34 0 001.627 5.295 4.276 4.276 0 00-.226.073 109.714 109.714 0 01-1.631-5.298 21.117 21.117 0 00-4.532 1.944c.777 1.722 1.313 3.533 1.922 5.32.012.04.026.077.042.117-.07.049-.137.095-.207.147-.628-1.832-1.166-3.695-1.964-5.463a17.455 17.455 0 00-3.64 2.87 13.042 13.042 0 00-.052-.294 17.448 17.448 0 013.661-2.86.123.123 0 01.056-.033c4.837-2.84 10.756-3.433 16.256-2.896.135.012.27.03.403.047a.135.135 0 01.068.01c2.79.311 5.525.986 8.107 2.108 2.823 1.227 5.47 2.835 8.389 3.838.142.05.081.282-.066.23z" fill="#1F3044"/><path d="M49.49 40.807a40.437 40.437 0 00-1.066 2.397c-.293.727-.966.57-1.731.44l-1.877-.319-3.754-.638c-.528-.09-1.059-.179-1.587-.27l.044-.067c.2-.312.4-.622.598-.933a105.08 105.08 0 003.31-5.605 102.208 102.208 0 003.433-6.85l8.468 2.841c-2.353 2.847-4.318 5.864-5.838 9.004z" fill="#FEA679"/><path d="M101.6 49.17h0c0-.57.017-.999.059-1.322.043-.325.109-.527.196-.657a.538.538 0 01.349-.228c.168-.041.385-.049.677-.047v0h.001c.093 0 .191 0 .294.002h.243v0h.011l15.033-1.1a.581.581 0 01.576.578v141.141a.582.582 0 01-.581.579h-.035l-.032.016-15.038 7.483h0l-.24.118-.001.001-.23.116-.011.001c-.078.005-.205.021-.339.037l-.081.01a6.176 6.176 0 01-.383.031c-.056.001-.1 0-.132-.003l-.026-.005a.576.576 0 01-.221-.453l-.005-8.95h-.15.15l-.002-1.923-.003-4.166v-1.923h-.15m.071-129.335h-.15l.079 129.335m.071-129.335l.079 129.335h-.15m.071-129.335l-.071 129.335" fill="#fff" stroke="#000" stroke-width=".3"/><path d="M34.528 186.37l.15-.001.005 8.95c0 .32.26.579.578.579h67.369c.32 0 .581-.261.581-.579V47.451a.585.585 0 00-.581-.583h-.001l-17.659-.026-1.678-.002v-.15.15l-12.236-.019v-.15.15l-4.083-.007h0l-14.571-.02-1.695-.003v-.15.15l-14.522-.02h-.001 0l-.092-.002a5.717 5.717 0 00-.76.021c-.212.029-.344.088-.44.196-.1.114-.178.304-.228.637-.05.33-.07.781-.07 1.4h0m-.066 137.347l.066-137.348m-.066 137.348l.15-.001-.002-1.922-.003-4.167v-1.922h-.15.15l-.079-129.336m-.066 137.348l.066-137.348" fill="#fff" stroke="#000" stroke-width=".3"/><path d="M69.261 159.759h-8.768v1.382h8.768v-1.382zm-6.715-.752v-4.715l-.494-.014 1.164-2.493 1.194 2.448-.484.014v4.76h-1.38zm3.259 0v-4.715l-.494-.014 1.164-2.493 1.194 2.448-.484.014v4.76h-1.38z" fill="#000"/><path d="M69.564 162.801h-9.611c-.62 0-1.122-.502-1.122-1.121v-10.091c0-.619.503-1.122 1.122-1.122h9.61c.62 0 1.123.503 1.123 1.122v10.091a1.125 1.125 0 01-1.122 1.121zm-9.611-12.092a.883.883 0 00-.882.88v10.091c0 .486.396.882.882.882h9.61c.487 0 .88-.396.88-.882v-10.091a.881.881 0 00-.88-.88h-9.61zm18.965 8.138c-.042-1.532-.083-3.061-.128-4.593-.014-.489-.775-.491-.76 0 .032 1.208.067 2.416.1 3.624.016.552.025 1.141.046 1.693.02.588.098 1.401-.517 1.573-.954.268-1.36-.773-1.215-1.52.016-.491-.745-.489-.761 0-.028.782-.023 1.788.796 2.183.598.291 1.494.18 1.99-.256.724-.63.473-1.869.45-2.704z" fill="#000"/><path d="M81.903 157.143h-6.946c.14-1.892 1.641-3.382 3.473-3.382 1.832.003 3.333 1.49 3.473 3.382zm-2.277-4.995c.59.665 1.143-1.057 1.143-1.057s-1.666.461-1.143 1.057zm2.16 1.704c.589.665 1.143-1.057 1.143-1.057s-1.669.463-1.143 1.057zm-1.787-.117c.588.666 1.142-1.056 1.142-1.056s-1.669.463-1.142 1.056z" fill="#000"/><path d="M83.257 162.822h-9.61c-.62 0-1.123-.502-1.123-1.121V151.61c0-.619.503-1.122 1.122-1.122h9.611c.62 0 1.122.503 1.122 1.122v10.091c0 .616-.503 1.121-1.122 1.121zm-9.61-12.094a.883.883 0 00-.883.88v10.09c0 .487.396.882.882.882h9.611a.883.883 0 00.882-.882v-10.09a.88.88 0 00-.882-.88h-9.61zm16.537 4.876c0 1.252.784 2.283 1.8 2.449v2.711l-1.728.715h4.036l-1.655-.71v-2.733c.976-.207 1.718-1.217 1.718-2.434v-2.735h-4.173v2.737h.002z" fill="#000"/><path d="M96.953 150.497h-9.61c-.62 0-1.123.503-1.123 1.122v10.09c0 .619.503 1.122 1.122 1.122h9.611c.62 0 1.122-.503 1.122-1.122v-10.09a1.126 1.126 0 00-1.122-1.122zm.88 11.212a.88.88 0 01-.882.88H87.34a.883.883 0 01-.882-.88v-10.09c0-.486.395-.88.882-.88h9.61c.487 0 .883.396.883.88v10.09zm5.528 16.648H34.526v1.923h68.835v-1.923zm0 6.089v1.921h-68.83l-.003-1.921h68.833z" fill="#000"/><path d="M119.189 172.366v1.922l-15.872 5.992v-1.923l15.872-5.991zm0 6.087v1.923l-15.867 5.991-.003-1.92 15.87-5.994zM103.28 54.306H34.444v1.922h68.836v-1.922zm15.916-1.503v1.923l-15.858 1.62v-1.92l15.858-1.623zM89.719 80.892H46.536v8.57h44.491v-8.57h-1.308zm0 7.264H47.844V82.2H89.72v5.956zM73.486 95.87h-10.33v4.445h10.33V95.87z" fill="#000"/><path d="M103.417 46.766V195.75l-.24.119V46.766h.24z" fill="#000"/><path d="M52.216 154.073c-.36-12.572-.724-25.146-1.08-37.718-.182-6.328-.361-12.657-.338-18.988.021-6.19.308-12.367.69-18.542.658-10.703 1.482-21.468.912-32.18l-1.695-.002c.529 9.536-.06 19.117-.663 28.644-.391 6.17-.778 12.34-.89 18.523-.106 6.205.012 12.409.18 18.612.675 25.129 1.438 50.254 2.16 75.38.08 2.749.156 5.498.235 8.245h1.69c-.398-13.992-.799-27.985-1.201-41.974zm34.367 14.045a5787.216 5787.216 0 00-1.61-121.426l-1.679-.002a5710.54 5710.54 0 011.295 74.717c.267 24.878.377 49.761.323 74.638h1.683c.016-9.308.014-18.616-.012-27.927z" fill="#D4D2EE"/><path d="M39.742 35.565c-.575-.189-1.43.128-2.002.223-.542.091-3.384.012-4.278.2-.77.163-1.557.473-2.356.259-.69-.186-1.315-.6-1.978-.859-1.208-.468-2.614-.856-3.943-.81-1.338.049-2.188.882-3.31 1.41-1.329.627-2.858.622-4.313.738-1.17.096-2.307.31-3.377.755-2.016.837-3.64 2.446-3.748 4.524-.119 2.277 1.431 4.286 3.524 5.426 2.358 1.283 5.216 1.56 7.882 1.06 2.928-.552 5.74-1.786 8.786-1.195 1.19.23 2.51.643 3.704.203.48-.177.866-.487 1.261-.778.23-.17.461-.342.726-.467.408-.194.77-.133 1.197-.187 1.133-.14 1.264-1.608 1.438-2.38.35-1.537.682-3.078.915-4.633.126-.84.226-1.688.277-2.535.019-.372.058-.803-.405-.954zm42.498 4.198c-1.355-1.49-3.112-2.472-5.104-2.794-2.193-.354-4.418-.025-6.616.096-1.329.074-2.65.063-3.968-.16-1.301-.222-2.572-.585-3.871-.822-2.016-.37-4.213-.406-5.99.73-.025-.111-.204-.144-.23-.011a96.582 96.582 0 01-1.817 7.606c.06.108.102.23.109.38.007.156.002.312-.007.465a.766.766 0 01.277.587c0 .147-.01.29-.019.438a.756.756 0 01.35.644 6.99 6.99 0 01-.063.885c0 .004.002.007.004.011.035.142.06.28.08.42a.98.98 0 01.072.181c.016.058.027.114.04.168l.11-.007c4.684-.682 7.242 1.277 11.928.381 2.4-.458 4.753-.633 7.225-.388 2.1.207 4.21.225 6.266-.526a4.625 4.625 0 002.972-3.531c.33-1.835-.547-3.431-1.748-4.753z" fill="#7464DC"/><path d="M40.799 36.04c-.457-.603-1.21-.102-1.593.31-.547.588-.893 1.366-1.142 2.143a13.49 13.49 0 00-.217.729c-.11.407-.2.824-.277 1.24a20.909 20.909 0 00-.857 4.602c-.041.55-.174 1.737.706 1.723.861-.012 1.222-1.148 1.49-1.762a38.13 38.13 0 00.803-1.988c.46-1.257.847-2.547 1.11-3.85.044-.207.081-.417.119-.621.123-.722.349-1.879-.142-2.526zm17.027 1.033c-.408-.76-1.253-.686-1.734-.028-.475.652-.706 1.56-.857 2.426-.37 1.154-.589 2.362-.731 3.573-.149 1.252-.223 2.523-.053 3.778.083.614.216 1.57.977 1.703.782.138 1.166-.73 1.369-1.322.39-1.138.572-2.348.787-3.528.211-1.166.402-2.34.49-3.524.07-.953.222-2.198-.248-3.078z" fill="#1F3044"/><path d="M58.326 18.276a.818.818 0 01-.528-.191c-1.085-.88-2.654-1.625-3.978-2.074-1.523-.517-3.052-.677-4.63-.31a11.18 11.18 0 00-4.024 1.855c-1.006.738-1.506 1.886-2.535 2.582-.03.02-.06.032-.091.049C38.713 27.919 44.414 32.48 45.694 34c2.81 3.338 7.846 3.596 9.036 3.285 4.169-1.094 3.843-5.927 3.996-8.112.275-3.892.14-7.079-.21-9.464-.083-.573-.127-1.034-.19-1.434z" fill="#FEA679"/><path d="M51.878 25.43c.03.802-.28 1.465-.696 1.481-.414.016-.775-.621-.807-1.422-.03-.8.279-1.464.696-1.48.414-.017.775.619.807 1.422zm5.268 0c.03.802-.28 1.465-.696 1.481-.414.016-.775-.621-.808-1.422-.03-.8.28-1.464.696-1.48.414-.017.775.619.808 1.422z" fill="#1F3044"/><path d="M55.886 26.918c-.17-.472-.61-.842-.956-1.182a20.6 20.6 0 00-1.553-1.364c-.116-.093-.284.072-.165.165.722.575 1.436 1.19 2.053 1.874 1.043 1.157-.084 1.997-.875 2.835-.103.11.063.274.165.165.624-.659 1.709-1.436 1.331-2.493zm-2.116 1.443c-.414.03-.8.16-1.14.4-.123.087-.004.29.119.203a1.98 1.98 0 011.022-.368c.151-.011.151-.244 0-.235zm.324 2.996a8.397 8.397 0 01-3.952-1.052c-.133-.072-.251.13-.119.202a8.683 8.683 0 004.069 1.085c.154.002.154-.233.002-.235z" fill="#D1724E"/><path d="M58.41 42.85c-.245.748-1.625.427-2.095.401a26.602 26.602 0 01-5.158-.791c1.438.524 2.877 1.059 4.276 1.685.502.223 1.622.61 1.487 1.469-.081.517-.577.735-1.078.815a.568.568 0 010 .225c-.144.712-1.331.51-1.731.447-1.09-.167-2.153-.61-3.206-.954-1.122-.366-2.248-.72-3.393-.968-1.227-.268-2.454-.32-3.694-.426-.934-.082-1.87-.233-2.735-.67-.512-.257-.927-.678-1.366-1.046-.366-.307-.752-.58-1.218-.684-.45-.1-.9-.177-1.357-.235.123-.557.268-1.11.433-1.658a15.132 15.132 0 01.493-1.969c.452.15.906.289 1.364.403.464.116.927.212 1.397.293.866.147 1.739.238 2.614.277 2.293.1 4.58-.007 6.813.72 1.085.353 2.137.823 3.224 1.163 1.224.382 2.47.456 3.726.61.359.044 1.457.128 1.204.894z" fill="#FEA679"/><path d="M51.746 21.371c-.778-.186-2.188-.023-2.519.703-.146.324-.19.69.18.968.423.32 1.238.22 1.757.228.493.01 1.047.075 1.41-.255.678-.62.003-1.446-.828-1.644zm5.256-.021c-.748-.186-2.107-.023-2.423.703-.142.324-.184.69.172.968.407.32 1.192.22 1.69.229.474.009 1.008.074 1.357-.256.654-.62.004-1.444-.796-1.644z" fill="#A04416"/><path d="M55.437 15.46c-1.839-.715-3.864-.71-5.78-.34-1.954.377-4.17.977-5.749 2.234-.717.573-1.324 1.264-1.883 1.983-.298.382-.726.815-.926 1.253-.081.179-.126.288.019.44a.103.103 0 00.114.028c-.177.484-.447.966-.629 1.429a14.61 14.61 0 00-.626 1.95c-.296 1.25-.347 2.521-.06 3.776l.018.077c.547.724 1.087 1.452 1.77 2.08 1.084 1.001 2.467 1.567 2.522 3.245.005.156-.007.303-.032.438.03.156.04.477.072.426.766-1.24 1.185-2.47 1.04-3.564-.16-1.213-1.429-1.624-2.113-2.604-.405-.578-.806-1.264-.764-1.993.05-.836.636-1.34 1.31-1.748.145-.086.294-.172.443-.258.663-.035 1.343-.107 1.906-.405.703-.373 1.113-1.032 1.383-1.753.668-1.79.95-3.722 2.605-4.83 2.65-.943 6.082-.566 8.11 1.462.057.058.183.037.197-.051.256-1.646-1.63-2.763-2.947-3.275z" fill="#A04416"/><path d="M46.08 25.73a.827.827 0 00-.73-.57c-.47-.756-1.5-1.292-2.319-1.094-1.166.28-1.636 1.946-1.273 2.963.468 1.308 1.9 1.55 3.119 1.418 1.44-.158 1.608-1.553 1.203-2.716z" fill="#FEA679"/><path d="M44.602 26.944c-.358-.05-.754-.179-.875-.565-.123-.394.086-.782.293-1.101.04-.063.002-.154-.07-.172-.456-.11-.9.027-1.203.39-.096.115.07.282.165.166a.937.937 0 01.815-.356c-.219.374-.372.812-.191 1.233.175.403.594.573 1.003.631.15.021.212-.205.063-.226z" fill="#D1724E"/><path d="M144.549 48.991a21.9 21.9 0 00-.042-1.085c-.088-1.508-.31-3.02-.519-4.508-.233-1.639-.47-3.299-1.071-4.86a1.03 1.03 0 00-.025-.073 10.342 10.342 0 00-.552-1.234c-.449-.837-1.092-1.638-2.032-1.764-1.15-.15-1.737.615-1.995 1.506a4.57 4.57 0 00-.165 1.104c-.002.053-.002.105-.002.156 0 .116.004.223.011.326.019.244.044.488.072.73 0 .084 0 .166.003.247.053 1.839.509 3.643.917 5.435.195.861.388 1.718.589 2.577.086.363.17.726.258 1.09.016.064.03.132.049.197a83.1 83.1 0 00.47 1.858c.27 1.017 1.043 2.579 2.486 2.04 1.387-.516 1.555-2.38 1.55-3.558v-.068c0-.04 0-.076-.002-.116z" fill="#1F3044"/><path d="M146.723 24.071a.054.054 0 00-.014-.023c-.226-.46-.445-.922-.659-1.39-.296-.642-.605-1.294-.878-1.955-.135-.32-.256-.65-.365-.975-.293-.891.342-1.678.165-2.584-.139-.73-.596-1.366-1.07-1.92a18.942 18.942 0 00-1.753-1.757 6.904 6.904 0 00-1.238-2.388c-.575-.708-1.853-1.4-2.486-.412-.673-.29-1.506-.194-1.769.6-.622-.28-1.404-.268-1.842.226a3.976 3.976 0 01-.346-.16.095.095 0 00-.061-.01c-.002-.002-.005-.005-.005-.007-.793-1.12-1.587-2.316-2.667-3.182-.347-.28-2.197-1.527-2.253-.358-.023.512.426.991.74 1.347.554.622 1.115 1.236 1.653 1.87a65.548 65.548 0 011.729 2.115l.13.16c.177.462.287.948.308 1.451.032.726-.082 1.46.025 2.179.184 1.215 1.318 2.169 2.319 2.779 1.201.735 2.658.775 3.926 1.348.45.202.834.477 1.169.8.717.692 1.217 1.602 1.69 2.495.056.103.2.028.179-.072.044-.03.06-.093.033-.137.046.03.088.06.135.088.06 0 .123-.002.181-.004.121.01.249-.007.37-.012.277-.01.552-.016.831-.025.559-.017 1.122-.056 1.678.04.082.141.173.311.201.432a.105.105 0 00-.042.107c.002.014.007.028.009.044.007.03.04.06.07.07l.035.007c.056.014.1-.016.123-.07.098-.223-.144-.516-.251-.717z" fill="#FEA679"/><path d="M155.638 46.06c-.536 1.555-1.59 2.046-3.01 2.167-2.486.208-5.014-.093-7.492-.274-.208-.014-.417-.028-.624-.047-.207-.014-.41-.03-.617-.046l-2.449-.182c-.57-.042-1.136-.084-1.706-.133-.2-.856-.393-1.715-.589-2.576-.407-1.793-.866-3.596-.917-5.435-.002-.082-.002-.163-.002-.247a17.286 17.286 0 01-.072-.73 4.772 4.772 0 01-.012-.327c0-.051 0-.102.002-.156.012-.353.061-.738.166-1.103l1.438.09c.836.054 1.669.105 2.507.161.025.003.056.003.081.005 1.097.068 2.188.14 3.282.21-1.65-5.105-2.509-10.484-4.136-15.61a47.485 47.485 0 00-.67-1.964c.228-.107.454-.214.682-.314a32.888 32.888 0 002.537-.715c.382.62.763 1.243 1.14 1.864.531.866 1.055 1.73 1.574 2.603 3.852 6.485 10.889 16.954 8.887 22.76z" fill="#FEA679"/><path d="M134.756 105.129a88.378 88.378 0 00-2.879 20.849c-.002.153.237.153.24 0a88.024 88.024 0 012.872-20.786c.037-.149-.193-.214-.233-.063zm-4.785 66.124c-3.387-6.175-6.853-12.558-7.7-19.659-.019-.151-.258-.154-.24 0 .852 7.148 4.323 13.563 7.733 19.78.074.135.281.014.207-.121zm21.435-9.895c-.016-.151-.258-.154-.24 0a51.996 51.996 0 01-1.785 20.507c-.044.149.189.211.233.062a52.179 52.179 0 001.792-20.569z" fill="#404459"/><path d="M126.738 50.048a9.004 9.004 0 00-2.118-2.504c.002-.005.004-.01.009-.012-1.59-1.508-2.351-2.181-3.845-3.792-.65-.7-1.332-1.368-2.237-1.724-.861-.34-1.806-.433-2.717-.561-1.061-.152-2.12-.3-3.181-.452a31.847 31.847 0 00-.25 1.888c-.048.49-.339 1.443.184 1.76.217.132.65.144.901.209a17.632 17.632 0 012.409.815c.289.12.531.197.615.516.121.468-.049 1.024.039 1.509.212 1.156 1.239 1.908 2.137 2.546.815.58 2.512 1.601 2.905 2.016.784.824 1.58 1.627 1.678 2.816.042.494.014.992.01 1.487-.005.492-.098 1.078-.003 1.56.089.45.487.705.91.426a.91.91 0 00.161-.14c.391.291.717.142.938-.2.307.384.922.459 1.336-.037.342-.41.352-.987.393-1.492l.21-2.514c.114-1.401.235-2.849-.484-4.12z" fill="#FEA679"/><path d="M124.489 53.587c-.196-.78-.477-1.534-.768-2.282-.156-.395-.284-.784-.715-.933-.146-.051-.209.182-.063.233.536.186.761 1.313.931 1.792.194.55.366 1.108.482 1.68.268 1.309.21 2.645-.007 3.955-.025.152.207.217.233.063.247-1.503.279-3.023-.093-4.508zm1.499-.667a6.659 6.659 0 00-.156-.94c-.093-.368-.3-.706-.393-1.066-.081-.32.07-.636-.081-.943-.115-.23-.34-.384-.543-.526-.126-.089-.247.119-.121.207.566.398.412 1.07.652 1.65.298.717.419 1.462.442 2.235.044 1.415-.095 2.844-.33 4.239-.026.15.207.216.232.062.266-1.603.459-3.291.298-4.918zm23.239-9.87a17.32 17.32 0 01-3.477-5.118c-.063-.142-.27-.019-.208.121a17.546 17.546 0 003.515 5.168c.11.111.28-.059.17-.17zm-7.788-25.97c-.691-.796-1.641-1.264-2.628-1.586.671-.162 1.455-.458 1.746-1.052a.828.828 0 00.85.094c.346-.156.54-.515.614-.873.033-.152-.2-.217-.233-.063-.098.47-.612 1.073-1.108.64a.092.092 0 00-.039-.023c.135-.55-.135-1.171-.752-1.174a.1.1 0 00-.002-.041 4.493 4.493 0 00-1.271-2.205c-.112-.107-.282.063-.17.17a4.24 4.24 0 011.203 2.083c-.43.021-.866.077-1.294.124a4.097 4.097 0 00-1.434-1.772c-.128-.088-.247.12-.121.208a3.798 3.798 0 011.306 1.59c-.005 0-.009 0-.014.002-.559.05-1.138.07-1.688.19a1.617 1.617 0 00-.151.043.094.094 0 00-.053-.03c-.24-.669-.68-1.22-1.174-1.726-.107-.111-.277.059-.169.17.484.496.917 1.034 1.138 1.695-.733.377-1.211 1.238-1.609 1.915-.079.133.128.254.208.122.339-.578.735-1.297 1.284-1.693.64-.46 1.655-.395 2.419-.465l.994-.09c.144-.015.454-.094.579-.055.368.117.633.529.529.901-.219.78-1.432 1.048-2.102 1.178-.121.023-.107.2 0 .233 1.047.298 2.083.72 2.847 1.524.798.84.996 1.944 1.117 3.057.016.151.256.153.24 0-.115-1.108-.308-2.223-1.062-3.091z" fill="#D1724E"/><path d="M98.399 16.763c-.603-.345-.901-.975-.768-1.66.016-.088-.054-.172-.147-.146-.468.128-.991.281-1.464.093-.584-.233-.696-.773-.661-1.339.047-.78.312-1.617.994-2.062.105-.067.056-.212-.06-.223-.613-.066-.867-.636-.792-1.183.067-.489.4-.884.761-1.196.517-.447 1.11-.794 1.732-1.076.14-.063.018-.27-.121-.207-.943.426-2.163 1.096-2.537 2.132-.252.699.002 1.474.682 1.706-.715.617-1.027 1.737-.885 2.652.184 1.182 1.31 1.196 2.242.973-.068.714.26 1.373.903 1.738.135.082.256-.128.12-.202zm3.151-4.519c-.94.088-1.834.34-2.681.759-.14.067-.017.274.12.207a7.25 7.25 0 012.561-.726c.151-.014.154-.256 0-.24zm1.962-4.841a3.993 3.993 0 00-3.226-.074c-.142.058-.079.29.063.233a3.771 3.771 0 013.042.048c.14.063.261-.144.121-.207z" fill="#B7642C"/><path d="M109.734 32.174h-.005c-2.674.18-5.612.419-8.523.691.849.962 2.032 1.641 3.272 2.06 1.953.661 4.209.733 6.108-.156a5.95 5.95 0 00.752-.414c.894-.58 1.424-1.445 1.857-2.39.014-.03.028-.066.044-.096a87.554 87.554 0 00-3.505.305z" fill="#FEA679"/><path d="M36.281 46.803c-1.504-.358-2.935.189-4.374.584-1.797.494-3.486.228-5.311.196-1.672-.03-3.231.368-4.77.991-.854.347-1.71.687-2.642.752-.97.068-1.938-.135-2.883-.326-.152-.03-.217.2-.063.233 1.636.33 3.156.505 4.757-.072 1.723-.622 3.282-1.29 5.154-1.334 1.643-.037 3.277.328 4.911.017 1.713-.329 3.382-1.227 5.16-.804.147.03.212-.2.061-.237zm-9.431-4.162a11.11 11.11 0 00-5.704-6.007c-.14-.063-.263.144-.12.207a10.868 10.868 0 015.593 5.863c.053.145.286.082.23-.063z" fill="#1F3044"/><path d="M49.302 39.906a24.12 24.12 0 00-7.551-.684c-.154.009-.154.251 0 .24 2.52-.17 5.037.055 7.488.674.149.04.214-.193.063-.23zm6.454 6.047a19.05 19.05 0 00-4.245-1.736c-.394-.11-.79-.214-1.155-.4-.34-.175-.635-.417-.968-.603-.524-.293-1.04-.382-1.627-.245-.151.035-.086.266.063.233.877-.202 1.462.256 2.165.682.516.315 1.084.461 1.661.622 1.395.39 2.726.95 3.988 1.657.132.072.253-.135.118-.21z" fill="#D1724E"/><path d="M18.66 177.788c-.035.077-.07.156-.102.236a88.067 88.067 0 00-5.882-.026l-.016-.237c2-.061 4-.049 6 .027zm7.74-24.844c-1.467-6.513-1.18-13.221-.88-19.841.007-.154-.233-.154-.24 0-.302 6.641-.584 13.37.89 19.906.032.149.265.084.23-.065z" fill="#E8D8CA"/><path d="M38.527 22.95c.021-.95-.559-1.681.186-2.547.1-.117-.07-.287-.17-.17-.26.302-.442.64-.486 1.043-.065.577.24 1.1.23 1.673-.014.873-.64 1.927.233 2.6.121.093.291-.074.17-.17-.8-.617-.18-1.63-.163-2.43zm6.855-1.025c-1.054.31-2.125.22-3.2.108-1.078-.112-2.154-.24-3.16-.666-.139-.06-.262.147-.12.207.982.417 2.02.566 3.072.677 1.164.124 2.33.24 3.47-.095.152-.042.087-.275-.062-.23zm.917-2.87a13.855 13.855 0 01-3.932-.286c-.15-.033-.214.198-.062.233a14.15 14.15 0 003.996.293c.151-.01.154-.252-.002-.24zm3.585-2.667a5.505 5.505 0 00-2.907-1.129c-.154-.014-.154.226 0 .24a5.277 5.277 0 012.786 1.094c.123.098.242-.112.12-.205zm2.392.309a7.434 7.434 0 00-1.883-2.016c-.125-.09-.244.117-.12.207a7.061 7.061 0 011.796 1.93c.084.13.291.01.207-.121z" fill="#752B0B"/><path d="M117.655 31.709a8.797 8.797 0 01-.288.614c-1.946 3.787-6.311 6.026-10.503 5.873-3.824-.142-7.36-2.086-9.887-4.898.097-.011.195-.02.293-.032a15.139 15.139 0 004.166 3.214c3.815 1.981 8.389 1.99 12.06-.34 1.694-1.073 3.082-2.6 3.899-4.43.083-.002.172-.002.26-.002zm12.744 18.971a105.792 105.792 0 00-8.515-12.302c-.097-.121-.265.05-.17.17a105.262 105.262 0 018.478 12.252c.079.133.286.012.207-.12z" fill="#EC9717"/></svg>