<svg width="51" height="51" fill="none" xmlns="http://www.w3.org/2000/svg"><path d="M44.47 15.291c.675.612 1.335 1.683 2.05.968 2.853-2.946 4.024-3.547 3.245-4.326l-2.959-2.958a.765.765 0 00-1.081 0l-3.245 3.244a.764.764 0 000 1.082l.914.913-1.909 1.905a18.972 18.972 0 00-9.129-4.146v-4.09c1.933-.173 3.824.495 3.824-.765V1.765A.765.765 0 0035.416 1H23.179a.765.765 0 00-.765.765v5.353c0 .423.343.765.765.765h3.06v4.09c-9.2 1.485-16.061 9.461-16.061 18.854 0 10.542 8.577 19.12 19.12 19.12 17.072 0 25.593-20.841 13.328-32.806l1.845-1.85zm1.796-4.694l1.877 1.877-2.164 2.163-1.877-1.877 2.164-2.163zM23.944 2.53H34.65v3.823H23.943V2.53zm6.883 5.353v3.87a16.556 16.556 0 00-3.06 0v-3.87h3.06zm-1.53 40.534c-9.699 0-17.59-7.89-17.59-17.59 0-8.852 6.617-16.354 15.396-17.452.693-.092 1.43-.138 2.194-.138 9.75 0 17.59 7.934 17.59 17.59 0 9.7-7.89 17.59-17.59 17.59zM6.354 17.058h6.118a.765.765 0 100-1.53H6.354a.765.765 0 100 1.53zm6.118 27.532H6.354a.765.765 0 100 1.53h6.118a.765.765 0 100-1.53zM3.294 23.942h4.589a.765.765 0 100-1.53H3.294a.765.765 0 100 1.53zm5.354 14.53a.765.765 0 00-.765-.764H3.294a.765.765 0 100 1.53h4.589a.765.765 0 00.765-.766zm-1.53-7.648a.765.765 0 00-.765-.764H1.765a.765.765 0 100 1.53h4.588a.765.765 0 00.765-.766z" fill="#7464DC" stroke="#7464DC" stroke-width=".386"/><path d="M28.532 30.51l-5.894 5.894 1.081 1.082 6.342-6.343V20.12h-1.53v10.39z" fill="#7464DC" stroke="#7464DC" stroke-width=".386"/></svg>