<svg width="37" height="41" fill="none" xmlns="http://www.w3.org/2000/svg"><path d="M18.275 0C11.742 0 6.45 5.108 6.45 11.413v4.15H3.225C1.457 15.563 0 16.97 0 18.677v18.676c0 1.707 1.457 3.113 3.225 3.113h30.1c1.767 0 3.224-1.406 3.224-3.113V18.676c0-1.706-1.457-3.112-3.225-3.112H30.1v-4.15C30.1 5.107 24.807 0 18.275 0zm0 2.075c5.378 0 9.674 4.147 9.674 9.338v4.15H8.6v-4.15c0-5.191 4.297-9.338 9.676-9.338zM3.225 17.64h30.1c.613 0 1.074.444 1.074 1.037v18.676c0 .593-.46 1.038-1.075 1.038h-30.1c-.613 0-1.074-.445-1.074-1.038V18.676c0-.593.46-1.037 1.075-1.037zm15.05 4.15c-2.362 0-4.3 1.87-4.3 4.15 0 1.018.44 1.903 1.075 2.627v2.561c0 1.707 1.457 3.113 3.225 3.113s3.225-1.407 3.225-3.113v-2.561c.634-.724 1.075-1.61 1.075-2.627 0-2.28-1.938-4.15-4.3-4.15zm0 2.075c1.2 0 2.15.917 2.15 2.075 0 .62-.281 1.159-.723 1.54a1.035 1.035 0 00-.353.779v2.869c0 .593-.46 1.038-1.074 1.038-.615 0-1.075-.445-1.075-1.038v-2.87a1.027 1.027 0 00-.353-.778 2.018 2.018 0 01-.722-1.54c0-1.158.95-2.075 2.15-2.075z" fill="#7464DC"/></svg>