<svg width="39" height="50" fill="none" xmlns="http://www.w3.org/2000/svg"><path d="M37.8 9.211C19.274.071 19.92-.055 19.253.281 1.404 9.479.99 8.975 1.092 9.972l1.83 17.489c.95 9.095 7.062 17.166 16.347 21.591 1.15.547 15.585-6.914 17.126-21.642 1.638-17.506 2.31-17.745 1.404-18.199zm-2.945 18.042c-.888 8.492-6.577 16.042-15.248 20.26-8.61-4.225-14.262-11.756-15.146-20.21L2.687 10.336l16.92-8.516 17.018 8.518-1.77 16.915z" fill="#7464DC" stroke="#7464DC" stroke-width=".236"/><path d="M6.94 12.564a.762.762 0 00-.389.735l1.268 13.54C8.804 37.35 18.5 44.47 20.004 43.675c6.53-3.451 10.826-9.76 11.492-16.877 1.113-13.76 1.685-13.783.874-14.236L20.001 5.648a.78.78 0 00-.763.002L6.94 12.564zm12.681-5.37l11.552 6.456-1.218 13.008c-.606 6.475-4.457 12.233-10.333 15.481-5.832-3.252-9.658-8.995-10.262-15.442L8.138 13.65l11.483-6.456z" fill="#7464DC" stroke="#7464DC" stroke-width=".236"/></svg>