<svg width="32" height="32" fill="none" xmlns="http://www.w3.org/2000/svg"><path d="M28 22.163V9.838a1.013 1.013 0 00-.512-.875l-11-6.188a.975.975 0 00-.976 0l-11 6.188A1.012 1.012 0 004 9.838v12.325a1.012 1.012 0 00.513.875l11 6.187a.976.976 0 00.975 0l11-6.187a1.013 1.013 0 00.512-.875v0z" stroke="#1B0B2B" stroke-width="3" stroke-linecap="round" stroke-linejoin="round"/><path d="M22.125 19.063v-6.5L10 5.875" stroke="#1B0B2B" stroke-width="3" stroke-linecap="round" stroke-linejoin="round"/><path d="M27.863 9.325L16.113 16 4.138 9.325M16.113 16L16 29.35" stroke="#1B0B2B" stroke-width="3" stroke-linecap="round" stroke-linejoin="round"/></svg>