<svg width="469" height="580" fill="none" xmlns="http://www.w3.org/2000/svg"><g clip-path="url(#clip0_0_526)"><path d="M121.007 10.342v418.53l-13.565.306H3.762V12.997l117.245-2.655z" fill="#fff"/><path d="M63.384 414.607c-.11-3.129-.226-6.258-.357-9.379-1.955-45.721-6.484-91.295-12.056-136.702-2.764-22.514-5.776-44.992-8.868-67.462-.978-7.132-.941-18.16-8.147-22.288-6.936-3.982-15.002 1.481-17.795 7.95-.802 1.845-1.298 3.778-1.612 5.747-.503-2.728-1.64-5.222-4.128-6.622a7.927 7.927 0 00-3.967-.985 6.817 6.817 0 00-.481-1.014c-.562-.962-1.335-1.641-2.21-2.042v247.368h53.969c2.99-1.757 5.04-4.361 5.564-8 .314-2.173.168-4.383.088-6.571z" fill="#fff" stroke="#000" stroke-width=".5"/><path d="M7.176 8.037v421.221L0 429.243V8.029l7.176.008z" fill="#EFEEFE"/><path d="M212.164 8.233c-.044 2.393-.685 4.58-.62 6.965H0V8.03l7.176.008 204.988.196z" fill="#EFEEFE"/><path d="M212.163 429.273l-167.734 6.389V.029l167.734.912v428.332z" fill="#EFEEFE"/><path d="M44.422 435.706l-9.35-.504V0l9.35.08v435.626z" fill="#7464DC"/><path d="M187.127 300.251l-117.244 1.721V29.574l117.244-1.721v272.398z" fill="#fff"/><path d="M59.388 218.866l-3.442.175c-2.174.11-3.931-1.546-3.931-3.69v-32.819c0-2.152 1.757-3.975 3.93-4.084l3.443-.175c2.173-.11 3.931 1.546 3.931 3.69v32.819c0 2.152-1.758 3.975-3.931 4.084z" fill="#7464DC"/><path d="M84.928 192.48c-2.83-.036-5.733.511-8.533.788-6.33.62-12.654 1.232-18.984 1.852-.022-.036-.037-.08-.051-.116-.212-.431-.868-.153-.657.277a.14.14 0 00.03.058c-.08.182.007.452.226.525.62 1.437.97 2.874 1.057 4.442.015.197.248.335.423.321l19.065-2.057c2.851-.306 5.878-.379 8.664-.977 1.276-.277 2.727-.992 2.574-2.538-.182-1.889-2.253-2.553-3.814-2.575z" fill="#7464DC"/><path d="M133.406 361.747l-6.083-.314V10.875l6.083.313v350.559z" fill="#EFEEFE"/><path d="M196.857 157.326l-140.83 2.677v6.082l140.83-2.684v-6.075zM464.09 554.219c-3.887-4.019-9.16-7.016-14.083-9.562-5.208-2.691-10.685-4.828-16.286-6.527-12.07-3.654-24.636-5.222-37.187-5.973-14.288-.861-28.619-.715-42.906-1.634-14.221-.919-28.304-3.143-42.249-6.06-27.765-5.813-55.172-13.529-82.587-20.8-27.765-7.366-55.515-14.769-83.266-22.164-1.633-.438-3.26-.868-4.893-1.306-.73-.196-1.401-.627-2.042-.116-.008.007-.015.022-.03.029-5.528-.926-11.144-1.262-16.752-.919-4.689.284-10.094.751-13.908 3.807-3.581 2.874-3.997 7.592-1.524 11.363 3.092 4.718 8.825 6.009 14.061 6.724 13.164 1.801 26.416 2.917 39.514 5.185 13.303 2.298 26.102 5.944 38.413 11.509 11.501 5.2 22.638 11.341 34.686 15.228 12.799 4.121 26.16 4.558 39.463 5.506 6.885.496 13.77 1.189 20.516 2.713 6.192 1.401 12.23 3.406 18.123 5.755 11.866 4.726 23.134 10.786 34.672 16.234 22.754 10.736 47.142 17.365 72.449 16.76 12.406-.299 24.797-2.312 36.568-6.28 2.72-.919 5.426-1.918 8.059-3.063 2.21-.963 4.383-2.246 5.331-4.587 1.729-4.245-1.305-8.883-4.142-11.822z" fill="#EFEEFE"/><path d="M163.899 450.993c-3.311 2.304-6.578 4.675-9.299 7.679a27.074 27.074 0 00-1.728 2.101c-1.758 2.37-2.866 4.908-3.537 7.57a21.71 21.71 0 00.518 5.703c.138.62.27 1.226.379 1.824.058.284.109.568.153.853.416 2.377 4.777 19.137-5.827 20.581l-.11.044a6.874 6.874 0 01-1.502.284h-.007a8.946 8.946 0 01-.897 0 7.205 7.205 0 01-1.597-.255 5.907 5.907 0 01-1.073-.416c-3.595-3.333-6.323-7.198-7.606-11.895-.664-2.414-1.058-6.461-.467-8.999.248-1.073.744-2.006 1.415-2.852 1.181-1.502 1.852-2.611 1.407-4.602-.955-4.31-3.063-9.649-.532-13.201a9.39 9.39 0 01.686-.846c.284-.299.568-.568.867-.802 1-.809 2.123-1.327 3.436-1.925 2.093-.956 4.208-1.875 6.272-2.896a45.732 45.732 0 003.413-1.859c2.691-1.627 5.185-3.581 7.555-5.682a38.143 38.143 0 015.441 5.638c.78.985 1.78 2.385 2.64 3.953z" fill="#fff"/><path d="M135.163 479.8c-.051 4.755 2.079 9.247 4.631 13.186a107.43 107.43 0 003.144 4.645 8.946 8.946 0 01-.897 0c-1.08-1.509-2.093-3.055-3.071-4.58-2.596-4.062-4.66-8.657-4.522-13.565a.217.217 0 010-.095v-.146c.11-2.589 1.109-4.609 2.043-6.965 1.159-2.931-.146-5.623-1.226-8.35-1.247-3.122-1.517-6.25-.992-9.365a8.14 8.14 0 01.868-.802c-.342 1.43-.517 2.888-.466 4.369.094 2.881 1.261 5.302 2.231 7.949.591 1.627 1.029 3.319.693 5.047-.467 2.421-1.998 4.412-2.319 6.929-.044.335-.073.671-.095 1.006 2.458-.416 5.185-1.072 6.367-3.391a.248.248 0 01.066-.132c.08-.182.16-.371.233-.576.846-2.589.452-5.601.481-8.285.022-2.399.307-4.747.978-7.059.364-1.255.86-2.487 1.079-3.786.292-1.706.015-3.42-.284-5.105-.081-.459.619-.656.707-.189.27 1.56.554 3.15.387 4.74-.139 1.349-.598 2.618-.992 3.909-1.043 3.384-1.138 6.695-1.131 10.203 0 1.838.08 4.048-.569 5.893 2.626-.532 5.266-.335 7.724.584.058.284.109.569.153.853-2.596-1.072-5.426-1.298-8.234-.62a5.846 5.846 0 01-.387.649c-1.516 2.093-4.186 2.655-6.6 3.049z" fill="#BABCBF"/><path d="M246.574 127.579c2.698-4.449.51-9.926-4.121-11.786 1.729-2.239 3.282-4.784 3.195-7.716-.095-3.063-1.875-5.769-3.771-8.052-4.303-5.178-9.678-13.025-8.635-21.88 1.028-8.766 3.056-15.388-9.24-21.842-1.918-1.007-2.29-1.962-3.457-3.391-3.917-4.807-11.137-4.143-14.484.78-1.736-2.888-4.712-5.003-8.139-5.411-4.756-.562-9.569 2.435-11.392 6.819-.328.794-.467 1.8-1.43 2.136-.518.175-1.356.059-1.925.146a12.773 12.773 0 00-3.844 1.247c-2.421 1.233-4.405 3.224-5.579 5.682-1.05 2.202-1.473 4.696-1.159 7.118.109.838.481 1.706.525 2.53.094 1.678-.496 2.48-1.554 3.581-.962 1.007-1.83 2.13-2.443 3.392-2.29 4.726.737 10.195 6.039 9.897-3.341 9.502-6.717 21.047.313 29.77a14.95 14.95 0 002.363 2.348c.715.562 2.268 1.094 2.604 1.926.299.744-.007 2.202.175 3.092a11.66 11.66 0 001.028 2.925c2.028 4.025 6.083 6.804 10.539 7.329 4.339.511 8.598-.875 12.179-3.267a70.36 70.36 0 001.824 2.946c-.504 3.326 1.458 4.617 4.106 5.011.35.255.729.488 1.145.685.386.183.722-.27.554-.547 2.698.073 5.674-.445 7.417-.59 4.084-.329 8.168-.693 12.245-1.153 3.107-.35 6.469-.496 9.438-1.553 2.056-.737 3.938-2.057 4.514-4.274.365-1.378.131-2.822-.219-4.172-.299-1.13-.518-1.363.117-2.319.313-.481.758-.89 1.072-1.407zm-39.696 11.377c.211.306.415.62.634.926.503.7 1.014 1.378 1.583 1.984-1.291-.445-2.188-1.313-2.217-2.91z" fill="#A04416"/><path d="M242.876 321.889c-.138-3.282.022-7.205-1.108-10.349-.861-2.385-2.815-3.165-5.229-2.997-3.829.27-7.68 1.05-11.48 1.582l-25.066 3.523c-8.088 1.138-16.205 2.137-24.264 3.435-6.229.999-12.683 2.735-16.92 7.738-2.568 3.034-4.289 6.753-6.017 10.298-1.867 3.836-3.654 7.745-5.186 11.735-2.246 5.856-3.362 13.47 2.13 17.846.051.189.212.35.416.313.219.095.408-.058.467-.269a76.781 76.781 0 0142.394-12.968c.511 0 .511-.795 0-.795-.393 0-.787.022-1.188.03 14.615-3.195 29.712-4.026 44.59-2.32 1.108.124 2.669.591 3.705-.087.977-.642 1.101-1.969 1.283-3.012.657-3.8 1.094-7.643 1.349-11.487.241-4.062.292-8.146.124-12.216z" fill="#1F3044"/><path d="M212.632 95.744c-5.112 4.543-11.18 8.401-18.233 8.474a.375.375 0 00-.372.285.366.366 0 00-.299.372 150.626 150.626 0 01-1.714 24.512c-.043.284.175.605.496.496 4.135-1.357 8.468-1.313 12.734-1.889 1.459-.197 3.545-.27 4.806-1.065 1.05-.664.905-2.064 1.007-3.165a1307.72 1307.72 0 002.253-27.743c.044-.365-.437-.496-.678-.277z" fill="#FEA679"/><path d="M246.362 234.861a130.718 130.718 0 00-33.563 3.88c.044-.409-.54-.708-.73-.277-.08.175-.145.35-.218.525-.81.204-1.619.401-2.422.627-.503.139-.291.919.219.78.598-.167 1.204-.313 1.809-.474-6.25 14.835-7.986 30.952-9.787 46.815-2.013 17.678-4.777 35.321-8.067 52.809-3.172 16.862-7.854 33.06-16.592 47.938-4.047 6.892-8.263 13.646-11.1 21.157-2.516 6.674-4.361 13.748-8.234 19.809-2.246 3.508-5.141 5.871-8.365 8.416-.868.693-1.59 1.4-2.188 2.144-2.005 1.984-3.53 4.339-4.339 7.402-1.357 5.128-.766 10.751.831 15.746 1.204 3.771 3.902 11.057 8.541 10.67 10.903-.897 22.842-20.822 28.122-26.488.022-.022.022-.044.036-.066 3.275-3.559 6.287-7.33 8.788-11.538 4.347-7.307 7.549-15.235 11.37-22.82 3.618-7.176 7.505-14.214 11.217-21.34 3.705-7.11 7.242-14.323 10.123-21.813 2.925-7.592 4.901-15.345 6.17-23.368.686-4.31 1.327-8.649 2.553-12.85 1.254-4.303 3.136-8.38 4.93-12.479 3.274-7.519 5.353-15.104 6.345-23.25 1.232-10.116 1.75-20.34 2.545-30.493.81-10.348 1.612-20.697 2.421-31.046.008-.234-.211-.416-.415-.416z" fill="#1F3044"/><path d="M221.711 289.587c2.822-18.094 3.027-36.415.394-54.545-.037-.234-.307-.314-.496-.285l-17.883 2.582c-5.149.744-10.444 1.24-15.432 2.786-4.391 1.356-8.176 3.712-11.071 7.315-2.4 2.99-4.164 6.432-5.856 9.868.021-.117.036-.234.051-.351.08-.51-.701-.729-.781-.218-.153.992-.306 1.983-.467 2.975-.058.11-.109.219-.167.336a.406.406 0 00.043.437c-2.647 17.059-5.163 34.176-5.951 51.439-.838 18.451.708 36.582 5.375 54.465 2.305 8.832 4.777 17.634 5.456 26.773.634 8.591.094 17.212.036 25.817-.058 8.088.299 16.308 2.589 24.111 2.378 8.089 8.219 14.922 9.664 23.266.846 4.9.408 9.889.634 14.834.095 2.137.306 4.288.802 6.381.379 1.605.861 3.669 2.079 4.887 1.203 1.203 2.757 1.028 4.266.59 2.494-.729 4.952-1.597 7.425-2.399l15.315-4.967c.153-.051.533-2.647.511-2.822-2.115-16.577-2.75-30.923-1.379-47.58.679-8.3 2.247-16.541 2.611-24.87.161-3.734.008-7.497-.714-11.173-.766-3.916-2.137-7.672-3.158-11.516-4.26-15.986 2.29-31.659 3.158-47.617.459-8.409-.642-16.81-.321-25.227.328-8.511 1.961-16.89 3.267-25.292z" fill="#1F3044"/><path d="M245.121 182.897c-.671-11.246-1.947-22.857-5.236-33.665-2.728-8.978-7.563-17.365-15.768-22.23-3.821.059-7.701-.197-11.487-.292-.911.073-1.83.146-2.742.227-4.981.43-9.962.875-14.951 1.232-1.48.109-2.953.248-4.427.372-1.502.314-3.004.54-4.492.445a3.654 3.654 0 01-.934-.197c-.248 0-.503-.022-.751-.029a47.477 47.477 0 00-3.187 1.561c-6.36 3.427-11.632 8.285-13.864 15.877-2.064 7.052-2.181 14.717-2.618 21.996-.482 8.059-.956 16.103-1.437 24.162-.481 8.051-.956 16.103-1.437 24.155-.43 7.213-1.524 14.827-.197 21.988.511 2.743 1.401 5.952 3.392 8.016 1.903 1.969 4.667 2.421 7.271 2.734 7.162.846 14.433.992 21.638.526 15.126-.97 29.982-4.719 43.774-10.991 1.269.664 2.552.576 3.114-1.313 1.663-5.623 2.319-11.786 3.07-17.598a196.99 196.99 0 001.269-36.976z" fill="#FAF7F5"/><path d="M224.432 132.006c-.051-1.772-.277-3.566-.759-5.28-.204-.117-.408-.226-.612-.343-10.692-5.747-23.404-4.777-34.14.277-.153.066-.211.19-.204.307-2.611.955-5.163 2.042-7.563 3.34.029.095.073.197.117.292.868 1.932 2.822 2.056 4.507 2.822 2.173 7.877 6.724 15.338 14.63 18.474 7.6 3.012 16.41.226 20.946-6.601 2.553-3.85 3.209-8.744 3.078-13.288z" fill="#FEA679"/><path d="M300.944 229.471a124.991 124.991 0 01-10.108-16.22c-11.946-22.747-17.999-48.783-32.965-69.926-4.004-5.652-9.014-10.247-15.221-13.361-2.734-1.379-5.601-2.458-8.54-3.297-3.581-1.48-7.563-2.465-11.341-3.092-4.492-.744-8.693-.992-11.588-.977 4.696 3.829 7.213 9.824 8.883 15.592 2.465 8.526 4.033 17.387 5.652 26.11a549.348 549.348 0 012.8 16.526c4.216 27.357 6.433 55.012 7.352 82.668 1.116 33.402.343 66.841-1.065 100.229a693.453 693.453 0 0136.364-7.826c-.657-14.404-1.357-28.822-2.196-43.226-.816-14.229-2.516-37.961-4.572-62.808a261.55 261.55 0 009.444-3.202c6.039-2.173 12.194-4.245 17.934-7.162 2.735-1.393 5.36-2.997 7.753-4.915.78-.628 2.115-1.415 2.465-2.436.328-1.014-.504-1.933-1.051-2.677zm-108.12-104.628a.387.387 0 00-.03-.211.217.217 0 00-.036-.073c-.007-.015-.015-.022-.029-.037-.124-.145-.35-.167-.511-.08-2.173.132-4.332.46-6.432.978h-.008a39.01 39.01 0 00-2.735.787 35.347 35.347 0 00-10.567 5.601c-5.419 4.172-10.386 10.313-10.349 17.409-13.93 36.991-26.875 74.353-38.756 112.051-.007.008-.007.008-.007.015a2131.244 2131.244 0 00-17.708 59.096 2136.373 2136.373 0 00-8.27 29.924c-.584 2.188-1.393 4.427-1.765 6.651-.233 1.43.029 2.465 1.276 3.282 1.473.977 3.391 1.561 5.04 2.203a85.399 85.399 0 006.877 2.363 88.768 88.768 0 0031.375 3.442 86.03 86.03 0 007.337-.831c1.641-.263 3.464-.606 4.405-2.13 1.072-1.729 19.4-63.691 27.094-92.521 4.062-15.22 7.548-30.616 9.933-46.187 2.4-15.687 3.581-31.535 4.055-47.391.197-6.658.27-13.331.27-19.99-.007-11.458-.233-22.908-.459-34.351z" fill="#FFC93D"/><path d="M185.778 125.412h-.007c-.919.168-1.831.343-2.728.526-14.119 2.785-25.088 6.826-34.511 19.326-6.002 7.964-14.681 25.278-20.107 33.636-5.149 7.92-10.064 15.885-13.353 24.775-5.944 16.081-8.905 36.502 2.253 51.052 1.787 2.326 3.829 4.514 6.039 6.527 4.164 3.807 8.934 7.045 13.777 9.656 3.814 2.057 7.905 3.712 12.186 4.471 1.948.343 3.931.488 5.908.416 1.757-.073 4.281-.103 5.681-1.35 1.276-1.13 1.765-3.398 2.356-4.908a429.662 429.662 0 002.983-7.913 402.227 402.227 0 005.477-16.016c3.435-10.75 6.658-34.467 6.513-34.576-3.355-2.531-4.464-3.567-7.819-6.097-2.195-1.649-4.055-2.801-3.42-5.93.343-1.663 1.006-3.325 1.553-4.93 2.553-7.468 5.813-14.666 8.84-21.952 2.465-5.937 4.332-14.9 5.674-23.192 1.801-11.086 2.662-20.997 2.8-21.026.518-.117.409-2.56-.095-2.495z" fill="#FFC93D"/><path d="M192.823 124.843a.397.397 0 00-.029-.211c-.007-.029-.022-.051-.037-.073-.007-.015-.014-.022-.029-.037-.124-.145-.35-.167-.51-.08-2.174.132-4.332.46-6.433.978h-.007c-.919.167-1.831.342-2.728.525-.007.087-.007.175-.007.262a482.966 482.966 0 00-.051 18.372c.022 1.451.058 2.909.095 4.361.058 2.173.124 4.347.255 6.52.109 1.816.262 3.632.489 5.441.102.751.029 1.495.678 1.969.146.109.357.058.474-.059 2.005-1.845 4.806-1.83 7.176-2.946.416-.19.781-.423 1.109-.664.007-11.465-.219-22.915-.445-34.358z" fill="#1F3044"/><path d="M211.8 60.847c-5.638-1.684-11.837-1.415-17.511.044-3.049.78-5.397 2.217-7.716 4.267-.722.634-1.415 1.32-1.933 2.078-.204-.044-.452.051-.511.306-1.407 6.068-2.822 12.158-3.471 18.357-.569 5.47-1.174 12.406 1.721 17.299 2.524 4.267 5.784 6.149 10.706 7.913 4.945 1.773 10.75-.138 14.929-2.64 4.653-2.786 6.564-6.585 9.263-11.122 2.91-4.886 7.213-9.867 8.321-15.432 1.955-9.707-4.361-18.247-13.798-21.07z" fill="#FEA679"/><path d="M98.257 178.875c13.032-9.686 31.079-8.8 46.515-7.202 14.772 1.533 27.508 8.251 39.238 16.931l.133.098.143-.083c.258-.152.506-.326.754-.5l.002-.002c.046-.033.069-.027.077-.024.016.005.045.023.07.065a.215.215 0 01.028.133.153.153 0 01-.068.107l-.002.002c-.099.074-.199.139-.307.21l-.134.088-.295.197.284.212c.998.743 1.981 1.492 2.963 2.264h.001c.042.034.041.053.041.057v.001c-.001.013-.01.044-.046.08-.076.074-.183.089-.266.028a195.058 195.058 0 00-3.13-2.4l-.128-.096-.141.075c-3.06 1.647-6.194 1.11-9.617-.174a51.636 51.636 0 00-15.346-3.232h0c-9.8-.541-19.773.341-28.568 5.084-3.284 1.768-6.37 3.845-9.422 5.954l-1.331.922c-2.605 1.807-5.202 3.609-7.906 5.244-2.62 1.581-5.657 3.307-8.823 4.411-3.165 1.104-6.436 1.578-9.532.682h0c-3.065-.884-4.865-3.052-5.73-5.694-.867-2.652-.787-5.776-.078-8.523v-.001c1.565-6.072 5.622-11.198 10.62-14.914zm0 0l-.15-.201m.15.201l-.15-.201m0 0c-5.032 3.741-9.13 8.912-10.713 15.053m10.713-15.053c13.121-9.751 31.266-8.847 46.691-7.249 14.834 1.539 27.612 8.285 39.361 16.978.248-.146.489-.314.737-.489.415-.299.809.387.401.686a4.499 4.499 0 01-.23.16l-.073-.054-.149.2.138.208.075-.049c.926.692 1.84 1.391 2.755 2.109l-100.42 2.553m0 0c-1.436 5.565-.335 12.697 5.981 14.521l-5.98-14.521zm101.304-56.556h0c2.364-2.175 5.702-3.453 8.844-3.366 3.132.087 6.056 1.529 7.653 4.787 1.539 3.14.359 6.443-1.264 9.411h0c-2.253 4.127-4.415 8.179-5.875 12.712h0c-2.893 9.003-3.479 18.643-1.75 27.931v.002a.167.167 0 01-.057.167c-.039.031-.095.045-.165.008h-.001a20.359 20.359 0 00-2.628-1.115l-.033-.012-.035-.002a1.194 1.194 0 01-.557-.168l-.337.353c.112.166.223.335.334.504v.001c.111.169.223.34.337.509.031.046.026.072.022.085a.155.155 0 01-.07.077.191.191 0 01-.125.027c-.032-.004-.066-.02-.098-.067-5.662-8.465-10.188-17.919-11.065-28.157-.684-8.023.686-17.999 6.87-23.687z" fill="#fff" stroke="#000" stroke-width=".5"/><path d="M83.225 150.447h0c5.243-.095 10.458.248 15.637 1.082l-15.637-1.082zm0 0c-2.169.041-4.327.143-6.483.244-3.556.168-7.103.334-10.666.23-2.059-.062-4.328-.267-6.429-.873-2.1-.606-4.014-1.608-5.383-3.252v-.001m28.96 3.652l-28.96-3.652m0 0c-1.765-2.116-2.047-4.679-1.389-7.109m1.389 7.109l-1.389-7.109m92.412 7.787l-.144.205c-16.858-11.77-36.861-19.495-57.524-20.164-5.331-.167-10.683.131-15.954.967l73.622 18.992zm0 0l-.143.205c16.997 11.861 30.921 27.559 42.67 44.563a22.118 22.118 0 00-2.599 3.008m-39.928-47.776l39.928 47.776m0 0c-6.214-7.459-10.473-12.17-15.652-16.156-5.236-4.029-11.403-7.308-21.459-11.944-4.766-2.198-14.484-5.687-24.297-8.831-9.811-3.144-19.746-5.954-24.945-6.789l86.353 43.72zm-132.34-55.563c.66-2.436 2.264-4.725 4.244-6.251m-4.244 6.251l4.244-6.251m0 0c4.078-3.135 9.5-4.151 14.546-4.954l-14.546 4.954z" fill="#fff" stroke="#000" stroke-width=".5"/><path d="M188.507 185.989l.137.28.243-.195a32.213 32.213 0 012.481-1.793c.048-.031.076-.027.092-.022a.17.17 0 01.082.074.203.203 0 01.029.125c-.003.029-.016.057-.053.082a29.727 29.727 0 00-2.565 1.867l-.153.124.085.178c.081.17.166.337.249.502l.001.003c.084.166.167.329.246.494a.146.146 0 01.008.123.207.207 0 01-.088.099.142.142 0 01-.097.023c-.01-.002-.034-.009-.057-.059l-.003-.004-.437-.875-.143-.286-.243.207c-.549.468-1.094.947-1.618 1.464l-.001.001c-.041.041-.077.046-.107.041a.229.229 0 01-.136-.095l-.001-.001c-10.879-14.337-22.619-28.211-36.542-39.738-6.328-5.239-13.101-9.79-20.192-13.924h0c-1.444-.84-2.907-1.667-4.373-2.496-5.679-3.211-11.413-6.453-16.37-10.607h0c-2.361-1.977-4.403-4.665-4.004-7.814h0c.312-2.485 2.227-4.072 4.612-4.675h0c2.931-.744 6.184-.26 9.177.295h0c3.64.674 7.173 1.827 10.556 3.337h0c14.462 6.455 24.932 18.921 34.075 31.513 9.552 13.166 17.939 27.157 25.11 41.752z" fill="#fff" stroke="#000" stroke-width=".5"/><path d="M192.239 78.94c-.394 1.919-1.517 3.311-2.516 3.107-.992-.204-1.48-1.925-1.087-3.85.394-1.919 1.517-3.312 2.517-3.107.999.204 1.487 1.925 1.086 3.85zm13.785.745c-.394 1.918-1.517 3.311-2.516 3.107-.992-.204-1.48-1.925-1.086-3.85.393-1.919 1.517-3.312 2.516-3.108.992.204 1.48 1.926 1.086 3.851z" fill="#1F3044"/><path d="M198.424 77.307c.358-.38-.218-.955-.576-.576-1.772 1.904-4.718 3.245-5.229 6.039-.54 2.975 1.976 5.192 4.062 6.84.409.322.985-.247.576-.576-2.158-1.699-5.01-4.186-3.42-7.263.97-1.875 3.18-2.947 4.587-4.464z" fill="#D1724E"/><path d="M196.273 97.342c-4.142-.073-5.455-3.151-6.024-6.455a62.142 62.142 0 0013.521 1.772c-1.772 2.582-4.193 4.741-7.497 4.683z" fill="#FAF7F5"/><path d="M181.592 216.299c-.438-1.102-1.145-2.619-2.05-3.858-.7-.956-1.524-1.758-2.443-2.079-.613-.219-1.298-.262-1.991-.197-2.844-.408-6.031 1.196-8.285 3.049-2.771 2.275-4.937 5.243-6.761 8.423-1.065 1.831-2.013 3.727-2.895 5.601a83.158 83.158 0 00-2.173 5.018c-3.837 9.729-5.901 20.326-5.281 30.821.277 4.536 1.685 9.977 6.404 11.516 4.923 1.604 8.992-3.29 11.705-6.79 7.016-9.088 11.188-20.18 13.405-31.507.219-1.123.452-2.297.671-3.478 1.014-5.478 1.736-11.436-.306-16.519z" fill="#1F3044"/><path d="M218.247 482.856c-.759-3.173-4.515-4.063-8.023-4.143-1.786-.044-3.5.124-4.74.299a38.505 38.505 0 00-7.607 1.889c-.97.35-1.918.737-2.837 1.167-1.247.583-2.356 1.335-3.202 2.275-2.902 2.079-4.405 6.491-.707 8.716 2.159 1.291 5.229 1.327 7.775 1.108.277-.022.539-.051.802-.08 3.267-.357 6.447-1.305 9.539-2.341a30.69 30.69 0 002.968-1.145c3.392-1.517 6.936-4.004 6.032-7.745z" fill="#404459"/><path d="M241.826 516.426a.116.116 0 00-.029-.051c-.008-.022-.03-.044-.044-.066a4.27 4.27 0 00-.409-.459l-.007-.008c-2.786-2.858-12.384-8.416-16.409-10.742-1.554-.89-3.042-1.845-4.42-2.896-.233-.182-.459-.357-.686-.547-1.487-1.188-2.837-2.516-4.003-4.025a10.167 10.167 0 01-.467-.635 20.048 20.048 0 01-2.509-4.646 10.193 10.193 0 01-.277-.744 17.601 17.601 0 01-.343-.999c-1.24-3.858-1.655-7.876-1.991-11.895a30.627 30.627 0 00-4.748.299 38.639 38.639 0 00-7.599 1.889c.583 2.859.999 5.747 1.108 8.635l.022.751v.059a44.75 44.75 0 01-.102 3.829c-.146 2.297-.416 4.587-.634 6.877-.095.934-.175 1.889-.175 2.844 0 .401.014.803.043 1.196a10.844 10.844 0 00.161 1.226c.102.517.248 1.035.437 1.539 1.999 5.221 7.607 4.12 11.823 5.455 1.947.612 2.574 1.75 3.274 3.522.401 1.007.956 1.897 1.758 2.655 1.911 1.78 4.573 2.647 7.001 3.282 5.28 1.393 11.881 1.736 16.811-.416 1.561-.671 3.479-4.295 2.414-5.929z" fill="#fff"/><path d="M215.41 198.986c.08 7.118-1.181 14.819-6.338 20.136-5.076 5.236-13.2 6.36-20.158 5.586-7.133-.787-13.456-4.127-17.292-10.319-4.026-6.498-4.879-14.193-5.375-21.69 7.147-5.711 16.008-9.138 25.132-10.174 7.709-.875 15.432-.087 22.901 1.816.846 4.843 1.079 9.846 1.13 14.645z" fill="#463C84"/><path d="M212.587 214.994c-.284-.321-.605-.511-.955-.584.146-.262.299-.51.43-.773.453-.977.584-2.319-.35-3.099-.904-.752-1.932-.314-2.888.16.059-.204.088-.416.08-.613-.014-1.524-1.48-1.91-2.749-1.546-1.065.307-2.042.999-3.056 1.437-.27.124-.532.226-.809.336.707-.752.999-1.51-.081-2.115-2.042-1.145-5.294 1.699-9.218 3.726-3.712 1.918-8.139 2.99-8.949 3.071-2.983.306 3.494-4.42.54-3.902-1.743.306-3.45.671-5.04 1.356-.824.358-1.619.803-2.377 1.386-1.802 1.386-3.195 3.187-4.828 4.741-2.553 2.414-5.441 3.209-8.898 3.369-1.094.051-2.232-.095-3.369-.299-1.065 1.831-2.013 3.727-2.896 5.601a82.884 82.884 0 00-2.173 5.018c6.053 1.32 25.314.897 26.912.561 7.234-1.553 18.218-4.507 22.696-7.132 2.523-1.473 4.93-3.268 6.717-5.601.933-1.24 2.611-3.574 1.261-5.098z" fill="#FEA679"/><path d="M200.488 86.985a6.042 6.042 0 00-3.063-2.429c-.482-.175-.686.59-.212.766a5.165 5.165 0 012.589 2.064c.278.43.963.029.686-.401z" fill="#D1724E"/><path d="M192.626 205.14c-1.451.066-2.997.54-4.427.81-1.918.365-3.85.693-5.652 1.48-2.567 1.124-4.645 2.947-6.264 5.215-2.181 3.056-4.238 5.951-7.06 8.46-.321.285.022.715.364.649.584.642 1.612.686 2.393 1.058 1.079.51 1.932 1.028 3.15 1.167 2.524.277 5.171-.759 7.009-2.465 2.363-2.196 3.121-5.463 4.835-8.096 1.196-1.83 2.494-3.136 4.537-3.945 1.035-.416 2.26-.766 2.917-1.744 1.006-1.495-.263-2.661-1.802-2.589z" fill="#FEA679"/><path d="M201.925 210.582c-1.138 1.801-3.457 2.91-5.331 3.799-1.969.941-4.026 1.67-6.083 2.4-.474.168-.27.933.212.766 3.85-1.372 9.568-2.903 11.887-6.572.278-.423-.408-.824-.685-.393zm6.242-.431c-3.953 4.784-9.218 8.132-15.235 9.663-.496.124-.284.89.212.766a29.571 29.571 0 0015.585-9.867c.321-.394-.233-.956-.562-.562zm2.655 3.756c-2.932 5.273-9.35 8.438-15.017 9.721-.496.11-.284.876.212.766 5.856-1.327 12.464-4.646 15.49-10.086.248-.445-.437-.846-.685-.401z" fill="#D1724E"/><path d="M209.233 340.487c-1.539-14.309-2.684-28.713-1.539-43.095.044-.511-.751-.503-.795 0-1.145 14.382 0 28.786 1.539 43.095 1.51 14.025 3.136 28.035 4.719 42.045.058.503.853.51.795 0-1.583-14.018-3.216-28.028-4.719-42.045zm-29.312 104.896c-1.101-4.485-2.21-8.97-3.311-13.456-1.101-4.47-1.969-8.846-1.845-13.477.219-8.3 2.341-16.57.459-24.819-.116-.496-.875-.284-.765.212 1.976 8.649-.533 17.343-.504 26.051.015 4.055.832 7.935 1.794 11.858 1.131 4.617 2.269 9.226 3.406 13.835.124.504.89.292.766-.204z" fill="#404459"/><path d="M188.36 444.625c-.371-.342-.933.212-.561.562 9.094 8.372 11.166 20.968 12.493 32.666.058.503.853.51.795 0-1.349-11.917-3.464-24.709-12.727-33.228zm44.386-293.584c-.816-6.258-2.377-12.566-4.616-18.466-1.255-3.311-2.903-6.52-5.361-9-4.492-.744-8.693-.992-11.588-.977 4.696 3.829 7.213 9.824 8.883 15.592 2.465 8.526 4.033 17.387 5.652 26.11a549.348 549.348 0 012.8 16.526c1.153-3.384 2.341-6.761 3.239-10.225 1.648-6.411 1.852-13.011.991-19.56zm30.098 82.813a1891.843 1891.843 0 01-13.528-69.817c-.088-.503-.854-.291-.766.212a1876.123 1876.123 0 0013.529 69.817c.109.496.875.284.765-.212z" fill="#1F3044"/><path d="M229.208 86.876c.474-7.082.686-15.695-2.691-22.171-1.619-3.114-5.207-5.04-8.409-6.155-4.098-1.43-8.277-.752-12.413.109.008-.182.022-.365.037-.554v-.008c.284-.116.343-.627-.044-.75-5.718-1.89-11.786-.03-17.117 2.245-4.478 1.911-8.846 4.843-10.48 9.671-.875 2.604-.926 9.882 3.683 8.176 2.115-.78 3.69-3.362 4.894-5.156.787-1.175 1.407-2.422 2.115-3.64.962-1.67 2.399-2.37 4.252-2.684 3.012-.51 6.162-.488 8.78-2.29 1.919-1.32 3.144-3.398 3.005-5.747l.153.044a.3.3 0 00-.036.139c-.175 2.582-.306 5.637 1.488 7.738.817.955 1.932 1.51 3.034 2.071.598.306 1.21.59 1.757.977 1.473 1.043 1.627 2.524 1.539 4.23-.146 2.969.759 5.536 3.457 7.075 1.911 1.086 3.749 1.677 4.456 4.004.299.977.343 1.969.372 2.968a7.303 7.303 0 01-2.385 4.07c-2.107 1.83-4.434 2.406-4.915 5.477-.197 1.24-.066 2.501-.183 3.748-.167 1.816-.189 9.233 1.291 10.429 3.866 3.107 8.964-3.289 10.51-6.323 1.976-3.872 2.355-8.146 2.042-12.39 1.305-1.32 1.684-3.436 1.808-5.303z" fill="#A04416"/><path d="M221.411 81.755c-2.268-2.669-6.061-1.225-7.796 1.24-.146.204-.029.394.146.482-.402.81-.671 1.714-.905 2.457-.496 1.59-1.254 4.369-.729 6.025.401 1.269 2.042 1.48 3.202 1.37 1.808-.174 3.369-1.341 4.616-2.588 2.305-2.327 3.887-6.141 1.466-8.986z" fill="#FEA679"/><path d="M219.32 83.076c-1.342-.532-2.699-.248-3.764.708-.16.145-.145.415 0 .561 1.962 1.955.846 5.17-1.954 5.397-.503.036-.511.831 0 .795 3.318-.263 4.857-3.924 2.8-6.418.81-.576 1.743-.65 2.699-.277.481.19.685-.576.219-.766z" fill="#D1724E"/><path d="M191.109 68.337c-2.516-.008-3.019 1.43-3.034 1.546-.386.787-.226 1.78.62 2.18.474.227 1.036.139 1.539.124.984-.036 1.86.146 2.83.27.984.132 1.961-.19 2.333-1.203.905-2.509-2.53-2.998-4.288-2.917zm13.814.539c-2.626-.007-3.151 1.488-3.165 1.612-.402.824-.241 1.853.649 2.275.496.241 1.079.146 1.604.124 1.029-.036 1.94.154 2.954.285 1.028.139 2.049-.197 2.436-1.262.941-2.61-2.64-3.121-4.478-3.034z" fill="#A04416"/><path d="M238.829 126.813c-1.991-1.16-3.465-2.976-4.092-5.208-.35-1.225-.299-2.333-.219-3.573.03-.438.146-.817-.08-1.225-.226-.402-.598-.526-.999-.671-1.254-.445-2.152-.562-3.085-1.7-1.904-2.297-1.495-5.462-1.145-8.204.029-.219-.204-.387-.394-.394-3.428-.183-6.673-.824-7.563-4.682-.729-3.151-.394-6.696.168-9.839.087-.496-.678-.715-.766-.211-.671 3.777-1.517 9.481.926 12.836 1 1.371 2.553 2.056 4.179 2.377.861.168 2.188-.029 2.567.664.19.35-.153 1.495-.175 1.889-.036.751-.036 1.502.059 2.253.211 1.678.838 3.282 2.107 4.449a5.026 5.026 0 001.773 1.072c.751.248 1.4.029 1.67 1.182.051.233-.088.671-.11.919-.24 3.588 1.722 6.972 4.792 8.759.423.248.824-.431.387-.693zm-54.27-64.085c-2.326.627-4.303 2.093-5.47 4.23-.496.904-.773 1.867-.941 2.874-.145.904-.109 1.838-.517 2.684-.394.824-1.094 1.444-1.671 2.13a9.058 9.058 0 00.176 11.843c.342.38.897-.182.561-.562-1.612-1.823-2.326-4.186-2.013-6.6.314-2.377 1.648-3.668 3.012-5.492 1.211-1.618.897-3.172 1.459-5.017.809-2.67 2.946-4.617 5.608-5.339.503-.124.292-.89-.204-.75zm38.749 5.696c-.284-.387-.846-.795-1.013-1.21-.292-.7.095-1.124.35-1.744a5.51 5.51 0 00.386-2.4c-.087-1.793-.955-3.303-2.355-4.382-.401-.314-.803.379-.401.685 1.743 1.342 2.421 3.676 1.641 5.733-.351.911-.97 1.356-.489 2.29.401.78 1.232 1.385 1.706 2.144.496.795.898 1.684 1.073 2.61.554 2.962-1.284 4.763-3.559 6.229-.431.277-.03.963.401.685 1.772-1.137 3.457-2.384 3.923-4.558.467-2.173-.372-4.354-1.663-6.082z" fill="#7D340F"/><path d="M153.783 274.637a62.812 62.812 0 01-29.414-12.106c-.386-.292-.751.357-.379.642a63.294 63.294 0 0029.596 12.179c.466.066.671-.649.197-.715zm3.799-70.794c-5.827-3.122-12.529-2.575-18.641-.627-5.637 1.794-11.508 4.317-15.162 9.167-.292.379.357.751.642.379 3.529-4.674 9.291-7.096 14.717-8.824 5.922-1.889 12.42-2.473 18.072.554.423.226.795-.423.372-.649z" fill="#1F3044"/><path d="M241.826 516.426c-2.546 1.458-5.507 2.18-8.497 2.428-4.573.387-9.787.241-13.973-1.83-2.094-1.036-3.501-2.619-5.098-4.274-2.006-2.071-4.442-3.647-7.199-4.522-2.72-.86-6.089-.78-8.751-1.911a10.818 10.818 0 01-.124-.831c3.041 1.59 7.402 1.298 10.443 2.545a17.88 17.88 0 014.653 2.801c1.765 1.473 3.078 3.428 4.996 4.726.46.313.941.583 1.43.831a.354.354 0 01.058-.102c2.319-3.034 1.065-6.892-1.291-9.474-2.027-2.224-4.762-3.566-6.907-5.652-3.376-3.296-6.607-13.594-12.551-10.816v-.058l-.022-.751c3.143-1.342 5.528.576 7.578 3.253a13.574 13.574 0 015.995-1.182c.08.248.175.496.277.744a12.765 12.765 0 00-5.827 1.036c1.32 1.838 2.501 3.923 3.661 5.55a16.324 16.324 0 014.675-1.94c.145.219.306.43.466.634a15.747 15.747 0 00-4.704 1.896c.321.416.649.803.97 1.116 1.167 1.138 2.495 2.072 3.785 3.034 1.021-.97 2.509-1.553 3.953-2.02.226.19.452.365.686.547-1.444.452-3.02.999-4.041 1.918 1.568 1.189 3.042 2.472 4.085 4.259 1.487 2.56 1.699 5.849-.161 8.271-.014.014-.029.022-.044.036 3.574 1.568 7.819 1.678 11.611 1.524 3.282-.138 6.586-.787 9.386-2.363.168.168.299.314.409.46.014.022.036.044.043.066a.117.117 0 01.03.051z" fill="#BABCBF"/><path d="M344.891 127.535c-1.772-2.4-4.908-2.458-7.592-2.042-2.676.415-5.433 1.123-7.337 3.07-.167-3.063-1.108-6.039-2.873-8.584-1.648-2.37-4.165-3.318-7.25-3.326-3.23-.007-6.272.927-8.7 2.808-2.356 1.823-4.398 4.011-5.186 6.907-1.291-1.043-3.077-1.16-4.624-.438-2.166 1.014-3.128 3.348-3.631 5.558-4.442 1.524-7.724 5.294-8.687 9.94-.824 3.975-.145 9.102 3.209 11.742-1.699 2.976-2.487 7.009-1.167 10.196 1.306 3.143 4.705 3.975 7.76 4.456-.583 4.726 4.34 7.483 8.38 8.416 1.772.409 1.437-1.014 1.488-2.509.044-1.363.066-2.735.073-4.098 1.407.415 2.895.568 4.361.517 5.361-.204 9.926-3.136 14.061-6.301 2.531-1.947 5.062-3.88 7.607-5.812 2.159-1.634 4.259-3.443 5.652-5.799 2.093-3.544 2.093-8.336-1.349-10.917 4.091-3.027 9.751-8.453 5.805-13.784z" fill="#1F3044"/><path d="M287.997 494.502c.81-3.697 1.809-7.359 2.969-10.976-1.809-.737-3.742-1.225-5.631-1.656-1.779-.401-5.579-1.225-9.065-1.794-.131 3.632-.394 7.25-.759 10.86a184.534 184.534 0 01-2.224 15.6.393.393 0 00.343.452c3.931.423 7.833.97 11.72 1.634a.414.414 0 00.459-.35 113.313 113.313 0 012.188-13.77z" fill="#FEA679"/><path d="M302.438 524.2c-.007-.029-.037-.065-.059-.095-.204-.94-5.404-7.278-7.373-10.013a15.222 15.222 0 01-.576-.839l-.037-.058c-.539-.868-1.247-1.955-1.961-3.26-.139-.248-.27-.503-.401-.766a23.45 23.45 0 01-1.189-2.655 13.506 13.506 0 01-.292-.809 21.597 21.597 0 01-1.152-6.345c-.474-.956-1.218-1.729-2.407-2.203-1.889-.78-4.398-.926-6.17.234-1.101.722-1.823 1.779-2.312 2.953-.117-1.611-.642-3.158-2.02-3.785-.7-.313-1.787.205-1.772.153.087-.43-1.656 2.896-1.802 3.341-1.305 3.165-3.143 6.418-3.384 9.7a8.022 8.022 0 00-.007 1.028c.015.729.139 1.451.365 2.181.685 2.144 2.443 3.187 4.448 3.901 1.379.496 2.837.803 4.121 1.546 1.05.62 1.634 1.313 1.962 2.174-.139 2.983.839 5.922 2.946 8.102 2.648 2.728 5.434 3.735 9.058 4.333 2.874.466 7.162.78 9.073-1.904a8.174 8.174 0 001.138-2.246 5.99 5.99 0 00.233-.897c.19-1.153.08-2.407-.43-3.771z" fill="#7464DC"/><path d="M329.198 174.028c.445-.846 1.575-2.465.962-3.493-.641-1.087-2.866-1.087-3.872-1.32a181.311 181.311 0 01-7.089-1.823 184.193 184.193 0 01-13.529-4.369c-.087-.277-.16-.554-.255-.831-.161-.489-.956-.35-.795.145.073.227.138.453.211.679-.138.197-.131.518.168.62.007.007.022.007.029.007 4.989 11.137 2.371 19.545 1.014 30.099-.022.197 1.801 1.721 2.013 1.714a134.789 134.789 0 0117.839.415c.27.022.467-.219.43-.481-.656-4.755-1.32-9.685-.211-14.426.605-2.538 1.874-4.653 3.085-6.936z" fill="#FEA679"/><path d="M386.527 370.957c-2.975-14.864-6.636-29.603-9.998-44.371-1.751-7.687-3.188-15.549-5.419-23.105-.875-2.954-1.977-5.878-3.61-8.467a19.96 19.96 0 00-2.611-3.319c-.795-.802-2.042-1.612-2.772-2.633.409-.357.803-.729 1.211-1.086.386-.336-.168-.905-.547-.576-.357.306-.7.634-1.05.948a2.54 2.54 0 01-.168-1.226c.058-.517-.715-.51-.773 0-.08.686.058 1.269.321 1.787-.627.555-1.255 1.109-1.867 1.678-1.576.62-3.289.97-4.879 1.393-2.29.605-4.595 1.167-6.9 1.684a186.65 186.65 0 01-13.587 2.538 191 191 0 01-25.314 2.035c1.05-3.056 2.093-6.119 3.143-9.175.168-.488-.583-.7-.744-.218l-3.216 9.4c-.671.008-1.342.015-2.02.015-.496 0-.496.81 0 .81.583 0 1.159-.008 1.743-.015-4.004 11.698-8.803 6.206-12.807 17.905-4.966 14.513-5.287 41.344-8.533 56.412-1.582 7.344-6.673 19.618-7.118 27.123-.481 8.052-.904 16.016-2.465 23.943-1.466 7.454-3.544 14.754-5.601 22.047-1.969 6.958-4.66 14.295-4.719 21.632-.131 15.126 15.87 24.643 28.217 27.612a.39.39 0 00.438-.19c28.407-45.48 41.914-108.266 43.008-113.102.371 4.675 6.833 34.088 6.374 45.983-.452 11.75-.27 23.192 1.568 34.818.904 5.703 2.056 11.355 3.325 16.978 1.175 5.237 1.904 13.018 3.691 18.065 1.648 4.653 5.477 3.384 9.794 3.982 6.477.897 9.562-.153 16.038.751.153.022 4.427-.831 4.456-.991 5.368-29.538 5.66-57.025 6.112-87.015.197-14.848.197-29.449-2.721-44.05z" fill="#fff" stroke="#000" stroke-width=".5"/><path d="M304.998 315.807a21.817 21.817 0 013.72-.029c.672-3.29.453-6.789.24-10.185-.057-.918-.114-1.828-.153-2.724l-3.807 12.938zm0 0c-.518.051-.328.839.183.788m-.183-.788l.183.788m0 0c1.166-.117 2.326-.102 3.471-.022l-3.471.022zm62.246-35.939v.001c.408 3.188.734 6.38 1.06 9.578l.23 2.245 1.189 11.509.657 6.352c.018.179.052.384.088.595l.014.086c.041.244.081.497.103.747.047.513.014.95-.179 1.237l-.001.002c-.249.379-.774.608-1.425.763-.318.075-.647.129-.962.178l-.116.018c-.268.042-.527.082-.742.13h0c-1.746.393-3.492.735-5.253 1.041-3.647.633-7.324 1.106-11.01 1.478-7.318.736-14.707 1.29-22.059 1.53-3.887.124-7.78.058-11.625-.508h0a99.824 99.824 0 01-3.024-.506c-1.662-.295-3.33-.591-4.996-.75l-.178-.017-.074.163c-.011.025-.023.034-.032.038a.101.101 0 01-.061.007.209.209 0 01-.153-.107l-.063-.132-.145-.011c-1.155-.081-2.329-.096-3.514.023-.1.01-.184-.057-.209-.164-.012-.051-.002-.084.005-.097h0c.003-.005.014-.024.071-.029h0a21.514 21.514 0 013.677-.029l.219.016.044-.215c.679-3.326.457-6.869.244-10.27-.057-.912-.114-1.815-.152-2.7h0c-.19-4.363-.431-8.729-.832-13.081-.395-4.338-.957-8.672-1.783-12.955v-.001c-.139-.713-.345-1.461-.552-2.209-.074-.269-.149-.538-.22-.805-.271-1.018-.497-2.02-.529-2.963-.014-.438.068-.777.233-1.049.166-.271.43-.498.822-.687h0c.574-.278 1.275-.398 2.017-.46.361-.03.725-.047 1.086-.063l.025-.001c.366-.016.728-.033 1.067-.065h0c1.634-.153 3.267-.306 4.899-.444h.001c3.995-.35 7.99-.657 11.986-.941h0c7.838-.561 15.684-1.057 23.531-1.502a88.417 88.417 0 002.295-.171l.321-.026a70.787 70.787 0 012.707-.185c1.812-.079 3.596-.028 5.205.382h0c2.265.575 3.526 2.41 4.236 4.611v.001c.933 2.88 1.317 6.014 1.691 9.069l.166 1.343z" fill="#fff" stroke="#000" stroke-width=".5"/><path d="M318.053 270.32c-.139-13.799-.394-27.678-1.823-41.411-.759-7.315-1.918-14.608-3.785-21.733-.898-3.399-2.247-12.617-3.239-12.581-9.379.336-16.985 1.984-22.572 3.705-15.221 4.704-23.527 15.061-28.676 25.577-2.188 4.442-3.8 8.92-5.142 13.004-.744 2.261-1.517 5.557-2.254 9.218-2.195 10.852-4.098 24.943-3.931 24.972 9.263 1.59 12.581 3.515 21.88 2.64a454.778 454.778 0 00-2.123 42.264c-.029 5.63.052 11.253.248 16.876.241 7.432.664 14.863 1.277 22.281.014.196.175.422.401.401 13.186-1.291 26.131-4.493 38.354-9.598 2.429-1.014 5.558-1.896 7.541-3.669 1.926-1.721 1.62-4.886 1.787-7.227a770.121 770.121 0 002.057-64.719z" fill="#FAF3ED"/><path d="M321.256 289.164a28.834 28.834 0 01-2.56-7.884c-.037-.218-.307-.335-.496-.284-12.275 3.151-25.103 3.865-37.647 2.006a93.692 93.692 0 01-9.08-1.809c-2.261-.569-4.982-1.955-7.337-1.831-2.05.102-2.458 1.78-3.362 3.311-1.517 2.568-3.851 4.464-6.579 5.616-.116.051-.175.124-.197.212a.377.377 0 00-.153.299c-.262 5.725 3.749 10.407 8.752 12.675 5.871 2.655 12.923 2.815 19.239 2.275 14.039-1.196 27.174-7.176 39.281-14.046.19-.095.233-.343.139-.54z" fill="#FEA679"/><path d="M277.212 228.845c-4.318-2.91-10.495-1.678-13.653 2.297-.934-3.071-2.998-5.703-5.601-7.264-2.188 4.441-3.8 8.919-5.142 13.004-.744 2.26-1.517 5.557-2.254 9.218 10.211-3.121 21.326-3.129 31.594.226.226.08.452-.124.46-.35.146-5.871.051-13.463-5.404-17.131z" fill="#DCDAF1"/><path d="M384.873 299.266a924.488 924.488 0 00-.248-7.811c-.263-7.228-.605-14.463-.963-21.69 1.969-.306 5.521-53.947-4.259-62.816-10.735-9.736-8.424-10.48-22.631-12.362-8.912-1.181-20.158-1.75-29.041-.43-.408.058-.35.562-.051.729-.175.139-.255.387-.044.584 15.258 13.886 20.29 34.897 24.177 54.355 4.792 23.958 8.001 48.208 9.707 72.582.372 5.28.927 10.48 4.617 14.586 1.991 2.217 4.449 3.997 6.782 5.849 2.655 2.1 5.317 4.208 7.979 6.316a.496.496 0 00.35.095c.153-.008.292-.095.328-.278 2.276-10.866 3.195-21.923 3.414-33.008.087-4.595.058-9.19-.044-13.777-.022-.977-.044-1.947-.073-2.924z" fill="#FAF3ED"/><path d="M384.945 302.191c-.022-.977-.044-1.947-.073-2.925a927.16 927.16 0 00-.248-7.811c-2.341-.146-4.58.467-6.148 2.166-4.521 4.901-4.361 12.909-.984 18.364-2.217-.109-4.157 1.306-5.084 3.363-1.458 3.23-.758 7.409.533 10.575.729 1.779 1.809 3.391 2.582 5.149.525 1.203.32 1.721-.438 2.64-.387.459-.678.882-.853 1.473-.824 2.83 1.094 5.995 2.487 8.307 1.152 1.918 2.603 4.295 4.529 5.761a.333.333 0 00.328-.277c2.275-10.867 3.194-21.923 3.413-33.009.088-4.594.058-9.189-.044-13.776z" fill="#DCDAF1"/><path d="M285.496 264.106c-.124-.022-.263-.037-.394-.066a.423.423 0 00-.642-.109 145.39 145.39 0 00-5.586-.817 111.29 111.29 0 00-2.21-.241 74.22 74.22 0 00-1.75-.153c-3.829-.299-7.695-.335-11.546.022a56.698 56.698 0 00-5.316.737c-.766.153-1.532.313-2.29.51-.642.153-1.277.328-1.911.511-.335.087-.656.182-.985.291-2.253.715-4.937 1.802-5.841 4.187-1.459 3.836 1.538 6.016 4.952 7.242.598.211 1.203.393 1.808.554.606.168 1.189.299 1.743.416.832.167 1.605.291 2.239.379 3.734.496 7.512.795 11.283.882.598.015 1.189.03 1.801.051 1.196.03 2.422.051 3.632-.036.037 0 .088-.007.124-.007 1.648-.11 3.275-.38 4.784-.992 4.821-1.984 7.315-7.643 6.003-12.574.415-.014.583-.7.102-.787z" fill="#1F3044"/><path d="M395.236 267.847c-1.073-6.476-9.226-18.102-9.854-17.949-3.405.949-3.515 1.583-6.665 3.071-2.341 1.108-4.85 2.45-7.082 4.091-.029.27-.066.54-.102.803a48.045 48.045 0 01-.321 2.049c-.175-.073-.408-.022-.489.233-2.355 7.148-5.79 13.442-9.977 19.415-1.254 1.786-3.406 3.887-2.494 6.294.897 2.37 2.771 4.456 4.609 5.922 4.588 3.675 15.644 3.559 18.394 3.559 5.433 0 11.982-3.88 14.345-9.941 2.319-5.973.642-11.443-.364-17.547zm-120.082-5.12c-3.829-.299-7.694-.335-11.545.022a56.698 56.698 0 00-5.316.737c-.766.153-1.532.314-2.29.51a143.883 143.883 0 00-1.838 11.618 32.43 32.43 0 00-.131 1.16c-.321 2.837-.54 5.703-.547 8.518-.015 4.325.758 8.934 3.828 11.99 1.933 1.94 4.872 3.078 7.345 1.634 1.757-1.021 2.88-2.954 3.69-4.857 1.801-4.201 4.799-7.746 5.944-12.194.073-.285.219-1.576.437-3.399.496-4.332 1.335-11.633 2.188-15.578a49.223 49.223 0 00-1.765-.161z" fill="#FEA679"/><path d="M310.012 188.057c12.369-.285 62.291-1.418 76.234-1.38.832 11.162 1.881 53.234 2.513 78.606.224 8.97.396 15.852.487 18.543-3.008.26-19.838 1.308-36.991 2.373l-1.649.103c-16.723 1.039-33.337 2.071-37.315 2.382v-.022l-.029-.866-.105-3.221-.375-11.469-1.133-34.763-1.131-34.747-.373-11.449-.104-3.207-.028-.845-.001-.038z" fill="#fff" stroke="#000" stroke-width=".5"/><path d="M311.552 232.914h0c.453 13.392.772 27.24.983 37.822.12 6.024.206 10.995.262 14.218.033 1.929.055 3.232.068 3.761-7.511.358-14.74-.355-21.376-1.207a606.29 606.29 0 01-4.753-.635c-4.755-.649-9.138-1.247-12.996-1.393-.661-9.681-2.873-78.625-3.021-84.081 2.212-.782 4.436-1.571 6.645-2.355 13.073-4.639 25.644-9.099 32.14-10.899.056 1.924.251 5.668.51 10.618.091 1.747.191 3.644.294 5.664.415 8.085.902 18.151 1.244 28.487zm-29.649-25.304h.002l14.401-4.689h.001a1.27 1.27 0 00.882-1.216v-2.508c0-.87-.852-1.487-1.677-1.215h-.001l-14.403 4.682h0c-.526.172-.88.662-.88 1.215v2.516c0 .873.854 1.477 1.675 1.215z" fill="#fff" stroke="#000" stroke-width=".5"/><path d="M336.315 149.772c-.679-5.2-1.218-11.939-4.916-16.045-6.702-7.439-18.167-7.68-26.89-2.845-4.835 2.684-8.868 7.148-10.4 12.289-.926 3.1-.269 6.112.686 9.146.284.911.591 1.823.904 2.727 1.663 9.379 7.695 18.554 16.804 23.025 4.835 2.377 10.823 3.019 15.636.372 4.208-2.312 6.812-6.549 8.234-10.816 1.904-5.725.715-11.902-.058-17.853z" fill="#FEA679"/><path d="M316.134 148.232c.503 1.896.124 3.639-.86 3.902-.978.262-2.188-1.065-2.692-2.961-.503-1.897-.124-3.64.861-3.902.977-.255 2.181 1.065 2.691 2.961zm13.333-1.83c.503 1.896.124 3.639-.86 3.902-.978.262-2.188-1.065-2.692-2.961-.503-1.897-.124-3.64.861-3.902.985-.263 2.188 1.065 2.691 2.961z" fill="#1F3044"/><path d="M326.404 149.691c-1.102-1.998-4.369-3.034-6.243-4.047-.46-.248-.868.452-.409.7 1.554.846 3.202 1.612 4.69 2.56 2.53 1.619 1.356 4.149.058 6.162-.284.438.416.846.7.409 1.08-1.663 2.298-3.8 1.204-5.784zm-4.201 3.559a5.725 5.725 0 00-2.247 2.239c-.255.46.445.868.701.408a4.926 4.926 0 011.954-1.947c.46-.248.051-.948-.408-.7z" fill="#D1724E"/><path d="M323.872 163.957c-2.028.219-4.347 0-5.915-1.444-.664-.612-1.167-1.378-1.604-2.18 4.39-.146 8.759-.584 12.916-2.028-.482 2.852-1.853 5.273-5.397 5.652z" fill="#FAF7F5"/><path d="M328.249 279.91c-.321-1.86-2.086-3.056-3.392-2.349a14.37 14.37 0 00-.182-1.48c-.51-2.735-3.377-4.128-4.901-2.071-.35-.861-.89-1.532-1.728-1.794-1.911-.606-2.75 1.757-3.063 3.405a1.46 1.46 0 00-.453-.313c-1.123-.496-2.064.437-2.632 1.298-.854 1.291-1.372 2.822-1.795 4.354a2.184 2.184 0 00-.641-.08c-.846.029-1.437.634-1.853 1.291-.583.926-.627 2.268-1.101 3.252-.693 1.452-1.743 2.531-3.049 3.435-.313.219-.342.577-.109.861 2.035 2.523 4.332 6.921 12.814 6.907 3.063-.008 7.169-3.239 8.54-5.864 2.319-3.012 4.194-7.133 3.545-10.852zm54.45-8.007c-.977-2.145-2.735-1.795-3.567-.299-.226-1.058-.583-2.05-1.196-2.772-1.341-1.568-2.72-.875-3.595.372-.197-.634-.452-1.218-.81-1.692-.86-1.13-2.275-1.502-3.435-.576-1.094.875-1.203 2.21-1.094 3.537-.466-.233-1.05-.233-1.779.11-1.641.765-1.364 3.318-1.4 4.74-.103 3.887-.241 8.803-4.522 10.466-.022.007-.037.029-.066.036-.211.058-.415.124-.627.182-.416.124-.489.591-.233.898 5.178 6.425 18.415 4.674 21.864-2.786 1.532-3.333 2.013-8.818.46-12.216z" fill="#FEA679"/><path d="M379.913 272.66c-.037-.503-.824-.511-.795 0 .357 5.302.233 11.034-3.793 15.017-.364.357.197.918.562.561 4.179-4.135 4.405-10.057 4.026-15.578zm-5.178-2.188c-.132-.496-.89-.284-.766.212 1.225 4.74.598 9.612-1.787 13.878-.248.445.438.846.686.402 2.494-4.457 3.15-9.554 1.867-14.492zm-5.134.489c-.153-.489-.919-.277-.766.211 1.626 5.193.817 10.714-2.224 15.236-.285.423.401.824.685.401a18.443 18.443 0 002.305-15.848zm-59.031 10.502c-.095-.504-.853-.292-.765.211.598 3.26-.547 6.433-3.049 8.599-.387.335.175.897.562.561 2.72-2.355 3.909-5.849 3.252-9.371zm4.843-5.251c-.065-.496-.853-.503-.795 0 .664 5.244-.554 10.393-3.5 14.783-.285.423.401.824.685.401a22.083 22.083 0 003.61-15.184zm4.485-1.488c-.072-.503-.831-.291-.765.212a27.282 27.282 0 01-3.042 16.818c-.24.452.445.853.686.401 2.903-5.375 3.967-11.385 3.121-17.431zm3.887 3.275c.153 5.273-1.16 10.335-3.873 14.864-.262.437.423.838.686.401a27.878 27.878 0 003.982-15.258c-.015-.517-.81-.517-.795-.007z" fill="#D1724E"/><path d="M348.545 340.837a167.972 167.972 0 01-3.887 17.809c-.116.453-.248.897-.372 1.342a165.08 165.08 0 01-6.607 18.831c-.197.46-.963.255-.766-.211a164.534 164.534 0 006.914-19.94c.131-.445.255-.882.364-1.327a164.575 164.575 0 003.581-16.709c.095-.51.854-.291.773.205z" fill="#1F3044"/><path d="M361.621 505.267c.015.511-.78.511-.795 0a842.015 842.015 0 00-1.874-35.138c-.416-5.433-.89-10.86-1.626-16.256-.708-5.127-1.743-10.204-2.495-15.323-1.473-10.065-.889-20.188-1.349-30.303-.736-16.439-3.872-32.71-9.196-48.251-.154-.445-.299-.883-.46-1.328.131-.445.255-.882.365-1.327.168.437.313.875.467 1.305a173 173 0 016.556 24.038 174.654 174.654 0 013.173 28.48c.145 5.207.043 10.429.218 15.637.175 5.433.81 10.764 1.729 16.117 3.537 20.596 4.602 41.476 5.287 62.349z" fill="#1F3044"/><path d="M379.292 496.479c-1.079-.43-2.202-.722-3.354-.926-1.919-.336-3.917-.409-5.85-.423-1.823-.015-5.717-.007-9.24.175-3.216.16-6.133.481-6.928 1.036-1.525 1.086-2.086 2.844-1.262 4.521.977 2.02 3.442 3.034 5.441 3.844a31.92 31.92 0 004.332 1.371c1.167.277 2.348.496 3.544.649 3.005.394 6.053.438 9.08.204l.336-.022c2.078-.153 4.288-.342 5.914-1.721 3.37-2.844 1.765-7.206-2.013-8.708z" fill="#1F3044"/><path d="M375.37 506.916c.008-3.785.204-7.578.569-11.356-1.918-.335-3.916-.408-5.849-.423-1.823-.014-5.718-.007-9.24.175a174.207 174.207 0 011.575 10.772c.605 5.215.992 10.459 1.145 15.717 0 .219.219.394.43.372 3.931-.423 7.862-.722 11.801-.897.211-.008.393-.219.371-.438a110.085 110.085 0 01-.802-13.922z" fill="#FEA679"/><path d="M396.841 536.562c-.11-1.159-.482-2.312-.956-3.413a.312.312 0 00-.087-.284.434.434 0 00-.08-.081c-.329-.707-4.581-4.164-7.527-6.651-.277-.233-.54-.459-.788-.671-.795-.678-1.422-1.24-1.757-1.59-.73-.758-1.685-1.692-2.691-2.859a14.28 14.28 0 01-.533-.627 26.479 26.479 0 01-2.531-3.654 65.267 65.267 0 01-.372-.707 21.587 21.587 0 01-1.757-4.661c-.649-.824-1.546-1.429-2.808-1.641-2.013-.357-4.493.03-5.98 1.547-.635.649-1.065 1.422-1.335 2.246a7.424 7.424 0 00-.299 1.13 6.974 6.974 0 00-.489-1.239c-.496-1.007-1.225-1.802-2.29-2.028-.744-.168-1.699.576-1.699.525-.007-.445-.999 3.18-1.043 3.654-.525 2.932-1.429 6.017-1.349 8.912.007.292.022.591.065.89.117 1.196.438 2.363 1.065 3.457 1.123 1.94 3.071 2.589 5.178 2.859 1.459.182 2.954.175 4.362.634 1.159.372 1.874.926 2.37 1.707.503 2.939 2.086 5.601 4.609 7.286 3.165 2.1 7.162 2.224 10.823 2.027 2.91-.146 6.112-.481 7.403-3.508a6.409 6.409 0 00.517-2.363 8.953 8.953 0 00-.021-.897z" fill="#7464DC"/><path d="M280.274 417.918c-.189-.467-.955-.263-.766.211a86.239 86.239 0 016.178 38.377c-.037.51.758.51.795 0a86.653 86.653 0 00-6.207-38.588zm22.12-250.637c-.817-1.429-.861-2.997-2.218-4.12-1.021-.846-2.209-1.043-3.478-.744-.496.117-.285.882.211.766.022-.008.037-.008.051-.008a.378.378 0 00.008.343c1.706 3.355 3.544 7.045 6.075 9.875.729.817 4.536 3.734 4.769 1.05.095-1.072-.977-2.501-1.59-3.274-1.108-1.422-2.946-2.349-3.828-3.888zm30.588-34.102c-2.56-2.064-5.9-3.515-8.883-4.857-2.888-1.299-5.864-2.48-9.065-2.597-3.29-.116-6.579.759-9.496 2.254-1.794.919-4.121 2.21-5.361 4.033-3.449.948-6.308 4.85-7.679 7.767-1.729 3.69-3.085 10.415 1.531 12.675a4.799 4.799 0 003.705.263c.46.547 1.021.977 1.765 1.101 1.364.219 2.56-.685 3.173-1.83 1.429-2.691.678-6.455-.518-9.459.051-.19.175-.38.423-.679.153-.182.357-.328.51-.518 1.065-1.276 1.16-2.844.919-4.39a5.965 5.965 0 001.743.182 6.556 6.556 0 002.903-.831c.241-.131 1.16-1.028 1.437-1.079.591-.117 1.057.517 1.51.831 5.17 3.559 11.442 5.514 17.722 5.535 2.042.008 4.864-.051 5.747-2.304.838-2.21-.379-4.719-2.086-6.097z" fill="#1F3044"/><path d="M303.313 155.876c-.707-1.554-2.1-2.487-3.669-2.786-1.918-.926-4.178-1.298-5.688.605-1.546 1.955-.759 5.434.758 7.199 1.576 1.83 4.376 2.501 6.513 1.247 2.122-1.247 3.114-3.997 2.086-6.265z" fill="#FEA679"/><path d="M301.943 159.31c-2.4.467-4.515-1.276-4.566-3.704-.015-.511-.802-.511-.795 0 .066 2.982 2.655 5.039 5.572 4.47.496-.095.284-.86-.211-.766z" fill="#D1724E"/><path d="M312.852 138.614c-1.589-.081-3.019.204-4.514 1.867-1.181 1.32-1.167 3.96 1.211 4.106.62.036 1.159-.146 1.728-.365.948-.365 1.743-.467 2.735-.598.999-.131 1.947-.554 2.37-1.524.992-2.239-1.772-3.399-3.53-3.486zm-9.991 389.357a5.424 5.424 0 01-.233.897c-6.586 1.4-13.711.919-18.196-4.77-1.175-1.48-1.707-3.063-2.298-4.821-.97-2.895-3.471-3.719-6.053-4.835-2.297-1.007-4.646-2.093-6.564-3.654a8.19 8.19 0 01.007-1.028c2.218 1.998 5.157 3.194 7.928 4.427 1.561.693 3.369 1.356 4.449 2.764 1.065 1.385 1.196 3.26 1.962 4.806 3.61 7.257 11.822 7.782 18.998 6.214zm93.994 9.481c-.416.153-.831.292-1.269.416-4.733 1.334-10.101 1.794-14.63-.445a15.106 15.106 0 01-5.331-4.42c-1.721-2.275-2.874-5.054-5.842-5.929-2.399-.715-4.989-.445-7.424-1.094a14.304 14.304 0 01-1.838-.627 8.88 8.88 0 01-.066-.89c1.072.474 2.203.824 3.384 1.036 2.13.379 4.361.204 6.44.904 3.763 1.262 4.886 5.404 7.585 7.92 4.179 3.88 9.568 4.34 14.951 3.348a21.669 21.669 0 004.004-1.116c.036.306.051.605.036.897z" fill="#1F3044"/><path d="M376.667 234.481l-52.007 1.984-.474-22.339 52.014-1.983.467 22.338zm-73.704 94.518c-2.254-1.393-5.368-.7-7.797-.189-1.32.284-2.618.7-3.734 1.386 3.508-6.017 7.848-15.863-1.378-17.329-3.8-.598-8.168.576-11.56 2.254-1.998.984-3.763 2.406-4.981 4.186-.066-1.094-.408-2.137-1.233-3.019-1.626-1.744-3.989-1.342-5.892-.314-.03 5.63.051 11.253.248 16.876 1.429.307 2.822.759 4.164 1.415 2.91 1.422 5.054 3.858 7.49 5.922 2.115 1.787 4.485 3.122 7.184 3.763a16.27 16.27 0 0014.586-3.668c2.604-2.319 7.381-8.533 2.903-11.283z" fill="#DCDAF1"/><path d="M309.243 193.874c-.007-.467-.737-.453-.729.014.59 26.212 1.488 52.416 2.698 78.605.022.467.751.453.73-.014a3361.944 3361.944 0 01-2.699-78.605z" fill="#FAF7F5"/><path d="M287.713 514.056c.241-.022.474-.029.708-.029-.015-.037-.037-.073-.051-.103 2.239-.269 4.47-.437 6.636.168a15.222 15.222 0 01-.576-.839l-.036-.058c-2.086-.43-4.238-.226-6.389.044-.54-.985-1.13-1.94-1.772-2.874a17.525 17.525 0 016.199-.43c-.139-.248-.27-.503-.401-.766-2.035-.175-4.092 0-6.126.525a.273.273 0 00-.11.051c-.117-.16-.233-.328-.35-.481-.656-.897-1.386-1.765-2.108-2.633 2.516-.576 5.047-.678 7.505-.116a13.794 13.794 0 01-.292-.81c-2.509-.503-5.09-.35-7.636.27-.036.015-.058.029-.087.044-1.408-1.692-2.75-3.428-3.559-5.448-.168-.431-.875-.241-.7.189 1.174 2.947 3.427 5.215 5.346 7.68 1.393 1.794 2.683 3.654 3.726 5.652.022-.014.044-.029.073-.036zm100.478 12.077c-2.662.182-5.258.627-7.592 2.042-.058.211-.313.357-.54.219a.359.359 0 01-.269-.241c-2.735-2.64-5.485-5.273-8.212-7.928-2.028-1.969-4.369-6.009-4.238-5.579.073-.386.168-.766.299-1.13.627 2.115 2.035 3.785 3.581 5.338.015-.014.029-.036.051-.051a15.81 15.81 0 018.249-2.779c.124.241.248.475.372.708-2.888.073-5.696.97-8.154 2.633.445.445.904.875 1.349 1.305.781.751 1.561 1.51 2.349 2.268 1.531-1.4 3.996-1.765 5.944-2.29.35-.094.692-.182 1.042-.262.175.219.351.423.533.627-.46.095-.926.211-1.386.335-1.736.474-4.237.854-5.608 2.094 1.415 1.371 2.829 2.734 4.244 4.106 2.217-1.357 4.675-1.86 7.199-2.086.248.211.51.437.787.671z" fill="#1F3044"/></g><defs><clipPath id="clip0_0_526"><path fill="#fff" d="M0 0h468.743v580H0z"/></clipPath></defs></svg>