<svg width="572" height="512" fill="none" xmlns="http://www.w3.org/2000/svg"><g clip-path="url(#clip0_0_333)"><path d="M121.416 471.911c-11.978-3.551-76.775-1.655-82.554-.198a54.957 54.957 0 00-10.747 3.941c-2.272 1.114-5.702 2.687-5.948 5.62-.217 2.595 2.219 4.003 4.39 4.601 3.56.98 7.553.835 11.215 1.1 8.977.642 17.959 1.221 26.955 1.529 9.17.314 18.354.348 27.514-.125 4.482-.232 8.958-.584 13.415-1.081 3.773-.419 7.607-.849 11.225-2.05 3.203-1.061 6.556-2.831 8.369-5.803 1.457-2.378-1.109-6.729-3.834-7.534z" fill="#EFEEFE"/><path d="M498.596 3.307H338.785v304.548h159.811V3.307z" fill="#FDFDFD"/><path d="M463.349 28.497c-19.666 9.218-38.619 19.932-57.499 30.64-19.078 10.82-37.963 21.987-56.37 33.916a743.304 743.304 0 00-10.699 7.067v90.913c14.944-11.48 29.897-22.951 44.841-34.427 18.885-14.505 37.775-28.995 56.66-43.505 18.224-14.004 36.415-28.05 54.306-42.483 1.336-1.08 2.672-2.16 4.004-3.242V14.46c-12.055 3.83-23.796 8.673-35.243 14.037z" fill="#fff"/><path d="M340.961.08h-6.093v312.464h6.093V.08zm159.284 0h-6.092v312.464h6.092V.08zm-80.006.337h-3.816v312.464h3.816V.417z" fill="#000"/><path d="M496.252 105.161H335.944v3.608h160.308v-3.608zm1.842 107.714H337.787v3.609h160.307v-3.609zM500.246.08H334.868v6.092h165.378V.08zm0 306.376H334.868v6.087h165.378v-6.087z" fill="#000"/><path d="M482.987 212.944L354.091 328.767V214.946l48.426-5.196 80.47 3.194z" fill="#000"/><path d="M406.664 251.793v-.002c-.14-.65-.284-1.304-.438-1.953h0c-.101-.429-.198-.857-.294-1.284l-.001-.005v-.001c-4.164-17.848-10.03-35.376-17.721-52.001-7.257-15.691-16.366-30.679-28.162-43.361h0c-11.752-12.643-26.177-22.724-42.559-28.33-8.17-2.795-16.757-4.464-25.398-4.666l114.573 131.603zm0 0a259.446 259.446 0 011.623 7.88c-4.265.355-8.517.837-12.743 1.468a302.054 302.054 0 00-8.31-16.738l19.43 7.39zM255.287 134.834h0a8.127 8.127 0 00-.215.533l-.001.005h-.001a14.692 14.692 0 00-.868 3.565h0c-.352 3.002.149 6.176 1.764 8.745h0c1.875 2.993 5.016 4.422 8.458 5.009h0c2.144.367 4.312.589 6.49.812l.017.002c2.182.224 4.374.449 6.546.822h.001l-.041.235-22.15-19.728zm0 0l.002-.005m-.002.005l.002-.005m0 0c2.189-5.18 7.164-8.788 12.502-10.903m-12.502 10.903l12.502-10.903m0 0c7.601-3.004 16.157-3.923 24.3-3.736l-24.3 3.736z" fill="#fff" stroke="#000" stroke-width=".477"/><path d="M405.48 255.409l-.001-.001c-1.645-6.708-3.811-17.357-6.198-29.094-.931-4.58-1.896-9.325-2.877-14.067-3.494-16.883-7.19-33.727-10.283-42.832l-.226.077.226-.077-.908-2.669c-5.862-17.235-11.726-34.479-16.361-52.074-4.437-16.886-8.283-34.438-7.388-51.97.419-8.18 1.944-16.338 5.119-23.9h0c1.534-3.66 3.622-8.102 6.655-11.212.149-.149.292-.292.435-.43 1.811-1.725 3.932-2.959 6.441-3.302h.001c3.354-.46 6.213.856 8.574 2.986 2.365 2.133 4.214 5.07 5.529 7.802 1.77 3.685 2.991 7.662 4.158 11.599 1.32 4.459 2.413 8.986 3.338 13.549 3.473 17.234 4.654 34.892 5.827 52.439.091 1.371.183 2.742.276 4.112a1653.693 1653.693 0 012.971 60.062c.627 19.948.892 39.906.8 59.864a1641.25 1641.25 0 01-.275 23.169c-.647.047-1.294.094-1.942.144-.198-1.691-.489-2.68-.855-3.227-.196-.293-.421-.473-.675-.555a1.294 1.294 0 00-.717-.001c-.18.044-.36.115-.519.178a4.463 4.463 0 00-.092.036c-.192.074-.343.124-.471.132a.327.327 0 01-.278-.1c-.093-.094-.197-.28-.284-.638zm11.582-30.439c8.741-22.92 20.202-45.458 40.269-60.259 11.416-8.417 24.871-12.853 38.891-14.485 12.214-1.42 24.72-.942 36.63 2.184 11.026 2.896 21.643 8.175 29.539 16.513 3.951 4.177 7.677 9.227 8.942 14.885.679 3.041.372 6.053-.956 8.492h-.001l-.003.007a4.97 4.97 0 01-.236.42l-.001.002c-1.077 1.773-2.724 3.216-4.968 4.104-2.821 1.109-5.886 1.344-8.992 1.202-2.415-.111-4.839-.448-7.187-.775-.675-.094-1.343-.187-2.003-.273a992.79 992.79 0 01-11.25-1.571c-4.219-.605-8.44-1.21-12.652-1.753l-.031.237.031-.237c-15.105-1.945-30.512-3.072-45.646-.49l.04.235-.04-.235c-14.08 2.403-27.188 8.147-37.69 17.971h0c-4.489 4.201-8.441 8.877-12.083 13.793a325.9 325.9 0 00-10.603.033z" fill="#fff" stroke="#000" stroke-width=".477"/><path d="M404.838 233.594c.386 3.893.738 7.8 1.066 11.702a685.5 685.5 0 011.061 14.727l.487-.043a712.27 712.27 0 00-1.703-21.977c-1.418-15.296-3.275-30.559-5.402-45.768-5.659-40.524-12.764-80.86-19.488-121.22-2.441-14.675-4.896-29.349-7.347-44.027-.144.14-.289.284-.439.434 5.408 32.32 10.801 64.643 16.131 96.972 5.996 36.274 12.04 72.593 15.634 109.2zm164.07-42.082a167.824 167.824 0 00-40.293-14.964c-14.08-3.251-28.634-4.698-43.086-4.066-7.679.342-15.281 1.539-22.271 4.857-6.17 2.928-11.64 7.159-16.555 11.867-5.113 4.896-9.677 10.323-14.148 15.803-4.969 6.092-9.985 12.184-14.288 18.778-.304.468-.598.941-.897 1.414l.617-.015c3.449-5.441 7.405-10.544 11.456-15.551 4.414-5.461 8.823-10.95 13.647-16.064 4.761-5.05 9.966-9.768 15.928-13.371 6.599-3.994 13.849-6.126 21.509-6.869 14.365-1.394 29.193-.135 43.303 2.696a167.096 167.096 0 0140.394 13.671c2.06 1.003 4.1 2.055 6.121 3.15.087-.14.169-.285.246-.439-.559-.304-1.119-.603-1.683-.897zM392.797 233.7c3.097 8.818 5.577 17.873 7.308 27.062.164-.02.328-.044.487-.063a180.496 180.496 0 00-5.214-20.824c-5.875-18.716-14.568-36.521-25.18-53.003-5.234-8.133-10.998-15.972-17.785-22.884-6.792-6.918-14.635-12.692-23.159-17.289-16.15-8.721-34.403-13.255-52.738-13.55-7.178-.115-14.37.415-21.451 1.587a7.614 7.614 0 00-.222.55 118.858 118.858 0 0115.252-1.563c18.22-.685 36.622 2.798 53.158 10.526 8.804 4.11 17.115 9.363 24.37 15.855 7.182 6.435 13.289 13.97 18.735 21.9 10.974 15.957 20.014 33.414 26.439 51.696z" fill="#000"/><path d="M439.124 218.462v113.821h-.009l-85.024-3.516V214.945l85.033 3.517z" fill="#463C84"/><path d="M482.987 212.944V326.77l-43.872 5.528v-.014l-.941-38.006-.241-9.682-.144-5.885.641-29.188.159-7.221.526-23.83h.01l43.862-5.528z" fill="#463C84"/><path d="M438.609 247.482l-.087-22.039c0-.324-.501-.324-.501 0 .101 25.71.202 51.421.308 77.131l.087 22.04c0 .323.502.323.502 0-.106-25.71-.208-51.421-.309-77.132z" fill="#fff"/><path d="M568.093 398.214c-.753-15.605-11.862-29.227-25.566-37.505-16.184-9.778-35.812-13.685-54.518-16.994-42.888-7.578-86.809-9.17-130.348-10.511a2551.407 2551.407 0 00-67.648-1.187c-21.861-.091-43.766-.106-65.613.753-20.92.825-41.884 2.663-62.313 7.072-18.084 3.902-85.019 12.734-86.721 50.461-.724 16.044 13.945 26.038 27.162 31.837 18.051 7.92 37.65 12.184 57.253 15.267 21.201 3.333 42.594 5.697 63.983 7.699 44.026 4.124 88.313 6.883 132.513 8.779 43.062 1.852 86.442 1.934 129.17-3.975 10.42-1.442 20.839-3.16 31.07-5.485 9.551-2.175 19.02-5.074 27.496-9.787 13.795-7.66 24.827-20.911 24.08-36.424z" fill="#EFEEFE"/><path d="M284.514 204.55L105.5 340.941V206.904l57.031-6.112 121.983 3.758z" fill="#7464DC"/><path d="M232.857 345.085L105.5 340.941V206.903l127.357 4.144v134.038z" fill="#EFEEFE"/><path d="M284.514 338.587l-51.662 6.513V211.062l51.662-6.512v134.037z" fill="#EFEEFE"/><path d="M232.254 245.22l-.101-25.952c0-.381-.593-.381-.593 0l.361 90.831.102 25.952c0 .381.593.381.593 0l-.362-90.831z" fill="#7464DC"/><path d="M102.225 393.332c-2.079-.333-6.213-1.206-6.455-1.22-6.767-.376-13.607-.743-20.423-.656.005 10.25 6.353 17.959 14.413 23.636 1.804-.101 3.603-.207 5.407-.318 2.61-.164 5.244-.415 7.781-1.086 4.515-1.186 8.818-4.114 9.339-9.112.265-2.527-.458-5.171-1.992-7.197-1.954-2.576-4.993-3.555-8.07-4.047z" fill="#C69E83"/><path d="M533.121 376.96c-7.636-9.261-19.584-12.802-30.973-14.765-13.415-2.311-26.955-4.023-40.428-6.001-13.555-1.987-27.1-4.148-40.712-5.706-6.73-.772-13.464-1.259-20.226-1.655-2.345-.14-4.983-.458-6.691-2.253a2.852 2.852 0 01-.164-.183 30.69 30.69 0 00-8.982 8.837c-1.447 2.185-2.624 4.573-3.41 7.077-.56 1.784-.883 3.68-.261 5.494.536 1.558 1.602 2.909 2.61 4.192 7.009 8.928 16.955 15.199 27.548 19.025 5.755 2.079 11.693 3.448 17.713 4.355 8.056 1.751 16.372 2.986 23.506 6.291 8.456 3.921 14.592 11.085 22.079 16.415 2.904 2.069 7.269 5.311 10.969 3.27 1.307-.723 2.282-2.05 2.156-3.593-.149-1.896-1.722-3.343-2.88-4.704a52.478 52.478 0 01-7.698-12.083c3.386.974 6.767 1.954 10.221 2.682 11.423 2.402 23.666 3.029 34.881-.709 5.209-1.737 11.485-4.486 14.495-9.353 3.382-5.48-.111-12.219-3.753-16.633zM291.21 429.818c-.713.213-1.562.594-2.416 1.105-3.218.579-6.348 2.301-5.837 5.784.68 4.626 8.114 4.447 11.408 4.071 3.753-.434 10.227-2.475 8.77-7.607-1.274-4.476-8.432-4.39-11.925-3.353z" fill="#DCDAF1"/><path d="M411.668 379.189c-3.101-2.861-7.269-4.221-11.374-4.824-10.057-1.481-20.313.405-30.317 1.433-20.361 2.093-40.915.14-61.247 2.561-7.212.859-14.375 2.282-21.259 4.573-.472-.892-.926-1.789-1.302-2.725-1.066-2.663-1.148-5.413-.859-8.239.304-2.976.931-5.958.656-8.963-.26-2.831-1.423-5.513-3.13-7.771-3.565-4.717-9.112-7.24-14.814-8.258-6.179-1.105-13.058-1.066-19.059.873-5.89 1.901-10.964 5.697-16.878 7.54-2.663.829-5.494 1.287-8.278.921a11.2 11.2 0 01-.646-.106c-1.915 1.264-3.801 2.585-5.465 4.167-2.21 2.099-3.584 4.496-4.52 7.376-.753 2.315-1.578 4.563-3.507 6.16-3.565 2.952-8.673 3.049-13.058 3.377a248.118 248.118 0 00-19.999 2.3c-6.29.985-12.643 2.075-18.794 3.744-5.446 1.476-12.31 3.902-15.175 9.194-1.587 2.937-.907 6.165 1.804 8.133 2.557 1.852 5.837 2.001 8.876 2.088 13.304.372 26.627.425 39.887 1.66 6.493.607 12.952 1.514 19.348 2.812 6.266 1.273 12.475 2.822 18.741 4.095 13.024 2.639 26.357 3.454 39.376.246 4.361-1.075 8.774-2.725 12.378-5.465a62.66 62.66 0 0110.25-1.534c10.863-.738 21.726.892 32.43 2.576 5.625.887 11.249 1.761 16.883 2.547 5.422.757 10.897 1.679 16.372 1.915 5.051.217 10.082-.521 14.804-2.354 4.559-1.77 8.505-4.534 12.219-7.67 8.017-6.768 18.132-16.936 29.705-12.411.159.062.313-.097.318-.242.15-3.733-1.645-7.221-4.366-9.729zm-21.239 42.801c-.144-.202-.371-.361-.699-.424-2.899-.579-7.178-.097-9.397 2.098-2.011 1.992-1.784 5.012.492 6.671 2.731 1.988 7.8 1.93 10.97 1.501 2.682-.362 5.716-1.684 6.656-4.453 1.568-4.635-3.449-5.701-8.022-5.393z" fill="#DCDAF1"/><path d="M163.983 239.792L55.83 236.276l18.118-24.91 108.149 3.516-18.114 24.91z" fill="#7464DC"/><path d="M164.079 239.83L12.069 355.648V241.827l48.43-5.19 103.58 3.193z" fill="#000"/><path d="M160.395 236.328c-.178-1.659-1.095-3.063-2.045-4.384-1.298-1.809-2.518-3.502-2.663-5.808-.149-2.378.507-4.781.753-7.139.275-2.62.371-5.268.26-7.902-.067-1.572-.424-2.426-2.088-2.58-4.12-.377-7.993 1.799-11.134 4.245-3.883 3.019-7.245 6.946-11.924 8.774-1.746.68-3.767.96-5.687.724-.169-.41-.309-.845-.434-1.288-.579-2.055-.82-4.183-1.539-6.199-.729-2.04-1.804-3.989-3.338-5.538-3.256-3.289-7.93-3.752-12.301-3.048-5.48.887-10.559 3.642-16.15 3.931-5.788.299-10.925-2.889-15.677-5.798-8.789-5.383-18.417-12.223-29.328-10.55-8.206 1.259-15.128 8.177-16.469 16.363-.13.8-.106.714-1.06.574-.56-.082-1.12-.203-1.67-.333-1.38-.319-2.74-.733-4.139-.95-2.035-.314-4.11-.145-5.793 1.143-3.502 2.672-4.341 8.224-4.486 12.315a27.46 27.46 0 00.574 6.531 6.186 6.186 0 00-2.19.328c-.304.106-.174.589.135.483a5.767 5.767 0 012.166-.304c.068.299.14.593.212.892.082.314.565.179.482-.135-.062-.232-.115-.473-.168-.709 1.881.241 3.666 1.269 5.315 2.248 2.215 1.312 4.424 2.479 6.855 3.328 5.46 1.91 11.215 3.116 16.806 4.578l34.996 9.146c5.876 1.534 11.751 3.068 17.621 4.606 5.196 1.361 10.42 2.938 15.784 3.464 4.814.468 9.826-.092 13.955-2.793.207-.135.405-.275.608-.42.062.048.12.102.183.15 3.295 2.629 6.961 3.261 10.989 2.016 4.331-1.336 8.316-3.984 11.909-6.686 3.223-2.421 6.884-5.065 9.204-8.412.994-1.423 1.669-3.107 1.476-4.863z" fill="#FFC93D"/><path d="M120.217 359.17l-108.149-3.522V241.827l108.149 3.517V359.17z" fill="#fff" stroke="#000" stroke-width=".477"/><path d="M164.08 353.651l-43.867 5.528V245.358l43.867-5.528v113.821z" fill="#fff" stroke="#000" stroke-width=".477"/><path d="M119.702 274.364l-.087-22.04c0-.323-.501-.323-.501 0 .101 25.711.202 51.422.308 77.132l.087 22.04c0 .323.502.323.502 0-.101-25.711-.207-51.421-.309-77.132z" fill="#fff"/><path d="M120.28 245.363l-58.965-1.919-7.926-.256-41.257-1.341L.41 221.92l39.425 1.278 10.14.333 58.584 1.905 11.721 19.927z" fill="#fff" stroke="#000" stroke-width=".477"/><path d="M61.314 243.444c-.038-.338-6.903-13.574-11.34-19.912l-10.135-.333c5.87 7.78 12.604 19.608 12.604 20.076.039 6.594 1.009 48.228 1.09 54.528.005.198-.65.362-.487.275a3.763 3.763 0 001.54-1.414l1.514 1.747c.169.197.477-.015.424-.246-.41-1.631 1.578-1.23 2.214-1.062.444.121.883.319 1.312.468.927.333 1.848.666 2.774.994.15.053.323-.087.318-.241-.56-11.529-1.114-48.841-1.828-54.88zm30.863 24.523v-5.72l-8.726-.324v5.721c0 2.62 1.64 4.839 3.768 5.263v5.673l-3.613 1.36 8.441.314-3.459-1.612v-5.716c2.04-.357 3.59-2.412 3.59-4.959z" fill="#7464DC"/><path d="M97.604 283.283l-20.1-.748a2.455 2.455 0 01-2.345-2.431v-21.109a2.245 2.245 0 012.344-2.257l20.101.748a2.455 2.455 0 012.344 2.431v21.109a2.24 2.24 0 01-2.344 2.257zm-20.1-26.039a1.764 1.764 0 00-1.843 1.776v21.108c0 1.018.825 1.872 1.843 1.911l20.1.747a1.762 1.762 0 001.843-1.775v-21.109a1.928 1.928 0 00-1.843-1.91l-20.1-.748z" fill="#7464DC"/><path d="M350.571 229.271c-.589-3.767-2.041-7.477-3.56-10.993a72.614 72.614 0 01-.218-4.351c-.043-2.219.165-4.424.169-6.633 0-.969-.453-2.306-1.683-2.069-1.452.28-2.012 2.725-2.267 3.868-.787 3.493-1.332 7.453-1.129 11.076-1.77-.907-2.962-.434-4.192 1.08-1.548 1.901-1.683 4.53-1.852 6.869-.164 2.311-.179 4.795 1.032 6.855.714 1.215 1.766 2.185 2.426 3.439.743 1.418 1.076 2.962 1.076 4.554 0 .178.159.265.318.241 2.977-.439 5.967-.806 8.963-1.1.101-.009.222-.072.241-.183.666-4.177 1.336-8.437.676-12.653z" fill="#FEA679"/><path d="M423.767 194.319c-.435-.738-.999-1.418-1.694-1.93-.313-.231-.641-.318-.796-.694-.106-.261.044-1.008.029-1.283-.193-3.7-2.735-6.725-6.208-7.805.159-.333.309-.671.434-1.023.106-.304-.342-.526-.453-.222-.56 1.587-1.544 2.919-2.436 4.327a38.145 38.145 0 00-2.277 4.149 38.531 38.531 0 00-3.01 9.252c-.27 1.423-.458 2.913.236 4.245.695 1.326 1.925 2.243 2.586 3.613 1.737 3.588.82 7.665-.029 11.359-.048.213.212.382.391.256a41.082 41.082 0 005.156-4.307c1.366-1.351 2.885-2.842 3.527-4.704.212-.617.265-1.191.767-1.645.361-.328.873-.554 1.259-.868a10.187 10.187 0 001.876-1.987 10.102 10.102 0 001.881-5.417c.087-1.833-.304-3.734-1.239-5.316z" fill="#5F3C36"/><path d="M393.994 256.057c-.622-2.287-2.07-4.515-3.16-6.604l-.173-.337c-1.968-3.777-3.893-7.593-4.974-11.737-2.735 1.076-5.171 1.703-7.665 2.571-.019.005-.038.015-.057.02a35.31 35.31 0 00-3.869 1.587c-2.272 1.104-5.036 3.42-6.845 5.306a8.38 8.38 0 00-.212.217c-.893.95-5.051 5.967-9.151 10.945-1.876 2.277-3.738 4.549-5.272 6.42a3169.43 3169.43 0 00-3.647 4.458c-1.399 2.03.912 1.789.752 4.36-.135 2.263.714 4.708 1.679 6.72 1.582 3.294 3.989 6.102 6.647 8.576.439.406.878.811 1.327 1.197.67.579 1.346 1.148 2.035 1.693.14.12.285.231.43.347.916.729 2.248 2.248 3.439 1.283.463-.371 4.65-4.225 8.958-8.205 1.032-.95 2.069-1.915 3.068-2.836 3.68-3.401 6.767-6.271 6.767-6.271 6.652-7.901-.323-4.602 6.339-12.503 1.158-1.37 2.711-2.764 3.391-4.419.347-.844.473-1.77.193-2.788z" fill="#EFEEFE"/><path d="M504.926 320.04c-3.502-2.523-24.066-23.82-27.462-28.156-3.135-4.004-5.581-8.48-8.002-12.933-1.25-2.296-2.489-4.597-3.821-6.845a80.545 80.545 0 00-2.18-3.482c-.222-.333-.444-.685-.675-1.033l-8.085 6.744c-.887.738-1.775 1.481-2.663 2.219-.873.728-6.377 2.793-6.333 4.086.034 1.008 12.71 23.491 15.286 26.4 2.272 2.561 5.282 4.317 8.336 5.788 3.531 1.698 7.211 3.083 10.853 4.53 0 0 12.257 3.801 22.773 7.954 1.423-2.793.565-2.469 1.973-5.272z" fill="#FEA679"/><path d="M402.609 182.423a17.28 17.28 0 00-1.321-2.011c.033-.164-.107-.323-.256-.323-1.491-1.862-3.521-3.551-5.726-3.536a3.258 3.258 0 00-1.727.497c-.226.144-.429.453-.69.468-.057.004-.67-.43-.699-.444-1.418-.762-3.14-.868-4.718-.825-3.338.092-6.849 1.264-9.078 3.854-1.958 2.277-2.788 5.408-1.881 8.287-3.821.907-6.401 4.216-7.752 7.767-.622 1.63-1.288 3.825-.169 5.402.704.989 2.017 1.486 3.102 1.008-.082 2.239 2.146 3.715 4.293 3.628 2.986-.116 5.919-2.205 7.761-4.438.656-.791.907-1.712 2.084-1.698.782.01 1.457.27 2.272.169 1.573-.193 3.025-.941 4.303-1.848 2.508-1.78 4.824-4.269 6.073-7.105 1.442-3.28.603-7.313 2.509-10.376.438.574.839 1.182 1.196 1.819.169.27.579-.015.424-.295z" fill="#5F3C36"/><path d="M538.104 343.874c-1.558-2.456-3.502-4.539-5.697-6.295-3.487-3.141-7.993-5.437-12.103-7.125-4.983-2.05-10.269-2.971-15.556-3.849-5.465-.912-10.94-1.804-16.411-2.673-5.74-.911-11.509-1.751-17.326-1.736a53.32 53.32 0 00.588-1.886c.092-.314-.396-.444-.482-.135-.193.68-.415 1.355-.642 2.021-.203 0-.4-.005-.603 0-.323.005-.323.511 0 .501.145-.004.289 0 .434 0-2.402 6.85-6.227 13.131-8.398 20.072-.434 1.385-.251 2.041 1.167 2.48 1.872.583 3.758 1.128 5.644 1.688-1.273.641.444 2.016-3.618 4.452-.091.053-.12.198-.082.294 5.268 12.634 11.109 25.041 17.583 37.1 1.08 2.007 2.253 3.323 4.679 2.846 3.145-.622 6.261-1.606 9.358-2.436 6.667-1.795 19.913-5.065 25.851-7.887 5.47-2.6 10.945-5.952 14.847-10.665 6.348-7.684 5.972-18.572.767-26.767z" fill="#FFC93D"/><path d="M369.132 279.434c-1.934-1.954-2.484-4.515-3.574-6.946-1.11-2.48-3.025-4.414-5.369-5.755-2.383-1.36-4.944-2.031-7.583-2.277a2899.584 2899.584 0 00-3.647 4.457c-1.399 2.031.912 1.79.753 4.361-.135 2.262.714 4.708 1.678 6.719 1.583 3.295 3.99 6.102 6.647 8.577 1.12.863 2.195 1.78 3.223 2.754.043.044.096.092.14.135.14.121.284.232.429.348.916.728 2.248 2.248 3.439 1.283.463-.372 4.65-4.226 8.958-8.205-.912-2.398-3.362-3.71-5.094-5.451z" fill="#7464DC"/><path d="M475.902 281.724c-.068-.217-.4-.603-.507-.762a79.808 79.808 0 01-2.045-3.3c-.391-.67-.776-1.341-1.158-2.021a181.503 181.503 0 01-2.797-5.195 45.053 45.053 0 00-1.689-2.933c-2.571-4.115-6.135-8.596-9.951-12.831-4.202-4.67-8.707-9.035-12.527-12.272-.058-.048-.116-.101-.169-.144a20.761 20.761 0 00-6.604-3.85c-.101-.034-.207-.077-.313-.116-.357-.125-.738-.25-1.153-.371a214.013 214.013 0 00-7.805-2.118 13.67 13.67 0 01-.28-.058c-2.503-.429-5.489 1.317-7.814.951l-.377.878c.063 1.239 1.616-.917 2.094.26a9.1 9.1 0 01.685 3.806c-.092 3.116-.246 6.073.395 9.141.015.087.029.169.049.256.849 3.815 2.74 7.197 4.91 10.409 1.389 2.06 2.885 4.052 4.308 6.04 3.473 4.886 6.951 9.773 10.424 14.659.222.304.434.613.651.917 0 .004.005.004.005.009l.415.589c1.191 1.674 2.383 3.347 3.569 5.026.237.333.473.666.71.994.463.646.897 1.466 1.447 2.035.95.975 1.78.555 2.817.232 1.273-.396 2.542-.815 3.81-1.24a153.92 153.92 0 0016.088-6.521c.714-.338 1.418-.681 2.127-1.028.666-.342 1.032-.313.685-1.442z" fill="#EFEEFE"/><path d="M365.326 286.891c-.603-1.466-1.423-2.87-2.315-4.211-.777-1.172-1.616-2.301-2.431-3.401-1.92-2.6-4.192-5.142-6.917-6.932-1.578-1.046-3.319-1.833-5.22-2.238-1.833-.386-4.983-.265-5.099 2.292-.048 1.123.7 1.799 1.573 2.402a32.765 32.765 0 002.658 4.423c1.915 2.711 4.187 5.176 6.57 7.496 1.061 1.033 2.127 2.089 3.232 3.102a33.691 33.691 0 002.672 2.204c1.206.883 4.052 2.764 5.398 1.115 1.312-1.616.574-4.559-.121-6.252z" fill="#1F3044"/><path d="M455.945 325.689c-2.33-5.799-6.705-10.666-11.838-14.399-6.063-4.409-13.357-7.376-20.959-8.124-3.743-.366-7.617-.207-11.278.676-1.789.434-3.55 1.066-5.108 2.011-.724.439-1.307 1.081-2.016 1.515-.628.386-1.756.468-2.581.449l.434-.767c.164-.285-.289-.536-.453-.256-.107.183-.208.367-.314.55a.256.256 0 00-.135-.048c-.463-.034-1.211.197-.81.781.091.135.241.193.395.236-3.459 6.098-4.322 7-7.337 18.389-1.789 6.753-3.627 14.509-2.093 21.528 1.427 6.541 5.422 12.759 11.307 15.832 6.232 3.256 18.846 4.51 26.004 4.018 7.149-.492 10.333.28 15.957-3.768 2.764-1.992.984-10.052 3.541-12.281 2.547-2.219 4.949-4.674 6.57-7.607 3.159-5.735 3.116-12.759.714-18.735z" fill="#FFC93D"/><path d="M403.858 231.654a248.864 248.864 0 00-8.215 2.301c1.134 2.918 3.946 4.819 7.009 5.976 3.898 1.472 10.106 1.973 13.67-.492 1.872-1.297 3.102-3.463 3.165-5.552a238.881 238.881 0 00-15.629-2.233z" fill="#3E3F78"/><path d="M444.282 291.589c-.758 5.518-2.919 10.796-.676 16.063-15.397 2.484-30.983 4.462-45.975 8.775-7.047-6.339-10.598-13.102-14.003-20.545-1.134-2.484-2.258-5.045-3.488-7.694-.429-.916-.863-1.842-1.322-2.783a76.369 76.369 0 01-1.534-3.353c-2.267-5.291-3.892-10.81-4.727-16.473-.555-3.733-.728-7.515-.603-11.316.077-2.094.232-4.192.439-6.286.101-1.012.217-2.03.338-3.043.149-1.226.043-2.731 1.563-3.44 1.182-.554 2.416-1.046 3.661-1.514.019-.005.039-.015.058-.02 1.225-.458 2.47-.892 3.68-1.341 2.658-.984 5.34-1.919 8.046-2.807.01-.005.02-.005.029-.01.174-.053.353-.115.526-.168 1.77-.579 3.55-1.129 5.335-1.67 1.134 2.919 3.946 4.819 7.009 5.977 3.898 1.471 10.106 1.973 13.671-.492 1.871-1.297 3.101-3.463 3.164-5.552.521.092 3.246.603 5.335 1.008.164.029.328.063.478.092.583.116 1.095.222 1.456.294.714.15 1.433.304 2.147.463l.28.058c2.677.666 5.34 1.404 7.805 2.118.41.12.796.246 1.152.371.107.039.213.082.314.116 3.16 1.23 3.898 2.754 3.898 2.976-.029.97-.082 1.939-.126 2.914-.641 12.758 1.447 26.062 2.007 38.763v.01c.01.251.024.502.038.752.044 1.033.116 2.055.203 3.083.14 1.572.039 3.13-.178 4.674z" fill="#EFEEFE"/><path d="M184.528 384.953c-.806 1.365-2.065 2.291-3.382 2.875-2.47 1.09-5.19 1.148-7.636 2.33-2.113 1.022-3.232 2.812-4.529 4.881-3.541 5.634-10.4 5.769-15.769 4.284-1.341-.372-2.962-.758-3.806-2.142-.704-1.167-.642-2.696-.275-3.984.868-3.049 3.449-4.863 5.6-6.628 3.951-3.242 12.325-8.22 14.65-13.188 1.848 2.387 5.75 1.794 8.22 1.37 4.09-.705 3.482-1.216 7.226-3.146a14.814 14.814 0 00-.449 3.777c.024 1.616.42 3.126.704 4.694.319 1.708.328 3.386-.554 4.877z" fill="#3E3F78"/><path d="M444.47 286.906c.13 1.582.024 3.14-.193 4.684-1.481-.005-2.957-.044-4.433-.073-3.29-.072-6.599-.12-9.874.275-3.039.362-5.9 1.216-8.741 2.335-2.798 1.109-5.596 2.354-8.586 2.841-3.56.579-7.125-.13-10.617-.825-3.049-.603-6.088-1.09-9.204-1.153a40.153 40.153 0 00-9.189.883c-1.134-2.484-2.258-5.046-3.488-7.694a18.426 18.426 0 013.473-.936c2.957-.506 5.991-.371 8.967-.101 5.615.511 11.307 1.611 16.932.617 5.837-1.037 11.123-4.404 17.095-4.751 3.28-.188 6.16 1.081 9.305 1.713 2.658.53 5.33.236 7.858-.719.164-.058.333-.126.492-.193.048 1.047.121 2.069.203 3.097zm27.722-11.269a51.625 51.625 0 00-4.018 2.19c-2.523 1.524-4.829 3.333-7.207 5.065-2.383 1.746-4.911 3.347-7.829 3.974-1.587.343-3.097 1.443-4.264 2.75-1.187-1.679-3.03-4.288-4.216-5.957 4.833-2.084 8.533-5.963 12.397-9.44 2.455-2.21 5.05-4.231 8.055-5.639a32.976 32.976 0 012.6-1.076 45.862 45.862 0 011.689 2.933 163.32 163.32 0 002.793 5.2z" fill="#7464DC"/><path d="M253.266 243.155c-.058.168-.111.342-.164.511-.357 1.162-.617 2.315-.69 3.449a279.81 279.81 0 01-.878 10.815c-.342 3.391-.579 6.883-1.428 10.197-.786 3.054-2.276 5.803-5.084 7.424-2.908 1.679-6.396 2.441-9.532 3.594-3.067 1.128-6.304 2.219-9.087 3.97-1.472.926-2.707 2.108-3.831 3.386-.93 1.047-1.784 2.161-2.653 3.256-1.133 1.437-2.272 2.875-3.4 4.312-.516.652-1.037 1.308-1.549 1.959-.246.313-.521.936-1.003.907-.232-.015-.946-.584-1.148-.709-2.923-1.814-5.842-3.642-8.673-5.601a98.206 98.206 0 01-5.379-3.979c-.4-6.594-2.566-13.7-6.589-18.89-.376-.487-.767-.999-1.187-1.491.642-2.962-.545-9.093-.545-9.093s7.916-7.689 20.439-14.056c7.033-3.574 12.725-5.514 20.235-7.443a90.616 90.616 0 0112.064-2.233c.391-.044.82-.107 1.284-.164.154-.025.323-.049.492-.078 2.72-.405 6.362-1.046 9.932-1.225.323-.019.646-.029.969-.038.671 3.608-1.365 7.457-2.595 11.22z" fill="#fff"/><path d="M303.264 263.684c-.068-4.038-.116-8.08-.353-12.113-.11-1.9-.101-3.979-.689-5.798-.608-1.867-2.079-3.024-3.71-3.989-6.232-3.685-13.236-6.608-20.477-8.393a15.275 15.275 0 00-.521-.126 65.352 65.352 0 00-5.836-1.128c-4.703-.7-9.44-.883-14.057-.454a121.97 121.97 0 00-7.452.941c-1.727.27-3.44.569-5.143.892-.164.029-.332.058-.492.097-5.19.998-10.322 2.204-15.715 3.391-1.795.39-4.67.554-5.794 2.219-1.124 1.678-.41 4.515-.284 6.406.308 4.544.497 9.097.588 13.651.174 9.078-1.838 37.765-2.518 46.814 0 .029-2.889 12.05 1.414 27.148 15.19 5.63 22.994 5.268 38.71 9.223 3.748.946 7.516 1.843 11.288 2.687 2.117.478 4.341 1.148 6.512.613 1.476-.362 2.783-1.206 3.888-2.234 2.388-2.218 9.647 4.911 11.056 2.012 1.539-3.179 3.304-16.324 3.516-19.85 1.255-20.607-.135-27.264-.082-41.542.034-8.075 6.286-12.387 6.151-20.467z" fill="#fff"/><path d="M268.673 235.247c.323-1.35.516-2.764.801-4.095 1.553-7.212 3.642-15.938 5.195-23.149a204.65 204.65 0 01-18.186-1.206c-.357 9.102-1.953 19.517-3.883 28.585 5.316-.603 10.723.02 16.073-.135z" fill="#C8643C"/><path d="M489.123 389.097c.338-1.578-.048-3.266-.366-4.805a44.856 44.856 0 00-1.462-5.403 18.813 18.813 0 00-.333-.926c-1.297-3.54-3.063-6.893-4.741-10.26-.734-1.476-1.448-2.971-2.171-4.462-1.322-2.745-2.658-5.489-4.168-8.123-.979-1.703-2.166-3.271-3.613-4.607a8.798 8.798 0 00-.863-.738.2.2 0 00-.155-.212c-.087-.029-.164-.043-.251-.068-.641-.381-1.35-.559-2.059-.106a.225.225 0 00-.097.131c-1.471.395-2.706 1.543-3.318 3.043-1.206 2.972-.082 6.17 1.013 8.987a105.979 105.979 0 0010.993 21.075 112.61 112.61 0 003.598 5.022c.984 1.288 1.968 2.923 3.3 3.873 2.011 1.433 4.24-.342 4.693-2.421z" fill="#1F3044"/><path d="M282.927 190.744a8.268 8.268 0 00-1.129-2.721c-1.953-3.048-5.759-4.765-9.555-5.513-2.745-.545-5.582-.468-8.355-.106-2.46.328-5.099.747-7.192 2.195-4.158 2.875-7.029 8.697-7.516 13.603-.207 2.093-1.104 7.867 2.195 15.079 1.577 1.731 3.063 3.685 3.825 6.304.034.044.068.087.111.135a40.36 40.36 0 003.271 3.724c1.625 1.65 5.836 5.47 13.907 5.432 4.751-.024 8.904-3.314 10.438-7.323 3.068-8.026 1.959-21.933 0-30.809z" fill="#C8643C"/><path d="M482.226 367.703c-.733-1.476-1.447-2.972-2.171-4.462-3.579 1.635-7.139 3.338-10.699 4.91-2.368 1.047-4.737 2.036-7.12 2.914a142.466 142.466 0 01-14.611 4.481c-.12.034-.256.15-.217.299.637 2.576 1.254 5.157 1.91 7.728.483 1.881 1.621 1.379 3.174 1.085 5.06-.984 10.121-1.968 15.181-2.947 2.74-.531 5.484-1.066 8.224-1.592 3.69-.714 7.381-1.433 11.071-2.147-1.298-3.545-3.063-6.902-4.742-10.269zm-80.162-133.434c4.529-.42 9.392-.231 14.013.516a175.586 175.586 0 01-7.39-23.964 173.26 173.26 0 01-16.218 4.385l7.945 19.459a6.095 6.095 0 011.65-.396z" fill="#FEA679"/><path d="M474.237 381.204a.266.266 0 00-.024-.101c-1.206-2.586-2.47-5.707-3.676-8.292-.048-.097-.183-.145-.284-.116-4.226 1.221-9.286 3.536-13.16 1.245-1.5-.888-2.715-1.626-4.404-2.055-1.814-.463-3.55.096-5.171 1.182-2.161 1.447-4.032 3.603-6.468 4.471-1.428.512-2.682.241-4.096.053-1.746-.226-3.483.15-5.137.951-3.242 1.577-6.604 4.606-7.926 8.272-1.225 3.387.049 8.307 3.826 8.423 1.876.057 3.753-1.399 5.426-2.268 1.742-.902 10.699-4.095 16.498-5.832 3.646-1.09 24.663-5.822 24.596-5.933z" fill="#fff"/><path d="M413.68 194.439c-.941-5.07-4.23-10.01-9.218-11.765-2.687-.946-5.731-1.616-8.582-1.385-2.161.174-4.264.656-6.41.859-2.031 1.104-3.753 2.648-4.863 4.737-4.713 8.832-6.439 24.167-4.003 32.3 1.186 3.955 5.45 6.666 10.014 6.955 7.751.497 13.525-4.351 15.185-5.841 11.09-9.98 10.704-20.438 10.54-23.921-1.187.149-2.378-.41-2.663-1.939z" fill="#FEA679"/><path d="M244.583 327.864c-2.778-1.239-5.687-.723-8.359.415-4.698-8.687-9.57-17.298-15.349-25.315-3.305-4.583-6.903-8.967-10.892-12.976-3.97-3.984-8.403-7.978-13.396-10.646-4.766-2.547-10.024-2.971-15.05-.912-4.915 2.017-8.885 5.823-11.601 10.338-3.092 5.142-4.708 11.003-5.996 16.815-1.467 6.614-2.711 13.285-3.84 19.961a454.265 454.265 0 00-5.359 46.057.252.252 0 00.125.217c11.867 6.315 25.711 8.664 38.991 6.527 1.24-.198 2.783-.265 3.893-.893 1.138-.646 1.312-2.098 1.635-3.246a208.636 208.636 0 004.988-22.599 100.528 100.528 0 003.323 4.881c4.057 5.577 9.189 11.939 16.526 12.812 6.942.83 13.082-3.844 16.99-9.146 4.751-6.444 7.216-14.731 7.52-22.676.13-3.753-.28-7.892-4.149-9.614z" fill="#1F3044"/><path d="M199.529 261.952c-2.137-2.909-5.47-4.727-9.083-4.785-.053.039-.106.082-.159.121a37.175 37.175 0 00-5.176 4.872c-1.447 1.654-2.851 3.405-3.574 5.503-.097.275.289.406.444.203a37.084 37.084 0 016.608 2.426c1.698.83 3.439 2.128 5.408 2.157 1.726.029 3.27-.936 4.461-2.113 1.288-1.274 2.557-2.856 3.363-4.496-.661-1.375-1.414-2.692-2.292-3.888z" fill="#C8643C"/><path d="M490.976 315.317c-.974-6.111-2.311-12.334-4.722-18.06-2.2-5.219-5.48-10.212-10.555-12.932-16.256-8.717-35.585 11.229-42.063 18.122-10.916 11.616-20.921 24.303-28.05 38.624-.444.897-.878 1.795-1.298 2.702-.111-.082-.275-.087-.357.067-3.598 6.797-1.317 15.962 5.017 20.332 4.206 2.904 9.715 3.261 14.659 3.522 4.901.26 9.86.101 14.684-.845.622-.12 1.244-.26 1.857-.41a98.91 98.91 0 00-.294 5.22c-.005.13.12.26.251.251a264.94 264.94 0 0020.66-2.046c6.623-.921 13.352-1.905 19.806-3.671a47.744 47.744 0 004.583-1.49c1.403-.545 3.053-1.105 4.249-2.031.874-.675 1.177-1.548 1.361-2.61.265-1.563.41-3.159.588-4.737.748-6.647 1.177-13.332 1.158-20.028-.015-6.681-.482-13.371-1.534-19.98z" fill="#FFC93D"/><path d="M360.58 279.274c-1.919-2.6-2.99-6.343-10.105-8.774-2.046 2.282-.883 6.416-2.899 8.721-.217.246-.435.492-.647.738-4.606 5.282-5.508 7.825-9.975 13.232-.005.005-2.219-3.353-2.224-3.348.926 1.361 2.687 6.339 3.767 7.54 1.365 1.519 2.311 3.685 4.187 3.516 3.565-.308 5.895-1.399 8.538-3.81.96-.874 3.469-3.913 6.151-7.275 1.958-2.445 4.008-5.065 5.639-7.144-.782-1.162-1.621-2.296-2.432-3.396zm43.278-47.62a248.864 248.864 0 00-8.215 2.301c1.134 2.918 3.946 4.819 7.009 5.976 3.898 1.472 10.106 1.973 13.67-.492 1.872-1.297 3.102-3.463 3.165-5.552a238.881 238.881 0 00-15.629-2.233z" fill="#FEA679"/><path d="M268.697 206.538c.924 0 1.674-1.359 1.674-3.035 0-1.675-.75-3.034-1.674-3.034-.925 0-1.674 1.359-1.674 3.034 0 1.676.749 3.035 1.674 3.035zm10.593-.498c.924 0 1.674-1.358 1.674-3.034 0-1.676-.75-3.034-1.674-3.034-.924 0-1.674 1.358-1.674 3.034 0 1.676.75 3.034 1.674 3.034z" fill="#1F3044"/><path d="M278.812 207.454c-.231-1.052-1.08-1.978-1.678-2.837-.787-1.128-1.568-2.257-2.354-3.391-.188-.275-.642-.014-.449.266 1.081 1.553 2.195 3.082 3.237 4.659.694 1.052 1.1 1.983.029 3.097-.618.642-1.394 1.187-2.07 1.766-.255.217.116.588.372.371 1.172-1.003 3.318-2.103 2.913-3.931z" fill="#8A3D1E"/><path d="M274.9 209.117c-.873.183-1.712.454-2.527.806-.309.13-.044.583.265.448a12.674 12.674 0 012.402-.752c.328-.068.188-.569-.14-.502zm2.962 4.588l-8.46.029h-.782c1.057 2.412 2.812 4.761 5.707 4.684 2.59-.068 3.584-2.398 4.071-4.718h-.536v.005z" fill="#8A3D1E"/><path d="M269.401 213.734c1.158 1.341 2.716 2.301 4.8 2.253 1.833-.049 2.952-.999 3.661-2.282l-8.461.029z" fill="#FAF7F5"/><path d="M271.944 195.51c-1.124-2.34-4.761-2.046-6.585-1.066-.791.424-2.233 1.751-1.259 3.458.68 1.192 2.321.767 3.396.743 1.708-.034 2.784.598 4.047-.477.748-.637.82-1.785.401-2.658zm4.081 2.267c1.163 1.076 2.151.444 3.719.477.989.02 2.494.449 3.121-.742.897-1.708-.429-3.035-1.158-3.459-1.673-.979-5.021-1.274-6.053 1.066-.386.873-.319 2.021.371 2.658z" fill="#1F3044"/><path d="M281.799 188.023c-.063.048-.14.068-.227.048-6.473-1.722-14.365-3.608-20.052 1.182-2.644 2.229-3.203 5.273-4.023 8.456-.536 2.094-1.848 3.763-3.888 5.046-2.263 1.418-.449 5.359.145 7.838.458 1.911.921 3.821 1.379 5.731.126.757.208 1.52.265 2.282-.028.371-.067.747-.086 1.124-.01.058-.01.12-.015.183-.024-.111-.058-.212-.092-.318-.762-2.615-2.252-4.569-3.825-6.305-2.18-2.407-4.428-4.438-5.354-7.221-3.372-10.159-.005-18.22 8.056-22.614 7.385-4.023 22.662-3.521 27.784 4.24.078.111.029.251-.067.328z" fill="#5F3C36"/><path d="M257.621 231.678c-2.542.237-5.036.348-7.476.733.159 1.877 1.017 3.917 2.411 5.249 2.871 2.735 7.289 3.164 10.892 1.804 3.199-1.211 6.821-3.999 8.235-7.332-4.708-.7-9.44-.883-14.062-.454zm-1.205-28.074a3.744 3.744 0 00-.955-.796c-1.201-.69-2.653-.531-3.734.309-2.257 1.755-1.727 5.113.02 7.042 1.712 1.886 5.349 2.711 6.608-.101 1.028-2.306.087-5.079-1.939-6.454z" fill="#C8643C"/><path d="M254.472 207.545c-.101-.376-.227-1.688.54-1.582.275.038.473-.314.203-.478-1.057-.641-2.658-1.162-3.415.188-.164.295.284.555.448.266.478-.849 1.389-.656 2.147-.304-.29.217-.458.593-.507 1.022-.106.907.28 1.776.955 2.369.251.222.623-.145.372-.372-.347-.294-.618-.656-.743-1.109z" fill="#8A3D1E"/><path d="M244.357 292.675c-1.983-1.22-6.194-3.439-6.189-3.488a70232.08 70232.08 0 00-24.606-18.923c-3.396-2.61-13.043-9.146-16.873-10.902-4.091-1.876-.893-.791-5.152-.043-3.84.675-9.32 5.142-10.28 9.604-.964 4.462 2.142 8.625 5.533 10.877 3.647 2.422 7.95 3.691 11.91 5.249 4.255 1.673 8.504 3.376 12.841 4.727 7.462 2.325 13.4 4.076 20.954 5.977.126 4.775 3.247 11.417 4.65 14.509 3.985-1.62 12.016-4.732 15.494-7.168-2.166-3.96-4.177-7.891-8.282-10.419z" fill="#C8643C"/><path d="M249.08 379.165c-2.957.004-5.919.834-8.828 1.553-.009 3.893.044 7.848-.342 11.678-.357 3.555-1.766 6.522-3.252 9.527-1.398 2.832-2.932 5.928-2.865 9.368.092 4.848 4.226 6.068 7.458 6.054 3.01-.015 6.459-.256 9.083-2.272 1.254-.965 2.286-2.456 2.764-4.197.366-1.336.091-6.131.173-10.058.473-.728 1.062-1.37 1.549-2.093a6.917 6.917 0 001.08-2.803c.246-1.558.063-3.048-.318-4.515.772-2.224-3.521-12.242-6.502-12.242z" fill="#3E3F78"/><path d="M290.992 335.716c-2.619-5.364-5.513-10.602-8.277-15.894-2.769-5.296-5.47-10.636-8.345-15.88-2.562-4.664-5.446-9.281-9.363-12.942-3.864-3.613-8.813-6.348-14.167-6.734-4.139-.299-9.069 1.298-11.602 4.993-2.87 4.192-4.823 8.924-6.092 13.796-2.093 8.031-3.222 16.275-4.457 24.471-1.269 8.441-2.542 16.883-3.811 25.324-1.23 8.177-2.677 16.358-3.579 24.582a77.397 77.397 0 00-.458 6.368c-.049 1.76-.309 3.96.212 5.667.366 1.192 1.519 1.472 2.61 1.742 1.953.482 3.926.883 5.913 1.196a74.346 74.346 0 0022.797.087c3.946-.593 7.907-1.466 11.684-2.759 1.259-.43 2.397-1.018 3.135-2.166.83-1.293 1.042-2.875 1.249-4.366.468-3.376.724-5.036 1.12-8.422 10.776-3.241 20.332-13.14 23.544-24.08 1.549-5.272.237-10.173-2.113-14.983z" fill="#1F3044"/><path d="M278.035 233.39a31.77 31.77 0 01-2.407 3.218c-4.978 5.817-12.932 9.691-20.655 7.694a13.71 13.71 0 01-1.877-.632c-4.244-1.78-7.602-5.615-8.562-10.053a6.941 6.941 0 01-.067-.343c.154-.024.323-.048.492-.077.019.106.038.217.067.323.497 2.292 1.665 4.438 3.271 6.194a13.804 13.804 0 004.963 3.444c4.781 1.944 10.497 1.226 15.162-1.278 3.777-2.026 6.753-5.084 9.088-8.615.178.038.356.077.525.125z" fill="#7464DC"/><path d="M228.501 323.542a740.558 740.558 0 00-3.546 38.672c-.019.323.482.323.502 0a742.141 742.141 0 013.545-38.672c.039-.323-.463-.319-.501 0zm-21.36 2.623a42.834 42.834 0 00-1.5-7.052 23.383 23.383 0 00-3.169-15.291c-.116-.193-.391-.14-.458.058-1.235 3.502.024 7.037 1.326 10.327a67.638 67.638 0 011.785 5.027l-.058.414c-.029.189.13.314.275.314.473 1.626.859 3.27 1.129 4.968 1.206 7.68.289 15.61-2.595 22.822-.121.299.366.429.482.135a43.917 43.917 0 002.783-21.722zm-2.653-10.414c-1.379-3.531-3.217-7.347-2.161-11.172a22.82 22.82 0 012.948 13.367 48.903 48.903 0 00-.787-2.195zm67.76 36.719c.675-7.944 4.399-16.111.984-23.926-.131-.294-.565-.038-.435.256 3.285 7.525-.246 15.552-1.013 23.207-.694 6.966 2.215 16.049-3.815 21.408-.241.217.116.569.357.357 6.054-5.383 3.323-14.302 3.922-21.302z" fill="#404459"/><path d="M224.922 252.898a95.936 95.936 0 00-2.841 22.503c0 .323.501.323.501 0a95.349 95.349 0 012.822-22.373c.082-.309-.405-.444-.482-.13z" fill="#7464DC"/><path d="M396.474 202.446c-.15 1.626-.994 2.875-1.882 2.789-.887-.082-1.485-1.467-1.331-3.088.15-1.625.994-2.87 1.881-2.788.888.082 1.486 1.467 1.332 3.087zm-10.049-1.013c-.15 1.606-.989 2.846-1.876 2.764-.888-.082-1.486-1.452-1.337-3.063.15-1.606.989-2.846 1.877-2.764.887.082 1.486 1.452 1.336 3.063z" fill="#1F3044"/><path d="M391.168 198.293c.231-.227-.15-.55-.381-.328-.975.95-1.92 1.924-2.827 2.937-.767.859-1.664 1.756-2.084 2.851-.854 2.238 1.592 4.129 2.861 5.668.202.246.622-.034.414-.285-.713-.863-1.442-1.717-2.141-2.595-1.042-1.302-.955-2.455.048-3.801 1.196-1.601 2.682-3.049 4.11-4.447z" fill="#D1724E"/><path d="M391.317 208.978a3.74 3.74 0 00-1.693-1.737c-.289-.144-.511.304-.222.454a3.145 3.145 0 011.437 1.452c.14.289.618.12.478-.169zm3.854 1.485c-3.295.613-6.686.603-10.058.512-.106-.005-.212-.01-.318-.01.058 1.182.429 2.335 1.312 3.256 1.322 1.375 3.444 1.877 5.369 1.085 2.315-.959 3.386-2.899 4.139-4.92-.15.029-.295.058-.444.077z" fill="#D1724E"/><path d="M385.114 210.974c.53 1.756 2.605 1.944 4.293 1.809 1.872-.14 4.587-.328 5.663-2.146.034-.058.068-.116.096-.174-3.289.617-6.68.603-10.052.511z" fill="#FAF7F5"/><path d="M490.025 357.708c-.998-.969-2.46-1.321-3.811-1.471-2.194-.241-4.476-.087-6.656.217a42.22 42.22 0 00-3.777.714c-3.242.748-6.44 1.799-9.619 2.692l-7.805 2.199c-2.648.748-5.296 1.491-7.94 2.243-2.214.623-9.464 2.687-10.549 6.223a4.09 4.09 0 00.665 3.695c2.301 3.02 7.313 2.393 10.618 2.277a83.692 83.692 0 009.84-.907c4.857-.743 9.657-1.934 14.24-3.652a45.594 45.594 0 002.059-.815c3.604-1.505 7.058-3.405 10.145-5.803 2.117-1.649 5.296-4.992 2.59-7.612zm-50.755-6.93c-.034-4.216.106-8.481-.188-12.687-.13-1.886-.439-3.753-1.115-5.523-.636-1.664-1.519-3.218-2.271-4.829-1.853-3.97-2.557-8.316-2.089-12.672.034-.323-.468-.318-.502 0-.424 3.951.087 7.959 1.592 11.645.675 1.654 1.563 3.212 2.301 4.838.945 2.094 1.423 4.255 1.582 6.546.294 4.206.15 8.47.188 12.686.039 4.429.073 8.852.111 13.28.005.323.507.323.502 0-.039-4.428-.072-8.856-.111-13.284z" fill="#1F3044"/><path d="M436.81 334.665c-3.121-3.14-5.895-6.333-6.531-10.877-.044-.319-.531-.184-.483.135.647 4.621 3.483 7.901 6.657 11.099.232.227.589-.13.357-.357z" fill="#1F3044"/><path d="M464.025 387.997c.362 2.928.333 5.812.261 8.711 2.672.343 5.296 1.052 8.022 1.795.612.169 1.225.342 1.833.521l-.193-13.541c.159-4.341 1.64-23.39 1.828-28.315-3.242.748-6.44 1.799-9.619 2.692l-7.804 2.199c.718 4.52 1.707 9.035 2.633 13.531.859 4.11 2.538 8.35 3.039 12.407z" fill="#FEA679"/><path d="M491.849 326.204c-.005-.323-.506-.323-.502 0a277 277 0 01-.849 27.303c-.024.323.478.318.502 0a278.899 278.899 0 00.849-27.303z" fill="#1F3044"/><path d="M492.027 415.922c-.579-1.785-2.585-3.059-3.96-4.347a76.063 76.063 0 01-4.11-4.163c-1.273-1.365-5.735-5.817-7.766-11.35-.666-1.804-1.066-3.729-1.307-5.6-.497-3.864-.319-7.506-.333-9.479 0-.125-.116-.256-.251-.251-4.182.27-8.369.193-12.537-.236-.174-.015-.265.174-.241.323.376 2.219.955 4.399 1.408 6.604.213 1.051.497 2.339.623 3.627.072.685.096 1.365.038 2.017-.173.41-.357.829-.535 1.239-.83 1.896-1.616 3.883-1.423 5.958.173 1.866 1.283 3.314 2.851 4.471 2.088 1.549 4.751 2.591 6.386 4.588.96 1.172 1.129 2.44 1.428 3.839.372 1.718 1.317 3.232 2.629 4.515 2.576 2.528 6.56 4.67 10.453 4.684 3.594.01 7.8-2.841 6.647-6.439z" fill="#fff"/><path d="M419.608 197.623c-.665-1.375-1.63-2.533-3.019-3.175 3.246-3.159 3.188-8.113 1.138-11.943-1.577-2.952-5.533-6.98-8.938-4.351-.189-2.282-2.779-3.131-4.848-2.73-1.775.347-3.57 1.152-4.969 2.368h-.005c-1.394-.13-1.746 1.901-1.977 2.923a12.505 12.505 0 00-.058 5.215c.27 1.341.748 3.015 2.021 3.767.608.357 1.341.439 1.963.217-3.019 5.827-.352 13.309 6.015 15.61 1.177.424 2.687.796 3.859.149.266-.144.382-.357.681-.366.207-.005.689.439.858.54.777.463 1.592.868 2.46 1.124 2.769.825 6.189-.415 6.247-3.685.044-1.867-.617-3.999-1.428-5.663zm-33.921-4.921c-1.485-.019-2.59.4-3.048 1.442-.227.511-.174 1.423.231 1.891.589.675 1.602.434 2.369.569.892.159 1.866.434 2.788.068.699-.28.994-.685 1.013-1.404.053-2.007-1.674-2.542-3.353-2.566z" fill="#5F3C36"/><path d="M392.286 195.365c-.14.704.024 1.312.613 1.785.772.622 1.717.511 2.614.627.772.101 1.809.381 2.571-.087.521-.323.632-1.187.57-1.741-.126-1.134-.98-1.602-2.403-2.022-1.606-.482-3.632-.197-3.965 1.438zm4.945-15.325c-.014.043-.033.082-.053.125a21.572 21.572 0 00-10.786 1.365c-3.034 1.221-6.724 3.338-8.297 6.344-1.225 2.334-.11 5.75 2.977 5.267 1.64-.256 3.092-1.428 4.278-2.513a16.08 16.08 0 001.973-2.166c.666-.878 1.008-1.809 2.195-1.978 3.7-.53 6.835-2.6 8.162-6.217.111-.304-.338-.531-.449-.227zm26.207.01c-2.831-2.629-6.796-2.461-10.188-1.018-.294.125-.13.598.169.472l.251-.101c.188.608.183 1.206.536 1.756.361.56.921.965 1.389 1.428 1.384 1.375 2.291 3.106 2.976 4.91.579 1.52.878 3.189 1.616 4.641.425.834.81 1.548 1.794 1.244 2.49-.767 4.188-3.463 4.462-5.947.319-2.769-.998-5.524-3.005-7.385zm-6 25.527c-.82-5.557-7.443-3.719-10.497-1.365a.223.223 0 00-.091.154c-.126.078-.198.275-.063.42 1.872 1.929 1.355 4.669 1.317 7.096-.044 2.383.994 4.428 2.122 6.464.044.077.145.115.227.106.917-.073 1.553-1.414 2.055-2.079a50.479 50.479 0 002.46-3.594c1.312-2.122 2.856-4.587 2.47-7.202z" fill="#5F3C36"/><path d="M415.547 189.046a5.195 5.195 0 00-1.355-6.493c-.256-.202-.584.179-.328.381a4.685 4.685 0 011.128 6.078c-.072.126.01.27.116.338 2.74 1.732 4.583 4.631 4.829 7.882.217 2.87-.955 7.8-4.477 8.089-.323.029-.284.526.039.502 3.54-.294 4.959-4.819 4.968-7.805.02-3.661-1.91-6.97-4.92-8.972zm-1.515 11.239c-.232 2.972-2.026 5.832-5.268 5.953-.323.01-.284.511.039.502 3.449-.126 5.47-3.16 5.721-6.358.029-.319-.468-.42-.492-.097zm-34.663-7.496c-.955 1.153-1.911 2.325-3.097 3.251-.603.473-3.941 2.61-4.515 1.211-.121-.299-.598-.13-.473.169.564 1.38 2.783.478 3.705.024 1.963-.965 3.391-2.677 4.761-4.332.207-.246-.174-.574-.381-.323z" fill="#1F3044"/><path d="M323.901 290.837c-1.636 1.625-4.38 2.262-6.537 3.02a100.057 100.057 0 01-7.515 2.305 103.684 103.684 0 01-7.713 1.737c-1.346.251-2.788.637-4.187.608-1.558-.034-2.692-.869-3.618-2.132-1.534-2.099-2.6-4.631-3.656-6.966a86.41 86.41 0 01-2.962-7.467 93.853 93.853 0 01-3.961-16.029c-.902-5.755-1.977-12.349.073-17.694.931-2.431 2.503-4.216 4.635-5.615 1.467-.96 3.015-1.871 3.927-3.376a38.01 38.01 0 0112.214 6.323c2.074 1.612 4.052 3.435 5.697 5.495 1.784 2.233 2.957 4.77 4.061 7.346a242.204 242.204 0 016.242 16.083 230.714 230.714 0 012.644 8.051c.395 1.273.776 2.547 1.148 3.825.487 1.683.752 3.246-.492 4.486z" fill="#fff"/><path d="M325.806 280.413c-.656-.29-1.829-.41-3.353-.338-5.542.27-15.672 3.145-21.987 9.706-.921.955-2.098 2.175-3.01 3.521-.984 1.462-1.644 3.082-1.292 4.679.68 3.068 4.042 3.796 6.714 3.719.155-.005.314-.01.459-.019 3.675-.232 7.337-1.028 10.814-2.253a41.625 41.625 0 009.87-5.017c.149-.101.294-.207.448-.318 2.359-1.688 4.8-3.97 5.311-6.956.512-2.957-1.384-5.562-3.974-6.724z" fill="#1F3044"/><path d="M350.387 237.25c-1.124 16.999.198 38.204.077 42.796-.115 4.274 2.779 9.228 1.602 13.343-1.095 3.825-4.39 7.708-9.643 7.539-5.248-.168-7.472-3.135-9.744-6.883-2.523-4.158-1.553-13.907 2.132-26.555 2.817-9.667 4.207-24.919 7.8-34.326 2.817-.197 4.998 4.462 7.776 4.086z" fill="#FEA679"/><path d="M333.543 239.063c-1.944.314-3.883.613-5.837.878-.762.102-1.587.314-2.412.487-2.764 8.92-6.656 17.631-9.584 26.473-1.645 4.969-3.748 10.362-5.027 15.412-1.278 5.055-.164 9.768.806 14.814.458 2.378 1.302 4.949 3.299 6.43 1.693 1.259 3.936 1.384 6.011.738 4.756-1.481 7.255-5.895 8.296-10.381 1.177-5.065 1.38-10.356 1.93-15.47.511-4.785 2.803-27.905 3.333-39.511l-.815.13z" fill="#C8643C"/><path d="M324.47 294.097c-.343-.95-.623-1.915-.642-2.894a57.992 57.992 0 00-1.211-10.385c-.048-.246-.106-.492-.159-.738-5.542.27-15.672 3.145-21.987 9.705-.921.955-2.098 2.175-3.01 3.521 1.37 3.01 2.986 5.977 5.422 8.398.053.068.121.131.188.193 2.543 2.47 6.561 4.289 10.343 4.795 5.653.753 9.951-2.73 11.808-5.653 1.394-2.205.111-4.53-.752-6.942zm19.642-76.224c-.589-.208-1.134-.054-1.621.299.376-3.039.439-6.112.155-9.166-.165-1.755-.266-3.772-1.004-5.392-.492-1.076-.96-2.026-2.286-1.665a1.38 1.38 0 00-.27.106c-.864-.718-1.959-1.027-2.62.28-.352.7-.405 1.549-.405 2.354-.492-.193-.83.029-1.196.979-.352.907-.463 1.92-.507 2.938-.622.29-.936.965-1.172 1.659-.55 1.621-.704 3.382-.916 5.07-.232 1.867-.43 3.739-.676 5.601-.009-.005-.024-.01-.029-.015-.916 5.818-6.806 19.932-7.935 24.765-.048.203.111.367.314.323 2.069-.453 3.902.642 5.899.893 1.78.227 2.152-.27 2.972-1.761a26.214 26.214 0 013.936-5.378c.487-.512 1.167-1.023 1.794-1.582 3.821-2.967 4.805-8.331 5.485-12.923.256-1.718.487-3.44.695-5.167.101-.815.347-1.881-.613-2.218z" fill="#C8643C"/><path d="M288.884 260.37c-.014-.323-.516-.323-.501 0a243.01 243.01 0 004.428 36.926c.063.318.545.183.482-.135a242.565 242.565 0 01-4.409-36.791zm97.58 3.97a60.757 60.757 0 01-7.814 13.738c-.193.261.241.507.434.256a61.337 61.337 0 007.868-13.859c.12-.299-.367-.429-.488-.135zm57.365 7.052c-.034-2.798-.097-5.634-1.095-8.282-1.713-4.554-5.499-7.911-9.064-11.032-.241-.212-.598.14-.357.357 3.594 3.145 7.453 6.541 9.069 11.181.921 2.653.916 5.49.945 8.263l.102 8.717c.004.323.506.323.501 0a3138.11 3138.11 0 00-.101-9.204zM425.3 234.983c0 .005-.004.014-.004.019-1.115 4.057-3.503 7.559-7.226 9.614-3.647 2.011-7.926 2.494-11.992 1.736-6.117-1.133-12.827-5.012-16.305-10.564.174-.053.353-.115.526-.168 1.418 2.18 3.343 4.056 5.461 5.595 6.777 4.925 16.584 7.274 23.79 1.838 2.866-2.161 4.429-5.007 5.268-8.162.169.034.333.063.482.092z" fill="#7464DC"/><path d="M339.162 212.556c-.005-3.203-.014-6.406-.019-9.609 0-.323-.502-.323-.502 0 .005 3.367.015 6.734.019 10.106.005 1.708-.091 3.223-.796 4.805-.448.998-.805 1.929-.443 3.015.101.303.588.173.482-.136-.521-1.558.714-2.923 1.042-4.399.275-1.235.217-2.527.217-3.782zm-3.226-7.341c-.097 2.87-.251 5.735-.483 8.601-.106 1.341-.27 2.624-.718 3.897-.425 1.211-.859 2.335-.705 3.633.039.318.541.323.502 0-.178-1.496.478-2.74.902-4.129.338-1.11.429-2.253.521-3.401.232-2.861.386-5.731.482-8.601.015-.323-.487-.323-.501 0zm5.89 13.757a27.924 27.924 0 01-4.819 9.807c-.198.255.241.506.434.255a28.223 28.223 0 004.872-9.927c.082-.318-.4-.448-.487-.135z" fill="#8A3D1E"/><path d="M346.616 238.537c-2.258-3.791-2.47-8.972-2.142-13.265.024-.324-.477-.324-.502 0-.328 4.351-.082 9.666 2.215 13.516.164.28.598.029.429-.251zm3.858 33.468c-.005-.323-.507-.323-.502 0 .097 7.52.772 15.012 2.017 22.426.053.318.535.183.482-.135a146.112 146.112 0 01-1.997-22.291z" fill="#D1724E"/><path d="M453.775 294.089c-8.664 9.401-14.365 21.306-16.242 33.954-.048.318.439.453.483.135 1.866-12.566 7.505-24.389 16.111-33.733.227-.241-.13-.598-.352-.356z" fill="#1F3044"/><path d="M445.227 242.401c-.989.16-1.968.362-2.938.599a32.907 32.907 0 00-4.592 1.485c-3.053 1.245-5.972 2.808-8.948 4.226-1.582.752-3.203 1.471-4.853 2.064-1.625.589-3.284 1.057-5.002 1.327-3.738.593-7.53.125-11.21-.598-3.657-.719-7.274-1.679-10.969-2.176a31.09 31.09 0 00-6.045-.217c-1.48.087-2.966.275-4.457.55-4.09.748-8.311 1.901-12.469.999a13.473 13.473 0 01-1.539-.425c-1.944-.651-3.743-1.761-4.949-3.372-.077.078-.145.145-.212.217-.893.951-5.051 5.967-9.151 10.945a32.838 32.838 0 0014.216 3.377 31.81 31.81 0 001.51-.024c4.109-.164 8.036-1.346 12.054-2.098 2.725-.507 5.427-.623 8.128-.43a41.75 41.75 0 014.457.584c7.424 1.375 14.751 4.293 22.402 3.927 2.899-.14 5.562-.922 8.195-1.92 1.004-.381 2.007-.801 3.015-1.216a66.957 66.957 0 0110.463-3.348c.598-.139 1.196-.27 1.799-.395 4.491-.936 9.054-1.476 13.627-1.809-4.206-4.665-8.716-9.035-12.532-12.272z" fill="#7464DC"/><path d="M521.587 333.744c-.232-1.669-.748-3.309-1.645-4.742-1.751-2.798-6.589-6.338-9.257-8.166-3.236-2.215-9.763-4.612-13.294-6.324-1.201-.584.241-1.529-1.027-.56-.734.56-1.341 1.423-1.964 2.098l-2.358 2.557c-.136-.053-.271-.106-.406-.15-.308-.096-.439.386-.135.483.063.019.126.048.188.067-.111.232.193.507.396.29.029-.034.063-.068.092-.101 1.186.516 2.19 1.36 2.865 2.489.839 1.408.844 3.053 1.307 4.592.728 2.431 4.959 6.497 6.71 8.282.733.743 3.053 3.705 3.623 1.346.53-2.19-1.129-4.023-2.653-5.407 2.614.911 4.404 1.866 6.29 3.941 1.153 1.263 1.818 2.653 2.397 4.244.251.695.666 1.751 1.51 1.916.492.096.777-.126.931-.517.024.044.048.082.077.126.27.801.902 1.471 1.761.704.424-.381.709-.907.887-1.5.02.053.044.106.073.149.207.42.526.642 1.018.333.477-.304.742-1.032.931-1.534.149-.415.246-.834.299-1.264.318.517.767 1.009 1.288.396.66-.777.217-2.86.096-3.748z" fill="#FEA679"/><path d="M474.85 373.438c.009-.323-.492-.323-.502 0a79.077 79.077 0 00.044 5.658c.014.324.516.324.501 0a79.077 79.077 0 01-.043-5.658zm36.27-43.452c-.246-.207-.603.145-.357.357 2.619 2.21 3.676 5.446 4.033 8.765.033.319.535.323.501 0-.371-3.449-1.452-6.825-4.177-9.122zm2.295-1.258c-.27-.179-.521.255-.255.434 2.855 1.881 3.883 6.285 4.331 9.459.044.319.531.184.483-.135-.463-3.304-1.578-7.79-4.559-9.758zm2.293-1.534c-.251-.198-.613.159-.357.357 2.633 2.05 4.423 5.021 4.452 8.412.005.323.506.323.502 0-.034-3.512-1.862-6.637-4.597-8.769z" fill="#D1724E"/><path d="M474.551 380.983c0-.125-.116-.256-.251-.251-4.182.27-8.369.193-12.537-.236-.174-.015-.265.174-.241.323.376 2.219.955 4.399 1.408 6.604.213 1.051.497 2.339.623 3.627.434-.091.834-.26 1.244-.487.68-.371 1.293-.786 2.108-.738.738.039 1.462.386 2.142.646 1.64.632 3.372 1.095 5.065.391.27-.111.526-.246.772-.4-.497-3.864-.319-7.511-.333-9.479z" fill="#7464DC"/><path d="M98.901 413.853l-52.357 10.714v-58.348L98.9 355.51l119.817 9.044L98.9 413.853z" fill="#000"/><path d="M218.746 364.539l-119.855-9.044 10.134-19.758 119.851 9.049-10.13 19.753z" fill="#7464DC"/><path d="M166.481 370.536c-3.295-.917-6.623-2.017-10.009-2.707 3.516-11.099 12.894-20.076 24.355-22.584 6.488-1.419 13.439-.709 19.237 2.633 5.436 3.131 9.382 8.235 10.815 14.361 1.582 6.763.342 13.646-1.375 20.279-14.346-3.994-28.687-7.988-43.023-11.982z" fill="#fff"/><path d="M203.778 367.428c-.174-2.788-1.529-5.513-3.738-7.245-1.457-1.138-3.169-1.635-4.245-3.241-.936-1.395-1.467-3.015-2.484-4.356a9.955 9.955 0 00-3.266-2.764c-1.375-.724-2.793-.888-4.284-1.216-1.432-.313-1.871-1.24-2.161-2.571-.149-.69-.376-1.312-.796-1.886-.781-1.076-2.016-1.766-3.289-2.079-3.715-.921-7.058 1.462-9.875 3.565-.217.164-.067.506.145.477a.23.23 0 00.068.053c6.56 3.285 12.421 7.863 17.148 13.478 2.229 2.648-.849 12.706 1.336 15.383 1.023 1.254 7.038-4.674 8.316-3.681 1.066.825 2.451 1.853 3.845 1.954 2.817.198 3.41-3.816 3.28-5.871z" fill="#F2ECE6"/><path d="M144.702 371.037c-3.294-.917-6.623-2.017-10.009-2.707 3.516-11.099 12.894-20.076 24.355-22.584 6.488-1.419 13.439-.71 19.237 2.633 5.436 3.131 9.382 8.234 10.815 14.361 1.582 6.763.342 13.646-1.375 20.279l-43.023-11.982z" fill="#fff"/><path d="M184.098 372.533c-1.573-3.7-3.637-7.511-7.308-9.493-.738-.396-1.51-.666-2.311-.902-.468-.14-1.003-.256-1.399-.555-.955-.738-.747-1.751-.791-2.774-.077-1.847-.53-3.733-1.543-5.301-1.766-2.74-4.848-3.989-7.834-4.92-1.881-.584-3.797-1.076-5.625-1.814-.998-.401-1.973-.878-2.86-1.486-.811-.555-1.52-1.399-2.46-1.736-1.645-.599-4.096.168-5.712.603-1.915.516-3.695 1.365-4.958 2.937-.203.251.154.608.357.357a7.096 7.096 0 011.08-1.071c.01.005.015.015.029.024 4.279 2.316 7.95 5.514 11.62 8.674 3.358 2.889 6.701 5.827 9.609 9.179 1.496 1.722 1.235 11.408 2.403 13.372 1.066 1.794 3.453-4.038 4.799-2.422 2.238 2.697 5.9 3.464 9.247 3.092 1.288-.14 3.671-.323 4.511-1.476.882-1.22-.377-3.16-.854-4.288z" fill="#F2ECE6"/><path d="M122.59 372.046c-3.294-.917-6.623-2.017-10.009-2.706 3.517-11.1 12.894-20.077 24.355-22.585 6.488-1.418 13.439-.709 19.237 2.634 5.437 3.13 9.383 8.234 10.815 14.36 1.582 6.763.343 13.646-1.375 20.279l-43.023-11.982z" fill="#fff"/><path d="M166.385 433.62l-119.85-9.045v-58.343l119.85 9.044v58.344zm.019-58.348l-71.165-5.369-9.223-.694-39.458-2.981-14.423-15.832 43.558 3.29 9.715.733 66.578 5.026 14.418 15.827z" fill="#7464DC"/><path d="M218.746 422.902l-52.357 10.713v-58.348l52.357-10.708v58.343z" fill="#7464DC"/><path d="M166.154 376.951c-.005-.323-.507-.323-.502 0 .309 16.748.381 33.501.217 50.254-.005.323.502.323.502 0a1783.74 1783.74 0 00-.217-50.254zm-10.512-.974a5151.723 5151.723 0 01-100.518-7.429c-.323-.029-.318.478 0 .502a5212.033 5212.033 0 0078.502 5.967c7.337.501 14.674.989 22.016 1.456.323.025.323-.477 0-.496z" fill="#000"/><path d="M87.092 392.054c.106.299.231.584.4.844.801 1.221 1.828.613 2.47-.357.352-.525.8-1.509 1.558-1.075 1.21.694 1.794 4.11 3.845 2.532.723-.559 1.017-1.587 1.162-2.624-.11-8.586.526-14.36-.072-19.449-.005-.053-.454-.796-1.216-2.022-1.92-3.092-5.856-9.295-9.83-15.484l-9.716-.733c4.125 6.088 8.186 12.199 10.323 15.523.984 1.524 1.563 2.465 1.563 2.547.034 5.388-.381 13.921-.487 20.298z" fill="#F0F0F0"/><path d="M114.795 356.449a398.65 398.65 0 01-13.565-.728c-.323-.024-.323.478 0 .502 4.52.318 9.04.564 13.565.728.323.01.323-.492 0-.502z" fill="#000"/><path d="M73.522 450.871l-.09-.303-.001-.002c-.03-.102-.06-.205-.092-.308l-.467.071v.888l.036.058a.149.149 0 00.003.006v.004l.238.018m.373-.432l-.64-.472.091.303c.03.103.06.207.093.31h0a.608.608 0 00.044.107v.03a.253.253 0 01.04.154m.372-.432c.004.013.009.02.01.022l.01.007a.09.09 0 00.057 0c.026-.007.038-.019.042-.025a.012.012 0 00.002-.006.071.071 0 00-.004-.028s0 0 0 0l-6.44-21.403.23-.068-.23.068-.368-1.23c-1.569-5.253-3.165-10.596-6.294-15.088h0c-3.441-4.943-8.774-7.782-14.315-9.972a56.94 56.94 0 00-19.238-3.954l46.538 51.677zm-.373.432l-.02.251a7.436 7.436 0 01-.019.251v1.886c0 .386-.598.386-.598 0v-1.047l-.004-.007-.005-.007m.646-1.327l-.238-.02-.02.254c-.005.083-.011.165-.018.248l-.001.01v1.896a.066.066 0 01-.005.028.02.02 0 01-.006.008.079.079 0 01-.05.015.079.079 0 01-.05-.015.02.02 0 01-.005-.008.066.066 0 01-.005-.028v-1.146l-.044-.044m-.204.129l.043-.019.175-.077a.255.255 0 01-.007-.016l.002.004c.002.002.003.003.003.005l-.002-.004-.003-.007-.007-.015m-.204.129l.168-.169a.298.298 0 01.028.032l-.196.137zm.204-.129a69.204 69.204 0 00-5.572-10.296l-.199.131.2-.131c-1.311-1.99-2.792-3.843-4.267-5.689-.814-1.02-1.627-2.037-2.409-3.074h0c-.971-1.288-1.821-2.638-2.399-4.13h0a22.87 22.87 0 01-.44-1.276l-.026-.085c-.132-.41-.267-.829-.42-1.24-.325-.877-.74-1.736-1.412-2.437h0c-1.508-1.564-3.766-1.645-5.677-1.636l-.797.006c-1.586.012-3.153.024-4.724-.111h0c-5.248-.451-10.863-2.495-13.383-7.378-.241-.47-.412-.992-.59-1.538a55.728 55.728 0 00-.113-.348c-.22-.659-.472-1.335-.894-1.904-.756-1.022-1.862-1.113-2.932-.919-.535.098-1.078.269-1.587.442-.133.045-.264.09-.391.135-.366.126-.706.245-1.018.331-3.219.884-6.555 1.467-9.884 1.343h0a25.627 25.627 0 00-.54-.015c-.825-.019-1.869-.043-2.803-.244-1.163-.251-2.021-.747-2.155-1.721h0c-.146-1.044.163-2.207.694-3.321.529-1.11 1.267-2.146 1.946-2.924h0c3.953-4.535 10.28-5.441 16.069-5.278l45.723 53.307zm71.014-62.459c-.877.709-1.834 1.228-2.797 1.75-.525.285-1.051.57-1.568.888-1.495.922-1.714 2.794-1.912 4.487-.047.399-.092.788-.153 1.152-1.138 6.855-6.382 11.505-12.58 14.062l19.01-22.339zm0 0c2.34-1.886 4.877-4.8 5.036-7.959l-5.036 7.959zm.25-12.604h0c2.746-.268 4.691 1.913 4.548 4.632h0c-.077 1.521-.727 2.996-1.658 4.333-.93 1.336-2.132 2.52-3.29 3.453h0c-.661.534-1.372.961-2.107 1.369-.213.118-.43.236-.648.354-.527.286-1.063.576-1.585.898h0c-1.002.617-1.461 1.623-1.713 2.678a14.627 14.627 0 00-.267 1.609l-.045.38c-.046.397-.091.778-.15 1.136h0c-1.12 6.744-6.281 11.341-12.436 13.88-3.274 1.347-6.711 2.144-10.171 2.946l-1.403.327c-1.953.458-3.981.991-5.74 2.085h0c-1.704 1.063-2.813 2.608-3.834 4.239-1.593 2.543-3.078 4.691-5.956 5.66-1.218.409-2.456.642-3.704.878-.492.092-.985.185-1.48.289-1.735.366-3.453.866-5.028 1.985-2.98 2.116-4.907 5.391-6.425 8.582l.215.103-.215-.103c-1.849 3.886-3.357 7.948-4.69 12.03-.009.025-.02.035-.03.04a.069.069 0 01-.046.008.059.059 0 01-.036-.015c-.003-.004-.011-.013-.011-.039a7.253 7.253 0 00-.11-1.157h-.47l-.58 3.304h0v.002a.082.082 0 01-.003.015.088.088 0 01-.033-.003.12.12 0 01-.058-.037c-.007-.011-.014-.025-.009-.053v-.001c.256-1.481.516-2.976.782-4.476l.012-.069-.028-.065a2.814 2.814 0 01-.049-.128v-.002c-.017-.044-.035-.094-.057-.145v-.002a.074.074 0 01-.007-.037c0-.01.004-.021.011-.033a.115.115 0 01.066-.051l.154-.036.028-.155c2.706-15.17 6.182-31.029 15.998-43.088 4.844-5.948 11.555-8.871 18.554-11.719h0c8.139-3.314 15.967-7.278 23.753-11.321h0c.601-.312 1.201-.626 1.8-.939 1.346-.704 2.69-1.407 4.044-2.094 1.319-.667 2.667-1.307 4.107-1.447z" fill="#fff" stroke="#000" stroke-width=".477"/><path d="M77.747 448.948c-.037.013-.07.027-.111.044l-.113.045-.32.124-.005-.343c-.058-3.828-.115-7.657-.171-11.485v-.029l-.171-11.457c-.037-2.383-.072-4.768-.107-7.152v-.022l-.106-7.143c-.063-4.155-.13-8.302-.764-12.393h0c-1.26-8.169-5.087-15.14-9.84-21.628-2.377-3.244-4.983-6.364-7.614-9.451-.481-.565-.963-1.128-1.445-1.692-2.15-2.513-4.29-5.017-6.304-7.554-2.143-2.698-3.969-5.529-5.807-8.379-.516-.799-1.032-1.6-1.557-2.4-.788-1.201-1.783-1.679-2.75-1.612-.976.069-1.986.699-2.778 1.848h0c-1.701 2.465-1.634 6.06-.54 8.791a10.343 10.343 0 002.36 3.522v.001c.199.197.403.386.612.578l.322.298c.316.297.63.609.911.957h0c1.115 1.386 1.101 2.91.692 4.516-.119.467-.244.93-.369 1.39-.34 1.261-.678 2.505-.863 3.759-.25 1.702-.216 3.394.474 5.103h0c.582 1.439 1.566 2.478 2.738 3.352.871.65 1.832 1.199 2.807 1.757.346.198.695.397 1.041.602 1.518.897 2.998 1.951 3.903 3.577.943 1.69 1.164 3.656 1.372 5.498l.055.49c.383 3.28 1.164 6.006 3.407 8.442.714.775 1.48 1.496 2.259 2.208l.528.481c.604.549 1.21 1.099 1.791 1.667 1.506 1.471 2.876 3.081 3.726 5.18 1.354 3.334 1.497 6.979 1.636 10.514.034.86.067 1.712.118 2.552.567 9.337 3.21 18.45 7.65 26.678l.001.001v.001l.005.004a.166.166 0 00.02.012.075.075 0 00.021.005h.003l1.135-.392.019-.006 1.152-.398.312-.108.005.33.072 4.843v.001a.08.08 0 00.005.029l.005.007.002.002a.081.081 0 00.052.015c.026 0 .043-.008.048-.014a.01.01 0 00.005-.006.062.062 0 00.004-.027h0m.467-5.533l-.305.484c.028 1.666.052 3.336.076 5.007v.039l-.238.003m.467-5.533h.002l3.282-1.128m-3.284 1.128l3.308-1.133m-3.775 6.666v-.037c-.025-1.671-.048-3.342-.077-5.008l-.003-.173.164-.057 3.666-1.259h0a.1.1 0 00.03-.016.053.053 0 00.012-.017.098.098 0 00.003-.063c-.007-.025-.018-.034-.02-.036m-3.775 6.666l3.775-6.666m0 0s0 0 0 0 0 0 0 0h0s0 0 0 0zm0 0s-.008-.001-.024.005m0 0l-.078-.226.078.226m0 0s0 0 0 0m0 0h0m-4.18 2.066l.07 4.592-12.132-43.95c1.337 3.291 1.478 6.883 1.617 10.415.034.864.068 1.724.12 2.576.569 9.372 3.222 18.518 7.679 26.776.058.111.217.179.338.135a951.594 951.594 0 002.068-.713l-.002-.079.24-.004.077.226-.074.026z" fill="#fff" stroke="#000" stroke-width=".477"/><path d="M103.54 345.949h0l-.045-.164c-.145-.531-.3-1.099-.52-1.629-.242-.584-.554-1.098-.994-1.451h0c-.556-.446-1.015-.527-1.398-.429-.398.103-.77.413-1.113.865-.685.904-1.157 2.248-1.436 3.063h0c-1.037 3.019-1.824 6.111-2.614 9.213-.21.827-.421 1.655-.637 2.482h0a214.956 214.956 0 01-3.627 12.343s0 0 0 0l-.227-.074c-1.642 5.037-3.607 9.93-5.575 14.827-1.158 2.885-2.317 5.771-3.412 8.689l21.598-47.735zm0 0a19.4 19.4 0 01.686 5.208c-.01 3.557-1.117 6.708-2.621 9.918-.876 1.868-1.746 3.851-1.677 6.032.032 1.106.28 2.172.577 3.212.104.366.213.726.322 1.084.204.669.405 1.33.564 2.004l.001.001c1.441 5.919.382 12.353-2.68 17.604h0a22.929 22.929 0 01-2.894 3.943v.001c-.4.439-.863.841-1.339 1.256l-.426.373c-.615.546-1.222 1.13-1.666 1.828m11.153-52.464l-22.435 93.578m0 0h0c.795-2.832.66-5.749.525-8.696-.025-.563-.051-1.128-.07-1.694h0c-.064-1.845-.07-3.746.328-5.591l.233.05-.233-.05c.494-2.292 1.66-4.118 3.19-5.825l.001-.001c2.292-2.547 4.327-4.933 5.5-8.156h0a19.06 19.06 0 001.034-4.359v-.001c.06-.503.064-1.053.054-1.632a74.234 74.234 0 00-.014-.57c-.01-.399-.02-.807-.018-1.209.008-1.19.13-2.402.752-3.38m-11.282 41.114c-.889 3.175-2.72 5.986-5.194 8.157m5.194-8.157l-5.194 8.157m16.476-49.271v.001l.201.128-.2-.129s0 0 0 0zm-16.476 49.271a.077.077 0 01-.028.017.044.044 0 01-.02.001.098.098 0 01-.057-.029.07.07 0 01-.021-.035c0-.001.003-.008.016-.019l.11.065z" fill="#fff" stroke="#000" stroke-width=".477"/><path d="M35.943 438.921a122.46 122.46 0 00.377 11.683c.12 1.481.226 2.996.42 4.506.028.251.067.501.1.752.324 2.234.854 4.448 1.901 6.536 2.393 4.786 7.723 7.058 13.637 8.153a128.903 128.903 0 00-2.161 9.02 138.403 138.403 0 00-.627 3.377c-.116.631-.434 1.548-.242 2.194.406 1.37 1.853.685 2.712.106 3.034-2.035 4.355-5.508 5.682-8.595a262.666 262.666 0 002.195-5.244c1.466.082 2.899.13 4.278.159.246.005.497.01.743.02.222.004.449.004.67.009.425.01.845.02 1.27.024.226.005.453.01.675.01 7.645.121 15.513.01 22.99-1.071a105.72 105.72 0 002.267 8.109c.685 2.108 1.601 6.531 4.824 6.531 1.302 0 1.635-.873 1.722-1.91.178-2.349.082-4.751.043-7.105-.043-2.446-.01-4.998-.256-7.501 2.268-.729 4.409-1.669 6.281-2.904 2.87-1.896 4.809-4.399 6.049-7.139.121-.256.227-.517.328-.777.106-.251.203-.506.294-.767 1.197-3.396 1.534-6.946 1.824-10.463a236.5 236.5 0 00.559-8.451 2802.01 2802.01 0 01-78.555.738z" fill="#7464DC"/><path d="M66.4 460.232c.126 3.753-.323 7.588-.776 11.375-.222-.005-.449-.005-.67-.01.144-1.433.28-2.86.419-4.298.3-3.048.71-6.169.241-9.213-.376-2.456-1.35-4.896-3.222-6.594-1.959-1.78-4.63-2.528-7.226-2.682-6.758-.42-13.43 2.426-18.33 7.057-.034-.251-.073-.502-.102-.753a25.929 25.929 0 013.555-2.735c5.808-3.743 15.157-6.372 21.413-2.175 3.319 2.219 4.568 6.203 4.698 10.028zm45.411-2.358c-.101.265-.207.521-.328.776-1.548-3.835-4.269-7.134-8.224-8.779-5.745-2.393-11.838.497-16.845 3.367-7.727 4.428-14.23 10.824-18.841 18.407-.222 0-.449-.004-.675-.009a53.323 53.323 0 019.473-11.727c4.221-3.921 9.079-7.187 14.351-9.527 5.403-2.397 11.075-2.952 16 .811 2.301 1.77 3.97 4.085 5.089 6.681z" fill="#000"/><path d="M76.695 419.718c-.044 5.745-.087 11.49-.135 17.23-.005.386.593.386.598 0 .043-5.745.087-11.49.135-17.23 0-.386-.598-.386-.598 0z" fill="#706E34"/><path d="M357.81 408.775l-74.676-16.257 49.323-28.44 74.676 16.256-49.323 28.441z" fill="#5F3C36"/><path d="M407.104 380.372l-74.676-16.261-.328-7.12 74.676 16.261.328 7.12z" fill="#915A40"/><path d="M332.457 364.081l-49.347 28.46-.328-7.115 49.347-28.46.328 7.115z" fill="#915A40"/><path d="M386.691 377.391c-1.157-3.006-3.396-5.374-6.304-6.744-3.681-1.737-7.911-2.147-11.795-3.285-6.357-1.867-12.975-4.404-19.598-3.767-1.607-.237-3.29-.169-4.935-.039-2.05.159-4.057.265-6.112.111-1.982-.154-3.936-.352-5.928-.178-3.526.303-6.908 1.495-10.116 2.942-3.314 1.495-6.661 3.15-9.748 5.079-5.263 3.29-9.199 8.987-8.148 15.432.449 2.735 1.785 5.335 3.883 7.163 2.422 2.118 5.601 3.034 8.688 3.656 7.964 1.607 16.116 2.822 24.22 3.406 7.665.555 15.436.386 22.99-1.134 6.43-1.292 13.323-3.429 18.393-7.771 4.351-3.719 6.647-9.319 4.51-14.871z" fill="#C46E33"/><path d="M383.251 381.457c-.309-1.882-1.915-3.348-3.657-4.294-2.527-1.379-5.547-1.678-8.2-2.792-2.812-1.177-4.891-3.363-7.68-4.593-3.014-1.331-6.179-1.664-9.498-1.611-2.045.034-4.124.135-6.145-.236-1.674-.309-3.222-.984-4.857-1.418-4.419-1.177-9.209-.772-13.357.935-5.446.56-10.121 2.663-14.472 5.731-2.059 1.452-4.225 2.933-4.983 5.297-.738 2.305-.048 4.413 1.38 6.352.757 1.028 1.138 2.243 1.939 3.242.622.777 1.462 1.37 2.388 1.833 2.344 1.163 5.137 1.524 7.727 1.983 3.329.583 6.672 1.119 9.928 1.992 3.058.825 5.976 1.635 9.184 1.756 3.478.135 6.98.024 10.463.009 3.222-.009 6.343.01 9.392-1.051 3.068-1.071 6.025-2.451 9.006-3.695 2.773-1.158 5.851-2.142 8.311-3.801 1.939-1.308 3.507-3.367 3.131-5.639z" fill="#A13E37"/><path d="M357.811 408.749l-74.676-16.256-.328-7.119 74.676 16.26.328 7.115z" fill="#915A40"/><path d="M407.157 380.284l-49.347 28.461-.328-7.115 49.347-28.461.328 7.115z" fill="#915A40"/><path d="M322.795 372.889a2.08 2.08 0 00-1.789 1.24 2.146 2.146 0 00-.546 1.148c-.072.54.092 1.24.652 1.466.294.121.564.044.849-.062.578-.213 1.013-.131 1.606-.159.661-.034 1.182-.382 1.394-1.023.453-1.375-.801-2.706-2.166-2.61zm27.635-1.282a2.08 2.08 0 00-1.789 1.239 2.158 2.158 0 00-.545 1.148c-.073.541.091 1.24.651 1.467.294.12.564.043.849-.063.579-.212 1.013-.13 1.606-.159.661-.034 1.182-.381 1.394-1.023.454-1.375-.8-2.706-2.166-2.609zm-15.011 12.025a2.072 2.072 0 00-2.137.42 2.128 2.128 0 00-.956.834c-.284.468-.41 1.172.01 1.606.222.232.497.266.801.285.617.034.979.285 1.534.497.617.236 1.235.125 1.688-.381.965-1.081.347-2.803-.94-3.261zm37.013-5.48a2.072 2.072 0 00-2.137.42 2.128 2.128 0 00-.955.835c-.285.468-.41 1.172.009 1.606.222.232.497.265.801.285.617.033.979.284 1.534.496.617.237 1.235.126 1.688-.381.965-1.08.348-2.802-.94-3.261zm-15.577 12.628a2.057 2.057 0 00-.173-.337.25.25 0 00-.097-.208c-.038-.033-.082-.062-.125-.096a2.215 2.215 0 00-1.52-.738c-.834-.198-1.698-.058-2.33.69-.361.429-.598 1.109-.318 1.645.342.641 1.134.67 1.765.598.56-.063 1.004.024 1.554.101.28.039.535.029.791-.111.545-.313.666-.998.453-1.544z" fill="#DE815F"/><path d="M344.815 376.387c-.164-.878-.661-1.66-1.525-2.084-1.394-.69-2.296.285-3.622.13-1.139-.13-1.959-.468-2.981.348-.815.646-1.539 2.243-.859 3.217.613.883 1.939.323 2.798.391.931.072 1.211.665 2.026.911.69.213 1.322-.091 1.997-.202.96-.164 2.484.169 2.764-1.139.13-.66-.159-1.172-.598-1.572zm4.434 9.058c-.13-.877-.526-1.659-1.206-2.083-1.105-.69-1.819.284-2.87.13-.902-.13-1.549-.468-2.359.347-.646.647-1.216 2.243-.68 3.218.487.882 1.534.323 2.214.39.733.073.96.666 1.601.912.546.212 1.047-.092 1.578-.203.762-.164 1.968.169 2.185-1.138.111-.661-.121-1.177-.463-1.573zm-17.53-5.523c-.931-1.558-3.946-1.756-5.446-.685-1.534-.858-3.092.989-2.986 2.634.058.859.589 1.133 1.399 1.003.362-.058.695-.289 1.052-.337 1.018-.131.854.178 1.524.492.314.149.54.255.902.178.314-.067.429-.289.695-.395.651-.256.699-.078 1.317-.116.376-.024.656-.102.974-.309.835-.535 1.071-1.616.569-2.465zm32.521-3.7c-.969-.014-1.056.714-1.712.941-.685.236-1.033.478-1.206.974-.434.198-.772.579-.979 1.11-.261.68-.198 1.688.67 1.886.405.092.675-.145 1.027-.27a.647.647 0 01.647-.159c.27-.082.492-.015.666.207.438.135.241.15.704.207.781.097 1.915-.106 2.465-.709 1.683-1.852-.193-4.153-2.282-4.187z" fill="#4A542B"/><path d="M359.885 378.326c-.516-1.298-2.142-1.602-3.628-1.418-.019 0-.029-.01-.048-.01-1.992.029-4.66 1.365-4.694 3.676-.038 2.45 3.092 2.638 4.834 2.199 1.843-.463 4.428-2.194 3.536-4.447zm-2.562 2.812a6.799 6.799 0 01-1.736.362c-.415.024-1.447.058-2.074-.246-.57-.589.154-1.635.583-2.084.265-.275.565-.502.888-.68.998-.425 3.719-.844 3.888.666.091.868-.705 1.543-1.549 1.982zm13.912 2.865c-.516-1.298-2.142-1.601-3.628-1.418-.019 0-.029-.01-.048-.01-1.992.029-4.66 1.365-4.693 3.676-.039 2.45 3.092 2.639 4.833 2.2 1.843-.464 4.428-2.2 3.536-4.448zm-2.562 2.812a6.756 6.756 0 01-1.736.362c-.415.024-1.447.058-2.074-.246-.57-.588.154-1.635.583-2.084.266-.275.565-.501.888-.68.998-.424 3.719-.844 3.888.666.091.863-.704 1.543-1.549 1.982zm-21.326 3.619c.29-1.366-.897-2.523-2.238-3.189-.015-.01-.019-.024-.034-.034-1.674-1.08-4.64-1.442-5.943.463-1.384 2.021 1.115 3.908 2.808 4.506 1.794.632 4.905.622 5.407-1.746zm-3.69.921a6.621 6.621 0 01-1.645-.661c-.357-.207-1.235-.752-1.592-1.355-.149-.806 1.032-1.274 1.64-1.414a3.792 3.792 0 011.115-.077c1.066.198 3.564 1.355 2.87 2.706-.406.782-1.443.902-2.388.801zm-4.003-21.514c-.516-1.298-2.142-1.602-3.628-1.418-.019 0-.029-.01-.048-.01-1.992.029-4.66 1.365-4.693 3.676-.039 2.45 3.092 2.638 4.833 2.199 1.843-.463 4.428-2.199 3.536-4.447zm-2.567 2.812a6.756 6.756 0 01-1.736.362c-.415.024-1.447.058-2.074-.246-.569-.589.154-1.635.583-2.084.266-.275.565-.502.888-.68.999-.424 3.719-.844 3.888.666.096.863-.7 1.543-1.549 1.982zm-11.548 13.155c.01-1.394-1.384-2.291-2.831-2.677-.015-.01-.024-.02-.044-.029-1.857-.724-4.833-.487-5.735 1.64-.955 2.257 1.871 3.608 3.651 3.859 1.891.26 4.94-.372 4.959-2.793zm-3.434 1.64a6.869 6.869 0 01-1.746-.318c-.391-.131-1.361-.492-1.829-1.013-.308-.763.758-1.457 1.327-1.713a3.888 3.888 0 011.076-.299c1.085-.019 3.762.618 3.352 2.079-.236.849-1.23 1.177-2.18 1.264z" fill="#DE815F"/><path d="M293.23 430.248v-17.452c1.751-.449 3.416-2.026 4.192-3.936.825-2.021.994-4.289 1.119-6.474a122.36 122.36 0 00-.188-16.632h-11.992c.01 4.365.179 8.731.531 13.077.193 2.369.429 4.732.733 7.086.222 1.684.526 3.488 1.385 4.935.752 1.269 1.722 1.891 2.74 2.04v17.158c-2.21.29-5.799.922-6.122 3.474-.4 3.154 4.38 3.149 6.319 2.961a15.316 15.316 0 004.621-1.177c1.067-.458 2.379-1.056 2.393-2.402.039-2.928-3.521-2.667-5.731-2.658zm96.992-8.798v-17.452c1.751-.449 3.415-2.026 4.191-3.937.825-2.021.994-4.288 1.12-6.473a122.36 122.36 0 00-.189-16.632h-11.991c.009 4.365.178 8.731.53 13.077.193 2.368.43 4.732.733 7.086.222 1.683.526 3.487 1.385 4.935.752 1.268 1.722 1.89 2.74 2.04v17.158c-2.21.29-5.798.921-6.122 3.473-.4 3.155 4.38 3.15 6.32 2.962a15.36 15.36 0 004.621-1.177c1.066-.458 2.378-1.056 2.392-2.402.044-2.923-3.516-2.663-5.73-2.658z" fill="#fff"/><path d="M393.531 389.391c-.121-1.433-.338-3.174-1.775-3.893-.801-.4-1.356-.096-2.176 0-.714.082-1.408-.058-2.05.377-.829.564-1.109 1.5-1.167 2.493a1.564 1.564 0 00-.077.386c-.193 2.586-.859 10.26 3.227 10.395 4.201.14 4.245-6.989 4.018-9.758zm-98.81 6.71c-1.331-.96-3.425-.632-4.385.723-.704.994-.685 2.47-.559 3.748-.3 3.387-.295 8.437 3.251 8.461 1.543.01 2.291-1.23 2.59-2.571a32.16 32.16 0 00.738-5.475c.082-1.722-.116-3.796-1.635-4.886z" fill="#DCDAF1"/></g><defs><clipPath id="clip0_0_333"><path fill="#fff" transform="translate(0 .08)" d="M0 0h572v511.84H0z"/></clipPath></defs></svg>