<svg width="325" height="453" fill="none" xmlns="http://www.w3.org/2000/svg"><g clip-path="url(#clip0_0_640)"><path d="M244.922 37.494c-.033.18-.071.354-.109.529a137.508 137.508 0 01-.856 3.929 124.798 124.798 0 01-6.66 20.47c-.027.065-.054.136-.087.201-.071.175-.147.349-.223.523-4.475 10.415-10.328 20.225-17.325 29.135l-.376.474a130.117 130.117 0 01-20.846 20.933l-.561.447a124.574 124.574 0 01-16.775 11.156c-6.883 3.804-14.644 7.662-22.731 7.166-6.42-.392-12.916-3.766-15.325-10.006-1.439-3.733-1.412-7.875-1.183-11.804.022-.398.049-.796.087-1.188.137-1.853.349-3.695.627-5.526-.419.458-.845.915-1.275 1.362-1.526 1.592-3.139 3.129-4.916 4.442a23.117 23.117 0 01-2.594 1.673c-3.989 2.191-9.276 2.932-13.319.638a7.005 7.005 0 01-2.802-2.12c-.937-1.183-1.536-2.584-1.918-4.055-.343-1.204-.518-2.48-.561-3.766a6.742 6.742 0 01-.027-.349c-.175-3.667.299-7.422.877-11.041.632-4 1.575-7.951 2.785-11.82a91.34 91.34 0 014.768-12.056c.104-.229.213-.452.327-.675a98.318 98.318 0 014.862-8.824c5.569-9.008 12.502-17.063 20.257-24.24.174-.159.343-.317.517-.47 3.973-3.656 8.164-7.073 12.497-10.278a192.49 192.49 0 0115.712-10.453c.185-.114.365-.223.55-.327a181.714 181.714 0 014.802-2.774c3.787-2.12 7.695-4.07 11.826-5.438 4.142-1.368 8.447-2.159 12.78-2.633 1.139-.125 2.278-.229 3.422-.316a9.38 9.38 0 01.561-.043 136.14 136.14 0 019.309-.371c3.978-.027 8.071.223 11.82 1.657 2.475.943 4.616 2.392 6.42 4.196a21.196 21.196 0 012.671 3.28c1.591 2.393 2.741 5.107 3.428 7.92 1.64 6.676.904 13.706-.436 20.442zM89.084 176.857c-.921 4.562-4.366 11.472-10.11 10.017-1.624-.414-2.986-1.466-4.273-2.49a38.8 38.8 0 01-1.798-1.521 43.304 43.304 0 01-4.344-4.387c.022.131.055.262.077.387.986 5.27 1.608 10.823 1.499 16.284a54.055 54.055 0 01-.513 6.594c-.447 3.139-1.64 6.066-4.163 8.088-2.093 1.668-4.715 2.529-7.347 2.845-6.333.768-12.67-1.564-17.984-4.867-9.706-6.038-16.786-15.696-22.334-25.75-.098-.169-.19-.344-.283-.518a153.74 153.74 0 01-3.493-6.791 139.242 139.242 0 01-8.513-22.202c-.05-.175-.098-.349-.147-.529a140.561 140.561 0 01-5.2-31.555 17.15 17.15 0 00-.021-.555c-.502-11.287.376-22.628 2.714-33.686 1.27-6 3.095-13.684 6.709-19.39.942-1.5 2.016-2.862 3.231-4.017 3.112-2.97 7.178-4.61 12.568-3.81 7.28 1.09 13.946 5.608 19.336 10.404.67.6 1.33 1.21 1.978 1.832.147.141.294.288.441.43 4.616 4.523 8.638 9.652 12.399 14.9a172.003 172.003 0 017.815 11.902c.141.23.278.458.409.687a175.467 175.467 0 0114.54 31.102c.12.322.229.649.343.97 2.354 6.774 4.333 13.718 5.706 20.753 1.575 8.088 2.393 16.72.758 24.873z" fill="#EFEEFE"/><path d="M239.26 5.852c-22.879 16.557-45.25 34.013-64.99 54.264-10.556 10.829-20.328 22.453-28.807 34.988a214.343 214.343 0 00-9.074 14.633c-5.101 8.981-9.598 18.306-13.576 27.843-12.496 29.936-20.333 61.72-27.184 93.35a975.222 975.222 0 00-16.562 102.812 976.282 976.282 0 00-4.714 64.439c1.308.076 2.61.163 3.919.272a977.88 977.88 0 016.212-76.052 976.377 976.377 0 0117.979-102.288c7.287-31.484 15.767-63.033 29.691-92.315a221.717 221.717 0 019.799-18.339c12.115-20.371 27.271-38.667 44.52-55.147 17.265-16.497 36.143-31.157 55.457-45.18a21.248 21.248 0 00-2.67-3.28z" fill="#7464DC"/><path d="M221.695 159.2c-.006.18-.011.36-.022.545a19.01 19.01 0 01-.071.97c-.638 6.284-3.461 12.415-6.583 17.909l-.3.528c-.169.289-.333.578-.501.861-4.001 6.802-8.9 13.036-14.192 18.944-.147.174-.305.349-.463.518-4.191 4.659-8.622 9.106-13.025 13.477-4.033 4-8.137 7.935-12.344 11.761-.191.169-.382.343-.572.512a245.019 245.019 0 01-3.821 3.395c-5.079 4.426-10.393 8.633-16.186 12.094-5.668 3.384-11.831 6.032-18.355 7.188-5.417.964-12.038 1.166-16.333-2.894-2.638-2.496-3.64-5.924-3.924-9.472-.201-2.441-.054-4.943.126-7.232.136-1.722.327-3.439.566-5.15a75.47 75.47 0 01-5.351 7.951c-1.477 1.908-3.401 4.856-6.131 4.905-2.447.044-3.832-2.338-4.42-4.409-.894-3.101-.883-6.583-.518-9.766.807-7.046 3.722-13.69 7.166-19.821a118.583 118.583 0 015.554-8.916 125.697 125.697 0 014.845-6.616 126.75 126.75 0 0111.161-12.469c.153-.158.311-.311.469-.458a130.06 130.06 0 0120.181-16.039c.163-.114.332-.218.501-.327 8.327-5.313 17.254-9.684 26.584-12.938.175-.065.349-.125.523-.179.311-.115.627-.224.943-.327 8.736-2.927 19.096-5.63 28.258-3.467a24.404 24.404 0 015.264 1.881 22.924 22.924 0 014.3 2.774c4.42 3.596 6.802 8.67 6.671 14.267z" fill="#EFEEFE"/><path d="M205.459 140.278c-11.624 6.583-23.02 13.564-33.898 21.32-16 11.406-30.906 24.562-42.808 40.274-5.434 7.166-10.028 14.796-13.946 22.758-5.608 11.374-9.837 23.424-13.162 35.751-6.152 22.813-10.19 46.308-13.264 69.715a645.528 645.528 0 00-5.32 68.853c1.412.169 2.823.36 4.23.578a648.176 648.176 0 014.049-57.409c2.752-23.756 6.676-47.473 12.257-70.733 2.932-12.208 6.539-24.301 11.406-35.849 3.679-8.726 8.077-17.14 13.434-25.048 11.205-16.524 25.827-30.432 41.735-42.372 12.856-9.641 26.557-18.077 40.552-25.958a24.39 24.39 0 00-5.265-1.88zM72.903 182.864c-.027-.18-.06-.366-.087-.545-1.88-11.407-6.11-22.203-11.069-32.591-5.172-10.823-10.872-21.406-16.66-31.903-10.273-18.622-21.162-36.895-32.296-55.01-1.215 1.155-2.289 2.517-3.231 4.016 9.253 15.069 18.333 30.236 27.02 45.637 5.907 10.464 11.63 21.031 17.096 31.729 5.286 10.344 10.344 20.905 13.385 32.159 1.667 6.164 2.621 12.453 3.073 18.791.42 5.712.431 11.456.202 17.173-.468 11.924-1.738 23.838-3.199 35.68-2.975 24.126-7.308 48.068-12.033 71.905-3.488 17.614-7.183 35.179-10.725 52.776a14.16 14.16 0 012.714-.386 22.355 22.355 0 012.103.005c3.112-15.505 6.355-30.988 9.472-46.487 4.807-23.86 9.325-47.79 12.595-71.911 1.613-11.88 2.959-23.81 3.804-35.773.817-11.515-.344-23.826-2.164-35.265z" fill="#7464DC"/><path d="M49.997 314.465h0a893.49 893.49 0 0064.068-.833.063.063 0 01.011.018.1.1 0 01.008.031 320.579 320.579 0 011.492 26.174c.065 4.33.044 8.653-.071 12.971v.001c-.063 2.562-.045 5.028-.024 7.804.012 1.51.024 3.111.024 4.869 0 .558.02 1.206.043 1.929.13 4.179.338 10.853-2.831 17.082-3.699 7.274-12.042 13.993-30.734 15.239-18.195 1.213-30.24-3.606-38.089-11.465-7.856-7.867-11.543-18.814-12.948-29.919-1.404-11.103-.522-22.338.735-30.747.628-4.204 1.35-7.698 1.926-10.114.287-1.208.538-2.144.722-2.764.092-.31.166-.537.219-.677l.007-.018c4.489.167 11.001.317 15.442.419zm-15.397-.527c.004-.006.004-.005 0 .001v-.001z" fill="#fff" stroke="#000" stroke-width=".5"/><path d="M305.164 258.954L165.381 370.681V260.884l52.52-2.099 87.263.169z" fill="#EC9717"/><path d="M257.593 371.652l-92.212-.971V260.884l92.212.97v109.798z" fill="#FFC93D"/><path d="M305.165 359.057l-47.578 12.605V261.864l47.578-2.91v100.103z" fill="#FFC93D"/><path d="M257.037 289.844c-.033-7.084-.065-14.175-.093-21.259 0-.311-.545-.311-.545 0 .109 24.802.224 49.604.333 74.406.033 7.085.065 14.175.093 21.26 0 .311.544.311.544 0-.109-24.802-.223-49.604-.332-74.407z" fill="#EC9717"/><path d="M279.528 197.42l-134.829 52.384 9.891-62.701 51.665-3.368 73.273 13.685z" fill="#000"/><path d="M231.807 201.247l-9.813 62.206-77.01-13.852 9.813-62.206 77.01 13.852zm47.424-3.554l-9.659 61.232-47.085 4.55 9.811-62.186 46.933-3.596zm-73.323-14.186l-51.137 3.334-7.479-24.225 49.978-3.415 8.638 24.306zm26.704 17.228l19.821-18.202 45.616-3.585-18.675 18.284-46.762 3.503z" fill="#fff" stroke="#000" stroke-width=".5"/><path d="M177.217 219.118l-16.054-2.919-.46 2.531 16.054 2.919.46-2.531zm-12.044-3.621l1.57-8.633-.899-.19 2.964-4.175 1.368 4.878-.888-.137-1.586 8.72-2.529-.463zm5.969 1.084l1.569-8.633-.899-.19 2.959-4.175 1.374 4.878-.889-.137-1.586 8.72-2.528-.463z" fill="#000"/><path d="M176.76 224.778l-17.597-3.199a2.085 2.085 0 01-1.679-2.425l3.357-18.475a2.085 2.085 0 012.425-1.679l17.598 3.199a2.085 2.085 0 011.678 2.425l-3.357 18.475a2.085 2.085 0 01-2.425 1.679zm-13.57-25.336a1.642 1.642 0 00-1.907 1.318l-3.358 18.475a1.644 1.644 0 001.319 1.908l17.598 3.199a1.643 1.643 0 001.907-1.319l3.357-18.475a1.642 1.642 0 00-1.318-1.907l-17.598-3.199z" fill="#000"/><path d="M233.815 377.953h-72.75l2.458-121.532h72.75l-2.458 121.532z" fill="#EFEEFE"/><path d="M225.378 368.083H168.88l2.272-103.504h56.499l-2.273 103.504z" fill="#FAF7F5"/><path d="M219.912 355.363h-46.127l1.858-84.505h46.122l-1.853 84.505z" fill="#F2ECE6"/><path d="M199.23 383.674h-64.597l2.18-106.272 64.597-1.635-2.18 107.907z" fill="#7464DC"/><path d="M191.737 374.91h-50.166l2.022-90.266 50.16-1.634-2.016 91.9z" fill="#FAF7F5"/><path d="M186.412 362.01H146.28l1.613-72.221 40.133-1.308-1.614 73.529z" fill="#F2ECE6"/><path d="M206.299 387.762h-61.584l10.175-90.647h61.583l-10.174 90.647z" fill="#EFEEFE"/><path d="M199.939 379.408h-47.823l8.584-75.388h47.822l-8.583 75.388z" fill="#FAF7F5"/><path d="M192.189 364.148H161.79l5.455-47.92h30.399l-5.455 47.92z" fill="#F2ECE6"/><path d="M230.567 323.639H115.575v17.712h114.992v-17.712zm-.54 26.977H115.581v17.712h114.446v-17.712zm0 26.704H115.581v17.712h114.446V377.32z" fill="#000"/><path d="M128.655 336.446h-13.08v47.141h13.08v-47.141zm108.321-2.452h-13.08v47.141h13.08v-47.141z" fill="#000"/><path d="M268.062 334.446l-37.5 6.905v-17.712l37.5-6.905v17.712zm-.546 26.977l-37.5 6.905v-17.712l37.5-6.905v17.712zm0 26.704l-37.5 6.905V377.32l37.5-6.905v17.712z" fill="#000"/><path d="M268.089 331.34h-11.161v47.141h11.161V331.34z" fill="#000"/><path d="M230.071 324.811v67.758c0 .348.545.348.545 0v-67.758c0-.349-.545-.349-.545 0z" fill="#fff"/><path d="M311.535 341.213v.001c.011.17.011.347.006.522-.063 1.874-1.013 3.676-2.409 4.94-3.875 3.508-10.34 3.721-15.157 2.187-.93-.297-1.797-.68-2.371-1.244-.558-.547-.854-1.274-.627-2.323v-.001c.202-.957.753-1.655 1.484-2.194h0l.004-.003c.154-.118.32-.227.495-.333l.29-.176-.253-.225a2.041 2.041 0 01-.243-.251v-.001l-.006-.007c-.487-.572-.753-1.354-.774-2.111-.028-1.132.46-2.134 1.213-2.983.753-.85 1.76-1.532 2.735-2.013 3.862-1.904 8.772-1.483 12.267 1.025 1.666 1.204 3.113 2.86 3.326 4.902v.002c.009.086.014.178.02.273v.013zm-20.521-27.904h0c-.77-.457-1.695-.663-2.681-.701a10.184 10.184 0 00-.801.011h-.002c-1.465.074-2.963.48-4.162.948-5.053 1.985-8.831 7.204-9.281 12.616-.087 1.084.02 2.493.461 3.701.441 1.21 1.197 2.177 2.381 2.478l14.085-19.053zm0 0c.937.553 1.534 1.452 1.899 2.491.366 1.041.494 2.206.502 3.258.013 2.287-.551 5.27-1.792 7.759-1.243 2.492-3.138 4.439-5.766 4.765-1.654.205-3.47-.397-4.413-1.748l-.211-.301-.203.307a8.872 8.872 0 01-.599.822h0l-.004.005a6.73 6.73 0 01-.572.636h-.001m11.16-17.994l-11.16 17.994m0 0c-.87.849-1.858 1.328-2.924 1.059l2.924-1.059z" fill="#fff" stroke="#000" stroke-width=".5"/><path d="M311.791 341.744c-2.905.131-5.81.267-8.709.398-1.804.081-3.608.169-5.412.25-1.689.077-3.553-.021-5.188.453-.054.016-.114.032-.169.054-1.635.529-3.014 1.809-4.305 2.889-1.21 1.002-2.382 2.098-3.281 3.395-1.324 1.913-1.602 4.55-3.559 5.989-.147.109-.343-.011-.397-.169-.109-.027-.208-.109-.208-.25-.092-4.791-.179-9.576-.272-14.366-.055-2.943-.234-5.93-.262-8.905a58.736 58.736 0 01.131-4.791c.393-5.39 3.493-10.338 7.357-14.322.278-.016.551-.016.823-.011a35.71 35.71 0 00-3.875 4.736c-1.139 1.673-2.201 3.455-2.899 5.363-.725 2-.915 4.104-.932 6.218-.005.719-.011 1.428-.011 2.147 0 7.848.327 15.718.474 23.571l.148-.196a.291.291 0 01.299-.109c.812-.949 1.178-2.191 1.69-3.341.561-1.27 1.357-2.393 2.3-3.406 1.051-1.123 2.25-2.098 3.466-3.041 1.03-.801 2.06-1.619 3.335-1.979.076-.021.147-.038.224-.054 1.389-.354 2.882-.322 4.299-.382l5.952-.277c2.992-.137 5.984-.278 8.976-.409.01.18.01.365.005.545z" fill="#000"/><path d="M299.37 371.331c-.534 7.286-2.485 14.818-7.973 19.995-5.455 5.15-13.81 5.706-20.769 3.63-8.017-2.393-9.87-10.589-10.78-17.93-.959-7.728-.703-15.554.692-23.2h39.157c.06 5.842.104 11.706-.327 17.505z" fill="#1F3044"/><path d="M263.092 401.236c-.127.107-.255.218-.377.33l-.384-.313c.623-1.041 1.039-2.15.878-3.19v-.002a2.887 2.887 0 00-.619-1.38h0c-.588-.739-1.455-1.086-2.408-1.171-.956-.086-1.977.094-2.83.386-4.657 1.602-7.818 6.52-7.974 11.374l13.714-6.034zm0 0c1.376-1.135 3.024-1.915 4.766-2.058.603-.048 1.069.094 1.431.352.367.261.645.653.845 1.128.402.954.463 2.194.323 3.178-.395 2.724-2.286 4.891-4.377 6.652h0c-2.158 1.821-4.604 3.436-7.367 4.006-1.869.383-3.701.174-5.237-.517a8.205 8.205 0 01-.48-.237c-2.219-1.199-3.713-3.467-3.618-6.47l13.714-6.034zm35.913 15.418v-.001c-1.062-1.917-3.174-2.645-5.139-1.637l5.139 1.638zm0 0c.598 1.077.8 2.337.807 3.646.007 1.243-.16 2.508-.315 3.679l-.025.188c-.336 2.535-1.015 5.107-2.617 7.092h-.001c-1.956 2.434-4.796 3.396-7.337 2.716h0l-.006-.001a4.743 4.743 0 01-.508-.156h-.001c-1.214-.435-2.351-1.264-3.272-2.523-1.53-2.096-1.979-4.719-1.919-7.313h0c.027-1.255.061-2.746.275-4.183.214-1.441.606-2.801 1.329-3.807.546-.757 1.319-1.28 2.128-1.452.802-.17 1.649.002 2.374.652h.001a3.47 3.47 0 011.145 2.14l.117.784.354-.709a5.75 5.75 0 01.22-.392c.31-.503.679-.955 1.129-1.332h0m6.122.971l-6.122-.971m0 0l.004-.004m-.004.004l.004-.004m0 0c.289-.253.616-.476.979-.663l-.979.663zm16.035-33.039h0c.727 1.105 1.061 2.45 1.195 3.862.134 1.405.068 2.857.008 4.179l-.001.018h0c-.119 2.685-.589 5.409-1.903 7.748h0c-1.093 1.949-2.912 3.824-5.188 3.927-2.171.097-3.802-1.643-4.886-3.474-1.363-2.308-2.148-4.963-2.347-7.636h0c-.095-1.226-.108-2.653.075-4.036.183-1.385.561-2.707 1.236-3.738.526-.801 1.224-1.13 1.923-1.118.71.013 1.457.38 2.059 1.045l.243.27.165-.324c.393-.771.925-1.453 1.679-2.004h.001c1.975-1.447 4.419-.734 5.741 1.281zm-24.845-18.311l-.001.001a5.028 5.028 0 00-.649.332l-.267.161-.099-.296c-.028-.083-.051-.152-.082-.219l-.003-.008h0c-.74-1.744-2.465-2.523-4.254-1.842-1.182.451-1.979 1.344-2.546 2.434-.569 1.093-.896 2.369-1.14 3.557-.553 2.702-.779 5.612.343 8.132l8.698-12.252zm0 0c.17-.072.347-.134.527-.193 1.163-.347 2.416-.254 3.454.448.904.614 1.384 1.57 1.604 2.651.221 1.083.175 2.271.043 3.307a13.4 13.4 0 01-3.076 6.932c-1.578 1.837-3.8 3.467-6.246 3.146h-.002a1.588 1.588 0 01-.217-.037l-.014-.003-.013-.002a4.093 4.093 0 01-.605-.144l-.002-.001m4.547-16.104l-4.547 16.104m0 0c-1.838-.564-3.368-2.097-4.151-3.852l4.151 3.852zm31.451 28.92h0l.002-.005c.484-1.228 1.199-2.288 2.205-2.999 2.273-1.594 5.296-.72 7.245 1.09 3.6 3.345 4.344 8.995 2.549 13.463h0c-.894 2.232-2.448 4.277-4.512 5.502l-.011.007-.007.005-.001.001-.013.006-.008.004-.015.007-.007.004-.007.004a6.663 6.663 0 01-.456.241c-2.12 1.012-4.453.672-6.569-.474-4.65-2.526-7.245-7.92-7.395-13.112v-.001c-.03-1.002.023-2.18.361-3.176.336-.989.941-1.772 2.009-2.057h.001c.893-.243 1.687-.083 2.395.319l.001.001c.631.354 1.196.904 1.685 1.537l.276.357.156-.424a6.95 6.95 0 01.116-.3zm-3.217 25.072l.2.272.202-.272a8.814 8.814 0 012.146-2.083c2.127-1.431 5.003-1.842 7.05-.192 1.902 1.533 2.676 3.946 2.726 6.511.05 2.563-.625 5.237-1.574 7.23-1.106 2.312-2.941 4.518-5.103 5.704-2.147 1.177-4.614 1.35-7.056-.382-2.217-1.577-3.455-4.076-4.261-6.667h0c-.417-1.338-.877-2.823-1.097-4.311-.22-1.488-.197-2.957.333-4.268.37-.912 1.03-1.774 1.848-2.328.816-.552 1.777-.792 2.776-.496h.001a3.44 3.44 0 011.809 1.282zm1.282-67.876h0l.001-.008c.01-.081.021-.161.032-.235.116-.735.476-1.291.967-1.605.489-.313 1.137-.403 1.866-.158.737.251 1.36.801 1.882 1.484.52.682.926 1.48 1.233 2.198a11.395 11.395 0 01.805 5.838c-.097.76-.272 1.674-.574 2.532-.303.863-.725 1.649-1.303 2.176h0l-.008.008a2.49 2.49 0 01-.239.199c-.07.049-.133.09-.192.119h-.001l-.01.006c-.566.318-1.224.31-1.888.106-.664-.205-1.309-.6-1.815-1.014-1.532-1.254-2.547-3.104-3.521-4.877a68.6 68.6 0 00-.152-.276h0c-.095-.174-.196-.351-.299-.532-.337-.592-.693-1.217-.947-1.866-.329-.843-.465-1.676-.172-2.462v-.001c.262-.704.757-1.081 1.332-1.209.585-.132 1.273-.009 1.899.332.203.115.394.239.573.378l.403.31v-.505l.001-.011v-.001a.387.387 0 00.003-.024l.001-.02c.037-.32.08-.622.123-.882z" fill="#fff" stroke="#000" stroke-width=".5"/><path d="M279.898 353.194c-4.61 2.261-6.534 7.406-8.033 11.989-3.15 9.63-4.556 19.707-7.041 29.506-.545 2.169-1.123 4.305-1.891 6.354-.85 2.306-1.935 4.502-3.472 6.518-1.814 2.382-3.885 4.589-6.087 6.644a8.163 8.163 0 01-.496-.246c2.965-2.697 5.739-5.7 7.739-9.057 1.253-2.115 2.141-4.458 2.839-6.878.774-2.638 1.324-5.363 1.908-7.946 1.122-4.981 2.076-10 3.231-14.971 1.112-4.806 2.338-9.684 4.267-14.235 1.407-3.329 3.423-6.512 6.764-8.147.31-.153.588.316.272.469zm4.633 10.704a31.485 31.485 0 01-.589 4.73c-.588 2.943-1.526 5.799-2.578 8.611-.414 1.106-.79 2.376-1.264 3.586a4.209 4.209 0 01-.643-.153c.104-.261.196-.517.3-.773.49-1.243.975-2.491 1.428-3.744.85-2.349 1.607-4.742 2.13-7.183.344-1.603.573-3.238.665-4.872.202-3.619-.288-7.249-1.82-10.595-.142-.316.327-.594.474-.272 1.543 3.368 2.066 7.019 1.897 10.665zm22.9 68.509c-4.284-6.256-5.39-13.592-5.592-21.025-.392-14.824 1.548-30.072-3.161-44.438-1.749-5.336-4.975-13.974-11.701-14.268-.348-.016-.348.529 0 .545 3.347.147 5.745 2.741 7.401 5.417 1.788 2.889 3.069 6.12 4.066 9.358 2.076 6.757 2.747 13.848 2.899 20.889.169 7.499-.256 14.998-.054 22.497.174 6.354.904 12.932 3.994 18.606 3.608 6.621 10.829 12.169 10.213 20.426-.027.348.518.348.545 0 .54-7.189-4.861-12.524-8.61-18.007z" fill="#000"/><path d="M318.526 426.658a6.385 6.385 0 01-.474.251c-1.646-2.938-3.008-6.039-4.289-9.167-1.117-2.736-1.962-5.956-3.629-8.409a6.584 6.584 0 00-1.265-1.368c-2.022-1.673-4.97-2.37-7.346-3.248-2.447 2.692-5.128 5.308-7.281 8.24a16.468 16.468 0 00-1.521 2.534c-.915 1.897-1.504 3.957-1.896 6.039-.632 3.341-.839 6.758-1.145 10.142-.076.85-.158 1.695-.228 2.545a4.958 4.958 0 01-.535-.163c.093-1.063.191-2.131.289-3.194.3-3.308.518-6.654 1.183-9.919a26.273 26.273 0 011.15-4.054c.627-1.635 1.449-3.189 2.534-4.6 2.218-2.878 4.845-5.493 7.281-8.191.164-.185.403-.044.447.142 2.572.937 5.728 1.684 7.771 3.586.453.419.84.904 1.178 1.433 1.122 1.727 1.749 3.902 2.479 5.717 1.597 3.967 3.216 7.956 5.297 11.684zm-4.403-47.702a2.742 2.742 0 01-.267.223 1.781 1.781 0 01-.229.142c-1.15-2.714-2.229-5.461-3.319-8.202-.501-1.27-.992-2.545-1.635-3.706-.801-1.461-1.847-2.742-3.471-3.597-2.703-1.423-5.815-1.477-8.802-1.439-.349.006-.349-.539 0-.545 2.872-.038 5.826.016 8.486 1.226 1.722.785 2.964 1.968 3.913 3.45.387.605.724 1.259 1.024 1.957 1.504 3.471 2.856 7.003 4.3 10.491z" fill="#000"/></g><defs><clipPath id="clip0_0_640"><path fill="#fff" d="M0 0h324.167v452.74H0z"/></clipPath></defs></svg>