<svg width="342" height="422" fill="none" xmlns="http://www.w3.org/2000/svg"><g clip-path="url(#clip0_0_1641)"><path d="M253.957 7.524V312.04l9.87.223h75.435V9.455l-85.305-1.931z" fill="#fff"/><path d="M295.883 301.662c.079-2.276.164-4.553.26-6.824 1.422-33.266 4.717-66.425 8.771-99.463 2.011-16.38 4.203-32.735 6.453-49.084.711-5.189.684-13.212 5.927-16.216 5.046-2.897 10.915 1.077 12.947 5.784.584 1.343.945 2.749 1.173 4.181.366-1.984 1.194-3.799 3.003-4.818a5.772 5.772 0 012.887-.716c.096-.255.212-.499.35-.738.409-.7.971-1.194 1.608-1.485v179.981h-39.267c-2.176-1.279-3.667-3.173-4.049-5.821-.228-1.581-.122-3.189-.063-4.781z" fill="#fff" stroke="#000" stroke-width=".364"/><path d="M336.779 5.847v306.475l5.221-.011V5.841l-5.221.006z" fill="#EFEEFE"/><path d="M187.632 5.99c.032 1.74.499 3.332.451 5.067H342V5.841l-5.221.006-149.147.143z" fill="#EFEEFE"/><path d="M187.633 312.333l122.041 4.648V.021L187.633.684v311.649z" fill="#EFEEFE"/><path d="M309.679 317.013l6.803-.366V0l-6.803.058v316.955z" fill="#7464DC"/><path d="M205.849 218.458l85.306 1.252V21.517l-85.306-1.252v198.193z" fill="#fff"/><path d="M298.79 159.244l2.504.127c1.582.08 2.861-1.125 2.861-2.685v-23.879c0-1.565-1.279-2.892-2.861-2.971l-2.504-.128c-1.582-.079-2.86 1.125-2.86 2.685v23.879c0 1.565 1.278 2.892 2.86 2.972z" fill="#7464DC"/><path d="M280.207 140.046c2.059-.026 4.171.372 6.209.573 4.606.451 9.206.897 13.812 1.348.016-.026.027-.058.037-.085.154-.313.632-.111.478.202a.104.104 0 01-.021.042c.058.133-.005.329-.165.382a9.307 9.307 0 00-.769 3.232c-.011.143-.181.244-.308.233l-13.871-1.496c-2.075-.223-4.277-.276-6.304-.711-.928-.202-1.984-.722-1.873-1.847.133-1.374 1.64-1.857 2.775-1.873z" fill="#7464DC"/><path d="M244.936 263.201l4.426-.228V7.912l-4.426.228V263.2z" fill="#EFEEFE"/><path d="M198.77 114.468l102.466 1.947v4.426l-102.466-1.953v-4.42zM4.334 379.444c2.829-2.924 6.665-5.105 10.247-6.957 3.789-1.958 7.774-3.513 11.85-4.749 8.781-2.658 17.924-3.799 27.056-4.346 10.395-.626 20.822-.52 31.218-1.189 10.347-.668 20.594-2.287 30.74-4.409 20.201-4.229 40.142-9.843 60.089-15.134 20.201-5.359 40.392-10.745 60.583-16.126 1.188-.318 2.372-.631 3.56-.95.531-.143 1.019-.456 1.486-.085.005.006.011.016.021.022 4.023-.674 8.108-.918 12.189-.669 3.412.207 7.344.547 10.119 2.77 2.606 2.091 2.908 5.524 1.109 8.267-2.25 3.433-6.42 4.373-10.23 4.893-9.578 1.31-19.22 2.122-28.75 3.772-9.679 1.672-18.992 4.325-27.949 8.374-8.368 3.783-16.471 8.251-25.237 11.08-9.313 2.998-19.034 3.316-28.713 4.006-5.009.361-10.018.865-14.927 1.974-4.505 1.019-8.898 2.478-13.186 4.187-8.633 3.438-16.832 7.848-25.227 11.812-16.555 7.811-34.3 12.634-52.713 12.194-9.026-.218-18.042-1.682-26.606-4.569-1.98-.669-3.948-1.396-5.864-2.229-1.608-.7-3.189-1.634-3.879-3.337-1.257-3.089.95-6.464 3.014-8.602z" fill="#EFEEFE"/><path d="M222.75 304.339c2.409 1.677 4.787 3.402 6.766 5.588.44.483.86.992 1.257 1.528 1.279 1.725 2.086 3.571 2.574 5.508a15.837 15.837 0 01-.377 4.15 37.467 37.467 0 00-.387 1.947c-.302 1.73-3.476 13.924 4.24 14.975l.079.032c.351.111.722.175 1.093.206h.006c.217.011.435.011.652 0a5.21 5.21 0 001.163-.185c.275-.075.53-.181.78-.303 2.616-2.425 4.6-5.237 5.534-8.654.483-1.757.77-4.702.34-6.548-.181-.78-.542-1.46-1.03-2.075-.859-1.093-1.348-1.9-1.024-3.349.695-3.136 2.229-7.02.388-9.604a6.909 6.909 0 00-.499-.616 5.771 5.771 0 00-.632-.583c-.727-.589-1.544-.966-2.499-1.401-1.523-.695-3.062-1.364-4.563-2.107a32.871 32.871 0 01-2.484-1.353c-1.958-1.183-3.773-2.605-5.497-4.134a27.764 27.764 0 00-3.959 4.102 21.178 21.178 0 00-1.921 2.876z" fill="#fff"/><path d="M243.657 325.299c.037 3.459-1.512 6.728-3.369 9.593a79.06 79.06 0 01-2.287 3.381c.217.01.435.01.652 0a79.083 79.083 0 002.234-3.333c1.889-2.955 3.391-6.298 3.29-9.87a.16.16 0 000-.069v-.106c-.079-1.884-.806-3.353-1.486-5.067-.843-2.133.106-4.092.892-6.076a12.452 12.452 0 00.722-6.814 5.872 5.872 0 00-.632-.583c.249 1.04.377 2.101.34 3.178-.069 2.096-.918 3.858-1.624 5.784-.43 1.184-.748 2.415-.504 3.672.339 1.762 1.454 3.211 1.687 5.041.032.244.053.488.069.733-1.788-.303-3.773-.78-4.632-2.468a.18.18 0 00-.048-.095 6.432 6.432 0 01-.17-.42c-.615-1.883-.329-4.075-.35-6.028-.016-1.745-.223-3.454-.711-5.136-.265-.913-.626-1.81-.785-2.754-.213-1.242-.011-2.489.207-3.715.058-.334-.452-.477-.515-.138-.197 1.136-.403 2.293-.281 3.45.1.981.435 1.904.721 2.844.759 2.462.828 4.871.823 7.423 0 1.338-.059 2.945.414 4.288a10.176 10.176 0 00-5.62.424c-.042.207-.079.414-.111.621a9.632 9.632 0 015.991-.451c.085.159.175.324.281.472 1.104 1.523 3.046 1.932 4.802 2.219z" fill="#BABCBF"/><path d="M162.597 69.028c-1.963-3.237-.371-7.222 2.998-8.576-1.257-1.629-2.388-3.48-2.324-5.614.069-2.228 1.364-4.197 2.743-5.858 3.131-3.767 7.042-9.477 6.283-15.919-.748-6.378-2.223-11.197 6.723-15.893 1.396-.732 1.666-1.427 2.515-2.467 2.85-3.497 8.103-3.014 10.539.568 1.263-2.102 3.428-3.64 5.922-3.938 3.46-.408 6.962 1.773 8.288 4.962.239.578.34 1.31 1.04 1.555.377.127.987.042 1.401.106a9.29 9.29 0 012.797.907 9.03 9.03 0 014.059 4.134 9.324 9.324 0 01.844 5.179c-.08.61-.35 1.242-.382 1.841-.069 1.22.361 1.804 1.13 2.606.701.732 1.332 1.549 1.778 2.467 1.666 3.439-.536 7.418-4.394 7.2 2.43 6.915 4.887 15.315-.228 21.661a10.966 10.966 0 01-1.719 1.709c-.52.409-1.651.796-1.895 1.4-.217.542.006 1.603-.127 2.25a8.5 8.5 0 01-.748 2.129c-1.475 2.929-4.426 4.95-7.668 5.333-3.157.371-6.256-.637-8.862-2.378-.424.727-.87 1.444-1.326 2.144.366 2.42-1.062 3.359-2.988 3.646-.254.185-.53.355-.833.498-.281.133-.525-.196-.403-.398-1.963.053-4.128-.323-5.397-.43a279.364 279.364 0 01-8.909-.838c-2.261-.254-4.707-.36-6.867-1.13-1.496-.536-2.865-1.496-3.284-3.11-.266-1.002-.096-2.053.159-3.035.218-.822.377-.992-.085-1.687-.228-.35-.552-.648-.78-1.024zm28.883 8.277c-.154.223-.303.452-.462.674-.366.51-.738 1.003-1.152 1.444.94-.324 1.592-.955 1.614-2.118z" fill="#A04416"/><path d="M165.287 210.405c.101-2.388-.016-5.242.807-7.529.626-1.736 2.048-2.303 3.804-2.181 2.786.196 5.588.764 8.353 1.151l18.238 2.563c5.884.828 11.79 1.555 17.654 2.499 4.531.727 9.228 1.99 12.311 5.63 1.867 2.208 3.12 4.914 4.377 7.493 1.359 2.791 2.659 5.635 3.773 8.538 1.635 4.261 2.446 9.801-1.549 12.985-.037.138-.154.254-.303.228-.159.069-.297-.043-.339-.197a55.87 55.87 0 00-30.846-9.434c-.372 0-.372-.579 0-.579.286 0 .573.016.865.022-10.634-2.325-21.619-2.93-32.444-1.688-.806.09-1.942.43-2.695-.064-.711-.466-.801-1.432-.934-2.191a80.422 80.422 0 01-.982-8.358 88.712 88.712 0 01-.09-8.888z" fill="#1F3044"/><path d="M187.293 45.865c3.72 3.306 8.135 6.113 13.266 6.166.148 0 .239.096.27.207a.267.267 0 01.218.27 109.632 109.632 0 001.247 17.835c.032.207-.127.44-.361.361-3.008-.987-6.16-.955-9.265-1.374-1.061-.144-2.579-.197-3.497-.775-.764-.483-.658-1.502-.732-2.303a953.472 953.472 0 01-1.64-20.185c-.031-.266.319-.361.494-.202z" fill="#FEA679"/><path d="M162.751 147.085a95.12 95.12 0 0124.42 2.823c-.032-.298.392-.515.53-.202.059.127.106.255.16.382.589.149 1.178.292 1.761.456.366.101.212.669-.159.568-.435-.122-.876-.228-1.316-.345 4.548 10.793 5.811 22.52 7.121 34.062 1.465 12.862 3.476 25.699 5.869 38.423 2.308 12.269 5.715 24.054 12.072 34.879 2.945 5.015 6.012 9.928 8.076 15.394 1.831 4.855 3.174 10.002 5.991 14.412 1.635 2.552 3.741 4.272 6.087 6.124a10.137 10.137 0 011.592 1.56c1.459 1.443 2.568 3.157 3.157 5.386.987 3.73.557 7.821-.605 11.456-.876 2.743-2.839 8.045-6.214 7.763-7.933-.652-16.619-15.149-20.461-19.272-.016-.016-.016-.032-.027-.048-2.382-2.59-4.574-5.333-6.394-8.395-3.163-5.317-5.492-11.085-8.273-16.604-2.632-5.221-5.46-10.342-8.161-15.526-2.695-5.174-5.269-10.422-7.365-15.871-2.128-5.524-3.566-11.165-4.489-17.002-.499-3.136-.966-6.293-1.857-9.35-.913-3.131-2.282-6.097-3.588-9.079-2.382-5.471-3.894-10.99-4.616-16.917-.897-7.36-1.274-14.799-1.852-22.186-.589-7.529-1.173-15.059-1.762-22.589-.005-.17.154-.302.303-.302z" fill="#1F3044"/><path d="M180.687 186.902c-2.054-13.165-2.203-26.494-.287-39.686.027-.17.223-.228.361-.207l13.011 1.879c3.746.541 7.599.902 11.228 2.027 3.195.987 5.949 2.7 8.056 5.322 1.745 2.175 3.029 4.68 4.261 7.179a4.447 4.447 0 01-.038-.254c-.058-.372.51-.531.568-.16.112.722.223 1.444.34 2.165.042.08.079.16.122.245a.295.295 0 01-.032.318c1.926 12.412 3.757 24.866 4.33 37.426.61 13.425-.515 26.617-3.911 39.628-1.677 6.426-3.475 12.831-3.969 19.479-.462 6.251-.069 12.524-.027 18.785.043 5.885-.217 11.865-1.883 17.543-1.73 5.885-5.981 10.857-7.031 16.927-.616 3.566-.297 7.196-.462 10.793-.069 1.555-.223 3.121-.584 4.643-.276 1.168-.626 2.67-1.512 3.556-.875.875-2.006.748-3.104.43-1.815-.531-3.603-1.163-5.402-1.746l-11.143-3.614c-.112-.037-.388-1.926-.372-2.053 1.539-12.062 2.001-22.499 1.003-34.619-.493-6.039-1.634-12.035-1.9-18.095-.116-2.717-.005-5.455.52-8.129.558-2.85 1.555-5.583 2.298-8.379 3.099-11.632-1.666-23.035-2.298-34.645-.334-6.119.467-12.232.234-18.355-.239-6.193-1.428-12.29-2.377-18.403z" fill="#1F3044"/><path d="M163.653 109.276c.489-8.182 1.417-16.63 3.81-24.494 1.985-6.532 5.503-12.634 11.473-16.174 2.78.043 5.603-.143 8.357-.212.664.053 1.332.106 1.995.165 3.625.313 7.249.636 10.878.896 1.078.08 2.15.18 3.221.27 1.094.23 2.187.394 3.269.325.25-.016.472-.075.679-.144.181 0 .367-.016.547-.02.791.355 1.565.726 2.319 1.135 4.627 2.494 8.464 6.028 10.087 11.552 1.502 5.13 1.587 10.708 1.905 16.004.35 5.863.695 11.716 1.046 17.58.35 5.858.695 11.716 1.045 17.574.313 5.248 1.109 10.788.143 15.999-.371 1.995-1.019 4.33-2.467 5.832-1.385 1.433-3.396 1.762-5.291 1.99-5.211.615-10.501.721-15.744.382a91.1 91.1 0 01-31.849-7.997c-.923.483-1.857.419-2.265-.955-1.21-4.091-1.688-8.575-2.234-12.804a143.336 143.336 0 01-.924-26.904z" fill="#FAF7F5"/><path d="M178.708 72.25c.037-1.29.201-2.595.552-3.842.148-.085.297-.165.445-.25 7.78-4.181 17.029-3.475 24.84.202.111.048.153.138.148.223 1.9.695 3.757 1.486 5.503 2.43a1.714 1.714 0 01-.085.212c-.632 1.407-2.054 1.497-3.279 2.054-1.582 5.73-4.893 11.16-10.645 13.44-5.529 2.193-11.939.165-15.24-4.801-1.857-2.802-2.335-6.363-2.239-9.669z" fill="#FEA679"/><path d="M123.038 143.163a90.88 90.88 0 007.354-11.801c8.692-16.551 13.096-35.494 23.985-50.877 2.913-4.113 6.559-7.456 11.074-9.722 1.99-1.003 4.076-1.788 6.214-2.398 2.606-1.078 5.503-1.794 8.252-2.25 3.268-.541 6.325-.722 8.431-.711-3.417 2.786-5.248 7.147-6.463 11.345-1.793 6.203-2.934 12.65-4.112 18.997a400.365 400.365 0 00-2.038 12.024c-3.067 19.904-4.68 40.026-5.349 60.148-.812 24.303-.249 48.633.775 72.925a505.827 505.827 0 00-26.458-5.694c.478-10.48.987-20.97 1.598-31.451.594-10.352 1.83-27.619 3.327-45.698a188.893 188.893 0 01-6.872-2.33c-4.394-1.581-8.872-3.088-13.048-5.21-1.99-1.014-3.901-2.181-5.641-3.577-.568-.456-1.539-1.029-1.794-1.772-.238-.738.367-1.406.765-1.948zm78.667-76.126a.292.292 0 01.021-.154.173.173 0 01.027-.052.08.08 0 01.021-.027c.09-.106.255-.122.372-.058 1.581.095 3.151.334 4.68.71h.005c.669.17 1.337.356 1.99.574a25.695 25.695 0 017.689 4.075c3.942 3.035 7.556 7.503 7.53 12.666a1573.06 1573.06 0 0128.203 81.538c4.5 14.269 8.798 28.601 12.884 42.998a1541.584 1541.584 0 016.017 21.772c.425 1.592 1.014 3.221 1.284 4.839.17 1.04-.021 1.794-.928 2.388-1.072.711-2.468 1.135-3.667 1.602a61.516 61.516 0 01-5.004 1.72 64.562 64.562 0 01-22.828 2.504 61.993 61.993 0 01-5.338-.605c-1.194-.191-2.521-.44-3.205-1.549-.78-1.258-14.115-46.341-19.713-67.317-2.956-11.074-5.492-22.276-7.228-33.605-1.745-11.414-2.605-22.945-2.95-34.481-.143-4.845-.196-9.7-.196-14.545.005-8.336.17-16.667.334-24.993z" fill="#FFC93D"/><path d="M206.831 67.451h.005c.669.122 1.332.25 1.985.382 10.273 2.027 18.254 4.967 25.109 14.062 4.368 5.795 10.682 18.392 14.63 24.473 3.746 5.763 7.323 11.557 9.716 18.026 4.325 11.7 6.479 26.558-1.64 37.144a36.701 36.701 0 01-4.393 4.75c-3.03 2.77-6.501 5.126-10.024 7.025-2.775 1.497-5.752 2.701-8.867 3.253-1.417.249-2.86.356-4.298.303-1.279-.054-3.115-.075-4.134-.982-.928-.823-1.284-2.473-1.714-3.571a316.226 316.226 0 01-2.17-5.758 291.269 291.269 0 01-3.985-11.653c-2.499-7.821-4.845-25.077-4.739-25.157 2.441-1.841 3.248-2.595 5.689-4.436 1.597-1.199 2.95-2.038 2.488-4.314-.249-1.21-.732-2.42-1.13-3.587-1.857-5.434-4.229-10.671-6.431-15.973-1.794-4.319-3.152-10.84-4.129-16.874-1.31-8.065-1.936-15.277-2.037-15.298-.377-.085-.297-1.863.069-1.815z" fill="#FFC93D"/><path d="M201.705 67.037a.292.292 0 01.021-.154.151.151 0 01.027-.052.08.08 0 01.021-.027c.09-.106.255-.122.371-.058a26.2 26.2 0 014.681.71h.005c.668.123 1.332.25 1.984.383.006.063.006.127.006.19.095 4.458.111 8.915.037 13.368-.016 1.055-.043 2.117-.069 3.173-.043 1.581-.09 3.162-.186 4.744a61.863 61.863 0 01-.355 3.958c-.075.547-.022 1.088-.494 1.433-.106.08-.26.042-.345-.043-1.459-1.342-3.497-1.332-5.221-2.143a4.565 4.565 0 01-.807-.483c-.005-8.342.159-16.673.324-24.999z" fill="#1F3044"/><path d="M187.898 20.475c4.102-1.226 8.612-1.03 12.741.032 2.218.568 3.926 1.613 5.614 3.104.525.462 1.029.96 1.406 1.513.149-.032.329.037.371.222 1.025 4.415 2.054 8.846 2.526 13.357.414 3.98.855 9.026-1.252 12.586-1.836 3.105-4.208 4.474-7.79 5.758-3.598 1.29-7.821-.101-10.862-1.921-3.385-2.027-4.776-4.792-6.739-8.092-2.117-3.556-5.248-7.18-6.055-11.229-1.422-7.063 3.174-13.276 10.04-15.33z" fill="#FEA679"/><path d="M205.463 115.442h0c-.031.024-.03.039-.03.042h0c0 .009.006.032.033.058.056.054.133.065.193.021.754-.589 1.513-1.173 2.278-1.747l.093-.069.102.055c2.227 1.198 4.508.807 6.998-.127a37.592 37.592 0 0111.165-2.352h0c7.131-.393 14.387.248 20.786 3.699 2.39 1.287 4.635 2.797 6.855 4.332l.969.671c1.895 1.315 3.785 2.626 5.752 3.815 1.907 1.151 4.116 2.407 6.419 3.21 2.304.803 4.683 1.148 6.936.496h0c2.23-.643 3.54-2.22 4.169-4.143.631-1.929.573-4.202.057-6.201h0c-1.139-4.419-4.091-8.148-7.728-10.852-9.482-7.047-22.613-6.403-33.844-5.24-10.748 1.115-20.014 6.004-28.549 12.319l-.097.071-.103-.061a7.77 7.77 0 01-.549-.363l-.001-.001c-.034-.025-.051-.02-.056-.018-.012.003-.033.017-.051.047a.157.157 0 00-.021.097.112.112 0 00.05.078l.001.001c.072.054.145.102.224.153l.097.064.215.143-.207.155c-.726.54-1.441 1.086-2.156 1.647zm1.718-2.016c-.297-.218-.01-.717.292-.499.18.127.356.249.536.356l-.828.143zm-2.474-37.42h0c4.5 4.139 5.496 11.398 4.999 17.235-.639 7.449-3.932 14.328-8.052 20.487a.104.104 0 01-.07.049.142.142 0 01-.091-.02.11.11 0 01-.051-.056c-.003-.01-.007-.029.016-.062v-.001l-.151-.101c.082-.122.163-.245.244-.369l.058-.089 3.098-37.073zm0 0c-1.72-1.582-4.149-2.512-6.434-2.448m6.434 2.448l-6.434-2.448m0 0c-2.279.063-4.407 1.112-5.569 3.482l5.569-3.483z" fill="#fff" stroke="#000" stroke-width=".364"/><path d="M281.447 85.667h.001c1.577.03 3.148.104 4.716.177 2.588.122 5.168.244 7.761.168 1.498-.045 3.149-.194 4.677-.635 1.528-.441 2.921-1.17 3.917-2.367h0c1.284-1.54 1.49-3.405 1.01-5.173-.48-1.772-1.647-3.437-3.088-4.548-2.967-2.281-6.911-3.02-10.583-3.604-3.835-.609-7.729-.826-11.608-.704-15.034.487-29.588 6.107-41.854 14.671l-.104-.149.104.15c-12.367 8.63-22.498 20.051-31.046 32.423.697.673 1.323 1.4 1.891 2.188 4.521-5.427 7.62-8.855 11.388-11.755 3.81-2.931 8.296-5.317 15.613-8.69 3.468-1.6 10.539-4.138 17.678-6.425 7.138-2.288 14.367-4.332 18.15-4.94a64.119 64.119 0 0111.377-.787z" fill="#fff" stroke="#000" stroke-width=".364"/><path d="M204.745 111.73l.1-.204a207.688 207.688 0 0118.27-30.379c6.653-9.162 14.27-18.232 24.793-22.928l-.075-.166.075.166c2.461-1.098 5.031-1.937 7.679-2.428h0c2.178-.404 4.545-.756 6.678-.215h0c1.735.44 3.129 1.594 3.355 3.402h0c.291 2.291-1.195 4.247-2.913 5.685h0c-3.606 3.023-7.778 5.382-11.911 7.718a310.91 310.91 0 00-3.181 1.816h0c-5.16 3.007-10.087 6.319-14.692 10.131-10.129 8.387-18.672 18.482-26.587 28.913l-.001.001a.164.164 0 01-.099.068c-.022.004-.047.001-.077-.029l-.001-.001a22.05 22.05 0 00-1.177-1.065l-.177-.151-.104.208-.319.637-.001.003h0c-.018.036-.034.041-.042.043-.014.003-.04.001-.071-.017a.157.157 0 01-.064-.072.11.11 0 01.006-.089c.058-.12.118-.239.179-.36l.001-.001c.06-.12.122-.242.181-.366l.062-.13-.111-.09a21.555 21.555 0 00-1.866-1.358m2.09 1.258l-2.092-1.259.002.001m2.09 1.258l-.177-.142a23.365 23.365 0 00-1.805-1.306m1.982 1.448l-1.982-1.448m-.108.19c-.027-.019-.037-.039-.039-.06a.146.146 0 01.081-.145c.011-.003.031-.007.066.015m-.108.19l.108-.19" fill="#fff" stroke="#000" stroke-width=".364"/><path d="M202.13 33.639c.287 1.396 1.104 2.41 1.831 2.26.721-.148 1.077-1.4.79-2.801-.286-1.396-1.103-2.41-1.83-2.26-.727.148-1.083 1.4-.791 2.801zm-10.03.542c.287 1.396 1.104 2.41 1.831 2.261.722-.149 1.077-1.4.791-2.802-.287-1.395-1.104-2.409-1.831-2.26-.722.148-1.077 1.4-.791 2.802z" fill="#1F3044"/><path d="M197.63 32.45c-.26-.275.159-.694.419-.418 1.29 1.385 3.433 2.361 3.805 4.393.392 2.165-1.438 3.779-2.956 4.978-.297.233-.716-.18-.419-.42 1.571-1.236 3.645-3.045 2.489-5.285-.706-1.363-2.314-2.143-3.338-3.247z" fill="#D1724E"/><path d="M199.195 47.028c3.014-.053 3.969-2.293 4.383-4.697a45.21 45.21 0 01-9.838 1.29c1.289 1.878 3.051 3.45 5.455 3.407z" fill="#FAF7F5"/><path d="M209.877 133.579c.318-.801.833-1.905 1.491-2.807.509-.695 1.109-1.279 1.778-1.512.445-.159.944-.191 1.448-.144 2.07-.297 4.389.871 6.028 2.219 2.017 1.655 3.593 3.815 4.919 6.128.775 1.332 1.465 2.712 2.107 4.076a59.87 59.87 0 011.581 3.65c2.791 7.079 4.293 14.789 3.842 22.425-.202 3.301-1.226 7.259-4.659 8.379-3.582 1.167-6.543-2.393-8.517-4.94-5.104-6.612-8.14-14.683-9.753-22.924-.159-.817-.329-1.671-.488-2.531-.738-3.985-1.263-8.32.223-12.019z" fill="#1F3044"/><path d="M183.207 327.522c.552-2.308 3.285-2.956 5.837-3.014 1.3-.032 2.547.09 3.449.218 1.842.26 3.741.727 5.535 1.374.706.255 1.396.536 2.064.849.908.424 1.714.971 2.33 1.656 2.112 1.512 3.205 4.722.514 6.341-1.57.939-3.804.965-5.656.806a18.935 18.935 0 01-.584-.058c-2.377-.26-4.691-.95-6.941-1.703a22.507 22.507 0 01-2.159-.834c-2.468-1.103-5.047-2.913-4.389-5.635z" fill="#404459"/><path d="M166.051 351.947a.099.099 0 01.022-.037c.005-.016.021-.032.031-.047.08-.107.175-.213.298-.335l.005-.005c2.027-2.08 9.01-6.124 11.939-7.816a29.6 29.6 0 003.216-2.107c.17-.133.334-.26.499-.398a17.324 17.324 0 002.913-2.929c.117-.149.233-.303.339-.462a14.538 14.538 0 001.826-3.38c.074-.18.143-.361.201-.541.091-.244.176-.483.25-.727.902-2.807 1.204-5.731 1.449-8.655 1.3-.026 2.552.09 3.454.218 1.836.26 3.736.727 5.529 1.374-.424 2.08-.727 4.182-.806 6.283l-.016.546v.043c-.022.934.016 1.862.074 2.786.106 1.671.302 3.337.462 5.004.069.679.127 1.374.127 2.069 0 .292-.011.584-.032.87-.005.096-.016.191-.026.287a6.998 6.998 0 01-.409 1.724c-1.454 3.8-5.534 2.999-8.602 3.97-1.416.445-1.873 1.273-2.382 2.563-.292.732-.695 1.379-1.279 1.931-1.39 1.295-3.327 1.926-5.094 2.388-3.842 1.013-8.644 1.263-12.231-.302-1.136-.489-2.531-3.126-1.757-4.315z" fill="#fff"/><path d="M185.272 120.982c-.058 5.179.86 10.783 4.611 14.651 3.693 3.81 9.605 4.627 14.667 4.065 5.19-.573 9.79-3.004 12.581-7.509 2.93-4.728 3.55-10.326 3.911-15.781-5.2-4.155-11.647-6.649-18.286-7.402-5.608-.637-11.228-.064-16.662 1.321-.615 3.523-.785 7.164-.822 10.655z" fill="#463C84"/><path d="M187.325 132.63c.207-.233.44-.371.695-.425-.106-.191-.218-.371-.313-.562-.329-.711-.425-1.687.255-2.255.657-.547 1.406-.228 2.101.117a1.45 1.45 0 01-.059-.446c.011-1.109 1.078-1.39 2.001-1.125.775.223 1.486.727 2.223 1.045.197.09.388.165.589.244-.514-.546-.727-1.098.059-1.539 1.485-.833 3.852 1.237 6.707 2.712 2.701 1.396 5.922 2.176 6.511 2.234 2.17.223-2.542-3.216-.393-2.839 1.268.223 2.51.488 3.667.987.6.26 1.178.584 1.73 1.008 1.31 1.009 2.324 2.319 3.513 3.449 1.857 1.757 3.958 2.335 6.473 2.452.796.037 1.624-.069 2.452-.218.775 1.332 1.465 2.712 2.107 4.076a60.253 60.253 0 011.581 3.651c-4.404.96-18.419.652-19.581.408-5.264-1.13-13.255-3.279-16.513-5.19-1.836-1.071-3.587-2.377-4.887-4.075-.679-.902-1.9-2.6-.918-3.709z" fill="#FEA679"/><path d="M196.129 39.492a4.395 4.395 0 012.228-1.767c.351-.127.499.43.154.557a3.756 3.756 0 00-1.883 1.502c-.202.313-.701.021-.499-.292z" fill="#D1724E"/><path d="M201.848 125.461c1.056.048 2.181.393 3.221.589 1.396.265 2.802.504 4.113 1.077 1.868.817 3.38 2.144 4.558 3.794 1.587 2.223 3.083 4.33 5.137 6.156.233.206-.016.52-.266.472-.424.467-1.172.499-1.74.769-.786.372-1.406.748-2.293.849-1.836.202-3.762-.552-5.099-1.793-1.719-1.598-2.271-3.975-3.518-5.89-.87-1.332-1.815-2.282-3.301-2.871-.753-.303-1.645-.557-2.122-1.268-.733-1.088.191-1.937 1.31-1.884z" fill="#FEA679"/><path d="M195.083 129.42c.828 1.31 2.516 2.117 3.879 2.764 1.433.685 2.929 1.215 4.426 1.746.345.122.196.679-.154.557-2.802-.997-6.962-2.112-8.649-4.781-.202-.308.297-.6.498-.286zm-4.542-.313a21.024 21.024 0 0011.085 7.031c.361.09.207.647-.153.557a21.514 21.514 0 01-11.34-7.18c-.234-.286.17-.695.408-.408zm-1.932 2.731c2.133 3.837 6.803 6.14 10.926 7.074.361.079.207.636-.154.557-4.261-.966-9.068-3.38-11.271-7.339-.18-.324.319-.615.499-.292z" fill="#D1724E"/><path d="M189.766 223.937c1.119-10.411 1.952-20.892 1.119-31.356-.031-.371.547-.366.579 0 .833 10.464 0 20.945-1.12 31.356-1.098 10.204-2.282 20.397-3.433 30.591-.043.366-.621.371-.578 0 1.151-10.199 2.34-20.393 3.433-30.591zm21.327 76.321c.801-3.263 1.608-6.527 2.409-9.79.801-3.253 1.433-6.437 1.342-9.806-.159-6.039-1.703-12.056-.334-18.058.085-.361.637-.207.557.154-1.438 6.293.388 12.619.366 18.954-.01 2.951-.605 5.774-1.305 8.628-.822 3.359-1.65 6.713-2.478 10.067-.09.366-.647.212-.557-.149z" fill="#404459"/><path d="M204.952 299.707c.271-.25.679.154.409.408-6.617 6.092-8.124 15.256-9.09 23.768-.042.366-.621.371-.578 0 .981-8.671 2.52-17.978 9.259-24.176zM172.657 86.099a60.163 60.163 0 013.359-13.436c.913-2.41 2.112-4.744 3.901-6.548 3.268-.541 6.325-.722 8.431-.711-3.417 2.786-5.248 7.147-6.463 11.345-1.793 6.203-2.934 12.65-4.112 18.997a400.365 400.365 0 00-2.038 12.024c-.838-2.462-1.703-4.919-2.356-7.44-1.199-4.664-1.348-9.466-.722-14.231zm-21.898 60.254a1378.101 1378.101 0 009.843-50.798c.064-.367.621-.213.557.154a1365.199 1365.199 0 01-9.843 50.797c-.08.361-.637.207-.557-.153z" fill="#1F3044"/><path d="M175.232 39.413c-.345-5.152-.499-11.42 1.958-16.131 1.178-2.266 3.789-3.667 6.118-4.479 2.982-1.04 6.023-.547 9.032.08a11.75 11.75 0 00-.027-.404v-.005c-.207-.085-.249-.456.032-.547 4.16-1.374 8.575-.02 12.454 1.635 3.258 1.39 6.437 3.523 7.625 7.036.637 1.895.674 7.19-2.679 5.949-1.539-.568-2.685-2.447-3.561-3.752-.573-.854-1.024-1.762-1.539-2.648-.7-1.215-1.746-1.724-3.093-1.953-2.192-.371-4.484-.355-6.389-1.666-1.396-.96-2.287-2.473-2.187-4.181l-.111.032a.219.219 0 01.027.1c.127 1.879.222 4.102-1.083 5.63-.594.696-1.406 1.099-2.207 1.507-.436.223-.881.43-1.279.712-1.072.758-1.184 1.835-1.12 3.077.106 2.16-.552 4.028-2.515 5.147-1.39.791-2.728 1.22-3.242 2.914-.218.71-.25 1.432-.271 2.16a5.316 5.316 0 001.735 2.96c1.534 1.332 3.227 1.751 3.577 3.985.143.902.048 1.82.132 2.728.122 1.321.138 6.718-.939 7.588-2.812 2.26-6.521-2.393-7.646-4.6-1.438-2.818-1.714-5.928-1.486-9.016-.95-.96-1.226-2.5-1.316-3.858z" fill="#A04416"/><path d="M180.905 35.688c1.65-1.943 4.41-.892 5.673.902.106.148.021.286-.107.35.292.589.489 1.247.658 1.788.361 1.157.913 3.179.531 4.383-.292.923-1.486 1.077-2.329.998-1.316-.128-2.452-.977-3.359-1.884-1.677-1.693-2.829-4.468-1.067-6.538z" fill="#FEA679"/><path d="M182.427 36.649c.976-.388 1.963-.18 2.738.514.117.107.106.303 0 .41-1.427 1.421-.615 3.761 1.422 3.926.366.026.372.605 0 .578-2.414-.19-3.534-2.855-2.037-4.67-.589-.419-1.269-.472-1.964-.201-.35.138-.499-.42-.159-.557z" fill="#D1724E"/><path d="M202.952 25.924c1.831-.005 2.197 1.04 2.208 1.125.281.573.164 1.294-.451 1.586-.345.165-.754.101-1.12.09-.716-.026-1.353.107-2.059.197-.716.095-1.427-.138-1.698-.876-.658-1.825 1.842-2.18 3.12-2.122zm-10.05.392c1.911-.005 2.293 1.083 2.303 1.173.292.6.175 1.348-.472 1.655-.361.176-.785.107-1.167.09-.749-.026-1.412.112-2.149.208-.749.1-1.492-.144-1.773-.918-.684-1.9 1.921-2.271 3.258-2.208z" fill="#A04416"/><path d="M168.232 68.47c1.449-.843 2.521-2.164 2.977-3.788.255-.892.218-1.698.159-2.6-.021-.319-.106-.595.059-.892.164-.291.435-.382.727-.488.912-.324 1.565-.408 2.244-1.236 1.385-1.672 1.088-3.975.833-5.97-.021-.16.149-.281.287-.287 2.494-.132 4.855-.6 5.503-3.406.53-2.292.286-4.871-.123-7.158-.063-.361.494-.52.558-.154.488 2.748 1.103 6.898-.674 9.339-.727.998-1.857 1.496-3.041 1.73-.626.122-1.592-.022-1.868.483-.138.254.112 1.087.128 1.374a9.46 9.46 0 01-.043 1.64c-.154 1.22-.61 2.387-1.533 3.236a3.659 3.659 0 01-1.29.78c-.546.181-1.019.022-1.215.86-.037.17.064.488.08.669.175 2.61-1.253 5.073-3.487 6.373-.307.18-.599-.313-.281-.504zm39.486-46.627c1.693.457 3.131 1.523 3.98 3.078.361.658.562 1.358.684 2.09.107.659.08 1.338.377 1.953.287.6.796 1.051 1.215 1.55a6.59 6.59 0 01-.127 8.617c-.249.276-.653-.132-.409-.408a6.009 6.009 0 001.465-4.803c-.228-1.73-1.199-2.669-2.192-3.995-.88-1.178-.652-2.309-1.061-3.651-.589-1.942-2.144-3.359-4.08-3.884-.367-.09-.213-.648.148-.547zm-28.194 4.144c.207-.281.615-.578.738-.88.212-.51-.069-.818-.255-1.269a4.006 4.006 0 01-.281-1.746c.063-1.305.695-2.403 1.714-3.189.291-.228.583.276.291.499a3.647 3.647 0 00-1.194 4.17c.255.664.706.988.356 1.667-.292.568-.897 1.008-1.242 1.56-.361.578-.652 1.226-.78 1.9-.403 2.154.934 3.465 2.59 4.531.313.202.021.7-.292.5-1.29-.829-2.515-1.736-2.855-3.317-.34-1.582.271-3.168 1.21-4.426z" fill="#7D340F"/><path d="M230.11 176.025a45.697 45.697 0 0021.401-8.808c.281-.213.547.26.276.467a46.047 46.047 0 01-21.533 8.861c-.34.048-.488-.472-.144-.52zm-2.764-51.508c4.239-2.272 9.116-1.874 13.563-.457 4.102 1.306 8.373 3.142 11.032 6.67.212.276-.26.547-.467.276-2.569-3.401-6.761-5.163-10.708-6.421-4.309-1.374-9.037-1.798-13.15.404-.307.164-.578-.308-.27-.472z" fill="#1F3044"/><path d="M166.051 351.948c1.852 1.061 4.006 1.586 6.182 1.767 3.327.281 7.121.175 10.167-1.332 1.523-.754 2.547-1.905 3.709-3.11 1.459-1.507 3.232-2.653 5.238-3.29 1.979-.626 4.43-.568 6.367-1.39.037-.202.069-.403.09-.605-2.212 1.157-5.386.945-7.598 1.852a13.015 13.015 0 00-3.386 2.038c-1.284 1.072-2.239 2.494-3.635 3.438a9.192 9.192 0 01-1.04.605.253.253 0 00-.042-.074c-1.688-2.208-.775-5.015.939-6.893 1.475-1.619 3.465-2.595 5.025-4.113 2.457-2.398 4.808-9.891 9.133-7.869v-.042l.015-.547c-2.287-.976-4.022.419-5.513 2.367a9.87 9.87 0 00-4.362-.86c-.058.18-.127.361-.201.541a9.293 9.293 0 014.239.754c-.96 1.337-1.82 2.855-2.663 4.038a11.883 11.883 0 00-3.402-1.412c-.106.16-.223.314-.339.462 1.194.265 2.334.727 3.422 1.38a7.93 7.93 0 01-.706.812c-.849.827-1.814 1.507-2.754 2.207-.742-.706-1.825-1.13-2.876-1.47-.164.138-.329.266-.498.398 1.05.329 2.196.727 2.939 1.396-1.141.865-2.212 1.799-2.971 3.099-1.083 1.862-1.237 4.255.117 6.017.01.011.021.016.031.027-2.6 1.141-5.688 1.22-8.447 1.109-2.388-.101-4.792-.573-6.83-1.72a3.2 3.2 0 00-.297.335c-.01.016-.026.032-.032.047a.094.094 0 00-.021.038z" fill="#BABCBF"/><path d="M91.061 68.995c1.29-1.746 3.571-1.788 5.524-1.486 1.948.302 3.953.817 5.338 2.234.122-2.229.807-4.394 2.091-6.246 1.199-1.724 3.03-2.414 5.275-2.42 2.35-.005 4.563.675 6.33 2.044 1.714 1.326 3.2 2.918 3.773 5.025.939-.76 2.239-.844 3.364-.319 1.576.738 2.277 2.436 2.643 4.044 3.231 1.109 5.619 3.852 6.32 7.232.599 2.892.106 6.623-2.335 8.544 1.236 2.165 1.809 5.1.849 7.418-.95 2.287-3.423 2.892-5.646 3.242.424 3.439-3.158 5.445-6.097 6.124-1.29.297-1.046-.738-1.083-1.826-.032-.992-.048-1.99-.053-2.982-1.024.303-2.106.414-3.173.377-3.9-.149-7.222-2.282-10.231-4.585a1058.105 1058.105 0 00-5.534-4.229c-1.571-1.189-3.1-2.505-4.113-4.219-1.523-2.578-1.523-6.065.982-7.943-2.977-2.202-7.095-6.15-4.224-10.03z" fill="#1F3044"/><path d="M132.456 335.995a87.359 87.359 0 00-2.16-7.986c1.316-.536 2.722-.892 4.097-1.205 1.294-.291 4.059-.891 6.595-1.305.096 2.643.287 5.275.552 7.901.377 3.8.918 7.588 1.619 11.351a.288.288 0 01-.25.329c-2.86.307-5.699.705-8.527 1.188a.3.3 0 01-.334-.255 82.47 82.47 0 00-1.592-10.018z" fill="#FEA679"/><path d="M121.949 357.603c.006-.022.027-.048.043-.069.149-.685 3.932-5.296 5.365-7.286.18-.25.323-.456.419-.61l.026-.043c.393-.631.908-1.422 1.428-2.372.101-.18.196-.366.292-.557a17.31 17.31 0 00.865-1.931c.074-.191.148-.388.212-.589.456-1.354.791-2.892.838-4.617.345-.695.886-1.258 1.751-1.603 1.375-.567 3.2-.673 4.49.17.801.526 1.326 1.295 1.682 2.149.085-1.172.467-2.297 1.47-2.754.509-.228 1.3.149 1.289.112-.064-.313 1.205 2.106 1.311 2.43.95 2.303 2.287 4.67 2.462 7.058.016.249.021.504.005.748a5.702 5.702 0 01-.265 1.586c-.499 1.56-1.778 2.319-3.237 2.839-1.003.361-2.064.584-2.998 1.125-.764.451-1.189.955-1.428 1.582.101 2.17-.61 4.308-2.143 5.895-1.927 1.984-3.954 2.717-6.591 3.152-2.091.34-5.211.568-6.601-1.385a5.953 5.953 0 01-.998-2.287c-.138-.839-.058-1.751.313-2.743z" fill="#7464DC"/><path d="M102.48 102.823c-.324-.616-1.146-1.794-.7-2.542.466-.79 2.085-.79 2.817-.96a131.23 131.23 0 005.158-1.327 133.638 133.638 0 009.843-3.179c.064-.201.117-.403.186-.605.117-.355.695-.254.578.107-.053.164-.1.329-.153.493.1.143.095.377-.122.451-.006.005-.016.005-.022.005-3.629 8.103-1.724 14.221-.737 21.9.016.143-1.311 1.252-1.465 1.247a98.119 98.119 0 00-12.979.302c-.197.016-.34-.159-.313-.35.477-3.46.96-7.047.154-10.496-.441-1.847-1.364-3.386-2.245-5.046z" fill="#FEA679"/><path d="M60.767 246.105c2.165-10.814 4.83-21.538 7.275-32.284 1.274-5.592 2.32-11.313 3.943-16.81.637-2.149 1.438-4.277 2.627-6.161a14.494 14.494 0 011.9-2.414c.578-.584 1.485-1.173 2.016-1.916-.297-.26-.584-.53-.881-.79-.281-.245.122-.658.398-.42.26.223.51.462.764.69.106-.276.16-.568.122-.891-.042-.377.52-.372.563 0 .058.499-.043.923-.234 1.3.456.403.913.806 1.359 1.22 1.146.451 2.393.706 3.55 1.014 1.666.44 3.343.849 5.02 1.226a136.18 136.18 0 009.885 1.846c6.102.908 12.258 1.39 18.419 1.481-.765-2.224-1.523-4.452-2.287-6.676-.123-.355.424-.509.541-.159l2.34 6.84c.488.005.976.011 1.47.011.361 0 .361.589 0 .589-.425 0-.844-.006-1.268-.011 2.913 8.511 6.404 4.516 9.318 13.027 3.613 10.56 3.847 30.082 6.208 41.045 1.151 5.343 4.855 14.274 5.179 19.734.35 5.859.658 11.653 1.794 17.421 1.066 5.423 2.578 10.735 4.075 16.041 1.433 5.063 3.391 10.401 3.433 15.739.096 11.005-11.547 17.93-20.53 20.09a.281.281 0 01-.319-.138c-20.668-33.091-30.495-78.773-31.291-82.291-.271 3.401-4.973 24.802-4.638 33.456.329 8.549.196 16.875-1.141 25.333-.658 4.15-1.496 8.262-2.42 12.353-.854 3.81-1.385 9.472-2.685 13.144-1.199 3.386-3.985 2.462-7.126 2.897-4.712.653-6.957-.111-11.669.547-.111.016-3.22-.605-3.242-.722-3.906-21.491-4.118-41.49-4.447-63.31-.143-10.804-.143-21.427 1.98-32.051z" fill="#fff" stroke="#000" stroke-width=".364"/><path d="M72.383 202.002h0v-.006l.478-4.616.865-8.373.167-1.634c.238-2.326.475-4.649.772-6.969h0l.12-.977c.273-2.223.552-4.503 1.23-6.599v-.001c.517-1.601 1.435-2.937 3.083-3.355h0c1.17-.298 2.469-.335 3.787-.278.658.029 1.319.081 1.97.135l.233.019c.57.047 1.13.094 1.67.124 5.709.324 11.418.685 17.121 1.093h0c2.907.207 5.814.43 8.721.685h0c1.188.1 2.376.212 3.565.323h0c.246.023.51.035.776.047l.019.001c.262.012.527.024.79.046.54.045 1.05.132 1.467.334v.001c.285.137.478.302.598.5.12.197.18.444.17.763-.023.686-.188 1.414-.385 2.156-.052.194-.106.389-.16.585a21.578 21.578 0 00-.402 1.608h0c-.601 3.116-1.01 6.269-1.297 9.426l-45.358 14.962zm0 0c-.013.13-.038.279-.064.433l-.01.062c-.03.178-.059.362-.075.544-.034.373-.01.691.13.9l.001.001c.18.276.563.443 1.037.555.23.055.47.095.7.13l.084.013c.195.031.383.06.54.095h0c1.27.286 2.54.535 3.822.757l-.031.179m-6.134-3.669l6.134 3.669m38.618-9.113h0c-.027.644-.069 1.3-.11 1.964-.155 2.475-.317 5.052.178 7.472l.032.156.159-.011a15.73 15.73 0 012.675.021c.042.004.05.018.051.021h.001c.005.01.012.034.003.071-.018.078-.079.126-.151.119a15.073 15.073 0 00-2.557-.016l-.106.007-.046.096a.148.148 0 01-.111.078.08.08 0 01-.045-.005c-.006-.003-.015-.009-.023-.027l-.054-.119-.129.012c-1.212.116-2.426.332-3.635.546-.736.131-1.47.261-2.201.368h0c-2.797.412-5.629.46-8.457.37-5.35-.175-10.726-.578-16.05-1.114m30.576-10.009l-30.595 10.19m30.595-10.19c.138-3.175.314-6.351.606-9.518l-.606 9.518zm-30.577 10.009l-.018.181m.018-.181s0 0 0 0l-.018.181m.018-.181c-2.681-.27-5.357-.614-8.01-1.075l-.031.179m8.023 1.077c-2.685-.27-5.365-.615-8.023-1.077" fill="#fff" stroke="#000" stroke-width=".364"/><path d="M110.588 172.883c.101-10.039.287-20.137 1.327-30.129.552-5.323 1.396-10.629 2.754-15.813.653-2.473 1.634-9.18 2.356-9.154 6.824.244 12.359 1.444 16.423 2.696 11.075 3.422 17.119 10.957 20.865 18.609 1.592 3.232 2.765 6.49 3.741 9.462.541 1.645 1.104 4.043 1.64 6.707 1.597 7.896 2.982 18.148 2.86 18.169-6.739 1.157-9.154 2.557-15.919 1.921a330.737 330.737 0 011.544 30.75 304.56 304.56 0 01-.181 12.279 324.131 324.131 0 01-.928 16.211c-.011.143-.128.308-.292.292-9.594-.939-19.013-3.269-27.906-6.983-1.767-.738-4.044-1.38-5.487-2.669-1.401-1.253-1.178-3.556-1.3-5.259a560.739 560.739 0 01-1.497-47.089z" fill="#FAF3ED"/><path d="M108.259 186.594a20.989 20.989 0 001.862-5.736c.027-.159.223-.244.361-.207 8.931 2.292 18.264 2.812 27.391 1.459a67.827 67.827 0 006.607-1.316c1.645-.414 3.624-1.422 5.338-1.332 1.491.075 1.788 1.295 2.446 2.409 1.104 1.868 2.802 3.248 4.787 4.086.085.037.127.09.143.154a.274.274 0 01.111.218c.191 4.165-2.727 7.572-6.367 9.222-4.272 1.932-9.403 2.048-13.999 1.656-10.214-.871-19.771-5.222-28.58-10.22-.138-.069-.169-.25-.1-.393z" fill="#FEA679"/><path d="M140.303 142.706c3.142-2.117 7.636-1.22 9.934 1.672.679-2.234 2.181-4.15 4.075-5.285 1.592 3.231 2.765 6.489 3.741 9.461.541 1.645 1.104 4.043 1.64 6.707-7.429-2.271-15.516-2.276-22.987.165-.165.058-.329-.09-.335-.255-.106-4.272-.037-9.795 3.932-12.465z" fill="#DCDAF1"/><path d="M61.971 193.944c.053-1.895.112-3.789.18-5.683.192-5.259.441-10.523.701-15.781-1.433-.223-4.017-39.252 3.1-45.704 7.81-7.084 6.128-7.626 16.465-8.995 6.484-.859 14.666-1.273 21.13-.313.297.043.254.409.037.531.127.101.186.281.032.425-11.101 10.103-14.763 25.391-17.591 39.548-3.486 17.431-5.821 35.075-7.063 52.809-.27 3.842-.674 7.625-3.359 10.613-1.448 1.613-3.236 2.908-4.935 4.255l-5.805 4.596a.362.362 0 01-.254.069c-.112-.006-.213-.069-.24-.202-1.655-7.906-2.323-15.951-2.483-24.017-.063-3.343-.042-6.686.032-10.023.016-.711.032-1.417.053-2.128z" fill="#FAF3ED"/><path d="M61.918 196.072a675.203 675.203 0 01.233-7.811c1.704-.106 3.333.34 4.474 1.576 3.29 3.566 3.173 9.392.716 13.362 1.614-.08 3.025.949 3.699 2.446 1.061 2.351.552 5.391-.388 7.694-.53 1.295-1.316 2.468-1.878 3.746-.382.876-.234 1.253.318 1.921.282.335.494.642.621 1.072.6 2.059-.796 4.362-1.81 6.044-.838 1.396-1.894 3.126-3.294 4.192a.242.242 0 01-.24-.201c-1.655-7.907-2.324-15.951-2.483-24.017a244.48 244.48 0 01.032-10.024z" fill="#DCDAF1"/><path d="M134.276 168.362c.091-.015.192-.026.287-.047a.308.308 0 01.467-.08c1.353-.223 2.712-.424 4.065-.594a80.45 80.45 0 011.607-.175c.425-.043.85-.08 1.274-.112 2.786-.217 5.598-.244 8.4.016 1.295.122 2.59.292 3.868.536.558.112 1.115.228 1.667.372.467.111.928.238 1.39.371.244.064.477.133.716.212 1.64.52 3.593 1.311 4.251 3.046 1.061 2.791-1.12 4.378-3.603 5.269-.436.154-.876.287-1.316.404a20.67 20.67 0 01-1.269.302c-.605.122-1.167.212-1.629.276a75.844 75.844 0 01-8.209.642c-.435.011-.865.021-1.31.037-.871.021-1.762.037-2.643-.026-.026 0-.064-.006-.09-.006-1.199-.079-2.383-.276-3.481-.721-3.508-1.444-5.322-5.561-4.367-9.148-.303-.011-.425-.51-.075-.574z" fill="#1F3044"/><path d="M54.431 171.084c.78-4.712 6.713-13.17 7.17-13.058 2.477.689 2.557 1.151 4.85 2.233 1.702.807 3.528 1.783 5.152 2.977a34.104 34.104 0 00.308 2.075c.127-.053.296-.016.355.17 1.714 5.2 4.213 9.78 7.259 14.126.913 1.3 2.478 2.828 1.815 4.579-.653 1.725-2.017 3.242-3.354 4.309-3.338 2.674-11.382 2.589-13.383 2.589-3.953 0-8.718-2.823-10.437-7.232-1.688-4.346-.467-8.326.265-12.768zm87.37-3.725c2.786-.217 5.598-.244 8.4.016 1.295.122 2.589.292 3.868.536a30.05 30.05 0 011.666.371 104.811 104.811 0 011.338 8.454c.037.281.069.567.095.843.234 2.064.393 4.15.398 6.198.011 3.147-.552 6.5-2.786 8.724-1.406 1.411-3.544 2.239-5.343 1.188-1.279-.743-2.096-2.149-2.685-3.534-1.311-3.056-3.492-5.635-4.325-8.872-.053-.207-.159-1.146-.318-2.473-.361-3.152-.972-8.463-1.592-11.334.435-.048.854-.085 1.284-.117z" fill="#FEA679"/><path d="M116.439 113.03c-9-.208-45.322-1.032-55.467-1.005-.605 8.122-1.368 38.734-1.829 57.194-.162 6.526-.287 11.533-.354 13.491 2.19.189 14.434.951 26.915 1.727l1.197.074c12.168.756 24.258 1.507 27.152 1.733v-.015l.021-.631.077-2.343.272-8.345.825-25.293.823-25.281.271-8.33.076-2.334.02-.615.001-.027z" fill="#fff" stroke="#000" stroke-width=".364"/><path d="M114.363 186.268l-.178-.009-.008.162c.008-.179.025-1.189.054-2.848.11-6.423.388-22.578.906-37.912.311-9.403.787-18.499 1.119-24.854.19-3.639.334-6.379.372-7.762l.181.049m-2.446 73.174c.01-.385.026-1.334.05-2.737.041-2.346.103-5.962.19-10.344.154-7.7.386-17.775.715-27.519v-.001c.25-7.52.604-14.844.906-20.726.075-1.47.147-2.85.214-4.121.188-3.602.33-6.326.371-7.726m-2.446 73.174l-.005.182c6.822.325 13.321-.562 19.049-1.343 3.524-.481 6.757-.922 9.593-1.017m-28.637 2.178c5.465.26 10.725-.259 15.553-.878 1.179-.152 2.333-.309 3.459-.463 3.459-.472 6.648-.907 9.455-1.013m-26.021-70.82c4.726 1.31 13.872 4.555 23.384 7.93 1.608.571 3.226 1.145 4.835 1.714m-28.219-9.644l.005-.187c4.721 1.304 13.902 4.562 23.441 7.946l4.958 1.758m-.185.127c-.107 3.969-1.717 54.132-2.198 61.176m2.198-61.176l.124.044.061-.171m-.185.127l.003-.132.182.005m0 0c-.069 2.801-1.74 55-2.213 61.479m0 0l-.006-.182-.164.006m.17.176l-.181-.013.011-.163m-5.939-56.657h-.001l-10.478-3.411-.001-.001a.923.923 0 01-.642-.884v-1.826a.93.93 0 011.221-.883l10.479 3.406h0a.93.93 0 01.64.884v1.831a.932.932 0 01-1.218.884z" fill="#fff" stroke="#000" stroke-width=".364"/><path d="M97.301 85.174c.494-3.783.886-8.687 3.577-11.674 4.876-5.412 13.218-5.588 19.564-2.07 3.518 1.953 6.453 5.2 7.567 8.942.674 2.255.197 4.447-.499 6.654a64.625 64.625 0 01-.658 1.984c-1.209 6.825-5.598 13.5-12.225 16.753-3.519 1.73-7.875 2.197-11.377.27-3.062-1.682-4.957-4.765-5.991-7.869-1.385-4.165-.52-8.66.042-12.99z" fill="#FEA679"/><path d="M111.984 84.054c-.366 1.38-.09 2.648.627 2.839.711.19 1.591-.775 1.958-2.155.366-1.38.09-2.647-.627-2.839-.711-.185-1.586.775-1.958 2.155zm-9.7-1.332c-.366 1.38-.09 2.648.626 2.84.711.19 1.592-.775 1.958-2.155.366-1.38.09-2.648-.626-2.839-.717-.191-1.592.775-1.958 2.154z" fill="#1F3044"/><path d="M104.513 85.115c.801-1.453 3.178-2.207 4.542-2.945.334-.18.632.33.297.51-1.13.615-2.329 1.172-3.412 1.862-1.841 1.178-.987 3.02-.042 4.484.207.319-.303.616-.51.297-.785-1.21-1.671-2.764-.875-4.208zm3.056 2.59c.69.382 1.252.94 1.634 1.63.186.333-.323.63-.509.296a3.579 3.579 0 00-1.422-1.416c-.335-.18-.037-.69.297-.51z" fill="#D1724E"/><path d="M106.355 95.495c1.475.16 3.162 0 4.303-1.05.483-.446.849-1.003 1.167-1.587-3.194-.106-6.373-.425-9.397-1.475.35 2.075 1.348 3.836 3.927 4.112z" fill="#FAF7F5"/><path d="M103.17 179.861c.234-1.353 1.518-2.223 2.468-1.709.026-.36.069-.716.133-1.077.371-1.99 2.456-3.003 3.565-1.507.255-.626.648-1.114 1.258-1.305 1.39-.441 2.001 1.279 2.229 2.478.09-.09.196-.17.329-.228.817-.361 1.501.318 1.915.944.621.94.998 2.054 1.306 3.168.138-.037.291-.063.467-.058.615.021 1.045.462 1.347.939.425.674.457 1.65.802 2.367.504 1.056 1.268 1.841 2.218 2.499.228.159.249.419.079.626-1.48 1.836-3.152 5.036-9.323 5.025-2.229-.005-5.216-2.356-6.214-4.266-1.687-2.192-3.051-5.19-2.579-7.896zm-39.617-5.827c.71-1.56 1.99-1.305 2.594-.217.165-.77.425-1.491.87-2.017.977-1.14 1.98-.636 2.617.271.143-.462.329-.886.589-1.231.626-.822 1.655-1.093 2.499-.419.796.637.876 1.608.796 2.573.34-.169.764-.169 1.295.08 1.194.557.992 2.414 1.019 3.449.074 2.828.175 6.405 3.29 7.615.015.005.026.021.047.026.154.043.303.091.457.133.302.09.355.43.17.653-3.768 4.675-13.4 3.401-15.91-2.027-1.114-2.425-1.464-6.416-.333-8.889z" fill="#FEA679"/><path d="M65.58 174.586c.026-.366.6-.371.578 0-.26 3.858-.17 8.029 2.76 10.926.265.26-.144.669-.409.409-3.04-3.009-3.205-7.318-2.93-11.335zm3.767-1.592c.096-.361.648-.207.557.154a13.54 13.54 0 001.3 10.098c.18.324-.318.616-.498.292a14.115 14.115 0 01-1.359-10.544zm3.736.355c.111-.355.669-.201.557.154-1.183 3.778-.594 7.795 1.619 11.085.207.308-.292.6-.5.292a13.418 13.418 0 01-1.676-11.531zm42.95 7.642c.069-.366.621-.212.557.154-.435 2.372.398 4.68 2.218 6.256.281.244-.127.653-.409.409-1.979-1.714-2.844-4.256-2.366-6.819zm-3.524-3.821c.048-.361.621-.366.578 0a15.6 15.6 0 002.548 10.756c.207.308-.292.6-.499.292a16.068 16.068 0 01-2.627-11.048zm-3.264-1.082c.053-.366.605-.212.557.154a19.852 19.852 0 002.213 12.236c.175.329-.324.621-.499.292-2.112-3.911-2.886-8.283-2.271-12.682zm-2.827 2.382a19.733 19.733 0 002.818 10.815c.191.318-.308.61-.499.292a20.278 20.278 0 01-2.897-11.101c.01-.377.589-.377.578-.006z" fill="#D1724E"/><path d="M88.402 224.19c.711 4.372 1.65 8.697 2.828 12.958.085.329.18.653.271.976a120.097 120.097 0 004.808 13.701c.143.335.7.186.557-.154a119.647 119.647 0 01-5.03-14.507 21.822 21.822 0 01-.266-.966 119.935 119.935 0 01-2.605-12.157c-.07-.371-.621-.212-.563.149z" fill="#1F3044"/><path d="M78.888 343.828c-.01.371.568.371.579 0 .281-8.533.727-17.06 1.364-25.566.302-3.953.647-7.901 1.183-11.828.515-3.73 1.268-7.424 1.815-11.149 1.072-7.323.647-14.688.981-22.048.536-11.96 2.818-23.799 6.692-35.107.111-.323.217-.642.334-.966a21.78 21.78 0 01-.265-.965c-.122.318-.228.636-.34.95a125.82 125.82 0 00-4.77 17.489 127.091 127.091 0 00-2.309 20.722c-.106 3.789-.031 7.588-.159 11.377-.127 3.953-.589 7.832-1.257 11.727-2.574 14.985-3.349 30.177-3.848 45.364z" fill="#1F3044"/><path d="M66.031 337.433a12.372 12.372 0 012.441-.673c1.396-.245 2.85-.298 4.256-.308 1.327-.011 4.16-.006 6.723.127 2.34.117 4.463.35 5.041.754 1.11.79 1.518 2.069.918 3.29-.71 1.469-2.504 2.207-3.958 2.796a23.08 23.08 0 01-3.152.998 25.09 25.09 0 01-2.58.472c-2.185.286-4.403.318-6.605.149a19.99 19.99 0 00-.245-.016c-1.512-.112-3.12-.25-4.303-1.253-2.452-2.069-1.284-5.242 1.465-6.336z" fill="#1F3044"/><path d="M68.886 345.027a87.807 87.807 0 00-.414-8.262c1.395-.244 2.85-.297 4.256-.307 1.326-.011 4.16-.006 6.723.127-.467 2.6-.844 5.216-1.146 7.838a132.66 132.66 0 00-.834 11.435c0 .159-.159.286-.313.27-2.86-.307-5.72-.525-8.585-.652a.298.298 0 01-.271-.319c.414-3.375.6-6.749.584-10.13z" fill="#FEA679"/><path d="M53.264 366.598c.08-.844.35-1.683.695-2.484a.229.229 0 01.063-.207.302.302 0 01.059-.058c.238-.515 3.332-3.03 5.476-4.84.201-.169.392-.334.573-.488.578-.493 1.035-.902 1.279-1.157.53-.551 1.226-1.231 1.958-2.08a19.256 19.256 0 002.229-3.114c.09-.17.18-.34.27-.515a15.74 15.74 0 001.279-3.391c.472-.6 1.125-1.04 2.043-1.194 1.465-.26 3.269.021 4.351 1.125.462.472.775 1.035.971 1.634.096.266.165.542.218.823.095-.313.207-.621.355-.902.361-.732.892-1.311 1.666-1.475.542-.122 1.237.419 1.237.382.005-.324.727 2.313.759 2.658.382 2.133 1.04 4.378.981 6.485a5.403 5.403 0 01-.047.647c-.085.87-.319 1.719-.775 2.515-.817 1.412-2.234 1.884-3.768 2.08-1.06.133-2.149.128-3.173.462-.844.271-1.364.674-1.724 1.242-.367 2.138-1.518 4.075-3.354 5.301-2.303 1.528-5.21 1.618-7.875 1.475-2.117-.106-4.447-.35-5.386-2.553a4.67 4.67 0 01-.376-1.719 6.45 6.45 0 01.016-.652z" fill="#7464DC"/><path d="M138.075 280.274c.138-.34.695-.191.558.154a62.727 62.727 0 00-4.495 27.922c.027.371-.552.371-.578 0a63.042 63.042 0 014.515-28.076zm-16.093-182.36c.594-1.04.626-2.18 1.613-2.998.743-.615 1.608-.759 2.531-.541.361.085.207.642-.154.557-.016-.005-.026-.005-.037-.005a.275.275 0 01-.005.25c-1.242 2.44-2.579 5.125-4.42 7.184-.531.594-3.301 2.717-3.471.764-.069-.78.711-1.82 1.157-2.383.807-1.034 2.144-1.708 2.786-2.828zM99.727 73.102c1.862-1.502 4.292-2.558 6.463-3.535 2.101-.944 4.266-1.804 6.596-1.889 2.393-.084 4.786.552 6.909 1.64 1.305.669 2.998 1.608 3.9 2.934 2.51.69 4.59 3.53 5.587 5.652 1.258 2.685 2.245 7.577-1.114 9.222a3.494 3.494 0 01-2.696.191c-.334.398-.743.711-1.284.802-.992.159-1.862-.5-2.308-1.332-1.04-1.958-.494-4.696.377-6.883-.037-.138-.128-.276-.308-.493-.112-.133-.26-.239-.372-.377-.774-.928-.843-2.07-.668-3.194-.409.1-.828.153-1.268.132a4.777 4.777 0 01-2.112-.605c-.175-.095-.844-.748-1.046-.785-.429-.085-.769.377-1.098.605a23.06 23.06 0 01-12.895 4.028c-1.485.005-3.539-.038-4.181-1.677-.61-1.608.276-3.433 1.518-4.436z" fill="#1F3044"/><path d="M121.313 89.615c.515-1.13 1.528-1.81 2.669-2.027 1.396-.674 3.041-.944 4.139.44 1.125 1.423.552 3.954-.552 5.238-1.146 1.332-3.184 1.82-4.738.908-1.545-.908-2.266-2.908-1.518-4.559z" fill="#FEA679"/><path d="M122.31 92.114c1.746.34 3.285-.928 3.322-2.695.011-.372.584-.372.579 0-.048 2.17-1.932 3.666-4.054 3.252-.361-.069-.207-.626.153-.557z" fill="#D1724E"/><path d="M114.372 77.056c1.157-.059 2.197.148 3.285 1.358.859.96.849 2.882-.881 2.988-.451.026-.844-.106-1.258-.266-.689-.265-1.268-.34-1.99-.435-.727-.095-1.416-.403-1.724-1.109-.722-1.629 1.289-2.473 2.568-2.536zm7.27 283.291c.042.223.09.44.17.652 4.791 1.019 9.976.669 13.239-3.47.855-1.077 1.242-2.229 1.672-3.508.705-2.106 2.526-2.706 4.404-3.518 1.672-.732 3.38-1.523 4.776-2.658.016-.25.01-.504-.006-.748-1.613 1.454-3.751 2.324-5.768 3.221-1.135.504-2.451.987-3.236 2.011-.775 1.008-.871 2.372-1.428 3.497-2.627 5.279-8.602 5.662-13.823 4.521zm-68.388 6.898c.302.111.605.212.923.302 3.444.971 7.35 1.305 10.645-.324a10.983 10.983 0 003.879-3.215c1.252-1.656 2.09-3.678 4.25-4.314 1.746-.52 3.63-.324 5.402-.796.456-.122.907-.276 1.337-.457a6.4 6.4 0 00.048-.647c-.78.345-1.603.6-2.462.753-1.55.276-3.174.149-4.686.658-2.738.918-3.555 3.932-5.519 5.763-3.04 2.823-6.962 3.157-10.878 2.436a15.732 15.732 0 01-2.913-.812c-.026.223-.037.44-.026.653z" fill="#1F3044"/><path d="M67.942 146.808l37.839 1.443.345-16.253-37.845-1.444-.34 16.254zm53.626 68.77c1.639-1.014 3.905-.51 5.672-.138.961.207 1.905.509 2.717 1.008-2.552-4.378-5.71-11.541 1.003-12.608 2.765-.435 5.943.419 8.411 1.64 1.453.716 2.738 1.751 3.624 3.046.048-.796.297-1.555.897-2.197 1.183-1.268 2.902-.977 4.287-.228a306.47 306.47 0 01-.18 12.279c-1.04.222-2.054.551-3.03 1.029-2.117 1.035-3.678 2.807-5.45 4.309-1.539 1.3-3.263 2.271-5.227 2.738a11.84 11.84 0 01-10.612-2.669c-1.895-1.688-5.37-6.209-2.112-8.209z" fill="#DCDAF1"/><path d="M116.999 117.262c.006-.339.536-.329.531.011a2424.316 2424.316 0 01-1.963 57.192c-.016.339-.547.329-.531-.011a2440.566 2440.566 0 001.963-57.192z" fill="#FAF7F5"/><path d="M132.663 350.222a5.613 5.613 0 00-.515-.021c.011-.027.026-.053.037-.074-1.629-.197-3.253-.319-4.829.122.181-.25.324-.457.419-.61l.027-.043c1.518-.313 3.083-.164 4.648.032.393-.716.823-1.412 1.29-2.091a12.745 12.745 0 00-4.511-.313c.101-.18.197-.366.292-.557 1.481-.127 2.977 0 4.458.382a.181.181 0 01.079.037c.085-.117.17-.239.255-.35.477-.653 1.008-1.284 1.533-1.916-1.83-.419-3.672-.493-5.46-.085.074-.191.149-.387.212-.589 1.826-.366 3.704-.254 5.556.197.027.01.043.021.064.032 1.024-1.231 2-2.494 2.589-3.964.122-.313.637-.175.51.138-.855 2.144-2.494 3.794-3.89 5.587-1.013 1.306-1.953 2.659-2.711 4.113a.176.176 0 00-.053-.027zm-73.106 8.787c1.937.133 3.826.456 5.524 1.486.043.154.228.26.393.159a.263.263 0 00.196-.175c1.99-1.921 3.99-3.837 5.975-5.768 1.475-1.433 3.179-4.372 3.083-4.059a5.336 5.336 0 00-.218-.823c-.456 1.539-1.48 2.754-2.605 3.884-.01-.01-.021-.026-.037-.037a11.503 11.503 0 00-6.002-2.022c-.09.176-.18.345-.27.515 2.101.053 4.144.706 5.932 1.916-.323.324-.658.637-.981.95-.568.546-1.136 1.098-1.709 1.65-1.114-1.019-2.908-1.284-4.325-1.666a19.134 19.134 0 00-.759-.191 11.27 11.27 0 01-.387.456 17.6 17.6 0 011.008.244c1.263.345 3.083.621 4.081 1.523-1.03.998-2.059 1.99-3.088 2.988-1.613-.987-3.402-1.354-5.238-1.518-.18.154-.371.318-.573.488z" fill="#1F3044"/></g><defs><clipPath id="clip0_0_1641"><path fill="#fff" transform="matrix(-1 0 0 1 342 0)" d="M0 0h341.051v422H0z"/></clipPath></defs></svg>